<svg width="530" height="500" viewBox="0 0 530 500" fill="none" xmlns="http://www.w3.org/2000/svg">
<rect width="530" height="500" fill="#F98284"/>
<g filter="url(#filter0_d_22_46)">
<path d="M456.517 310.511C459.598 320.428 459.1 327.491 456.782 332.384C454.482 337.237 450.141 340.48 444.393 342.266C438.645 344.052 433.23 343.84 428.586 341.145C423.903 338.428 419.489 332.89 416.408 322.974C413.324 313.049 412.806 302.676 414.509 294.433C416.246 286.024 420.054 280.716 424.809 279.239C429.565 277.761 435.71 279.977 441.907 285.92C447.981 291.746 453.433 300.586 456.517 310.511Z" fill="white" stroke="black" stroke-width="6"/>
</g>
<g filter="url(#filter1_d_22_46)">
<ellipse cx="297.961" cy="394.626" rx="60" ry="5.99994" transform="rotate(30 297.961 394.626)" fill="#DEA38B" stroke="black" stroke-width="3"/>
<ellipse cx="297.211" cy="395.925" rx="36" ry="37.4996" transform="rotate(30 297.211 395.925)" fill="#FFF7E4" stroke="black" stroke-width="6"/>
<path d="M246 364.626C265.882 330.189 305.263 315.704 333.961 332.273C362.658 348.841 369.805 390.189 349.923 424.626" stroke="black" stroke-width="6" stroke-linecap="round"/>
<g filter="url(#filter2_d_22_46)">
<ellipse cx="320.525" cy="355.544" rx="36" ry="29.9997" transform="rotate(30 320.525 355.544)" fill="#FFF7E4" stroke="black" stroke-width="6"/>
<path d="M309.576 378.436C308.112 378.718 306.663 377.881 306.175 376.472L302.909 367.045C302 364.42 304.838 362.076 307.244 363.465L320.306 371.006C322.712 372.395 322.101 376.025 319.373 376.55L309.576 378.436Z" fill="#F98284" stroke="black" stroke-width="3"/>
<ellipse cx="336.314" cy="361.196" rx="12" ry="11.9999" transform="rotate(30 336.314 361.196)" fill="black"/>
<ellipse cx="339.663" cy="361.397" rx="6" ry="5.99994" transform="rotate(30 339.663 361.397)" fill="white"/>
<ellipse cx="307.736" cy="344.696" rx="12" ry="11.9999" transform="rotate(30 307.736 344.696)" fill="black"/>
<ellipse cx="311.084" cy="344.897" rx="6" ry="5.99994" transform="rotate(30 311.084 344.897)" fill="white"/>
<ellipse cx="12" cy="29.9997" rx="12" ry="29.9997" transform="matrix(-0.819153 -0.573576 -0.573577 0.819152 387.836 304.096)" fill="#FFF7E4" stroke="black" stroke-width="6"/>
<ellipse cx="7.5" cy="22.4998" rx="7.5" ry="22.4998" transform="matrix(-0.819153 -0.573576 -0.573577 0.819152 380.155 312.451)" fill="#FFE6C6" stroke="black" stroke-width="3"/>
<ellipse cx="12" cy="29.9997" rx="12" ry="29.9997" transform="matrix(0.906307 0.422619 -0.422617 0.906308 331.425 271.527)" fill="#FFF7E4" stroke="black" stroke-width="6"/>
<ellipse cx="7.5" cy="22.4998" rx="7.5" ry="22.4998" transform="matrix(0.906307 0.422619 -0.422617 0.906308 327.713 283.037)" fill="#FFE6C6" stroke="black" stroke-width="3"/>
<path d="M337.816 377.799C345.076 380.273 348.858 384.174 352.453 391.446" stroke="black" stroke-width="3" stroke-linecap="round"/>
<path d="M335.451 378.477C342.121 382.264 345.106 386.804 347.279 394.62" stroke="black" stroke-width="3" stroke-linecap="round"/>
<path d="M292.3 350.432C286.527 345.381 281.258 344.057 273.162 344.579" stroke="black" stroke-width="3" stroke-linecap="round"/>
<path d="M292.895 352.819C286.281 348.937 280.856 348.621 273.001 350.647" stroke="black" stroke-width="3" stroke-linecap="round"/>
</g>
<path d="M273.961 436.195C302.659 452.763 336.668 447.584 349.923 424.626C305.972 406.137 283.531 392.486 246 364.626C232.745 387.584 245.264 419.626 273.961 436.195Z" fill="#FFC384" stroke="black" stroke-width="6"/>
<g filter="url(#filter3_d_22_46)">
<ellipse cx="280.672" cy="391.572" rx="12" ry="11.9999" transform="rotate(30 280.672 391.572)" fill="#FFF7E4"/>
<ellipse cx="280.672" cy="391.572" rx="12" ry="11.9999" transform="rotate(30 280.672 391.572)" stroke="black" stroke-width="6"/>
</g>
<g filter="url(#filter4_d_22_46)">
<ellipse cx="309.251" cy="408.072" rx="12" ry="11.9999" transform="rotate(30 309.251 408.072)" fill="#FFF7E4"/>
<ellipse cx="309.251" cy="408.072" rx="12" ry="11.9999" transform="rotate(30 309.251 408.072)" stroke="black" stroke-width="6"/>
</g>
</g>
<g filter="url(#filter5_d_22_46)">
<mask id="path-23-outside-1_22_46" maskUnits="userSpaceOnUse" x="44" y="54" width="387" height="108" fill="black">
<rect fill="white" x="44" y="54" width="387" height="108"/>
<path d="M58.6135 152C56.9922 152 55.6268 151.445 54.5175 150.336C53.4082 149.227 52.8535 147.861 52.8535 146.24V68.544C52.8535 66.9227 53.4082 65.5573 54.5175 64.448C55.6268 63.2533 56.9922 62.656 58.6135 62.656H109.942C111.478 62.656 112.758 63.2107 113.782 64.32C114.891 65.344 115.446 66.624 115.446 68.16C115.446 69.696 114.891 70.976 113.782 72C112.758 73.024 111.478 73.536 109.942 73.536H64.5015V101.824H105.334C106.87 101.824 108.15 102.379 109.174 103.488C110.283 104.512 110.838 105.792 110.838 107.328C110.838 108.864 110.283 110.144 109.174 111.168C108.15 112.192 106.87 112.704 105.334 112.704H64.5015V141.12H109.942C111.478 141.12 112.758 141.675 113.782 142.784C114.891 143.808 115.446 145.088 115.446 146.624C115.446 148.16 114.891 149.44 113.782 150.464C112.758 151.488 111.478 152 109.942 152H58.6135ZM147.94 153.28C144.185 153.28 140.686 152.512 137.444 150.976C134.286 149.44 131.769 147.221 129.892 144.32C128.014 141.333 127.076 137.92 127.076 134.08C127.076 127.765 129.55 122.731 134.5 118.976C139.534 115.221 146.873 113.344 156.516 113.344H172.004V112.32C172.004 106.688 170.596 102.635 167.78 100.16C165.049 97.6853 160.74 96.448 154.852 96.448C151.609 96.448 148.708 96.704 146.148 97.216C143.673 97.728 140.9 98.496 137.828 99.52C137.145 99.6907 136.59 99.776 136.164 99.776C134.884 99.776 133.774 99.3067 132.836 98.368C131.897 97.4293 131.428 96.2773 131.428 94.912C131.428 92.608 132.537 90.9867 134.756 90.048C142.009 86.976 149.39 85.44 156.9 85.44C162.788 85.44 167.737 86.6347 171.748 89.024C175.844 91.4133 178.83 94.528 180.708 98.368C182.67 102.123 183.652 106.219 183.652 110.656V146.88C183.652 148.501 183.054 149.867 181.86 150.976C180.75 152.085 179.385 152.64 177.764 152.64C176.142 152.64 174.777 152.085 173.668 150.976C172.558 149.867 172.004 148.501 172.004 146.88V143.552C165.689 150.037 157.668 153.28 147.94 153.28ZM152.292 143.04C156.046 143.04 159.673 142.144 163.172 140.352C166.67 138.475 169.614 136.171 172.004 133.44V122.688H158.052C145.166 122.688 138.724 126.059 138.724 132.8C138.724 135.872 139.748 138.347 141.796 140.224C143.929 142.101 147.428 143.04 152.292 143.04ZM224.295 153.28C215.761 153.28 207.996 151.36 200.999 147.52C199.548 146.496 198.823 145.088 198.823 143.296C198.823 141.931 199.292 140.736 200.231 139.712C201.169 138.688 202.364 138.176 203.815 138.176C204.583 138.176 205.351 138.347 206.119 138.688C208.849 139.883 211.58 140.821 214.311 141.504C217.041 142.187 220.113 142.528 223.527 142.528C232.999 142.528 237.735 139.499 237.735 133.44C237.735 131.477 236.625 129.984 234.407 128.96C232.273 127.936 228.732 126.784 223.783 125.504C218.748 124.309 214.567 123.072 211.239 121.792C207.996 120.512 205.18 118.592 202.791 116.032C200.487 113.387 199.335 109.931 199.335 105.664C199.335 99.6907 201.468 94.8267 205.735 91.072C210.087 87.3173 216.273 85.44 224.295 85.44C230.865 85.44 237.052 86.5067 242.855 88.64C244.049 88.9813 244.945 89.6213 245.543 90.56C246.225 91.4987 246.567 92.48 246.567 93.504C246.567 94.8693 246.055 96.064 245.031 97.088C244.092 98.112 242.897 98.624 241.447 98.624C241.02 98.624 240.465 98.5387 239.783 98.368C234.833 96.832 229.969 96.064 225.191 96.064C220.583 96.064 216.956 96.9173 214.311 98.624C211.751 100.245 210.471 102.379 210.471 105.024C210.471 107.584 211.665 109.461 214.055 110.656C216.444 111.851 220.156 113.003 225.191 114.112C230.225 115.392 234.321 116.672 237.479 117.952C240.636 119.147 243.324 121.067 245.543 123.712C247.847 126.357 248.999 129.899 248.999 134.336C248.999 139.797 246.823 144.32 242.471 147.904C238.204 151.488 232.145 153.28 224.295 153.28ZM286.703 153.28C274.244 153.28 268.015 147.648 268.015 136.384V96.704H258.927C258.244 96.704 257.647 96.4907 257.135 96.064C256.708 95.552 256.495 94.9547 256.495 94.272C256.495 93.4187 256.879 92.6933 257.647 92.096L275.055 75.072C275.823 74.304 276.548 73.92 277.231 73.92C277.913 73.92 278.468 74.176 278.895 74.688C279.407 75.2 279.663 75.7973 279.663 76.48V86.72H294.127C295.577 86.72 296.772 87.1893 297.711 88.128C298.649 89.0667 299.119 90.2613 299.119 91.712C299.119 93.0773 298.649 94.272 297.711 95.296C296.772 96.2347 295.577 96.704 294.127 96.704H279.663V135.36C279.663 138.688 280.431 140.821 281.967 141.76C283.588 142.613 285.593 143.04 287.983 143.04C289.689 143.04 291.396 142.784 293.103 142.272C293.444 142.187 293.785 142.101 294.127 142.016C294.553 141.931 295.065 141.888 295.663 141.888C296.857 141.888 297.924 142.357 298.863 143.296C299.801 144.149 300.271 145.216 300.271 146.496C300.271 148.459 299.289 149.952 297.327 150.976C293.999 152.512 290.457 153.28 286.703 153.28ZM341.359 153.28C330.948 153.28 322.799 150.336 316.911 144.448C311.108 138.475 308.207 130.112 308.207 119.36C308.207 113.301 309.316 107.712 311.535 102.592C313.753 97.472 317.167 93.3333 321.775 90.176C326.383 87.0187 332.057 85.44 338.799 85.44C345.113 85.44 350.575 86.9333 355.183 89.92C359.791 92.8213 363.289 96.7467 365.679 101.696C368.068 106.56 369.263 111.893 369.263 117.696C369.263 119.317 368.708 120.683 367.599 121.792C366.575 122.901 365.167 123.456 363.375 123.456H319.983C320.665 129.429 322.884 134.08 326.639 137.408C330.393 140.736 335.641 142.4 342.383 142.4C345.967 142.4 349.081 142.059 351.727 141.376C354.457 140.693 357.103 139.712 359.663 138.432C360.345 138.091 361.113 137.92 361.967 137.92C363.332 137.92 364.527 138.389 365.551 139.328C366.575 140.267 367.087 141.461 367.087 142.912C367.087 144.789 365.977 146.368 363.759 147.648C360.431 149.525 357.145 150.933 353.903 151.872C350.66 152.811 346.479 153.28 341.359 153.28ZM357.743 113.984C357.487 109.803 356.377 106.304 354.415 103.488C352.537 100.672 350.191 98.624 347.375 97.344C344.559 95.9787 341.7 95.296 338.799 95.296C335.897 95.296 333.039 95.9787 330.223 97.344C327.407 98.624 325.06 100.672 323.183 103.488C321.305 106.304 320.239 109.803 319.983 113.984H357.743ZM390.435 152.64C388.813 152.64 387.448 152.085 386.339 150.976C385.229 149.867 384.675 148.501 384.675 146.88V91.968C384.675 90.3467 385.229 88.9813 386.339 87.872C387.448 86.6773 388.813 86.08 390.435 86.08C392.056 86.08 393.421 86.6773 394.531 87.872C395.725 88.9813 396.323 90.3467 396.323 91.968V97.472C402.296 89.4507 408.995 85.44 416.419 85.44H417.059C418.68 85.44 420.003 85.9947 421.027 87.104C422.136 88.2133 422.691 89.5787 422.691 91.2C422.691 92.8213 422.136 94.144 421.027 95.168C419.917 96.192 418.509 96.704 416.803 96.704H416.163C412.067 96.704 408.312 97.728 404.899 99.776C401.485 101.739 398.627 104.469 396.323 107.968V146.88C396.323 148.501 395.725 149.867 394.531 150.976C393.421 152.085 392.056 152.64 390.435 152.64Z"/>
</mask>
<path d="M58.6135 152C56.9922 152 55.6268 151.445 54.5175 150.336C53.4082 149.227 52.8535 147.861 52.8535 146.24V68.544C52.8535 66.9227 53.4082 65.5573 54.5175 64.448C55.6268 63.2533 56.9922 62.656 58.6135 62.656H109.942C111.478 62.656 112.758 63.2107 113.782 64.32C114.891 65.344 115.446 66.624 115.446 68.16C115.446 69.696 114.891 70.976 113.782 72C112.758 73.024 111.478 73.536 109.942 73.536H64.5015V101.824H105.334C106.87 101.824 108.15 102.379 109.174 103.488C110.283 104.512 110.838 105.792 110.838 107.328C110.838 108.864 110.283 110.144 109.174 111.168C108.15 112.192 106.87 112.704 105.334 112.704H64.5015V141.12H109.942C111.478 141.12 112.758 141.675 113.782 142.784C114.891 143.808 115.446 145.088 115.446 146.624C115.446 148.16 114.891 149.44 113.782 150.464C112.758 151.488 111.478 152 109.942 152H58.6135ZM147.94 153.28C144.185 153.28 140.686 152.512 137.444 150.976C134.286 149.44 131.769 147.221 129.892 144.32C128.014 141.333 127.076 137.92 127.076 134.08C127.076 127.765 129.55 122.731 134.5 118.976C139.534 115.221 146.873 113.344 156.516 113.344H172.004V112.32C172.004 106.688 170.596 102.635 167.78 100.16C165.049 97.6853 160.74 96.448 154.852 96.448C151.609 96.448 148.708 96.704 146.148 97.216C143.673 97.728 140.9 98.496 137.828 99.52C137.145 99.6907 136.59 99.776 136.164 99.776C134.884 99.776 133.774 99.3067 132.836 98.368C131.897 97.4293 131.428 96.2773 131.428 94.912C131.428 92.608 132.537 90.9867 134.756 90.048C142.009 86.976 149.39 85.44 156.9 85.44C162.788 85.44 167.737 86.6347 171.748 89.024C175.844 91.4133 178.83 94.528 180.708 98.368C182.67 102.123 183.652 106.219 183.652 110.656V146.88C183.652 148.501 183.054 149.867 181.86 150.976C180.75 152.085 179.385 152.64 177.764 152.64C176.142 152.64 174.777 152.085 173.668 150.976C172.558 149.867 172.004 148.501 172.004 146.88V143.552C165.689 150.037 157.668 153.28 147.94 153.28ZM152.292 143.04C156.046 143.04 159.673 142.144 163.172 140.352C166.67 138.475 169.614 136.171 172.004 133.44V122.688H158.052C145.166 122.688 138.724 126.059 138.724 132.8C138.724 135.872 139.748 138.347 141.796 140.224C143.929 142.101 147.428 143.04 152.292 143.04ZM224.295 153.28C215.761 153.28 207.996 151.36 200.999 147.52C199.548 146.496 198.823 145.088 198.823 143.296C198.823 141.931 199.292 140.736 200.231 139.712C201.169 138.688 202.364 138.176 203.815 138.176C204.583 138.176 205.351 138.347 206.119 138.688C208.849 139.883 211.58 140.821 214.311 141.504C217.041 142.187 220.113 142.528 223.527 142.528C232.999 142.528 237.735 139.499 237.735 133.44C237.735 131.477 236.625 129.984 234.407 128.96C232.273 127.936 228.732 126.784 223.783 125.504C218.748 124.309 214.567 123.072 211.239 121.792C207.996 120.512 205.18 118.592 202.791 116.032C200.487 113.387 199.335 109.931 199.335 105.664C199.335 99.6907 201.468 94.8267 205.735 91.072C210.087 87.3173 216.273 85.44 224.295 85.44C230.865 85.44 237.052 86.5067 242.855 88.64C244.049 88.9813 244.945 89.6213 245.543 90.56C246.225 91.4987 246.567 92.48 246.567 93.504C246.567 94.8693 246.055 96.064 245.031 97.088C244.092 98.112 242.897 98.624 241.447 98.624C241.02 98.624 240.465 98.5387 239.783 98.368C234.833 96.832 229.969 96.064 225.191 96.064C220.583 96.064 216.956 96.9173 214.311 98.624C211.751 100.245 210.471 102.379 210.471 105.024C210.471 107.584 211.665 109.461 214.055 110.656C216.444 111.851 220.156 113.003 225.191 114.112C230.225 115.392 234.321 116.672 237.479 117.952C240.636 119.147 243.324 121.067 245.543 123.712C247.847 126.357 248.999 129.899 248.999 134.336C248.999 139.797 246.823 144.32 242.471 147.904C238.204 151.488 232.145 153.28 224.295 153.28ZM286.703 153.28C274.244 153.28 268.015 147.648 268.015 136.384V96.704H258.927C258.244 96.704 257.647 96.4907 257.135 96.064C256.708 95.552 256.495 94.9547 256.495 94.272C256.495 93.4187 256.879 92.6933 257.647 92.096L275.055 75.072C275.823 74.304 276.548 73.92 277.231 73.92C277.913 73.92 278.468 74.176 278.895 74.688C279.407 75.2 279.663 75.7973 279.663 76.48V86.72H294.127C295.577 86.72 296.772 87.1893 297.711 88.128C298.649 89.0667 299.119 90.2613 299.119 91.712C299.119 93.0773 298.649 94.272 297.711 95.296C296.772 96.2347 295.577 96.704 294.127 96.704H279.663V135.36C279.663 138.688 280.431 140.821 281.967 141.76C283.588 142.613 285.593 143.04 287.983 143.04C289.689 143.04 291.396 142.784 293.103 142.272C293.444 142.187 293.785 142.101 294.127 142.016C294.553 141.931 295.065 141.888 295.663 141.888C296.857 141.888 297.924 142.357 298.863 143.296C299.801 144.149 300.271 145.216 300.271 146.496C300.271 148.459 299.289 149.952 297.327 150.976C293.999 152.512 290.457 153.28 286.703 153.28ZM341.359 153.28C330.948 153.28 322.799 150.336 316.911 144.448C311.108 138.475 308.207 130.112 308.207 119.36C308.207 113.301 309.316 107.712 311.535 102.592C313.753 97.472 317.167 93.3333 321.775 90.176C326.383 87.0187 332.057 85.44 338.799 85.44C345.113 85.44 350.575 86.9333 355.183 89.92C359.791 92.8213 363.289 96.7467 365.679 101.696C368.068 106.56 369.263 111.893 369.263 117.696C369.263 119.317 368.708 120.683 367.599 121.792C366.575 122.901 365.167 123.456 363.375 123.456H319.983C320.665 129.429 322.884 134.08 326.639 137.408C330.393 140.736 335.641 142.4 342.383 142.4C345.967 142.4 349.081 142.059 351.727 141.376C354.457 140.693 357.103 139.712 359.663 138.432C360.345 138.091 361.113 137.92 361.967 137.92C363.332 137.92 364.527 138.389 365.551 139.328C366.575 140.267 367.087 141.461 367.087 142.912C367.087 144.789 365.977 146.368 363.759 147.648C360.431 149.525 357.145 150.933 353.903 151.872C350.66 152.811 346.479 153.28 341.359 153.28ZM357.743 113.984C357.487 109.803 356.377 106.304 354.415 103.488C352.537 100.672 350.191 98.624 347.375 97.344C344.559 95.9787 341.7 95.296 338.799 95.296C335.897 95.296 333.039 95.9787 330.223 97.344C327.407 98.624 325.06 100.672 323.183 103.488C321.305 106.304 320.239 109.803 319.983 113.984H357.743ZM390.435 152.64C388.813 152.64 387.448 152.085 386.339 150.976C385.229 149.867 384.675 148.501 384.675 146.88V91.968C384.675 90.3467 385.229 88.9813 386.339 87.872C387.448 86.6773 388.813 86.08 390.435 86.08C392.056 86.08 393.421 86.6773 394.531 87.872C395.725 88.9813 396.323 90.3467 396.323 91.968V97.472C402.296 89.4507 408.995 85.44 416.419 85.44H417.059C418.68 85.44 420.003 85.9947 421.027 87.104C422.136 88.2133 422.691 89.5787 422.691 91.2C422.691 92.8213 422.136 94.144 421.027 95.168C419.917 96.192 418.509 96.704 416.803 96.704H416.163C412.067 96.704 408.312 97.728 404.899 99.776C401.485 101.739 398.627 104.469 396.323 107.968V146.88C396.323 148.501 395.725 149.867 394.531 150.976C393.421 152.085 392.056 152.64 390.435 152.64Z" fill="white"/>
<path d="M54.5175 150.336L60.1744 144.679L60.1744 144.679L54.5175 150.336ZM54.5175 64.448L60.1744 70.1049L60.2791 70.0001L60.3798 69.8916L54.5175 64.448ZM113.782 64.32L107.903 69.7462L108.12 69.9814L108.355 70.1984L113.782 64.32ZM113.782 72L108.355 66.1216L108.238 66.2301L108.125 66.3431L113.782 72ZM64.5015 73.536V65.536H56.5015V73.536H64.5015ZM64.5015 101.824H56.5015V109.824H64.5015V101.824ZM109.174 103.488L103.295 108.914L103.512 109.149L103.747 109.366L109.174 103.488ZM109.174 111.168L103.747 105.29L103.63 105.398L103.517 105.511L109.174 111.168ZM64.5015 112.704V104.704H56.5015V112.704H64.5015ZM64.5015 141.12H56.5015V149.12H64.5015V141.12ZM113.782 142.784L107.903 148.21L108.12 148.445L108.355 148.662L113.782 142.784ZM113.782 150.464L108.355 144.586L108.238 144.694L108.125 144.807L113.782 150.464ZM58.6135 144C58.7314 144 59.0193 144.024 59.3845 144.172C59.755 144.323 60.0227 144.527 60.1744 144.679L48.8606 155.993C51.5255 158.658 54.9498 160 58.6135 160V144ZM60.1744 144.679C60.3261 144.831 60.5307 145.098 60.6812 145.469C60.8296 145.834 60.8535 146.122 60.8535 146.24H44.8535C44.8535 149.904 46.1958 153.328 48.8606 155.993L60.1744 144.679ZM60.8535 146.24V68.544H44.8535V146.24H60.8535ZM60.8535 68.544C60.8535 68.6619 60.8296 68.9498 60.6812 69.315C60.5307 69.6855 60.3261 69.9531 60.1744 70.1049L48.8606 58.7911C46.1958 61.456 44.8535 64.8803 44.8535 68.544H60.8535ZM60.3798 69.8916C60.2586 70.0221 59.9936 70.2523 59.5801 70.4333C59.1655 70.6146 58.8085 70.656 58.6135 70.656V54.656C54.7537 54.656 51.2687 56.1898 48.6552 59.0044L60.3798 69.8916ZM58.6135 70.656H109.942V54.656H58.6135V70.656ZM109.942 70.656C109.727 70.656 109.334 70.6123 108.873 70.4124C108.408 70.2111 108.084 69.9424 107.903 69.7462L119.66 58.8937C117.092 56.1115 113.666 54.656 109.942 54.656V70.656ZM108.355 70.1984C108.159 70.0173 107.89 69.6934 107.689 69.2289C107.489 68.7675 107.446 68.375 107.446 68.16H123.446C123.446 64.4354 121.99 61.0098 119.208 58.4416L108.355 70.1984ZM107.446 68.16C107.446 67.945 107.489 67.5525 107.689 67.0911C107.89 66.6266 108.159 66.3027 108.355 66.1216L119.208 77.8784C121.99 75.3102 123.446 71.8846 123.446 68.16H107.446ZM108.125 66.3431C108.339 66.1284 108.666 65.8907 109.082 65.7242C109.489 65.5614 109.808 65.536 109.942 65.536V81.536C113.456 81.536 116.816 80.2792 119.438 77.6569L108.125 66.3431ZM109.942 65.536H64.5015V81.536H109.942V65.536ZM56.5015 73.536V101.824H72.5015V73.536H56.5015ZM64.5015 109.824H105.334V93.824H64.5015V109.824ZM105.334 109.824C105.119 109.824 104.726 109.78 104.265 109.58C103.8 109.379 103.476 109.11 103.295 108.914L115.052 98.0618C112.484 95.2796 109.058 93.824 105.334 93.824V109.824ZM103.747 109.366C103.551 109.185 103.282 108.861 103.081 108.397C102.881 107.936 102.838 107.543 102.838 107.328H118.838C118.838 103.603 117.382 100.178 114.6 97.6096L103.747 109.366ZM102.838 107.328C102.838 107.113 102.881 106.72 103.081 106.259C103.282 105.795 103.551 105.471 103.747 105.29L114.6 117.046C117.382 114.478 118.838 111.053 118.838 107.328H102.838ZM103.517 105.511C103.731 105.296 104.058 105.059 104.474 104.892C104.881 104.729 105.2 104.704 105.334 104.704V120.704C108.848 120.704 112.208 119.447 114.83 116.825L103.517 105.511ZM105.334 104.704H64.5015V120.704H105.334V104.704ZM56.5015 112.704V141.12H72.5015V112.704H56.5015ZM64.5015 149.12H109.942V133.12H64.5015V149.12ZM109.942 149.12C109.727 149.12 109.334 149.076 108.873 148.876C108.408 148.675 108.084 148.406 107.903 148.21L119.66 137.358C117.092 134.576 113.666 133.12 109.942 133.12V149.12ZM108.355 148.662C108.159 148.481 107.89 148.157 107.689 147.693C107.489 147.232 107.446 146.839 107.446 146.624H123.446C123.446 142.899 121.99 139.474 119.208 136.906L108.355 148.662ZM107.446 146.624C107.446 146.409 107.489 146.016 107.689 145.555C107.89 145.091 108.159 144.767 108.355 144.586L119.208 156.342C121.99 153.774 123.446 150.349 123.446 146.624H107.446ZM108.125 144.807C108.339 144.592 108.666 144.355 109.082 144.188C109.489 144.025 109.808 144 109.942 144V160C113.456 160 116.816 158.743 119.438 156.121L108.125 144.807ZM109.942 144H58.6135V160H109.942V144ZM137.444 150.976L133.944 158.17L133.981 158.188L134.019 158.206L137.444 150.976ZM129.892 144.32L123.118 148.577L123.146 148.622L123.175 148.666L129.892 144.32ZM134.5 118.976L129.717 112.563L129.691 112.583L129.664 112.602L134.5 118.976ZM172.004 113.344V121.344H180.004V113.344H172.004ZM167.78 100.16L162.407 106.088L162.453 106.129L162.499 106.169L167.78 100.16ZM146.148 97.216L144.579 89.3713L144.553 89.3765L144.527 89.3819L146.148 97.216ZM137.828 99.52L139.768 107.281L140.066 107.207L140.357 107.109L137.828 99.52ZM132.836 98.368L138.492 92.7111L138.492 92.7111L132.836 98.368ZM134.756 90.048L137.873 97.4157L137.875 97.4145L134.756 90.048ZM171.748 89.024L167.653 95.8968L167.685 95.9157L167.717 95.9342L171.748 89.024ZM180.708 98.368L173.52 101.882L173.568 101.979L173.618 102.074L180.708 98.368ZM181.86 150.976L176.416 145.114L176.307 145.214L176.203 145.319L181.86 150.976ZM173.668 150.976L179.324 145.319L179.324 145.319L173.668 150.976ZM172.004 143.552H180.004V123.868L166.272 137.971L172.004 143.552ZM163.172 140.352L166.819 147.472L166.887 147.437L166.954 147.401L163.172 140.352ZM172.004 133.44L178.024 138.708L180.004 136.446V133.44H172.004ZM172.004 122.688H180.004V114.688H172.004V122.688ZM141.796 140.224L136.39 146.121L136.45 146.176L136.51 146.23L141.796 140.224ZM147.94 145.28C145.313 145.28 142.991 144.751 140.868 143.746L134.019 158.206C138.382 160.273 143.057 161.28 147.94 161.28V145.28ZM140.943 143.782C139.076 142.874 137.68 141.63 136.608 139.974L123.175 148.666C125.858 152.813 129.497 156.006 133.944 158.17L140.943 143.782ZM136.665 140.063C135.66 138.464 135.076 136.552 135.076 134.08H119.076C119.076 139.288 120.369 144.203 123.118 148.577L136.665 140.063ZM135.076 134.08C135.076 130.219 136.417 127.563 139.335 125.35L129.664 112.602C122.683 117.899 119.076 125.311 119.076 134.08H135.076ZM139.282 125.389C142.372 123.085 147.728 121.344 156.516 121.344V105.344C146.018 105.344 136.696 107.358 129.717 112.563L139.282 125.389ZM156.516 121.344H172.004V105.344H156.516V121.344ZM180.004 113.344V112.32H164.004V113.344H180.004ZM180.004 112.32C180.004 105.552 178.321 98.7733 173.06 94.1507L162.499 106.169C162.87 106.496 164.004 107.824 164.004 112.32H180.004ZM173.152 94.2321C168.287 89.8231 161.599 88.448 154.852 88.448V104.448C159.88 104.448 161.811 105.548 162.407 106.088L173.152 94.2321ZM154.852 88.448C151.203 88.448 147.761 88.7348 144.579 89.3713L147.716 105.061C149.654 104.673 152.015 104.448 154.852 104.448V88.448ZM144.527 89.3819C141.673 89.9723 138.589 90.8333 135.298 91.9305L140.357 107.109C143.21 106.159 145.673 105.484 147.768 105.05L144.527 89.3819ZM135.887 91.7589C135.728 91.7987 135.665 91.8078 135.683 91.805C135.695 91.8032 135.74 91.7966 135.814 91.7901C135.888 91.7837 136.007 91.776 136.164 91.776V107.776C137.529 107.776 138.803 107.522 139.768 107.281L135.887 91.7589ZM136.164 91.776C136.526 91.776 136.996 91.8479 137.489 92.0563C137.975 92.2621 138.308 92.5265 138.492 92.7111L127.179 104.025C129.555 106.402 132.675 107.776 136.164 107.776V91.776ZM138.492 92.7111C138.726 92.9445 138.994 93.3051 139.188 93.7816C139.381 94.2536 139.428 94.6611 139.428 94.912H123.428C123.428 98.3314 124.692 101.539 127.179 104.025L138.492 92.7111ZM139.428 94.912C139.428 95.0867 139.367 95.7479 138.862 96.4855C138.374 97.1984 137.853 97.4238 137.873 97.4157L131.638 82.6803C129.439 83.6108 127.254 85.1163 125.657 87.4505C124.043 89.8094 123.428 92.4333 123.428 94.912H139.428ZM137.875 97.4145C144.191 94.7397 150.514 93.44 156.9 93.44V77.44C148.266 77.44 139.827 79.2123 131.636 82.6815L137.875 97.4145ZM156.9 93.44C161.718 93.44 165.165 94.4148 167.653 95.8968L175.842 82.1512C170.308 78.8545 163.857 77.44 156.9 77.44V93.44ZM167.717 95.9342C170.603 97.6182 172.412 99.6137 173.52 101.882L187.895 94.8543C185.249 89.4423 181.084 85.2085 175.778 82.1138L167.717 95.9342ZM173.618 102.074C174.954 104.63 175.652 107.446 175.652 110.656H191.652C191.652 104.991 190.386 99.6151 187.797 94.662L173.618 102.074ZM175.652 110.656V146.88H191.652V110.656H175.652ZM175.652 146.88C175.652 146.685 175.693 146.328 175.874 145.913C176.055 145.5 176.285 145.235 176.416 145.114L187.303 156.838C190.118 154.225 191.652 150.74 191.652 146.88H175.652ZM176.203 145.319C176.354 145.167 176.622 144.963 176.992 144.812C177.358 144.664 177.646 144.64 177.764 144.64V160.64C181.427 160.64 184.852 159.298 187.516 156.633L176.203 145.319ZM177.764 144.64C177.881 144.64 178.169 144.664 178.535 144.812C178.905 144.963 179.173 145.167 179.324 145.319L168.011 156.633C170.675 159.298 174.1 160.64 177.764 160.64V144.64ZM179.324 145.319C179.476 145.471 179.681 145.738 179.831 146.109C179.98 146.474 180.004 146.762 180.004 146.88H164.004C164.004 150.544 165.346 153.968 168.011 156.633L179.324 145.319ZM180.004 146.88V143.552H164.004V146.88H180.004ZM166.272 137.971C161.584 142.786 155.688 145.28 147.94 145.28V161.28C159.647 161.28 169.794 157.289 177.735 149.133L166.272 137.971ZM152.292 151.04C157.374 151.04 162.246 149.815 166.819 147.472L159.524 133.232C157.1 134.473 154.718 135.04 152.292 135.04V151.04ZM166.954 147.401C171.22 145.112 174.945 142.227 178.024 138.708L165.983 128.172C164.284 130.114 162.121 131.837 159.389 133.303L166.954 147.401ZM180.004 133.44V122.688H164.004V133.44H180.004ZM172.004 114.688H158.052V130.688H172.004V114.688ZM158.052 114.688C151.172 114.688 144.785 115.544 139.847 118.128C137.26 119.481 134.886 121.406 133.185 124.077C131.462 126.781 130.724 129.787 130.724 132.8H146.724C146.724 132.442 146.79 132.499 146.678 132.675C146.587 132.818 146.63 132.636 147.264 132.304C148.769 131.517 152.046 130.688 158.052 130.688V114.688ZM130.724 132.8C130.724 137.851 132.504 142.559 136.39 146.121L147.201 134.327C146.991 134.134 146.724 133.893 146.724 132.8H130.724ZM136.51 146.23C140.837 150.037 146.753 151.04 152.292 151.04V135.04C150.337 135.04 148.98 134.847 148.093 134.609C147.215 134.374 147.005 134.152 147.081 134.218L136.51 146.23ZM200.999 147.52L196.385 154.056L196.754 154.316L197.15 154.533L200.999 147.52ZM200.231 139.712L206.128 145.118L206.128 145.118L200.231 139.712ZM206.119 138.688L202.869 145.998L202.891 146.008L202.912 146.017L206.119 138.688ZM234.407 128.96L230.945 136.172L230.999 136.198L231.054 136.224L234.407 128.96ZM223.783 125.504L225.786 117.759L225.708 117.739L225.63 117.72L223.783 125.504ZM211.239 121.792L208.301 129.233L208.334 129.246L208.367 129.259L211.239 121.792ZM202.791 116.032L196.758 121.286L196.848 121.39L196.942 121.491L202.791 116.032ZM205.735 91.072L200.509 85.0147L200.479 85.0404L200.449 85.0663L205.735 91.072ZM242.855 88.64L240.094 96.1486L240.372 96.2508L240.657 96.3322L242.855 88.64ZM245.543 90.56L238.793 94.855L238.927 95.0645L239.073 95.2654L245.543 90.56ZM245.031 97.088L239.374 91.4311L239.251 91.5541L239.133 91.6822L245.031 97.088ZM239.783 98.368L237.411 106.009L237.625 106.075L237.842 106.129L239.783 98.368ZM214.311 98.624L218.591 105.383L218.619 105.365L218.648 105.346L214.311 98.624ZM225.191 114.112L227.162 106.359L227.037 106.327L226.912 106.299L225.191 114.112ZM237.479 117.952L234.473 125.366L234.56 125.401L234.647 125.434L237.479 117.952ZM245.543 123.712L239.413 128.853L239.461 128.91L239.51 128.966L245.543 123.712ZM242.471 147.904L237.385 141.729L237.355 141.753L237.325 141.778L242.471 147.904ZM224.295 145.28C217.011 145.28 210.584 143.655 204.847 140.507L197.15 154.533C205.408 159.065 214.512 161.28 224.295 161.28V145.28ZM205.612 140.984C205.809 141.124 206.183 141.459 206.478 142.032C206.772 142.603 206.823 143.087 206.823 143.296H190.823C190.823 147.659 192.788 151.516 196.385 154.056L205.612 140.984ZM206.823 143.296C206.823 143.55 206.775 143.909 206.621 144.301C206.467 144.692 206.268 144.965 206.128 145.118L194.333 134.306C192.068 136.777 190.823 139.891 190.823 143.296H206.823ZM206.128 145.118C205.884 145.384 205.498 145.692 204.982 145.913C204.474 146.131 204.047 146.176 203.815 146.176V130.176C200.234 130.176 196.861 131.548 194.333 134.306L206.128 145.118ZM203.815 146.176C203.361 146.176 203.027 146.068 202.869 145.998L209.368 131.378C207.674 130.625 205.804 130.176 203.815 130.176V146.176ZM202.912 146.017C206.028 147.381 209.182 148.468 212.37 149.265L216.251 133.743C213.978 133.175 211.67 132.385 209.325 131.359L202.912 146.017ZM212.37 149.265C215.853 150.136 219.592 150.528 223.527 150.528V134.528C220.634 134.528 218.229 134.238 216.251 133.743L212.37 149.265ZM223.527 150.528C228.858 150.528 234.23 149.722 238.493 146.995C243.365 143.879 245.735 138.944 245.735 133.44H229.735C229.735 133.902 229.65 133.915 229.752 133.719C229.868 133.497 229.996 133.438 229.872 133.517C229.399 133.819 227.667 134.528 223.527 134.528V150.528ZM245.735 133.44C245.735 130.841 244.962 128.282 243.324 126.077C241.76 123.971 239.715 122.599 237.759 121.696L231.054 136.224C231.316 136.345 230.936 136.231 230.481 135.619C230.248 135.305 230.046 134.925 229.909 134.501C229.774 134.081 229.735 133.712 229.735 133.44H245.735ZM237.868 121.748C234.985 120.364 230.798 119.055 225.786 117.759L221.779 133.249C226.666 134.513 229.561 135.508 230.945 136.172L237.868 121.748ZM225.63 117.72C220.803 116.575 216.992 115.434 214.11 114.325L208.367 129.259C212.141 130.71 216.693 132.044 221.935 133.288L225.63 117.72ZM214.176 114.351C212.044 113.509 210.221 112.269 208.639 110.573L196.942 121.491C200.139 124.915 203.948 127.515 208.301 129.233L214.176 114.351ZM208.823 110.778C208.048 109.887 207.335 108.435 207.335 105.664H191.335C191.335 111.426 192.925 116.886 196.758 121.286L208.823 110.778ZM207.335 105.664C207.335 101.856 208.576 99.2277 211.02 97.0777L200.449 85.0663C194.359 90.4256 191.335 97.5249 191.335 105.664H207.335ZM210.96 97.1293C213.375 95.0457 217.437 93.44 224.295 93.44V77.44C215.109 77.44 206.798 79.5889 200.509 85.0147L210.96 97.1293ZM224.295 93.44C229.983 93.44 235.23 94.3603 240.094 96.1486L245.615 81.1314C238.874 78.6531 231.747 77.44 224.295 77.44V93.44ZM240.657 96.3322C240.487 96.2836 240.157 96.1607 239.773 95.8859C239.376 95.6028 239.04 95.2425 238.793 94.855L252.292 86.265C250.519 83.4794 247.893 81.7593 245.052 80.9478L240.657 96.3322ZM239.073 95.2654C239.005 95.1728 238.87 94.9606 238.755 94.6282C238.636 94.2864 238.567 93.9 238.567 93.504H254.567C254.567 90.5683 253.551 87.9704 252.012 85.8546L239.073 95.2654ZM238.567 93.504C238.567 93.1589 238.637 92.7211 238.829 92.2726C239.018 91.8335 239.248 91.5568 239.374 91.4311L250.687 102.745C253.111 100.322 254.567 97.1298 254.567 93.504H238.567ZM239.133 91.6822C239.377 91.4162 239.763 91.1081 240.279 90.8868C240.787 90.6691 241.214 90.624 241.447 90.624V106.624C245.027 106.624 248.4 105.252 250.928 102.494L239.133 91.6822ZM241.447 90.624C241.603 90.624 241.722 90.6317 241.796 90.6381C241.87 90.6446 241.915 90.6512 241.927 90.653C241.945 90.6558 241.882 90.6467 241.723 90.6069L237.842 106.129C238.807 106.37 240.081 106.624 241.447 106.624V90.624ZM242.154 90.7275C236.501 88.9732 230.838 88.064 225.191 88.064V104.064C229.1 104.064 233.165 104.691 237.411 106.009L242.154 90.7275ZM225.191 88.064C219.718 88.064 214.38 89.0586 209.973 91.9016L218.648 105.346C219.531 104.776 221.447 104.064 225.191 104.064V88.064ZM210.03 91.8654C205.551 94.7023 202.471 99.1986 202.471 105.024H218.471C218.471 105.013 218.471 105.083 218.438 105.206C218.404 105.332 218.351 105.455 218.29 105.556C218.232 105.654 218.194 105.685 218.223 105.656C218.256 105.624 218.364 105.526 218.591 105.383L210.03 91.8654ZM202.471 105.024C202.471 107.591 203.086 110.24 204.617 112.647C206.136 115.034 208.246 116.696 210.477 117.811L217.632 103.501C217.473 103.421 217.792 103.548 218.116 104.057C218.267 104.294 218.365 104.533 218.419 104.736C218.472 104.932 218.471 105.041 218.471 105.024H202.471ZM210.477 117.811C213.774 119.46 218.269 120.779 223.469 121.925L226.912 106.299C222.042 105.226 219.114 104.242 217.632 103.501L210.477 117.811ZM223.219 121.865C228.064 123.097 231.778 124.273 234.473 125.366L240.484 110.538C236.864 109.071 232.386 107.687 227.162 106.359L223.219 121.865ZM234.647 125.434C236.493 126.133 238.054 127.233 239.413 128.853L251.672 118.571C248.594 114.901 244.779 112.161 240.31 110.47L234.647 125.434ZM239.51 128.966C240.237 129.801 240.999 131.303 240.999 134.336H256.999C256.999 128.495 255.456 122.913 251.575 118.458L239.51 128.966ZM240.999 134.336C240.999 137.319 239.96 139.608 237.385 141.729L247.556 154.079C253.685 149.032 256.999 142.276 256.999 134.336H240.999ZM237.325 141.778C234.991 143.739 231.023 145.28 224.295 145.28V161.28C233.267 161.28 241.417 159.237 247.616 154.03L237.325 141.778ZM268.015 96.704H276.015V88.704H268.015V96.704ZM257.135 96.064L250.989 101.185L251.454 101.744L252.013 102.21L257.135 96.064ZM257.647 92.096L262.558 98.4108L262.916 98.1325L263.24 97.8156L257.647 92.096ZM275.055 75.072L280.648 80.7916L280.68 80.7604L280.711 80.7289L275.055 75.072ZM278.895 74.688L272.749 79.8095L272.981 80.0883L273.238 80.3449L278.895 74.688ZM279.663 86.72H271.663V94.72H279.663V86.72ZM297.711 88.128L292.054 93.7848L292.054 93.7849L297.711 88.128ZM297.711 95.296L303.367 100.953L303.49 100.83L303.608 100.702L297.711 95.296ZM279.663 96.704V88.704H271.663V96.704H279.663ZM281.967 141.76L277.795 148.586L278.014 148.72L278.241 148.839L281.967 141.76ZM293.103 142.272L291.162 134.511L290.982 134.556L290.804 134.609L293.103 142.272ZM294.127 142.016L292.558 134.171L292.371 134.209L292.186 134.255L294.127 142.016ZM298.863 143.296L293.206 148.953L293.34 149.087L293.481 149.216L298.863 143.296ZM297.327 150.976L300.679 158.24L300.855 158.158L301.027 158.069L297.327 150.976ZM286.703 145.28C281.518 145.28 279.123 144.091 278.052 143.122C277.133 142.291 276.015 140.563 276.015 136.384H260.015C260.015 143.469 262.011 150.189 267.321 154.99C272.479 159.653 279.428 161.28 286.703 161.28V145.28ZM276.015 136.384V96.704H260.015V136.384H276.015ZM268.015 88.704H258.927V104.704H268.015V88.704ZM258.927 88.704C259.432 88.704 260.029 88.7856 260.657 89.0101C261.288 89.2355 261.827 89.5605 262.256 89.9182L252.013 102.21C254 103.866 256.422 104.704 258.927 104.704V88.704ZM263.28 90.9425C263.638 91.3719 263.963 91.9101 264.188 92.5413C264.413 93.1699 264.495 93.7665 264.495 94.272H248.495C248.495 96.7766 249.333 99.1981 250.989 101.185L263.28 90.9425ZM264.495 94.272C264.495 95.0965 264.296 95.994 263.853 96.8311C263.426 97.6369 262.904 98.1418 262.558 98.4108L252.735 85.7812C250.328 87.6531 248.495 90.5822 248.495 94.272H264.495ZM263.24 97.8156L280.648 80.7916L269.461 69.3524L252.053 86.3764L263.24 97.8156ZM280.711 80.7289C280.702 80.7381 280.445 80.9989 279.918 81.2783C279.359 81.5742 278.433 81.92 277.231 81.92V65.92C273.464 65.92 270.811 68.0021 269.398 69.4151L280.711 80.7289ZM277.231 81.92C276.551 81.92 275.697 81.787 274.806 81.3757C273.909 80.9619 273.226 80.3819 272.749 79.8095L285.04 69.5665C283.052 67.18 280.221 65.92 277.231 65.92V81.92ZM273.238 80.3449C272.856 79.9632 272.434 79.4092 272.117 78.6713C271.797 77.9243 271.663 77.1664 271.663 76.48H287.663C287.663 73.5369 286.463 70.9424 284.551 69.0311L273.238 80.3449ZM271.663 76.48V86.72H287.663V76.48H271.663ZM279.663 94.72H294.127V78.72H279.663V94.72ZM294.127 94.72C293.98 94.72 293.633 94.694 293.185 94.518C292.723 94.3366 292.335 94.0661 292.054 93.7848L303.367 82.4712C300.782 79.8856 297.482 78.72 294.127 78.72V94.72ZM292.054 93.7849C291.772 93.5036 291.502 93.115 291.32 92.6532C291.145 92.2054 291.119 91.8583 291.119 91.712H307.119C307.119 88.3563 305.953 85.0567 303.367 82.4711L292.054 93.7849ZM291.119 91.712C291.119 91.458 291.166 91.0994 291.32 90.7068C291.474 90.3164 291.673 90.043 291.813 89.8902L303.608 100.702C305.873 98.2308 307.119 95.1172 307.119 91.712H291.119ZM292.054 89.6391C292.335 89.3579 292.723 89.0874 293.185 88.906C293.633 88.73 293.98 88.704 294.127 88.704V104.704C297.482 104.704 300.782 103.538 303.367 100.953L292.054 89.6391ZM294.127 88.704H279.663V104.704H294.127V88.704ZM271.663 96.704V135.36H287.663V96.704H271.663ZM271.663 135.36C271.663 139.161 272.415 145.299 277.795 148.586L286.138 134.934C286.675 135.262 287.08 135.66 287.359 136.032C287.625 136.388 287.735 136.662 287.766 136.746C287.795 136.827 287.764 136.769 287.729 136.518C287.694 136.271 287.663 135.893 287.663 135.36H271.663ZM278.241 148.839C281.307 150.453 284.677 151.04 287.983 151.04V135.04C286.51 135.04 285.869 134.774 285.692 134.681L278.241 148.839ZM287.983 151.04C290.501 151.04 292.982 150.66 295.401 149.935L290.804 134.609C289.81 134.908 288.877 135.04 287.983 135.04V151.04ZM295.043 150.033C295.384 149.948 295.725 149.862 296.067 149.777L292.186 134.255C291.845 134.34 291.504 134.426 291.162 134.511L295.043 150.033ZM295.695 149.861C295.627 149.874 295.575 149.882 295.543 149.887C295.527 149.889 295.515 149.89 295.507 149.891C295.499 149.892 295.495 149.892 295.495 149.892C295.495 149.892 295.498 149.892 295.506 149.892C295.513 149.891 295.524 149.891 295.538 149.89C295.567 149.889 295.608 149.888 295.663 149.888V133.888C294.718 133.888 293.651 133.953 292.558 134.171L295.695 149.861ZM295.663 149.888C295.179 149.888 294.645 149.786 294.137 149.563C293.645 149.346 293.341 149.088 293.206 148.953L304.519 137.639C302.263 135.383 299.224 133.888 295.663 133.888V149.888ZM293.481 149.216C293.196 148.956 292.851 148.538 292.596 147.958C292.342 147.38 292.271 146.855 292.271 146.496H308.271C308.271 142.985 306.867 139.762 304.244 137.376L293.481 149.216ZM292.271 146.496C292.271 146.076 292.398 145.38 292.849 144.695C293.266 144.06 293.684 143.853 293.626 143.883L301.027 158.069C302.932 157.075 304.822 155.609 306.22 153.481C307.652 151.303 308.271 148.879 308.271 146.496H292.271ZM293.974 143.712C291.723 144.751 289.329 145.28 286.703 145.28V161.28C291.586 161.28 296.274 160.273 300.679 158.24L293.974 143.712ZM316.911 144.448L311.172 150.022L311.213 150.064L311.254 150.105L316.911 144.448ZM321.775 90.176L326.296 96.7755L326.296 96.7755L321.775 90.176ZM355.183 89.92L350.831 96.6332L350.875 96.6618L350.92 96.6899L355.183 89.92ZM365.679 101.696L358.474 105.174L358.486 105.199L358.498 105.223L365.679 101.696ZM367.599 121.792L361.942 116.135L361.829 116.248L361.72 116.366L367.599 121.792ZM319.983 123.456V115.456H311.016L312.034 124.364L319.983 123.456ZM326.639 137.408L321.332 143.395L321.332 143.395L326.639 137.408ZM351.727 141.376L349.786 133.615L349.757 133.622L349.727 133.63L351.727 141.376ZM359.663 138.432L356.085 131.277L356.085 131.277L359.663 138.432ZM365.551 139.328L370.956 133.431L365.551 139.328ZM363.759 147.648L367.689 154.616L367.723 154.597L367.756 154.577L363.759 147.648ZM353.903 151.872L356.127 159.557L356.127 159.557L353.903 151.872ZM357.743 113.984V121.984H366.247L365.728 113.495L357.743 113.984ZM354.415 103.488L347.758 107.926L347.804 107.994L347.851 108.062L354.415 103.488ZM347.375 97.344L343.884 104.543L343.974 104.586L344.064 104.627L347.375 97.344ZM330.223 97.344L333.533 104.627L333.623 104.586L333.713 104.543L330.223 97.344ZM323.183 103.488L329.839 107.926L329.839 107.926L323.183 103.488ZM319.983 113.984L311.997 113.495L311.478 121.984H319.983V113.984ZM341.359 145.28C332.509 145.28 326.6 142.824 322.567 138.791L311.254 150.105C318.997 157.848 329.387 161.28 341.359 161.28V145.28ZM322.649 138.874C318.683 134.792 316.207 128.661 316.207 119.36H300.207C300.207 131.563 303.532 142.158 311.172 150.022L322.649 138.874ZM316.207 119.36C316.207 114.301 317.128 109.805 318.875 105.773L304.194 99.4111C301.504 105.619 300.207 112.302 300.207 119.36H316.207ZM318.875 105.773C320.494 102.037 322.93 99.0823 326.296 96.7755L317.253 83.5765C311.403 87.5844 307.012 92.9074 304.194 99.4111L318.875 105.773ZM326.296 96.7755C329.318 94.705 333.332 93.44 338.799 93.44V77.44C330.782 77.44 323.447 79.3323 317.253 83.5765L326.296 96.7755ZM338.799 93.44C343.806 93.44 347.705 94.6068 350.831 96.6332L359.534 83.2068C353.444 79.2598 346.42 77.44 338.799 77.44V93.44ZM350.92 96.6899C354.246 98.7837 356.731 101.563 358.474 105.174L372.883 98.218C369.848 91.9305 365.335 86.8589 359.445 83.1501L350.92 96.6899ZM358.498 105.223C360.311 108.913 361.263 113.028 361.263 117.696H377.263C377.263 110.759 375.825 104.207 372.859 98.1688L358.498 105.223ZM361.263 117.696C361.263 117.578 361.286 117.29 361.435 116.925C361.585 116.554 361.79 116.287 361.942 116.135L373.255 127.449C375.92 124.784 377.263 121.36 377.263 117.696H361.263ZM361.72 116.366C362.028 116.033 362.428 115.76 362.842 115.597C363.227 115.445 363.448 115.456 363.375 115.456V131.456C366.945 131.456 370.656 130.275 373.477 127.218L361.72 116.366ZM363.375 115.456H319.983V131.456H363.375V115.456ZM312.034 124.364C312.894 131.889 315.819 138.508 321.332 143.395L331.945 131.421C329.949 129.652 328.436 126.97 327.931 122.548L312.034 124.364ZM321.332 143.395C326.989 148.409 334.366 150.4 342.383 150.4V134.4C336.917 134.4 333.797 133.063 331.945 131.421L321.332 143.395ZM342.383 150.4C346.444 150.4 350.261 150.016 353.726 149.122L349.727 133.63C347.901 134.101 345.489 134.4 342.383 134.4V150.4ZM353.667 149.137C356.973 148.311 360.167 147.124 363.24 145.587L356.085 131.277C354.038 132.3 351.941 133.076 349.786 133.615L353.667 149.137ZM363.24 145.587C362.687 145.864 362.207 145.92 361.967 145.92V129.92C360.019 129.92 358.004 130.317 356.085 131.277L363.24 145.587ZM361.967 145.92C361.712 145.92 361.354 145.872 360.961 145.718C360.571 145.565 360.297 145.365 360.145 145.225L370.956 133.431C368.485 131.166 365.372 129.92 361.967 129.92V145.92ZM360.145 145.225C359.879 144.981 359.571 144.596 359.349 144.079C359.132 143.571 359.087 143.144 359.087 142.912H375.087C375.087 139.331 373.714 135.959 370.956 133.431L360.145 145.225ZM359.087 142.912C359.087 142.58 359.138 142.204 359.261 141.819C359.384 141.436 359.552 141.128 359.709 140.904C360.005 140.483 360.176 140.479 359.761 140.719L367.756 154.577C371.433 152.456 375.087 148.657 375.087 142.912H359.087ZM359.828 140.68C356.97 142.293 354.254 143.442 351.678 144.187L356.127 159.557C360.036 158.425 363.891 156.758 367.689 154.616L359.828 140.68ZM351.678 144.187C349.429 144.839 346.072 145.28 341.359 145.28V161.28C346.885 161.28 351.891 160.783 356.127 159.557L351.678 144.187ZM365.728 113.495C365.402 108.171 363.948 103.176 360.978 98.9137L347.851 108.062C348.806 109.432 349.571 111.435 349.757 114.473L365.728 113.495ZM361.071 99.0504C358.446 95.1134 354.987 92.0163 350.685 90.0611L344.064 104.627C345.394 105.232 346.628 106.231 347.758 107.926L361.071 99.0504ZM350.865 90.1455C347.048 88.295 343.002 87.296 338.799 87.296V103.296C340.398 103.296 342.069 103.662 343.884 104.543L350.865 90.1455ZM338.799 87.296C334.595 87.296 330.549 88.295 326.732 90.1455L333.713 104.543C335.528 103.662 337.199 103.296 338.799 103.296V87.296ZM326.912 90.0611C322.61 92.0163 319.151 95.1134 316.526 99.0504L329.839 107.926C330.969 106.231 332.203 105.232 333.533 104.627L326.912 90.0611ZM316.526 99.0504C313.699 103.292 312.319 108.236 311.997 113.495L327.968 114.473C328.158 111.369 328.912 109.316 329.839 107.926L316.526 99.0504ZM319.983 121.984H357.743V105.984H319.983V121.984ZM386.339 150.976L391.995 145.319L391.995 145.319L386.339 150.976ZM386.339 87.872L391.995 93.5288L392.1 93.4241L392.201 93.3156L386.339 87.872ZM394.531 87.872L388.668 93.3156L388.87 93.5327L389.087 93.7343L394.531 87.872ZM396.323 97.472H388.323V121.609L402.739 102.25L396.323 97.472ZM421.027 87.104L415.148 92.5302L415.257 92.6478L415.37 92.7609L421.027 87.104ZM421.027 95.168L415.6 89.2896L415.6 89.2896L421.027 95.168ZM404.899 99.776L408.886 106.711L408.951 106.674L409.014 106.636L404.899 99.776ZM396.323 107.968L389.641 103.568L388.323 105.57V107.968H396.323ZM394.531 150.976L389.087 145.114L388.978 145.214L388.874 145.319L394.531 150.976ZM390.435 144.64C390.552 144.64 390.84 144.664 391.206 144.812C391.576 144.963 391.844 145.167 391.995 145.319L380.682 156.633C383.346 159.298 386.771 160.64 390.435 160.64V144.64ZM391.995 145.319C392.147 145.471 392.352 145.738 392.502 146.109C392.651 146.474 392.675 146.762 392.675 146.88H376.675C376.675 150.544 378.017 153.968 380.682 156.633L391.995 145.319ZM392.675 146.88V91.968H376.675V146.88H392.675ZM392.675 91.968C392.675 92.0859 392.651 92.3738 392.502 92.739C392.352 93.1095 392.147 93.3771 391.995 93.5288L380.682 82.2151C378.017 84.88 376.675 88.3043 376.675 91.968H392.675ZM392.201 93.3156C392.08 93.4461 391.815 93.6763 391.401 93.8573C390.986 94.0386 390.629 94.08 390.435 94.08V78.08C386.575 78.08 383.09 79.6138 380.476 82.4284L392.201 93.3156ZM390.435 94.08C390.24 94.08 389.883 94.0386 389.468 93.8573C389.054 93.6763 388.789 93.4461 388.668 93.3156L400.393 82.4284C397.779 79.6138 394.294 78.08 390.435 78.08V94.08ZM389.087 93.7343C388.956 93.6131 388.726 93.3481 388.545 92.9345C388.364 92.52 388.323 92.163 388.323 91.968H404.323C404.323 88.1082 402.789 84.6232 399.974 82.0096L389.087 93.7343ZM388.323 91.968V97.472H404.323V91.968H388.323ZM402.739 102.25C407.769 95.4947 412.341 93.44 416.419 93.44V77.44C405.648 77.44 396.822 83.4066 389.906 92.6939L402.739 102.25ZM416.419 93.44H417.059V77.44H416.419V93.44ZM417.059 93.44C416.945 93.44 416.611 93.4173 416.173 93.2335C415.721 93.0443 415.372 92.7728 415.148 92.5302L426.905 81.6778C424.245 78.7966 420.728 77.44 417.059 77.44V93.44ZM415.37 92.7609C415.218 92.6091 415.013 92.3415 414.863 91.971C414.714 91.6058 414.691 91.3179 414.691 91.2H430.691C430.691 87.5363 429.348 84.112 426.683 81.4471L415.37 92.7609ZM414.691 91.2C414.691 91.0864 414.713 90.7524 414.897 90.3142C415.086 89.8628 415.358 89.5134 415.6 89.2896L426.453 101.046C429.334 98.3869 430.691 94.8691 430.691 91.2H414.691ZM415.6 89.2896C415.819 89.0875 416.103 88.9112 416.405 88.8017C416.69 88.698 416.852 88.704 416.803 88.704V104.704C420.238 104.704 423.67 103.615 426.453 101.046L415.6 89.2896ZM416.803 88.704H416.163V104.704H416.803V88.704ZM416.163 88.704C410.661 88.704 405.476 90.0997 400.783 92.9161L409.014 106.636C411.147 105.356 413.472 104.704 416.163 104.704V88.704ZM400.911 92.8407C396.345 95.4661 392.588 99.0939 389.641 103.568L403.004 112.368C404.665 109.845 406.625 108.011 408.886 106.711L400.911 92.8407ZM388.323 107.968V146.88H404.323V107.968H388.323ZM388.323 146.88C388.323 146.685 388.364 146.328 388.545 145.913C388.726 145.5 388.956 145.235 389.087 145.114L399.974 156.838C402.789 154.225 404.323 150.74 404.323 146.88H388.323ZM388.874 145.319C389.025 145.167 389.293 144.963 389.663 144.812C390.029 144.664 390.317 144.64 390.435 144.64V160.64C394.098 160.64 397.523 159.298 400.187 156.633L388.874 145.319Z" fill="black" mask="url(#path-23-outside-1_22_46)"/>
<path d="M202.171 206.323C207.227 206.829 211.526 207.396 214.951 208C211.526 208.604 207.227 209.171 202.171 209.677C187.863 211.107 168.002 212 146 212C123.998 212 104.137 211.107 89.8295 209.677C84.7733 209.171 80.4739 208.604 77.0487 208C80.4739 207.396 84.7733 206.829 89.8295 206.323C104.137 204.893 123.998 204 146 204C168.002 204 187.863 204.893 202.171 206.323Z" fill="#DEA38B" stroke="black" stroke-width="8"/>
<path d="M70 208C70 154.981 104.026 112 146 112C187.974 112 222 154.981 222 208" stroke="black" stroke-width="8" stroke-linecap="round"/>
<path d="M140 200.364C140 214.209 136.572 223.006 131.684 228.318C126.836 233.587 120.025 236 112 236C103.975 236 97.164 233.587 92.3162 228.318C87.4284 223.006 84 214.209 84 200.364C84 186.506 87.4444 173.093 92.8733 163.272C98.4121 153.252 105.361 148 112 148C118.639 148 125.588 153.252 131.127 163.272C136.556 173.093 140 186.506 140 200.364Z" fill="#F98284" stroke="black" stroke-width="8"/>
<path d="M208 200.364C208 214.209 204.572 223.006 199.684 228.318C194.836 233.587 188.025 236 180 236C171.975 236 165.164 233.587 160.316 228.318C155.428 223.006 152 214.209 152 200.364C152 186.506 155.444 173.093 160.873 163.272C166.412 153.252 173.361 148 180 148C186.639 148 193.588 153.252 199.127 163.272C204.556 173.093 208 186.506 208 200.364Z" fill="#B3E3DA" stroke="black" stroke-width="8"/>
<path d="M174 192.364C174 206.209 170.572 215.006 165.684 220.318C160.836 225.587 154.025 228 146 228C137.975 228 131.164 225.587 126.316 220.318C121.428 215.006 118 206.209 118 192.364C118 178.506 121.444 165.093 126.873 155.272C132.412 145.252 139.361 140 146 140C152.639 140 159.588 145.252 165.127 155.272C170.556 165.093 174 178.506 174 192.364Z" fill="#B0EB93" stroke="black" stroke-width="8"/>
<g filter="url(#filter6_i_22_46)">
<path d="M146 272C190.183 272 226 243.346 226 208C162.924 215.951 127.91 215.149 66 208C66 243.346 101.817 272 146 272Z" fill="#FFC384"/>
</g>
<path d="M70.2152 212.507C128.001 219.017 162.842 219.73 221.78 212.554C218.845 242.902 186.827 268 146 268C105.152 268 73.1225 242.877 70.2152 212.507Z" stroke="black" stroke-width="8"/>
<mask id="path-32-outside-2_22_46" maskUnits="userSpaceOnUse" x="190" y="168" width="194" height="74" fill="black">
<rect fill="white" x="190" y="168" width="194" height="74"/>
<path d="M202.118 233.4C201.104 233.4 200.251 233.053 199.558 232.36C198.864 231.667 198.518 230.813 198.518 229.8V180.44C198.518 179.427 198.864 178.573 199.558 177.88C200.251 177.133 201.104 176.76 202.118 176.76C203.131 176.76 203.984 177.133 204.678 177.88C205.424 178.573 205.798 179.427 205.798 180.44V201.72H236.118V180.44C236.118 179.427 236.464 178.573 237.158 177.88C237.851 177.133 238.704 176.76 239.718 176.76C240.731 176.76 241.584 177.133 242.278 177.88C243.024 178.573 243.398 179.427 243.398 180.44V229.8C243.398 230.813 243.024 231.667 242.278 232.36C241.584 233.053 240.731 233.4 239.718 233.4C238.704 233.4 237.851 233.053 237.158 232.36C236.464 231.667 236.118 230.813 236.118 229.8V208.52H205.798V229.8C205.798 230.813 205.424 231.667 204.678 232.36C203.984 233.053 203.131 233.4 202.118 233.4ZM270.373 233.8C267.439 233.8 264.879 233.107 262.693 231.72C260.559 230.333 258.906 228.44 257.733 226.04C256.613 223.64 256.053 221 256.053 218.12V195.4C256.053 194.387 256.399 193.533 257.093 192.84C257.839 192.147 258.719 191.8 259.733 191.8C260.746 191.8 261.599 192.147 262.293 192.84C262.986 193.533 263.333 194.387 263.333 195.4V217.32C263.333 223.827 266.266 227.08 272.133 227.08C274.799 227.08 277.173 226.387 279.253 225C281.386 223.613 283.386 221.747 285.253 219.4V195.4C285.253 194.387 285.599 193.533 286.293 192.84C287.039 192.147 287.919 191.8 288.933 191.8C289.946 191.8 290.799 192.147 291.493 192.84C292.186 193.533 292.533 194.387 292.533 195.4V229.72C292.533 230.733 292.186 231.613 291.493 232.36C290.799 233.053 289.946 233.4 288.933 233.4C287.919 233.4 287.039 233.053 286.293 232.36C285.599 231.613 285.253 230.733 285.253 229.72V226.44C283.226 228.68 281.039 230.467 278.693 231.8C276.346 233.133 273.573 233.8 270.373 233.8ZM308.803 233.4C307.789 233.4 306.936 233.053 306.243 232.36C305.549 231.667 305.203 230.813 305.203 229.8V195.48C305.203 194.467 305.549 193.613 306.243 192.92C306.936 192.173 307.789 191.8 308.803 191.8C309.816 191.8 310.669 192.173 311.363 192.92C312.109 193.613 312.483 194.467 312.483 195.48V198.76C314.509 196.52 316.696 194.733 319.043 193.4C321.389 192.067 324.163 191.4 327.363 191.4C330.296 191.4 332.829 192.093 334.963 193.48C337.149 194.867 338.803 196.76 339.923 199.16C341.096 201.56 341.683 204.2 341.683 207.08V229.8C341.683 230.813 341.309 231.667 340.563 232.36C339.869 233.053 339.016 233.4 338.003 233.4C336.989 233.4 336.136 233.053 335.443 232.36C334.749 231.667 334.403 230.813 334.403 229.8V207.88C334.403 201.373 331.469 198.12 325.603 198.12C322.936 198.12 320.536 198.813 318.403 200.2C316.323 201.587 314.349 203.453 312.483 205.8V229.8C312.483 230.813 312.109 231.667 311.363 232.36C310.669 233.053 309.816 233.4 308.803 233.4ZM367.095 233.8C359.309 233.8 355.415 230.28 355.415 223.24V198.44H349.735C349.309 198.44 348.935 198.307 348.615 198.04C348.349 197.72 348.215 197.347 348.215 196.92C348.215 196.387 348.455 195.933 348.935 195.56L359.815 184.92C360.295 184.44 360.749 184.2 361.175 184.2C361.602 184.2 361.949 184.36 362.215 184.68C362.535 185 362.695 185.373 362.695 185.8V192.2H371.735C372.642 192.2 373.389 192.493 373.975 193.08C374.562 193.667 374.855 194.413 374.855 195.32C374.855 196.173 374.562 196.92 373.975 197.56C373.389 198.147 372.642 198.44 371.735 198.44H362.695V222.6C362.695 224.68 363.175 226.013 364.135 226.6C365.149 227.133 366.402 227.4 367.895 227.4C368.962 227.4 370.029 227.24 371.095 226.92C371.309 226.867 371.522 226.813 371.735 226.76C372.002 226.707 372.322 226.68 372.695 226.68C373.442 226.68 374.109 226.973 374.695 227.56C375.282 228.093 375.575 228.76 375.575 229.56C375.575 230.787 374.962 231.72 373.735 232.36C371.655 233.32 369.442 233.8 367.095 233.8Z"/>
</mask>
<path d="M202.118 233.4C201.104 233.4 200.251 233.053 199.558 232.36C198.864 231.667 198.518 230.813 198.518 229.8V180.44C198.518 179.427 198.864 178.573 199.558 177.88C200.251 177.133 201.104 176.76 202.118 176.76C203.131 176.76 203.984 177.133 204.678 177.88C205.424 178.573 205.798 179.427 205.798 180.44V201.72H236.118V180.44C236.118 179.427 236.464 178.573 237.158 177.88C237.851 177.133 238.704 176.76 239.718 176.76C240.731 176.76 241.584 177.133 242.278 177.88C243.024 178.573 243.398 179.427 243.398 180.44V229.8C243.398 230.813 243.024 231.667 242.278 232.36C241.584 233.053 240.731 233.4 239.718 233.4C238.704 233.4 237.851 233.053 237.158 232.36C236.464 231.667 236.118 230.813 236.118 229.8V208.52H205.798V229.8C205.798 230.813 205.424 231.667 204.678 232.36C203.984 233.053 203.131 233.4 202.118 233.4ZM270.373 233.8C267.439 233.8 264.879 233.107 262.693 231.72C260.559 230.333 258.906 228.44 257.733 226.04C256.613 223.64 256.053 221 256.053 218.12V195.4C256.053 194.387 256.399 193.533 257.093 192.84C257.839 192.147 258.719 191.8 259.733 191.8C260.746 191.8 261.599 192.147 262.293 192.84C262.986 193.533 263.333 194.387 263.333 195.4V217.32C263.333 223.827 266.266 227.08 272.133 227.08C274.799 227.08 277.173 226.387 279.253 225C281.386 223.613 283.386 221.747 285.253 219.4V195.4C285.253 194.387 285.599 193.533 286.293 192.84C287.039 192.147 287.919 191.8 288.933 191.8C289.946 191.8 290.799 192.147 291.493 192.84C292.186 193.533 292.533 194.387 292.533 195.4V229.72C292.533 230.733 292.186 231.613 291.493 232.36C290.799 233.053 289.946 233.4 288.933 233.4C287.919 233.4 287.039 233.053 286.293 232.36C285.599 231.613 285.253 230.733 285.253 229.72V226.44C283.226 228.68 281.039 230.467 278.693 231.8C276.346 233.133 273.573 233.8 270.373 233.8ZM308.803 233.4C307.789 233.4 306.936 233.053 306.243 232.36C305.549 231.667 305.203 230.813 305.203 229.8V195.48C305.203 194.467 305.549 193.613 306.243 192.92C306.936 192.173 307.789 191.8 308.803 191.8C309.816 191.8 310.669 192.173 311.363 192.92C312.109 193.613 312.483 194.467 312.483 195.48V198.76C314.509 196.52 316.696 194.733 319.043 193.4C321.389 192.067 324.163 191.4 327.363 191.4C330.296 191.4 332.829 192.093 334.963 193.48C337.149 194.867 338.803 196.76 339.923 199.16C341.096 201.56 341.683 204.2 341.683 207.08V229.8C341.683 230.813 341.309 231.667 340.563 232.36C339.869 233.053 339.016 233.4 338.003 233.4C336.989 233.4 336.136 233.053 335.443 232.36C334.749 231.667 334.403 230.813 334.403 229.8V207.88C334.403 201.373 331.469 198.12 325.603 198.12C322.936 198.12 320.536 198.813 318.403 200.2C316.323 201.587 314.349 203.453 312.483 205.8V229.8C312.483 230.813 312.109 231.667 311.363 232.36C310.669 233.053 309.816 233.4 308.803 233.4ZM367.095 233.8C359.309 233.8 355.415 230.28 355.415 223.24V198.44H349.735C349.309 198.44 348.935 198.307 348.615 198.04C348.349 197.72 348.215 197.347 348.215 196.92C348.215 196.387 348.455 195.933 348.935 195.56L359.815 184.92C360.295 184.44 360.749 184.2 361.175 184.2C361.602 184.2 361.949 184.36 362.215 184.68C362.535 185 362.695 185.373 362.695 185.8V192.2H371.735C372.642 192.2 373.389 192.493 373.975 193.08C374.562 193.667 374.855 194.413 374.855 195.32C374.855 196.173 374.562 196.92 373.975 197.56C373.389 198.147 372.642 198.44 371.735 198.44H362.695V222.6C362.695 224.68 363.175 226.013 364.135 226.6C365.149 227.133 366.402 227.4 367.895 227.4C368.962 227.4 370.029 227.24 371.095 226.92C371.309 226.867 371.522 226.813 371.735 226.76C372.002 226.707 372.322 226.68 372.695 226.68C373.442 226.68 374.109 226.973 374.695 227.56C375.282 228.093 375.575 228.76 375.575 229.56C375.575 230.787 374.962 231.72 373.735 232.36C371.655 233.32 369.442 233.8 367.095 233.8Z" fill="white"/>
<path d="M199.558 232.36L205.215 226.703L205.215 226.703L199.558 232.36ZM199.558 177.88L205.215 183.537L205.319 183.432L205.42 183.324L199.558 177.88ZM204.678 177.88L198.815 183.324L199.017 183.541L199.234 183.742L204.678 177.88ZM205.798 201.72H197.798V209.72H205.798V201.72ZM236.118 201.72V209.72H244.118V201.72H236.118ZM237.158 177.88L242.815 183.537L242.919 183.432L243.02 183.324L237.158 177.88ZM242.278 177.88L236.415 183.324L236.617 183.541L236.834 183.742L242.278 177.88ZM242.278 232.36L236.834 226.498L236.726 226.598L236.621 226.703L242.278 232.36ZM237.158 232.36L231.501 238.017L231.501 238.017L237.158 232.36ZM236.118 208.52H244.118V200.52H236.118V208.52ZM205.798 208.52V200.52H197.798V208.52H205.798ZM204.678 232.36L199.234 226.498L199.126 226.598L199.021 226.703L204.678 232.36ZM202.118 225.4C202.54 225.4 203.108 225.476 203.729 225.728C204.355 225.983 204.855 226.343 205.215 226.703L193.901 238.017C196.15 240.266 199.062 241.4 202.118 241.4V225.4ZM205.215 226.703C205.574 227.063 205.935 227.562 206.19 228.189C206.442 228.81 206.518 229.378 206.518 229.8H190.518C190.518 232.856 191.652 235.768 193.901 238.017L205.215 226.703ZM206.518 229.8V180.44H190.518V229.8H206.518ZM206.518 180.44C206.518 180.862 206.442 181.43 206.19 182.051C205.935 182.678 205.574 183.177 205.215 183.537L193.901 172.223C191.652 174.472 190.518 177.384 190.518 180.44H206.518ZM205.42 183.324C205.091 183.678 204.594 184.076 203.924 184.369C203.254 184.663 202.617 184.76 202.118 184.76V168.76C198.866 168.76 195.893 170.07 193.695 172.436L205.42 183.324ZM202.118 184.76C201.619 184.76 200.982 184.663 200.311 184.369C199.642 184.076 199.145 183.678 198.815 183.324L210.54 172.436C208.343 170.07 205.37 168.76 202.118 168.76V184.76ZM199.234 183.742C198.88 183.413 198.481 182.916 198.189 182.247C197.895 181.576 197.798 180.939 197.798 180.44H213.798C213.798 177.188 212.488 174.215 210.121 172.018L199.234 183.742ZM197.798 180.44V201.72H213.798V180.44H197.798ZM205.798 209.72H236.118V193.72H205.798V209.72ZM244.118 201.72V180.44H228.118V201.72H244.118ZM244.118 180.44C244.118 180.862 244.042 181.43 243.79 182.051C243.535 182.678 243.174 183.177 242.815 183.537L231.501 172.223C229.252 174.472 228.118 177.384 228.118 180.44H244.118ZM243.02 183.324C242.691 183.678 242.194 184.076 241.524 184.369C240.854 184.663 240.217 184.76 239.718 184.76V168.76C236.466 168.76 233.493 170.07 231.295 172.436L243.02 183.324ZM239.718 184.76C239.219 184.76 238.582 184.663 237.911 184.369C237.242 184.076 236.745 183.678 236.415 183.324L248.14 172.436C245.943 170.07 242.97 168.76 239.718 168.76V184.76ZM236.834 183.742C236.48 183.413 236.081 182.916 235.789 182.247C235.495 181.576 235.398 180.939 235.398 180.44H251.398C251.398 177.188 250.088 174.215 247.721 172.018L236.834 183.742ZM235.398 180.44V229.8H251.398V180.44H235.398ZM235.398 229.8C235.398 229.301 235.495 228.664 235.789 227.993C236.081 227.324 236.48 226.827 236.834 226.498L247.721 238.222C250.088 236.025 251.398 233.052 251.398 229.8H235.398ZM236.621 226.703C236.981 226.343 237.48 225.983 238.107 225.728C238.728 225.476 239.296 225.4 239.718 225.4V241.4C242.774 241.4 245.686 240.266 247.935 238.017L236.621 226.703ZM239.718 225.4C240.14 225.4 240.708 225.476 241.329 225.728C241.955 225.983 242.455 226.343 242.815 226.703L231.501 238.017C233.75 240.266 236.662 241.4 239.718 241.4V225.4ZM242.815 226.703C243.174 227.063 243.535 227.562 243.79 228.189C244.042 228.81 244.118 229.378 244.118 229.8H228.118C228.118 232.856 229.252 235.768 231.501 238.017L242.815 226.703ZM244.118 229.8V208.52H228.118V229.8H244.118ZM236.118 200.52H205.798V216.52H236.118V200.52ZM197.798 208.52V229.8H213.798V208.52H197.798ZM197.798 229.8C197.798 229.301 197.895 228.664 198.189 227.993C198.481 227.324 198.88 226.827 199.234 226.498L210.121 238.222C212.488 236.025 213.798 233.052 213.798 229.8H197.798ZM199.021 226.703C199.381 226.343 199.88 225.983 200.507 225.728C201.128 225.476 201.696 225.4 202.118 225.4V241.4C205.174 241.4 208.086 240.266 210.335 238.017L199.021 226.703ZM262.693 231.72L258.333 238.428L258.371 238.452L258.408 238.476L262.693 231.72ZM257.733 226.04L250.483 229.423L250.514 229.489L250.546 229.554L257.733 226.04ZM257.093 192.84L251.649 186.978L251.541 187.078L251.436 187.183L257.093 192.84ZM262.293 192.84L267.95 187.183L262.293 192.84ZM279.253 225L274.893 218.292L274.854 218.318L274.815 218.344L279.253 225ZM285.253 219.4L291.514 224.38L293.253 222.194V219.4H285.253ZM286.293 192.84L280.849 186.978L280.741 187.078L280.636 187.183L286.293 192.84ZM291.493 192.84L297.15 187.183L291.493 192.84ZM291.493 232.36L297.15 238.017L297.254 237.912L297.355 237.804L291.493 232.36ZM286.293 232.36L280.43 237.804L280.632 238.021L280.849 238.222L286.293 232.36ZM285.253 226.44H293.253V205.674L279.321 221.073L285.253 226.44ZM278.693 231.8L282.645 238.756L278.693 231.8ZM270.373 225.8C268.75 225.8 267.718 225.434 266.977 224.964L258.408 238.476C262.041 240.779 266.129 241.8 270.373 241.8V225.8ZM267.053 225.012C266.195 224.455 265.49 223.693 264.92 222.526L250.546 229.554C252.322 233.187 254.924 236.212 258.333 238.428L267.053 225.012ZM264.982 222.657C264.399 221.406 264.053 219.935 264.053 218.12H248.053C248.053 222.065 248.827 225.874 250.483 229.423L264.982 222.657ZM264.053 218.12V195.4H248.053V218.12H264.053ZM264.053 195.4C264.053 195.822 263.977 196.39 263.725 197.011C263.47 197.638 263.109 198.137 262.75 198.497L251.436 187.183C249.187 189.432 248.053 192.344 248.053 195.4H264.053ZM262.536 198.702C262.235 198.982 261.803 199.283 261.245 199.503C260.686 199.723 260.158 199.8 259.733 199.8V183.8C256.688 183.8 253.866 184.919 251.649 186.978L262.536 198.702ZM259.733 199.8C259.311 199.8 258.743 199.724 258.122 199.472C257.495 199.217 256.996 198.857 256.636 198.497L267.95 187.183C265.701 184.934 262.789 183.8 259.733 183.8V199.8ZM256.636 198.497C256.276 198.137 255.916 197.638 255.661 197.011C255.409 196.39 255.333 195.822 255.333 195.4H271.333C271.333 192.344 270.198 189.432 267.95 187.183L256.636 198.497ZM255.333 195.4V217.32H271.333V195.4H255.333ZM255.333 217.32C255.333 221.614 256.283 226.328 259.591 229.997C263.042 233.824 267.74 235.08 272.133 235.08V219.08C271.385 219.08 271.078 218.974 271.057 218.966C271.053 218.965 271.11 218.986 271.202 219.047C271.296 219.11 271.392 219.191 271.474 219.283C271.652 219.48 271.626 219.559 271.544 219.287C271.454 218.988 271.333 218.371 271.333 217.32H255.333ZM272.133 235.08C276.268 235.08 280.207 233.979 283.69 231.656L274.815 218.344C274.139 218.795 273.331 219.08 272.133 219.08V235.08ZM283.613 231.708C286.584 229.776 289.204 227.284 291.514 224.38L278.992 214.42C277.568 216.209 276.188 217.451 274.893 218.292L283.613 231.708ZM293.253 219.4V195.4H277.253V219.4H293.253ZM293.253 195.4C293.253 195.822 293.177 196.39 292.925 197.011C292.67 197.638 292.309 198.137 291.95 198.497L280.636 187.183C278.387 189.432 277.253 192.344 277.253 195.4H293.253ZM291.736 198.702C291.435 198.982 291.003 199.283 290.445 199.503C289.886 199.723 289.358 199.8 288.933 199.8V183.8C285.888 183.8 283.066 184.919 280.849 186.978L291.736 198.702ZM288.933 199.8C288.511 199.8 287.943 199.724 287.322 199.472C286.695 199.217 286.196 198.857 285.836 198.497L297.15 187.183C294.901 184.934 291.989 183.8 288.933 183.8V199.8ZM285.836 198.497C285.476 198.137 285.116 197.638 284.861 197.011C284.609 196.39 284.533 195.822 284.533 195.4H300.533C300.533 192.344 299.398 189.432 297.15 187.183L285.836 198.497ZM284.533 195.4V229.72H300.533V195.4H284.533ZM284.533 229.72C284.533 229.295 284.609 228.767 284.83 228.208C285.049 227.65 285.351 227.217 285.63 226.916L297.355 237.804C299.414 235.586 300.533 232.765 300.533 229.72H284.533ZM285.836 226.703C286.196 226.343 286.695 225.983 287.322 225.728C287.943 225.476 288.511 225.4 288.933 225.4V241.4C291.989 241.4 294.901 240.266 297.15 238.017L285.836 226.703ZM288.933 225.4C289.358 225.4 289.886 225.477 290.445 225.697C291.003 225.917 291.435 226.218 291.736 226.498L280.849 238.222C283.066 240.281 285.888 241.4 288.933 241.4V225.4ZM292.155 226.916C292.435 227.217 292.736 227.65 292.956 228.208C293.176 228.767 293.253 229.295 293.253 229.72H277.253C277.253 232.765 278.372 235.586 280.43 237.804L292.155 226.916ZM293.253 229.72V226.44H277.253V229.72H293.253ZM279.321 221.073C277.798 222.756 276.264 223.979 274.741 224.844L282.645 238.756C285.814 236.955 288.654 234.604 291.185 231.807L279.321 221.073ZM274.741 224.844C273.805 225.376 272.445 225.8 270.373 225.8V241.8C274.7 241.8 278.887 240.891 282.645 238.756L274.741 224.844ZM306.243 232.36L311.9 226.703L311.9 226.703L306.243 232.36ZM306.243 192.92L311.9 198.577L312.004 198.472L312.105 198.364L306.243 192.92ZM311.363 192.92L305.5 198.364L305.702 198.581L305.919 198.782L311.363 192.92ZM312.483 198.76H304.483V219.526L318.415 204.127L312.483 198.76ZM319.043 193.4L322.995 200.356L319.043 193.4ZM334.963 193.48L330.603 200.188L330.641 200.212L330.678 200.236L334.963 193.48ZM339.923 199.16L332.673 202.543L332.704 202.609L332.736 202.674L339.923 199.16ZM340.563 232.36L335.119 226.498L335.011 226.598L334.906 226.703L340.563 232.36ZM335.443 232.36L329.786 238.017L329.786 238.017L335.443 232.36ZM318.403 200.2L314.043 193.492L314.004 193.518L313.965 193.544L318.403 200.2ZM312.483 205.8L306.222 200.82L304.483 203.006V205.8H312.483ZM311.363 232.36L305.919 226.498L305.811 226.598L305.706 226.703L311.363 232.36ZM308.803 225.4C309.225 225.4 309.793 225.476 310.414 225.728C311.04 225.983 311.54 226.343 311.9 226.703L300.586 238.017C302.835 240.266 305.747 241.4 308.803 241.4V225.4ZM311.9 226.703C312.259 227.063 312.62 227.562 312.875 228.189C313.127 228.81 313.203 229.378 313.203 229.8H297.203C297.203 232.856 298.337 235.768 300.586 238.017L311.9 226.703ZM313.203 229.8V195.48H297.203V229.8H313.203ZM313.203 195.48C313.203 195.902 313.127 196.47 312.875 197.091C312.62 197.718 312.259 198.217 311.9 198.577L300.586 187.263C298.337 189.512 297.203 192.424 297.203 195.48H313.203ZM312.105 198.364C311.776 198.718 311.279 199.116 310.609 199.409C309.939 199.703 309.302 199.8 308.803 199.8V183.8C305.551 183.8 302.578 185.11 300.38 187.476L312.105 198.364ZM308.803 199.8C308.304 199.8 307.667 199.703 306.996 199.409C306.327 199.116 305.83 198.718 305.5 198.364L317.225 187.476C315.028 185.11 312.055 183.8 308.803 183.8V199.8ZM305.919 198.782C305.565 198.453 305.166 197.956 304.874 197.287C304.58 196.616 304.483 195.979 304.483 195.48H320.483C320.483 192.228 319.173 189.255 316.806 187.058L305.919 198.782ZM304.483 195.48V198.76H320.483V195.48H304.483ZM318.415 204.127C319.938 202.444 321.471 201.221 322.995 200.356L315.091 186.444C311.921 188.245 309.081 190.596 306.551 193.393L318.415 204.127ZM322.995 200.356C323.931 199.824 325.29 199.4 327.363 199.4V183.4C323.035 183.4 318.848 184.309 315.091 186.444L322.995 200.356ZM327.363 199.4C328.991 199.4 329.957 199.767 330.603 200.188L339.323 186.772C335.702 184.419 331.601 183.4 327.363 183.4V199.4ZM330.678 200.236C331.544 200.785 332.184 201.494 332.673 202.543L347.172 195.777C345.422 192.026 342.755 188.948 339.247 186.724L330.678 200.236ZM332.736 202.674C333.333 203.896 333.683 205.321 333.683 207.08H349.683C349.683 203.079 348.859 199.224 347.11 195.646L332.736 202.674ZM333.683 207.08V229.8H349.683V207.08H333.683ZM333.683 229.8C333.683 229.301 333.78 228.664 334.074 227.993C334.366 227.324 334.765 226.827 335.119 226.498L346.006 238.222C348.373 236.025 349.683 233.052 349.683 229.8H333.683ZM334.906 226.703C335.266 226.343 335.765 225.983 336.392 225.728C337.013 225.476 337.581 225.4 338.003 225.4V241.4C341.059 241.4 343.971 240.266 346.22 238.017L334.906 226.703ZM338.003 225.4C338.425 225.4 338.993 225.476 339.614 225.728C340.24 225.983 340.74 226.343 341.1 226.703L329.786 238.017C332.035 240.266 334.947 241.4 338.003 241.4V225.4ZM341.1 226.703C341.459 227.063 341.82 227.562 342.075 228.189C342.327 228.81 342.403 229.378 342.403 229.8H326.403C326.403 232.856 327.537 235.768 329.786 238.017L341.1 226.703ZM342.403 229.8V207.88H326.403V229.8H342.403ZM342.403 207.88C342.403 203.586 341.453 198.872 338.144 195.203C334.694 191.376 329.995 190.12 325.603 190.12V206.12C326.351 206.12 326.658 206.226 326.679 206.234C326.683 206.235 326.625 206.214 326.533 206.153C326.439 206.09 326.344 206.009 326.261 205.917C326.083 205.72 326.11 205.641 326.191 205.913C326.281 206.212 326.403 206.829 326.403 207.88H342.403ZM325.603 190.12C321.467 190.12 317.538 191.221 314.043 193.492L322.763 206.908C323.534 206.406 324.406 206.12 325.603 206.12V190.12ZM313.965 193.544C311.072 195.472 308.506 197.949 306.222 200.82L318.744 210.78C320.193 208.958 321.573 207.701 322.84 206.856L313.965 193.544ZM304.483 205.8V229.8H320.483V205.8H304.483ZM304.483 229.8C304.483 229.301 304.58 228.664 304.874 227.993C305.166 227.324 305.565 226.827 305.919 226.498L316.806 238.222C319.173 236.025 320.483 233.052 320.483 229.8H304.483ZM305.706 226.703C306.066 226.343 306.565 225.983 307.192 225.728C307.813 225.476 308.381 225.4 308.803 225.4V241.4C311.859 241.4 314.771 240.266 317.02 238.017L305.706 226.703ZM355.415 198.44H363.415V190.44H355.415V198.44ZM348.615 198.04L342.47 203.161L342.935 203.72L343.494 204.186L348.615 198.04ZM348.935 195.56L353.847 201.875L354.205 201.597L354.529 201.28L348.935 195.56ZM359.815 184.92L365.409 190.64L365.441 190.608L365.472 190.577L359.815 184.92ZM362.215 184.68L356.07 189.801L356.302 190.08L356.558 190.337L362.215 184.68ZM362.695 192.2H354.695V200.2H362.695V192.2ZM373.975 193.08L368.318 198.737L368.318 198.737L373.975 193.08ZM373.975 197.56L379.632 203.217L379.755 203.094L379.873 202.966L373.975 197.56ZM362.695 198.44V190.44H354.695V198.44H362.695ZM364.135 226.6L359.964 233.426L360.182 233.56L360.409 233.679L364.135 226.6ZM371.095 226.92L369.155 219.159L368.975 219.204L368.797 219.257L371.095 226.92ZM371.735 226.76L370.166 218.915L369.98 218.953L369.795 218.999L371.735 226.76ZM374.695 227.56L369.038 233.217L369.173 233.351L369.314 233.48L374.695 227.56ZM373.735 232.36L377.088 239.624L377.264 239.542L377.436 239.453L373.735 232.36ZM367.095 225.8C364.247 225.8 363.604 225.139 363.7 225.226C363.95 225.451 363.415 225.307 363.415 223.24H347.415C347.415 228.213 348.827 233.349 352.97 237.094C356.96 240.701 362.157 241.8 367.095 241.8V225.8ZM363.415 223.24V198.44H347.415V223.24H363.415ZM355.415 190.44H349.735V206.44H355.415V190.44ZM349.735 190.44C350.369 190.44 351.085 190.542 351.826 190.806C352.569 191.071 353.211 191.456 353.737 191.894L343.494 204.186C345.289 205.682 347.487 206.44 349.735 206.44V190.44ZM354.761 192.919C355.199 193.444 355.584 194.086 355.849 194.829C356.114 195.57 356.215 196.287 356.215 196.92H340.215C340.215 199.169 340.973 201.366 342.47 203.161L354.761 192.919ZM356.215 196.92C356.215 197.904 355.981 198.95 355.466 199.923C354.967 200.865 354.337 201.494 353.847 201.875L344.024 189.245C341.905 190.893 340.215 193.55 340.215 196.92H356.215ZM354.529 201.28L365.409 190.64L354.222 179.2L343.342 189.84L354.529 201.28ZM365.472 190.577C365.307 190.742 363.833 192.2 361.175 192.2V176.2C357.665 176.2 355.283 178.138 354.158 179.263L365.472 190.577ZM361.175 192.2C360.368 192.2 359.398 192.043 358.403 191.584C357.402 191.122 356.627 190.47 356.07 189.801L368.361 179.559C366.532 177.364 363.91 176.2 361.175 176.2V192.2ZM356.558 190.337C356.081 189.859 355.586 189.201 355.222 188.351C354.854 187.492 354.695 186.614 354.695 185.8H370.695C370.695 183.113 369.591 180.742 367.872 179.023L356.558 190.337ZM354.695 185.8V192.2H370.695V185.8H354.695ZM362.695 200.2H371.735V184.2H362.695V200.2ZM371.735 200.2C371.317 200.2 370.722 200.13 370.05 199.866C369.364 199.597 368.776 199.194 368.318 198.737L379.632 187.423C377.399 185.19 374.547 184.2 371.735 184.2V200.2ZM368.318 198.737C367.861 198.28 367.459 197.691 367.189 197.005C366.925 196.333 366.855 195.738 366.855 195.32H382.855C382.855 192.508 381.866 189.657 379.632 187.423L368.318 198.737ZM366.855 195.32C366.855 194.81 366.947 194.211 367.189 193.595C367.431 192.98 367.762 192.499 368.078 192.154L379.873 202.966C381.786 200.879 382.855 198.213 382.855 195.32H366.855ZM368.318 191.903C368.776 191.446 369.364 191.043 370.05 190.774C370.722 190.51 371.317 190.44 371.735 190.44V206.44C374.547 206.44 377.399 205.45 379.632 203.217L368.318 191.903ZM371.735 190.44H362.695V206.44H371.735V190.44ZM354.695 198.44V222.6H370.695V198.44H354.695ZM354.695 222.6C354.695 225.153 355.16 230.491 359.964 233.426L368.307 219.774C369.749 220.655 370.369 221.857 370.582 222.45C370.765 222.958 370.695 223.108 370.695 222.6H354.695ZM360.409 233.679C362.868 234.973 365.485 235.4 367.895 235.4V219.4C367.759 219.4 367.66 219.394 367.593 219.387C367.527 219.381 367.498 219.375 367.5 219.375C367.507 219.377 367.646 219.408 367.861 219.521L360.409 233.679ZM367.895 235.4C369.774 235.4 371.615 235.116 373.394 234.583L368.797 219.257C368.443 219.364 368.15 219.4 367.895 219.4V235.4ZM373.036 234.681C373.249 234.628 373.462 234.574 373.676 234.521L369.795 218.999C369.582 219.052 369.368 219.106 369.155 219.159L373.036 234.681ZM373.304 234.605C373.091 234.647 372.931 234.665 372.84 234.672C372.747 234.68 372.696 234.68 372.695 234.68V218.68C371.975 218.68 371.1 218.729 370.166 218.915L373.304 234.605ZM372.695 234.68C371.988 234.68 371.241 234.534 370.533 234.223C369.842 233.918 369.35 233.528 369.038 233.217L380.352 221.903C378.448 219.999 375.809 218.68 372.695 218.68V234.68ZM369.314 233.48C368.853 233.06 368.376 232.462 368.033 231.682C367.69 230.904 367.575 230.159 367.575 229.56H383.575C383.575 226.529 382.348 223.706 380.077 221.64L369.314 233.48ZM367.575 229.56C367.575 228.772 367.795 227.752 368.43 226.787C369.031 225.872 369.725 225.429 370.035 225.267L377.436 239.453C378.973 238.651 380.587 237.421 381.801 235.573C383.049 233.675 383.575 231.575 383.575 229.56H367.575ZM370.383 225.096C369.38 225.559 368.313 225.8 367.095 225.8V241.8C370.571 241.8 373.931 241.081 377.088 239.624L370.383 225.096Z" fill="black" mask="url(#path-32-outside-2_22_46)"/>
</g>
<defs>
<filter id="filter0_d_22_46" x="402.548" y="255.79" width="71.1264" height="90.6331" filterUnits="userSpaceOnUse" color-interpolation-filters="sRGB">
<feFlood flood-opacity="0" result="BackgroundImageFix"/>
<feColorMatrix in="SourceAlpha" type="matrix" values="0 0 0 0 0 0 0 0 0 0 0 0 0 0 0 0 0 0 127 0" result="hardAlpha"/>
<feOffset dx="2" dy="-10"/>
<feGaussianBlur stdDeviation="5"/>
<feComposite in2="hardAlpha" operator="out"/>
<feColorMatrix type="matrix" values="0 0 0 0 0 0 0 0 0 0 0 0 0 0 0 0 0 0 0.25 0"/>
<feBlend mode="normal" in2="BackgroundImageFix" result="effect1_dropShadow_22_46"/>
<feBlend mode="normal" in="SourceGraphic" in2="effect1_dropShadow_22_46" result="shape"/>
</filter>
<filter id="filter1_d_22_46" x="217.687" y="273.124" width="165.932" height="195.756" filterUnits="userSpaceOnUse" color-interpolation-filters="sRGB">
<feFlood flood-opacity="0" result="BackgroundImageFix"/>
<feColorMatrix in="SourceAlpha" type="matrix" values="0 0 0 0 0 0 0 0 0 0 0 0 0 0 0 0 0 0 127 0" result="hardAlpha"/>
<feOffset dx="-10" dy="10"/>
<feGaussianBlur stdDeviation="5"/>
<feComposite in2="hardAlpha" operator="out"/>
<feColorMatrix type="matrix" values="0 0 0 0 0 0 0 0 0 0 0 0 0 0 0 0 0 0 0.25 0"/>
<feBlend mode="normal" in2="BackgroundImageFix" result="effect1_dropShadow_22_46"/>
<feBlend mode="normal" in="SourceGraphic" in2="effect1_dropShadow_22_46" result="shape"/>
</filter>
<filter id="filter2_d_22_46" x="267.501" y="273.124" width="120.119" height="130.996" filterUnits="userSpaceOnUse" color-interpolation-filters="sRGB">
<feFlood flood-opacity="0" result="BackgroundImageFix"/>
<feColorMatrix in="SourceAlpha" type="matrix" values="0 0 0 0 0 0 0 0 0 0 0 0 0 0 0 0 0 0 127 0" result="hardAlpha"/>
<feOffset dy="4"/>
<feGaussianBlur stdDeviation="2"/>
<feComposite in2="hardAlpha" operator="out"/>
<feColorMatrix type="matrix" values="0 0 0 0 0 0 0 0 0 0 0 0 0 0 0 0 0 0 0.25 0"/>
<feBlend mode="normal" in2="BackgroundImageFix" result="effect1_dropShadow_22_46"/>
<feBlend mode="normal" in="SourceGraphic" in2="effect1_dropShadow_22_46" result="shape"/>
</filter>
<filter id="filter3_d_22_46" x="261.669" y="376.57" width="38.0049" height="38.0049" filterUnits="userSpaceOnUse" color-interpolation-filters="sRGB">
<feFlood flood-opacity="0" result="BackgroundImageFix"/>
<feColorMatrix in="SourceAlpha" type="matrix" values="0 0 0 0 0 0 0 0 0 0 0 0 0 0 0 0 0 0 127 0" result="hardAlpha"/>
<feOffset dy="4"/>
<feGaussianBlur stdDeviation="2"/>
<feComposite in2="hardAlpha" operator="out"/>
<feColorMatrix type="matrix" values="0 0 0 0 0 0 0 0 0 0 0 0 0 0 0 0 0 0 0.25 0"/>
<feBlend mode="normal" in2="BackgroundImageFix" result="effect1_dropShadow_22_46"/>
<feBlend mode="normal" in="SourceGraphic" in2="effect1_dropShadow_22_46" result="shape"/>
</filter>
<filter id="filter4_d_22_46" x="290.248" y="393.07" width="38.0049" height="38.0049" filterUnits="userSpaceOnUse" color-interpolation-filters="sRGB">
<feFlood flood-opacity="0" result="BackgroundImageFix"/>
<feColorMatrix in="SourceAlpha" type="matrix" values="0 0 0 0 0 0 0 0 0 0 0 0 0 0 0 0 0 0 127 0" result="hardAlpha"/>
<feOffset dy="4"/>
<feGaussianBlur stdDeviation="2"/>
<feComposite in2="hardAlpha" operator="out"/>
<feColorMatrix type="matrix" values="0 0 0 0 0 0 0 0 0 0 0 0 0 0 0 0 0 0 0.25 0"/>
<feBlend mode="normal" in2="BackgroundImageFix" result="effect1_dropShadow_22_46"/>
<feBlend mode="normal" in="SourceGraphic" in2="effect1_dropShadow_22_46" result="shape"/>
</filter>
<filter id="filter5_d_22_46" x="42.8535" y="62.656" width="389.837" height="229.344" filterUnits="userSpaceOnUse" color-interpolation-filters="sRGB">
<feFlood flood-opacity="0" result="BackgroundImageFix"/>
<feColorMatrix in="SourceAlpha" type="matrix" values="0 0 0 0 0 0 0 0 0 0 0 0 0 0 0 0 0 0 127 0" result="hardAlpha"/>
<feOffset dy="10"/>
<feGaussianBlur stdDeviation="5"/>
<feComposite in2="hardAlpha" operator="out"/>
<feColorMatrix type="matrix" values="0 0 0 0 0 0 0 0 0 0 0 0 0 0 0 0 0 0 0.25 0"/>
<feBlend mode="normal" in2="BackgroundImageFix" result="effect1_dropShadow_22_46"/>
<feBlend mode="normal" in="SourceGraphic" in2="effect1_dropShadow_22_46" result="shape"/>
</filter>
<filter id="filter6_i_22_46" x="66" y="208" width="160" height="68" filterUnits="userSpaceOnUse" color-interpolation-filters="sRGB">
<feFlood flood-opacity="0" result="BackgroundImageFix"/>
<feBlend mode="normal" in="SourceGraphic" in2="BackgroundImageFix" result="shape"/>
<feColorMatrix in="SourceAlpha" type="matrix" values="0 0 0 0 0 0 0 0 0 0 0 0 0 0 0 0 0 0 127 0" result="hardAlpha"/>
<feOffset dy="4"/>
<feGaussianBlur stdDeviation="2"/>
<feComposite in2="hardAlpha" operator="arithmetic" k2="-1" k3="1"/>
<feColorMatrix type="matrix" values="0 0 0 0 0 0 0 0 0 0 0 0 0 0 0 0 0 0 0.25 0"/>
<feBlend mode="normal" in2="shape" result="effect1_innerShadow_22_46"/>
</filter>
</defs>
</svg>
