<svg width="400" height="240" viewBox="0 0 400 240" fill="none" xmlns="http://www.w3.org/2000/svg">
<mask id="path-1-outside-1_9_26" maskUnits="userSpaceOnUse" x="12" y="22" width="387" height="108" fill="black">
<rect fill="white" x="12" y="22" width="387" height="108"/>
<path d="M26.6135 120C24.9922 120 23.6268 119.445 22.5175 118.336C21.4082 117.227 20.8535 115.861 20.8535 114.24V36.544C20.8535 34.9227 21.4082 33.5573 22.5175 32.448C23.6268 31.2533 24.9922 30.656 26.6135 30.656H77.9415C79.4775 30.656 80.7575 31.2107 81.7815 32.32C82.8908 33.344 83.4455 34.624 83.4455 36.16C83.4455 37.696 82.8908 38.976 81.7815 40C80.7575 41.024 79.4775 41.536 77.9415 41.536H32.5015V69.824H73.3335C74.8695 69.824 76.1495 70.3787 77.1735 71.488C78.2828 72.512 78.8375 73.792 78.8375 75.328C78.8375 76.864 78.2828 78.144 77.1735 79.168C76.1495 80.192 74.8695 80.704 73.3335 80.704H32.5015V109.12H77.9415C79.4775 109.12 80.7575 109.675 81.7815 110.784C82.8908 111.808 83.4455 113.088 83.4455 114.624C83.4455 116.16 82.8908 117.44 81.7815 118.464C80.7575 119.488 79.4775 120 77.9415 120H26.6135ZM115.94 121.28C112.185 121.28 108.686 120.512 105.444 118.976C102.286 117.44 99.7688 115.221 97.8915 112.32C96.0142 109.333 95.0755 105.92 95.0755 102.08C95.0755 95.7653 97.5502 90.7307 102.5 86.976C107.534 83.2213 114.873 81.344 124.516 81.344H140.004V80.32C140.004 74.688 138.596 70.6347 135.78 68.16C133.049 65.6853 128.74 64.448 122.852 64.448C119.609 64.448 116.708 64.704 114.148 65.216C111.673 65.728 108.9 66.496 105.828 67.52C105.145 67.6907 104.59 67.776 104.164 67.776C102.884 67.776 101.774 67.3067 100.836 66.368C99.8968 65.4293 99.4275 64.2773 99.4275 62.912C99.4275 60.608 100.537 58.9867 102.756 58.048C110.009 54.976 117.39 53.44 124.9 53.44C130.788 53.44 135.737 54.6347 139.748 57.024C143.844 59.4133 146.83 62.528 148.708 66.368C150.67 70.1227 151.652 74.2187 151.652 78.656V114.88C151.652 116.501 151.054 117.867 149.86 118.976C148.75 120.085 147.385 120.64 145.764 120.64C144.142 120.64 142.777 120.085 141.668 118.976C140.558 117.867 140.004 116.501 140.004 114.88V111.552C133.689 118.037 125.668 121.28 115.94 121.28ZM120.292 111.04C124.046 111.04 127.673 110.144 131.172 108.352C134.67 106.475 137.614 104.171 140.004 101.44V90.688H126.052C113.166 90.688 106.724 94.0587 106.724 100.8C106.724 103.872 107.748 106.347 109.796 108.224C111.929 110.101 115.428 111.04 120.292 111.04ZM192.295 121.28C183.761 121.28 175.996 119.36 168.999 115.52C167.548 114.496 166.823 113.088 166.823 111.296C166.823 109.931 167.292 108.736 168.231 107.712C169.169 106.688 170.364 106.176 171.815 106.176C172.583 106.176 173.351 106.347 174.119 106.688C176.849 107.883 179.58 108.821 182.311 109.504C185.041 110.187 188.113 110.528 191.527 110.528C200.999 110.528 205.735 107.499 205.735 101.44C205.735 99.4773 204.625 97.984 202.407 96.96C200.273 95.936 196.732 94.784 191.783 93.504C186.748 92.3093 182.567 91.072 179.239 89.792C175.996 88.512 173.18 86.592 170.791 84.032C168.487 81.3867 167.335 77.9307 167.335 73.664C167.335 67.6907 169.468 62.8267 173.735 59.072C178.087 55.3173 184.273 53.44 192.295 53.44C198.865 53.44 205.052 54.5067 210.855 56.64C212.049 56.9813 212.945 57.6213 213.543 58.56C214.225 59.4987 214.567 60.48 214.567 61.504C214.567 62.8693 214.055 64.064 213.031 65.088C212.092 66.112 210.897 66.624 209.447 66.624C209.02 66.624 208.465 66.5387 207.783 66.368C202.833 64.832 197.969 64.064 193.191 64.064C188.583 64.064 184.956 64.9173 182.311 66.624C179.751 68.2453 178.471 70.3787 178.471 73.024C178.471 75.584 179.665 77.4613 182.055 78.656C184.444 79.8507 188.156 81.0027 193.191 82.112C198.225 83.392 202.321 84.672 205.479 85.952C208.636 87.1467 211.324 89.0667 213.543 91.712C215.847 94.3573 216.999 97.8987 216.999 102.336C216.999 107.797 214.823 112.32 210.471 115.904C206.204 119.488 200.145 121.28 192.295 121.28ZM254.703 121.28C242.244 121.28 236.015 115.648 236.015 104.384V64.704H226.927C226.244 64.704 225.647 64.4907 225.135 64.064C224.708 63.552 224.495 62.9547 224.495 62.272C224.495 61.4187 224.879 60.6933 225.647 60.096L243.055 43.072C243.823 42.304 244.548 41.92 245.231 41.92C245.913 41.92 246.468 42.176 246.895 42.688C247.407 43.2 247.663 43.7973 247.663 44.48V54.72H262.127C263.577 54.72 264.772 55.1893 265.711 56.128C266.649 57.0667 267.119 58.2613 267.119 59.712C267.119 61.0773 266.649 62.272 265.711 63.296C264.772 64.2347 263.577 64.704 262.127 64.704H247.663V103.36C247.663 106.688 248.431 108.821 249.967 109.76C251.588 110.613 253.593 111.04 255.983 111.04C257.689 111.04 259.396 110.784 261.103 110.272C261.444 110.187 261.785 110.101 262.127 110.016C262.553 109.931 263.065 109.888 263.663 109.888C264.857 109.888 265.924 110.357 266.863 111.296C267.801 112.149 268.271 113.216 268.271 114.496C268.271 116.459 267.289 117.952 265.327 118.976C261.999 120.512 258.457 121.28 254.703 121.28ZM309.359 121.28C298.948 121.28 290.799 118.336 284.911 112.448C279.108 106.475 276.207 98.112 276.207 87.36C276.207 81.3013 277.316 75.712 279.535 70.592C281.753 65.472 285.167 61.3333 289.775 58.176C294.383 55.0187 300.057 53.44 306.799 53.44C313.113 53.44 318.575 54.9333 323.183 57.92C327.791 60.8213 331.289 64.7467 333.679 69.696C336.068 74.56 337.263 79.8933 337.263 85.696C337.263 87.3173 336.708 88.6827 335.599 89.792C334.575 90.9013 333.167 91.456 331.375 91.456H287.983C288.665 97.4293 290.884 102.08 294.639 105.408C298.393 108.736 303.641 110.4 310.383 110.4C313.967 110.4 317.081 110.059 319.727 109.376C322.457 108.693 325.103 107.712 327.663 106.432C328.345 106.091 329.113 105.92 329.967 105.92C331.332 105.92 332.527 106.389 333.551 107.328C334.575 108.267 335.087 109.461 335.087 110.912C335.087 112.789 333.977 114.368 331.759 115.648C328.431 117.525 325.145 118.933 321.903 119.872C318.66 120.811 314.479 121.28 309.359 121.28ZM325.743 81.984C325.487 77.8027 324.377 74.304 322.415 71.488C320.537 68.672 318.191 66.624 315.375 65.344C312.559 63.9787 309.7 63.296 306.799 63.296C303.897 63.296 301.039 63.9787 298.223 65.344C295.407 66.624 293.06 68.672 291.183 71.488C289.305 74.304 288.239 77.8027 287.983 81.984H325.743ZM358.435 120.64C356.813 120.64 355.448 120.085 354.339 118.976C353.229 117.867 352.675 116.501 352.675 114.88V59.968C352.675 58.3467 353.229 56.9813 354.339 55.872C355.448 54.6773 356.813 54.08 358.435 54.08C360.056 54.08 361.421 54.6773 362.531 55.872C363.725 56.9813 364.323 58.3467 364.323 59.968V65.472C370.296 57.4507 376.995 53.44 384.419 53.44H385.059C386.68 53.44 388.003 53.9947 389.027 55.104C390.136 56.2133 390.691 57.5787 390.691 59.2C390.691 60.8213 390.136 62.144 389.027 63.168C387.917 64.192 386.509 64.704 384.803 64.704H384.163C380.067 64.704 376.312 65.728 372.899 67.776C369.485 69.7387 366.627 72.4693 364.323 75.968V114.88C364.323 116.501 363.725 117.867 362.531 118.976C361.421 120.085 360.056 120.64 358.435 120.64Z"/>
</mask>
<path d="M26.6135 120C24.9922 120 23.6268 119.445 22.5175 118.336C21.4082 117.227 20.8535 115.861 20.8535 114.24V36.544C20.8535 34.9227 21.4082 33.5573 22.5175 32.448C23.6268 31.2533 24.9922 30.656 26.6135 30.656H77.9415C79.4775 30.656 80.7575 31.2107 81.7815 32.32C82.8908 33.344 83.4455 34.624 83.4455 36.16C83.4455 37.696 82.8908 38.976 81.7815 40C80.7575 41.024 79.4775 41.536 77.9415 41.536H32.5015V69.824H73.3335C74.8695 69.824 76.1495 70.3787 77.1735 71.488C78.2828 72.512 78.8375 73.792 78.8375 75.328C78.8375 76.864 78.2828 78.144 77.1735 79.168C76.1495 80.192 74.8695 80.704 73.3335 80.704H32.5015V109.12H77.9415C79.4775 109.12 80.7575 109.675 81.7815 110.784C82.8908 111.808 83.4455 113.088 83.4455 114.624C83.4455 116.16 82.8908 117.44 81.7815 118.464C80.7575 119.488 79.4775 120 77.9415 120H26.6135ZM115.94 121.28C112.185 121.28 108.686 120.512 105.444 118.976C102.286 117.44 99.7688 115.221 97.8915 112.32C96.0142 109.333 95.0755 105.92 95.0755 102.08C95.0755 95.7653 97.5502 90.7307 102.5 86.976C107.534 83.2213 114.873 81.344 124.516 81.344H140.004V80.32C140.004 74.688 138.596 70.6347 135.78 68.16C133.049 65.6853 128.74 64.448 122.852 64.448C119.609 64.448 116.708 64.704 114.148 65.216C111.673 65.728 108.9 66.496 105.828 67.52C105.145 67.6907 104.59 67.776 104.164 67.776C102.884 67.776 101.774 67.3067 100.836 66.368C99.8968 65.4293 99.4275 64.2773 99.4275 62.912C99.4275 60.608 100.537 58.9867 102.756 58.048C110.009 54.976 117.39 53.44 124.9 53.44C130.788 53.44 135.737 54.6347 139.748 57.024C143.844 59.4133 146.83 62.528 148.708 66.368C150.67 70.1227 151.652 74.2187 151.652 78.656V114.88C151.652 116.501 151.054 117.867 149.86 118.976C148.75 120.085 147.385 120.64 145.764 120.64C144.142 120.64 142.777 120.085 141.668 118.976C140.558 117.867 140.004 116.501 140.004 114.88V111.552C133.689 118.037 125.668 121.28 115.94 121.28ZM120.292 111.04C124.046 111.04 127.673 110.144 131.172 108.352C134.67 106.475 137.614 104.171 140.004 101.44V90.688H126.052C113.166 90.688 106.724 94.0587 106.724 100.8C106.724 103.872 107.748 106.347 109.796 108.224C111.929 110.101 115.428 111.04 120.292 111.04ZM192.295 121.28C183.761 121.28 175.996 119.36 168.999 115.52C167.548 114.496 166.823 113.088 166.823 111.296C166.823 109.931 167.292 108.736 168.231 107.712C169.169 106.688 170.364 106.176 171.815 106.176C172.583 106.176 173.351 106.347 174.119 106.688C176.849 107.883 179.58 108.821 182.311 109.504C185.041 110.187 188.113 110.528 191.527 110.528C200.999 110.528 205.735 107.499 205.735 101.44C205.735 99.4773 204.625 97.984 202.407 96.96C200.273 95.936 196.732 94.784 191.783 93.504C186.748 92.3093 182.567 91.072 179.239 89.792C175.996 88.512 173.18 86.592 170.791 84.032C168.487 81.3867 167.335 77.9307 167.335 73.664C167.335 67.6907 169.468 62.8267 173.735 59.072C178.087 55.3173 184.273 53.44 192.295 53.44C198.865 53.44 205.052 54.5067 210.855 56.64C212.049 56.9813 212.945 57.6213 213.543 58.56C214.225 59.4987 214.567 60.48 214.567 61.504C214.567 62.8693 214.055 64.064 213.031 65.088C212.092 66.112 210.897 66.624 209.447 66.624C209.02 66.624 208.465 66.5387 207.783 66.368C202.833 64.832 197.969 64.064 193.191 64.064C188.583 64.064 184.956 64.9173 182.311 66.624C179.751 68.2453 178.471 70.3787 178.471 73.024C178.471 75.584 179.665 77.4613 182.055 78.656C184.444 79.8507 188.156 81.0027 193.191 82.112C198.225 83.392 202.321 84.672 205.479 85.952C208.636 87.1467 211.324 89.0667 213.543 91.712C215.847 94.3573 216.999 97.8987 216.999 102.336C216.999 107.797 214.823 112.32 210.471 115.904C206.204 119.488 200.145 121.28 192.295 121.28ZM254.703 121.28C242.244 121.28 236.015 115.648 236.015 104.384V64.704H226.927C226.244 64.704 225.647 64.4907 225.135 64.064C224.708 63.552 224.495 62.9547 224.495 62.272C224.495 61.4187 224.879 60.6933 225.647 60.096L243.055 43.072C243.823 42.304 244.548 41.92 245.231 41.92C245.913 41.92 246.468 42.176 246.895 42.688C247.407 43.2 247.663 43.7973 247.663 44.48V54.72H262.127C263.577 54.72 264.772 55.1893 265.711 56.128C266.649 57.0667 267.119 58.2613 267.119 59.712C267.119 61.0773 266.649 62.272 265.711 63.296C264.772 64.2347 263.577 64.704 262.127 64.704H247.663V103.36C247.663 106.688 248.431 108.821 249.967 109.76C251.588 110.613 253.593 111.04 255.983 111.04C257.689 111.04 259.396 110.784 261.103 110.272C261.444 110.187 261.785 110.101 262.127 110.016C262.553 109.931 263.065 109.888 263.663 109.888C264.857 109.888 265.924 110.357 266.863 111.296C267.801 112.149 268.271 113.216 268.271 114.496C268.271 116.459 267.289 117.952 265.327 118.976C261.999 120.512 258.457 121.28 254.703 121.28ZM309.359 121.28C298.948 121.28 290.799 118.336 284.911 112.448C279.108 106.475 276.207 98.112 276.207 87.36C276.207 81.3013 277.316 75.712 279.535 70.592C281.753 65.472 285.167 61.3333 289.775 58.176C294.383 55.0187 300.057 53.44 306.799 53.44C313.113 53.44 318.575 54.9333 323.183 57.92C327.791 60.8213 331.289 64.7467 333.679 69.696C336.068 74.56 337.263 79.8933 337.263 85.696C337.263 87.3173 336.708 88.6827 335.599 89.792C334.575 90.9013 333.167 91.456 331.375 91.456H287.983C288.665 97.4293 290.884 102.08 294.639 105.408C298.393 108.736 303.641 110.4 310.383 110.4C313.967 110.4 317.081 110.059 319.727 109.376C322.457 108.693 325.103 107.712 327.663 106.432C328.345 106.091 329.113 105.92 329.967 105.92C331.332 105.92 332.527 106.389 333.551 107.328C334.575 108.267 335.087 109.461 335.087 110.912C335.087 112.789 333.977 114.368 331.759 115.648C328.431 117.525 325.145 118.933 321.903 119.872C318.66 120.811 314.479 121.28 309.359 121.28ZM325.743 81.984C325.487 77.8027 324.377 74.304 322.415 71.488C320.537 68.672 318.191 66.624 315.375 65.344C312.559 63.9787 309.7 63.296 306.799 63.296C303.897 63.296 301.039 63.9787 298.223 65.344C295.407 66.624 293.06 68.672 291.183 71.488C289.305 74.304 288.239 77.8027 287.983 81.984H325.743ZM358.435 120.64C356.813 120.64 355.448 120.085 354.339 118.976C353.229 117.867 352.675 116.501 352.675 114.88V59.968C352.675 58.3467 353.229 56.9813 354.339 55.872C355.448 54.6773 356.813 54.08 358.435 54.08C360.056 54.08 361.421 54.6773 362.531 55.872C363.725 56.9813 364.323 58.3467 364.323 59.968V65.472C370.296 57.4507 376.995 53.44 384.419 53.44H385.059C386.68 53.44 388.003 53.9947 389.027 55.104C390.136 56.2133 390.691 57.5787 390.691 59.2C390.691 60.8213 390.136 62.144 389.027 63.168C387.917 64.192 386.509 64.704 384.803 64.704H384.163C380.067 64.704 376.312 65.728 372.899 67.776C369.485 69.7387 366.627 72.4693 364.323 75.968V114.88C364.323 116.501 363.725 117.867 362.531 118.976C361.421 120.085 360.056 120.64 358.435 120.64Z" fill="white"/>
<path d="M22.5175 118.336L28.1744 112.679L28.1744 112.679L22.5175 118.336ZM22.5175 32.448L28.1744 38.1049L28.2791 38.0001L28.3798 37.8916L22.5175 32.448ZM81.7815 32.32L75.9031 37.7462L76.1201 37.9814L76.3553 38.1984L81.7815 32.32ZM81.7815 40L76.3553 34.1216L76.2377 34.2301L76.1246 34.3431L81.7815 40ZM32.5015 41.536V33.536H24.5015V41.536H32.5015ZM32.5015 69.824H24.5015V77.824H32.5015V69.824ZM77.1735 71.488L71.2951 76.9142L71.5121 77.1494L71.7473 77.3664L77.1735 71.488ZM77.1735 79.168L71.7473 73.2896L71.6297 73.3981L71.5166 73.5112L77.1735 79.168ZM32.5015 80.704V72.704H24.5015V80.704H32.5015ZM32.5015 109.12H24.5015V117.12H32.5015V109.12ZM81.7815 110.784L75.9031 116.21L76.1201 116.445L76.3553 116.662L81.7815 110.784ZM81.7815 118.464L76.3553 112.586L76.2377 112.694L76.1246 112.807L81.7815 118.464ZM26.6135 112C26.7314 112 27.0193 112.024 27.3845 112.172C27.755 112.323 28.0227 112.527 28.1744 112.679L16.8606 123.993C19.5255 126.658 22.9498 128 26.6135 128V112ZM28.1744 112.679C28.3261 112.831 28.5307 113.098 28.6812 113.469C28.8296 113.834 28.8535 114.122 28.8535 114.24H12.8535C12.8535 117.904 14.1958 121.328 16.8606 123.993L28.1744 112.679ZM28.8535 114.24V36.544H12.8535V114.24H28.8535ZM28.8535 36.544C28.8535 36.6619 28.8296 36.9498 28.6812 37.315C28.5307 37.6855 28.3261 37.9531 28.1744 38.1049L16.8606 26.7911C14.1958 29.456 12.8535 32.8803 12.8535 36.544H28.8535ZM28.3798 37.8916C28.2586 38.0221 27.9936 38.2523 27.5801 38.4333C27.1655 38.6146 26.8085 38.656 26.6135 38.656V22.656C22.7537 22.656 19.2687 24.1898 16.6552 27.0044L28.3798 37.8916ZM26.6135 38.656H77.9415V22.656H26.6135V38.656ZM77.9415 38.656C77.7265 38.656 77.334 38.6123 76.8727 38.4124C76.4081 38.2111 76.0842 37.9424 75.9031 37.7462L87.6599 26.8937C85.0917 24.1115 81.6661 22.656 77.9415 22.656V38.656ZM76.3553 38.1984C76.1591 38.0173 75.8904 37.6934 75.6891 37.2289C75.4892 36.7675 75.4455 36.375 75.4455 36.16H91.4455C91.4455 32.4354 89.9899 29.0098 87.2077 26.4416L76.3553 38.1984ZM75.4455 36.16C75.4455 35.945 75.4892 35.5525 75.6891 35.0911C75.8904 34.6266 76.1591 34.3027 76.3553 34.1216L87.2077 45.8784C89.9899 43.3102 91.4455 39.8846 91.4455 36.16H75.4455ZM76.1246 34.3431C76.3394 34.1284 76.666 33.8907 77.0824 33.7242C77.4894 33.5614 77.8078 33.536 77.9415 33.536V49.536C81.4564 49.536 84.816 48.2792 87.4384 45.6569L76.1246 34.3431ZM77.9415 33.536H32.5015V49.536H77.9415V33.536ZM24.5015 41.536V69.824H40.5015V41.536H24.5015ZM32.5015 77.824H73.3335V61.824H32.5015V77.824ZM73.3335 77.824C73.1185 77.824 72.726 77.7803 72.2646 77.5804C71.8001 77.3791 71.4762 77.1104 71.2951 76.9142L83.0519 66.0618C80.4838 63.2796 77.0581 61.824 73.3335 61.824V77.824ZM71.7473 77.3664C71.5511 77.1853 71.2824 76.8614 71.0811 76.3969C70.8812 75.9355 70.8375 75.543 70.8375 75.328H86.8375C86.8375 71.6034 85.3819 68.1778 82.5997 65.6096L71.7473 77.3664ZM70.8375 75.328C70.8375 75.113 70.8812 74.7205 71.0811 74.2591C71.2824 73.7946 71.5511 73.4707 71.7473 73.2896L82.5997 85.0464C85.3819 82.4782 86.8375 79.0526 86.8375 75.328H70.8375ZM71.5166 73.5112C71.7314 73.2964 72.058 73.0587 72.4744 72.8922C72.8814 72.7294 73.1998 72.704 73.3335 72.704V88.704C76.8484 88.704 80.208 87.4472 82.8304 84.8248L71.5166 73.5112ZM73.3335 72.704H32.5015V88.704H73.3335V72.704ZM24.5015 80.704V109.12H40.5015V80.704H24.5015ZM32.5015 117.12H77.9415V101.12H32.5015V117.12ZM77.9415 117.12C77.7265 117.12 77.334 117.076 76.8726 116.876C76.4081 116.675 76.0842 116.406 75.9031 116.21L87.6599 105.358C85.0918 102.576 81.6661 101.12 77.9415 101.12V117.12ZM76.3553 116.662C76.1591 116.481 75.8904 116.157 75.6891 115.693C75.4892 115.232 75.4455 114.839 75.4455 114.624H91.4455C91.4455 110.899 89.9899 107.474 87.2077 104.906L76.3553 116.662ZM75.4455 114.624C75.4455 114.409 75.4892 114.016 75.6891 113.555C75.8904 113.091 76.1591 112.767 76.3553 112.586L87.2077 124.342C89.9899 121.774 91.4455 118.349 91.4455 114.624H75.4455ZM76.1246 112.807C76.3394 112.592 76.666 112.355 77.0824 112.188C77.4894 112.025 77.8078 112 77.9415 112V128C81.4564 128 84.816 126.743 87.4384 124.121L76.1246 112.807ZM77.9415 112H26.6135V128H77.9415V112ZM105.444 118.976L101.944 126.17L101.981 126.188L102.019 126.206L105.444 118.976ZM97.8915 112.32L91.1184 116.577L91.1464 116.622L91.1749 116.666L97.8915 112.32ZM102.5 86.976L97.7169 80.563L97.6906 80.5826L97.6644 80.6025L102.5 86.976ZM140.004 81.344V89.344H148.004V81.344H140.004ZM135.78 68.16L130.407 74.0879L130.453 74.129L130.499 74.1693L135.78 68.16ZM114.148 65.216L112.579 57.3713L112.553 57.3765L112.527 57.3819L114.148 65.216ZM105.828 67.52L107.768 75.2811L108.066 75.2066L108.357 75.1095L105.828 67.52ZM100.836 66.368L106.492 60.7111L106.492 60.7111L100.836 66.368ZM102.756 58.048L105.873 65.4157L105.875 65.4145L102.756 58.048ZM139.748 57.024L135.653 63.8968L135.685 63.9157L135.717 63.9342L139.748 57.024ZM148.708 66.368L141.52 69.8817L141.568 69.9785L141.618 70.074L148.708 66.368ZM149.86 118.976L144.416 113.114L144.307 113.214L144.203 113.319L149.86 118.976ZM141.668 118.976L147.324 113.319L147.324 113.319L141.668 118.976ZM140.004 111.552H148.004V91.8682L134.272 105.971L140.004 111.552ZM131.172 108.352L134.819 115.472L134.887 115.437L134.954 115.401L131.172 108.352ZM140.004 101.44L146.024 106.708L148.004 104.446V101.44H140.004ZM140.004 90.688H148.004V82.688H140.004V90.688ZM109.796 108.224L104.39 114.121L104.45 114.176L104.51 114.23L109.796 108.224ZM115.94 113.28C113.313 113.28 110.991 112.751 108.868 111.746L102.019 126.206C106.382 128.273 111.057 129.28 115.94 129.28V113.28ZM108.943 111.782C107.076 110.874 105.68 109.63 104.608 107.974L91.1749 116.666C93.8581 120.813 97.4967 124.006 101.944 126.17L108.943 111.782ZM104.665 108.063C103.66 106.464 103.076 104.552 103.076 102.08H87.0755C87.0755 107.288 88.3688 112.203 91.1184 116.577L104.665 108.063ZM103.076 102.08C103.076 98.2194 104.417 95.5626 107.335 93.3495L97.6644 80.6025C90.683 85.8987 87.0755 93.3112 87.0755 102.08H103.076ZM107.282 93.389C110.372 91.0848 115.728 89.344 124.516 89.344V73.344C114.018 73.344 104.696 75.3579 97.7169 80.563L107.282 93.389ZM124.516 89.344H140.004V73.344H124.516V89.344ZM148.004 81.344V80.32H132.004V81.344H148.004ZM148.004 80.32C148.004 73.5522 146.321 66.7733 141.06 62.1507L130.499 74.1693C130.87 74.496 132.004 75.8237 132.004 80.32H148.004ZM141.152 62.2321C136.287 57.8231 129.599 56.448 122.852 56.448V72.448C127.88 72.448 129.811 73.5475 130.407 74.0879L141.152 62.2321ZM122.852 56.448C119.203 56.448 115.761 56.7348 112.579 57.3713L115.716 73.0606C117.654 72.6732 120.015 72.448 122.852 72.448V56.448ZM112.527 57.3819C109.673 57.9723 106.589 58.8333 103.298 59.9305L108.357 75.1095C111.21 74.1587 113.673 73.4837 115.768 73.0501L112.527 57.3819ZM103.887 59.7589C103.728 59.7987 103.665 59.8078 103.683 59.805C103.695 59.8032 103.74 59.7966 103.814 59.7901C103.888 59.7837 104.007 59.776 104.164 59.776V75.776C105.529 75.776 106.803 75.5222 107.768 75.2811L103.887 59.7589ZM104.164 59.776C104.526 59.776 104.996 59.8479 105.489 60.0563C105.975 60.2621 106.308 60.5265 106.492 60.7111L95.1786 72.0248C97.5555 74.4017 100.675 75.776 104.164 75.776V59.776ZM106.492 60.7111C106.726 60.9445 106.994 61.3051 107.188 61.7816C107.381 62.2536 107.428 62.6611 107.428 62.912H91.4275C91.4275 66.3314 92.6925 69.5387 95.1787 72.0249L106.492 60.7111ZM107.428 62.912C107.428 63.0867 107.367 63.7479 106.862 64.4855C106.374 65.1984 105.853 65.4238 105.873 65.4157L99.6384 50.6803C97.4389 51.6108 95.2542 53.1163 93.657 55.4505C92.0431 57.8094 91.4275 60.4333 91.4275 62.912H107.428ZM105.875 65.4145C112.191 62.7397 118.514 61.44 124.9 61.44V45.44C116.266 45.44 107.827 47.2123 99.6356 50.6815L105.875 65.4145ZM124.9 61.44C129.718 61.44 133.165 62.4148 135.653 63.8968L143.842 50.1512C138.308 46.8545 131.857 45.44 124.9 45.44V61.44ZM135.717 63.9342C138.603 65.6182 140.412 67.6137 141.52 69.8817L155.895 62.8543C153.249 57.4423 149.084 53.2085 143.778 50.1138L135.717 63.9342ZM141.618 70.074C142.954 72.6302 143.652 75.4462 143.652 78.656H159.652C159.652 72.9911 158.386 67.6151 155.797 62.662L141.618 70.074ZM143.652 78.656V114.88H159.652V78.656H143.652ZM143.652 114.88C143.652 114.685 143.693 114.328 143.874 113.913C144.055 113.5 144.285 113.235 144.416 113.114L155.303 124.838C158.118 122.225 159.652 118.74 159.652 114.88H143.652ZM144.203 113.319C144.354 113.167 144.622 112.963 144.992 112.812C145.358 112.664 145.646 112.64 145.764 112.64V128.64C149.427 128.64 152.852 127.298 155.516 124.633L144.203 113.319ZM145.764 112.64C145.881 112.64 146.169 112.664 146.535 112.812C146.905 112.963 147.173 113.167 147.324 113.319L136.011 124.633C138.675 127.298 142.1 128.64 145.764 128.64V112.64ZM147.324 113.319C147.476 113.471 147.681 113.738 147.831 114.109C147.98 114.474 148.004 114.762 148.004 114.88H132.004C132.004 118.544 133.346 121.968 136.011 124.633L147.324 113.319ZM148.004 114.88V111.552H132.004V114.88H148.004ZM134.272 105.971C129.584 110.786 123.688 113.28 115.94 113.28V129.28C127.647 129.28 137.794 125.289 145.735 117.133L134.272 105.971ZM120.292 119.04C125.374 119.04 130.246 117.815 134.819 115.472L127.524 101.232C125.1 102.473 122.718 103.04 120.292 103.04V119.04ZM134.954 115.401C139.22 113.112 142.945 110.227 146.024 106.708L133.983 96.172C132.284 98.114 130.121 99.837 127.389 101.303L134.954 115.401ZM148.004 101.44V90.688H132.004V101.44H148.004ZM140.004 82.688H126.052V98.688H140.004V82.688ZM126.052 82.688C119.172 82.688 112.785 83.544 107.847 86.1275C105.26 87.4809 102.886 89.4064 101.185 92.0773C99.4619 94.7811 98.7235 97.787 98.7235 100.8H114.724C114.724 100.442 114.79 100.499 114.678 100.675C114.587 100.818 114.63 100.636 115.264 100.304C116.769 99.5173 120.046 98.688 126.052 98.688V82.688ZM98.7235 100.8C98.7235 105.851 100.504 110.559 104.39 114.121L115.201 102.327C114.991 102.134 114.724 101.893 114.724 100.8H98.7235ZM104.51 114.23C108.837 118.037 114.753 119.04 120.292 119.04V103.04C118.337 103.04 116.98 102.847 116.093 102.609C115.215 102.374 115.005 102.152 115.081 102.218L104.51 114.23ZM168.999 115.52L164.385 122.056L164.754 122.316L165.15 122.533L168.999 115.52ZM168.231 107.712L174.128 113.118L174.128 113.118L168.231 107.712ZM174.119 106.688L170.869 113.998L170.891 114.008L170.912 114.017L174.119 106.688ZM202.407 96.96L198.945 104.172L198.999 104.198L199.054 104.224L202.407 96.96ZM191.783 93.504L193.786 85.7588L193.708 85.7387L193.63 85.7201L191.783 93.504ZM179.239 89.792L176.301 97.2332L176.334 97.2461L176.367 97.2588L179.239 89.792ZM170.791 84.032L164.758 89.2862L164.848 89.39L164.942 89.4905L170.791 84.032ZM173.735 59.072L168.509 53.0147L168.479 53.0404L168.449 53.0663L173.735 59.072ZM210.855 56.64L208.094 64.1486L208.372 64.2508L208.657 64.3322L210.855 56.64ZM213.543 58.56L206.793 62.855L206.927 63.0645L207.073 63.2654L213.543 58.56ZM213.031 65.088L207.374 59.4311L207.251 59.5541L207.133 59.6822L213.031 65.088ZM207.783 66.368L205.411 74.0085L205.625 74.0749L205.842 74.1291L207.783 66.368ZM182.311 66.624L186.591 73.3826L186.619 73.3646L186.648 73.3464L182.311 66.624ZM193.191 82.112L195.162 74.3587L195.037 74.327L194.912 74.2994L193.191 82.112ZM205.479 85.952L202.473 93.3659L202.56 93.4011L202.647 93.4343L205.479 85.952ZM213.543 91.712L207.413 96.8529L207.461 96.91L207.51 96.9662L213.543 91.712ZM210.471 115.904L205.385 109.729L205.355 109.753L205.325 109.778L210.471 115.904ZM192.295 113.28C185.011 113.28 178.584 111.655 172.847 108.507L165.15 122.533C173.408 127.065 182.512 129.28 192.295 129.28V113.28ZM173.612 108.984C173.809 109.124 174.183 109.459 174.478 110.032C174.772 110.603 174.823 111.087 174.823 111.296H158.823C158.823 115.659 160.788 119.516 164.385 122.056L173.612 108.984ZM174.823 111.296C174.823 111.55 174.775 111.909 174.621 112.301C174.467 112.692 174.268 112.965 174.128 113.118L162.333 102.306C160.068 104.777 158.823 107.891 158.823 111.296H174.823ZM174.128 113.118C173.884 113.384 173.498 113.692 172.982 113.913C172.474 114.131 172.047 114.176 171.815 114.176V98.176C168.234 98.176 164.861 99.5482 162.333 102.306L174.128 113.118ZM171.815 114.176C171.361 114.176 171.027 114.068 170.869 113.998L177.368 99.3775C175.674 98.6248 173.804 98.176 171.815 98.176V114.176ZM170.912 114.017C174.028 115.381 177.182 116.468 180.37 117.265L184.251 101.743C181.978 101.175 179.67 100.385 177.325 99.3587L170.912 114.017ZM180.37 117.265C183.853 118.136 187.592 118.528 191.527 118.528V102.528C188.634 102.528 186.229 102.238 184.251 101.743L180.37 117.265ZM191.527 118.528C196.858 118.528 202.23 117.722 206.493 114.995C211.365 111.879 213.735 106.944 213.735 101.44H197.735C197.735 101.902 197.65 101.915 197.752 101.719C197.868 101.497 197.996 101.438 197.872 101.517C197.399 101.819 195.667 102.528 191.527 102.528V118.528ZM213.735 101.44C213.735 98.8411 212.962 96.2823 211.324 94.0774C209.76 91.9713 207.715 90.5992 205.759 89.6963L199.054 104.224C199.316 104.345 198.936 104.231 198.481 103.619C198.248 103.305 198.046 102.925 197.909 102.501C197.774 102.081 197.735 101.712 197.735 101.44H213.735ZM205.868 89.7478C202.985 88.3638 198.798 87.0551 193.786 85.7588L189.779 101.249C194.666 102.513 197.561 103.508 198.945 104.172L205.868 89.7478ZM193.63 85.7201C188.803 84.5748 184.992 83.4336 182.11 82.3252L176.367 97.2588C180.141 98.7104 184.693 100.044 189.935 101.288L193.63 85.7201ZM182.176 82.3508C180.044 81.5092 178.221 80.2685 176.639 78.5735L164.942 89.4905C168.139 92.9155 171.948 95.5148 176.301 97.2332L182.176 82.3508ZM176.823 78.7778C176.048 77.8872 175.335 76.4353 175.335 73.664H159.335C159.335 79.426 160.925 84.8861 164.758 89.2862L176.823 78.7778ZM175.335 73.664C175.335 69.8565 176.576 67.2277 179.02 65.0777L168.449 53.0663C162.359 58.4256 159.335 65.5249 159.335 73.664H175.335ZM178.96 65.1293C181.375 63.0457 185.437 61.44 192.295 61.44V45.44C183.109 45.44 174.798 47.5889 168.509 53.0147L178.96 65.1293ZM192.295 61.44C197.983 61.44 203.23 62.3603 208.094 64.1486L213.615 49.1314C206.874 46.6531 199.747 45.44 192.295 45.44V61.44ZM208.657 64.3322C208.487 64.2836 208.157 64.1607 207.773 63.8859C207.376 63.6028 207.04 63.2425 206.793 62.855L220.292 54.265C218.519 51.4794 215.893 49.7593 213.052 48.9478L208.657 64.3322ZM207.073 63.2654C207.005 63.1728 206.87 62.9606 206.755 62.6282C206.636 62.2864 206.567 61.9 206.567 61.504H222.567C222.567 58.5683 221.551 55.9704 220.012 53.8546L207.073 63.2654ZM206.567 61.504C206.567 61.1589 206.637 60.7211 206.829 60.2726C207.018 59.8335 207.248 59.5568 207.374 59.4311L218.687 70.7449C221.111 68.3216 222.567 65.1298 222.567 61.504H206.567ZM207.133 59.6822C207.377 59.4162 207.763 59.1081 208.279 58.8868C208.787 58.6691 209.214 58.624 209.447 58.624V74.624C213.027 74.624 216.4 73.2518 218.928 70.4938L207.133 59.6822ZM209.447 58.624C209.603 58.624 209.722 58.6317 209.796 58.6381C209.87 58.6446 209.915 58.6512 209.927 58.653C209.945 58.6558 209.882 58.6467 209.723 58.6069L205.842 74.1291C206.807 74.3702 208.081 74.624 209.447 74.624V58.624ZM210.154 58.7275C204.501 56.9732 198.838 56.064 193.191 56.064V72.064C197.1 72.064 201.165 72.6908 205.411 74.0085L210.154 58.7275ZM193.191 56.064C187.718 56.064 182.38 57.0586 177.973 59.9016L186.648 73.3464C187.531 72.7761 189.447 72.064 193.191 72.064V56.064ZM178.03 59.8654C173.551 62.7023 170.471 67.1986 170.471 73.024H186.471C186.471 73.0133 186.471 73.083 186.438 73.2059C186.404 73.3318 186.351 73.4547 186.29 73.556C186.232 73.6538 186.194 73.6847 186.223 73.6561C186.256 73.624 186.364 73.5261 186.591 73.3826L178.03 59.8654ZM170.471 73.024C170.471 75.5913 171.086 78.2405 172.617 80.647C174.136 83.0338 176.246 84.6962 178.477 85.8114L185.632 71.5006C185.473 71.4211 185.792 71.5475 186.116 72.057C186.267 72.2944 186.365 72.533 186.419 72.7362C186.472 72.9319 186.471 73.0406 186.471 73.024H170.471ZM178.477 85.8114C181.774 87.4598 186.269 88.7789 191.469 89.9246L194.912 74.2994C190.042 73.2265 187.114 72.2415 185.632 71.5006L178.477 85.8114ZM191.219 89.8653C196.064 91.097 199.778 92.2734 202.473 93.3659L208.484 78.5381C204.864 77.0706 200.386 75.687 195.162 74.3587L191.219 89.8653ZM202.647 93.4343C204.493 94.1325 206.054 95.2327 207.413 96.8529L219.672 86.5711C216.594 82.9006 212.779 80.1608 208.31 78.4697L202.647 93.4343ZM207.51 96.9662C208.237 97.8013 208.999 99.3027 208.999 102.336H224.999C224.999 96.4946 223.456 90.9134 219.575 86.4578L207.51 96.9662ZM208.999 102.336C208.999 105.319 207.96 107.608 205.385 109.729L215.556 122.079C221.685 117.032 224.999 110.276 224.999 102.336H208.999ZM205.325 109.778C202.991 111.739 199.023 113.28 192.295 113.28V129.28C201.267 129.28 209.417 127.237 215.616 122.03L205.325 109.778ZM236.015 64.704H244.015V56.704H236.015V64.704ZM225.135 64.064L218.989 69.1855L219.454 69.7442L220.013 70.2098L225.135 64.064ZM225.647 60.096L230.558 66.4108L230.916 66.1325L231.24 65.8156L225.647 60.096ZM243.055 43.072L248.648 48.7916L248.68 48.7604L248.711 48.7289L243.055 43.072ZM246.895 42.688L240.749 47.8095L240.981 48.0883L241.238 48.3449L246.895 42.688ZM247.663 54.72H239.663V62.72H247.663V54.72ZM265.711 56.128L260.054 61.7848L260.054 61.7849L265.711 56.128ZM265.711 63.296L271.367 68.9529L271.49 68.8299L271.608 68.7018L265.711 63.296ZM247.663 64.704V56.704H239.663V64.704H247.663ZM249.967 109.76L245.795 116.586L246.014 116.72L246.241 116.839L249.967 109.76ZM261.103 110.272L259.162 102.511L258.982 102.556L258.804 102.609L261.103 110.272ZM262.127 110.016L260.558 102.171L260.371 102.209L260.186 102.255L262.127 110.016ZM266.863 111.296L261.206 116.953L261.34 117.087L261.481 117.216L266.863 111.296ZM265.327 118.976L268.679 126.24L268.855 126.158L269.027 126.069L265.327 118.976ZM254.703 113.28C249.518 113.28 247.123 112.091 246.052 111.122C245.133 110.291 244.015 108.563 244.015 104.384H228.015C228.015 111.469 230.011 118.189 235.321 122.99C240.479 127.653 247.428 129.28 254.703 129.28V113.28ZM244.015 104.384V64.704H228.015V104.384H244.015ZM236.015 56.704H226.927V72.704H236.015V56.704ZM226.927 56.704C227.432 56.704 228.029 56.7856 228.657 57.0101C229.288 57.2355 229.827 57.5605 230.256 57.9182L220.013 70.2098C222 71.8659 224.422 72.704 226.927 72.704V56.704ZM231.28 58.9425C231.638 59.3719 231.963 59.9101 232.188 60.5413C232.413 61.1699 232.495 61.7665 232.495 62.272H216.495C216.495 64.7766 217.333 67.1981 218.989 69.1855L231.28 58.9425ZM232.495 62.272C232.495 63.0965 232.296 63.994 231.853 64.8311C231.426 65.6369 230.904 66.1418 230.558 66.4108L220.735 53.7812C218.328 55.6531 216.495 58.5822 216.495 62.272H232.495ZM231.24 65.8156L248.648 48.7916L237.461 37.3524L220.053 54.3764L231.24 65.8156ZM248.711 48.7289C248.702 48.7381 248.445 48.9989 247.918 49.2783C247.359 49.5742 246.433 49.92 245.231 49.92V33.92C241.464 33.92 238.811 36.0021 237.398 37.4151L248.711 48.7289ZM245.231 49.92C244.551 49.92 243.697 49.787 242.806 49.3757C241.909 48.9619 241.226 48.3819 240.749 47.8095L253.04 37.5665C251.052 35.18 248.221 33.92 245.231 33.92V49.92ZM241.238 48.3449C240.856 47.9632 240.434 47.4092 240.117 46.6713C239.797 45.9243 239.663 45.1664 239.663 44.48H255.663C255.663 41.5369 254.463 38.9424 252.551 37.0311L241.238 48.3449ZM239.663 44.48V54.72H255.663V44.48H239.663ZM247.663 62.72H262.127V46.72H247.663V62.72ZM262.127 62.72C261.98 62.72 261.633 62.694 261.185 62.518C260.723 62.3366 260.335 62.0661 260.054 61.7848L271.367 50.4712C268.782 47.8856 265.482 46.72 262.127 46.72V62.72ZM260.054 61.7849C259.772 61.5036 259.502 61.115 259.32 60.6532C259.145 60.2054 259.119 59.8583 259.119 59.712H275.119C275.119 56.3563 273.953 53.0567 271.367 50.4711L260.054 61.7849ZM259.119 59.712C259.119 59.458 259.166 59.0994 259.32 58.7068C259.474 58.3164 259.673 58.043 259.813 57.8902L271.608 68.7018C273.873 66.2308 275.119 63.1172 275.119 59.712H259.119ZM260.054 57.6391C260.335 57.3579 260.723 57.0874 261.185 56.906C261.633 56.73 261.98 56.704 262.127 56.704V72.704C265.482 72.704 268.782 71.5384 271.367 68.9529L260.054 57.6391ZM262.127 56.704H247.663V72.704H262.127V56.704ZM239.663 64.704V103.36H255.663V64.704H239.663ZM239.663 103.36C239.663 107.161 240.415 113.299 245.795 116.586L254.138 102.934C254.675 103.262 255.08 103.66 255.359 104.032C255.625 104.388 255.735 104.662 255.766 104.746C255.795 104.827 255.764 104.769 255.729 104.518C255.694 104.271 255.663 103.893 255.663 103.36H239.663ZM246.241 116.839C249.307 118.453 252.677 119.04 255.983 119.04V103.04C254.51 103.04 253.869 102.774 253.692 102.681L246.241 116.839ZM255.983 119.04C258.501 119.04 260.982 118.66 263.401 117.935L258.804 102.609C257.81 102.908 256.877 103.04 255.983 103.04V119.04ZM263.043 118.033C263.384 117.948 263.725 117.862 264.067 117.777L260.186 102.255C259.845 102.34 259.504 102.426 259.162 102.511L263.043 118.033ZM263.695 117.861C263.627 117.874 263.575 117.882 263.543 117.887C263.527 117.889 263.515 117.89 263.507 117.891C263.499 117.892 263.495 117.892 263.495 117.892C263.495 117.892 263.498 117.892 263.506 117.892C263.513 117.891 263.524 117.891 263.538 117.89C263.567 117.889 263.608 117.888 263.663 117.888V101.888C262.718 101.888 261.651 101.953 260.558 102.171L263.695 117.861ZM263.663 117.888C263.179 117.888 262.645 117.786 262.137 117.563C261.645 117.346 261.341 117.088 261.206 116.953L272.519 105.639C270.263 103.383 267.224 101.888 263.663 101.888V117.888ZM261.481 117.216C261.196 116.956 260.851 116.538 260.596 115.958C260.342 115.38 260.271 114.855 260.271 114.496H276.271C276.271 110.985 274.867 107.762 272.244 105.376L261.481 117.216ZM260.271 114.496C260.271 114.076 260.398 113.38 260.849 112.695C261.266 112.06 261.684 111.853 261.626 111.883L269.027 126.069C270.932 125.075 272.822 123.609 274.22 121.481C275.652 119.303 276.271 116.879 276.271 114.496H260.271ZM261.974 111.712C259.723 112.751 257.329 113.28 254.703 113.28V129.28C259.586 129.28 264.274 128.273 268.679 126.24L261.974 111.712ZM284.911 112.448L279.172 118.022L279.213 118.064L279.254 118.105L284.911 112.448ZM289.775 58.176L294.296 64.7755L294.296 64.7755L289.775 58.176ZM323.183 57.92L318.831 64.6332L318.875 64.6618L318.92 64.6899L323.183 57.92ZM333.679 69.696L326.474 73.174L326.486 73.1987L326.498 73.2232L333.679 69.696ZM335.599 89.792L329.942 84.1351L329.829 84.2482L329.72 84.3658L335.599 89.792ZM287.983 91.456V83.456H279.016L280.034 92.3644L287.983 91.456ZM294.639 105.408L289.332 111.395L289.332 111.395L294.639 105.408ZM319.727 109.376L317.786 101.615L317.757 101.622L317.727 101.63L319.727 109.376ZM327.663 106.432L324.085 99.2766L324.085 99.2766L327.663 106.432ZM333.551 107.328L338.956 101.431L333.551 107.328ZM331.759 115.648L335.689 122.616L335.723 122.597L335.756 122.577L331.759 115.648ZM321.903 119.872L324.127 127.557L324.127 127.557L321.903 119.872ZM325.743 81.984V89.984H334.247L333.728 81.4951L325.743 81.984ZM322.415 71.488L315.758 75.9256L315.804 75.9945L315.851 76.0623L322.415 71.488ZM315.375 65.344L311.884 72.5425L311.974 72.5858L312.064 72.6269L315.375 65.344ZM298.223 65.344L301.533 72.6269L301.623 72.5858L301.713 72.5425L298.223 65.344ZM291.183 71.488L297.839 75.9256L297.839 75.9256L291.183 71.488ZM287.983 81.984L279.997 81.4951L279.478 89.984H287.983V81.984ZM309.359 113.28C300.509 113.28 294.6 110.824 290.567 106.791L279.254 118.105C286.997 125.848 297.387 129.28 309.359 129.28V113.28ZM290.649 106.874C286.683 102.792 284.207 96.6607 284.207 87.36H268.207C268.207 99.5633 271.532 110.158 279.172 118.022L290.649 106.874ZM284.207 87.36C284.207 82.3008 285.128 77.8054 286.875 73.7729L272.194 67.4111C269.504 73.6186 268.207 80.3019 268.207 87.36H284.207ZM286.875 73.7729C288.494 70.0366 290.93 67.0823 294.296 64.7755L285.253 51.5765C279.403 55.5844 275.012 60.9074 272.194 67.4111L286.875 73.7729ZM294.296 64.7755C297.318 62.705 301.332 61.44 306.799 61.44V45.44C298.782 45.44 291.447 47.3323 285.253 51.5765L294.296 64.7755ZM306.799 61.44C311.806 61.44 315.705 62.6068 318.831 64.6332L327.534 51.2068C321.444 47.2598 314.42 45.44 306.799 45.44V61.44ZM318.92 64.6899C322.246 66.7837 324.731 69.5629 326.474 73.174L340.883 66.218C337.848 59.9305 333.335 54.8589 327.445 51.1501L318.92 64.6899ZM326.498 73.2232C328.311 76.9129 329.263 81.0278 329.263 85.696H345.263C345.263 78.7588 343.825 72.2071 340.859 66.1688L326.498 73.2232ZM329.263 85.696C329.263 85.5781 329.286 85.2902 329.435 84.925C329.585 84.5545 329.79 84.2868 329.942 84.1351L341.255 95.4489C343.92 92.784 345.263 89.3597 345.263 85.696H329.263ZM329.72 84.3658C330.028 84.0325 330.428 83.7601 330.842 83.5967C331.227 83.4452 331.448 83.456 331.375 83.456V99.456C334.945 99.456 338.656 98.2746 341.477 95.2182L329.72 84.3658ZM331.375 83.456H287.983V99.456H331.375V83.456ZM280.034 92.3644C280.894 99.8887 283.819 106.508 289.332 111.395L299.945 99.4212C297.949 97.6521 296.436 94.9699 295.931 90.5476L280.034 92.3644ZM289.332 111.395C294.989 116.409 302.366 118.4 310.383 118.4V102.4C304.917 102.4 301.797 101.063 299.945 99.4212L289.332 111.395ZM310.383 118.4C314.444 118.4 318.261 118.016 321.726 117.122L317.727 101.63C315.901 102.101 313.489 102.4 310.383 102.4V118.4ZM321.667 117.137C324.973 116.311 328.167 115.124 331.24 113.587L324.085 99.2766C322.038 100.3 319.941 101.076 317.786 101.615L321.667 117.137ZM331.24 113.587C330.687 113.864 330.207 113.92 329.967 113.92V97.92C328.019 97.92 326.004 98.3171 324.085 99.2766L331.24 113.587ZM329.967 113.92C329.712 113.92 329.354 113.872 328.961 113.718C328.571 113.565 328.297 113.365 328.145 113.225L338.956 101.431C336.485 99.1657 333.372 97.92 329.967 97.92V113.92ZM328.145 113.225C327.879 112.981 327.571 112.596 327.349 112.079C327.132 111.571 327.087 111.144 327.087 110.912H343.087C343.087 107.331 341.714 103.959 338.956 101.431L328.145 113.225ZM327.087 110.912C327.087 110.58 327.138 110.204 327.261 109.819C327.384 109.436 327.552 109.128 327.709 108.904C328.005 108.483 328.176 108.479 327.761 108.719L335.756 122.577C339.433 120.456 343.087 116.657 343.087 110.912H327.087ZM327.828 108.68C324.97 110.293 322.254 111.442 319.678 112.187L324.127 127.557C328.036 126.425 331.891 124.758 335.689 122.616L327.828 108.68ZM319.678 112.187C317.429 112.839 314.072 113.28 309.359 113.28V129.28C314.885 129.28 319.891 128.783 324.127 127.557L319.678 112.187ZM333.728 81.4951C333.402 76.1707 331.948 71.1758 328.978 66.9137L315.851 76.0623C316.806 77.4322 317.571 79.4346 317.757 82.4729L333.728 81.4951ZM329.071 67.0504C326.446 63.1134 322.987 60.0163 318.685 58.0611L312.064 72.6269C313.394 73.2317 314.628 74.2306 315.758 75.9256L329.071 67.0504ZM318.865 58.1455C315.048 56.295 311.002 55.296 306.799 55.296V71.296C308.398 71.296 310.069 71.6624 311.884 72.5425L318.865 58.1455ZM306.799 55.296C302.595 55.296 298.549 56.295 294.732 58.1455L301.713 72.5425C303.528 71.6624 305.199 71.296 306.799 71.296V55.296ZM294.912 58.0611C290.61 60.0163 287.151 63.1134 284.526 67.0504L297.839 75.9256C298.969 74.2306 300.203 73.2317 301.533 72.6269L294.912 58.0611ZM284.526 67.0504C281.699 71.2915 280.319 76.236 279.997 81.4951L295.968 82.4729C296.158 79.3694 296.912 77.3165 297.839 75.9256L284.526 67.0504ZM287.983 89.984H325.743V73.984H287.983V89.984ZM354.339 118.976L359.995 113.319L359.995 113.319L354.339 118.976ZM354.339 55.872L359.995 61.5288L360.1 61.4241L360.201 61.3156L354.339 55.872ZM362.531 55.872L356.668 61.3156L356.87 61.5327L357.087 61.7343L362.531 55.872ZM364.323 65.472H356.323V89.6092L370.739 70.2501L364.323 65.472ZM389.027 55.104L383.148 60.5302L383.257 60.6478L383.37 60.7609L389.027 55.104ZM389.027 63.168L383.6 57.2896L383.6 57.2896L389.027 63.168ZM372.899 67.776L376.886 74.7112L376.951 74.6742L377.014 74.6359L372.899 67.776ZM364.323 75.968L357.641 71.5681L356.323 73.5704V75.968H364.323ZM362.531 118.976L357.087 113.114L356.978 113.214L356.874 113.319L362.531 118.976ZM358.435 112.64C358.552 112.64 358.84 112.664 359.206 112.812C359.576 112.963 359.844 113.167 359.995 113.319L348.682 124.633C351.346 127.298 354.771 128.64 358.435 128.64V112.64ZM359.995 113.319C360.147 113.471 360.352 113.738 360.502 114.109C360.651 114.474 360.675 114.762 360.675 114.88H344.675C344.675 118.544 346.017 121.968 348.682 124.633L359.995 113.319ZM360.675 114.88V59.968H344.675V114.88H360.675ZM360.675 59.968C360.675 60.0859 360.651 60.3738 360.502 60.739C360.352 61.1095 360.147 61.3771 359.995 61.5288L348.682 50.2151C346.017 52.88 344.675 56.3043 344.675 59.968H360.675ZM360.201 61.3156C360.08 61.4461 359.815 61.6763 359.401 61.8573C358.986 62.0386 358.629 62.08 358.435 62.08V46.08C354.575 46.08 351.09 47.6138 348.476 50.4284L360.201 61.3156ZM358.435 62.08C358.24 62.08 357.883 62.0386 357.468 61.8573C357.054 61.6763 356.789 61.4461 356.668 61.3156L368.393 50.4284C365.779 47.6138 362.294 46.08 358.435 46.08V62.08ZM357.087 61.7343C356.956 61.6131 356.726 61.3481 356.545 60.9345C356.364 60.52 356.323 60.163 356.323 59.968H372.323C372.323 56.1082 370.789 52.6232 367.974 50.0096L357.087 61.7343ZM356.323 59.968V65.472H372.323V59.968H356.323ZM370.739 70.2501C375.769 63.4947 380.341 61.44 384.419 61.44V45.44C373.648 45.44 364.822 51.4066 357.906 60.6939L370.739 70.2501ZM384.419 61.44H385.059V45.44H384.419V61.44ZM385.059 61.44C384.945 61.44 384.611 61.4173 384.173 61.2335C383.721 61.0443 383.372 60.7728 383.148 60.5302L394.905 49.6778C392.245 46.7966 388.728 45.44 385.059 45.44V61.44ZM383.37 60.7609C383.218 60.6091 383.013 60.3415 382.863 59.971C382.714 59.6058 382.691 59.3179 382.691 59.2H398.691C398.691 55.5363 397.348 52.112 394.683 49.4471L383.37 60.7609ZM382.691 59.2C382.691 59.0864 382.713 58.7524 382.897 58.3142C383.086 57.8628 383.358 57.5134 383.6 57.2896L394.453 69.0464C397.334 66.3869 398.691 62.8691 398.691 59.2H382.691ZM383.6 57.2896C383.819 57.0875 384.103 56.9112 384.405 56.8017C384.69 56.698 384.852 56.704 384.803 56.704V72.704C388.238 72.704 391.67 71.6148 394.453 69.0464L383.6 57.2896ZM384.803 56.704H384.163V72.704H384.803V56.704ZM384.163 56.704C378.661 56.704 373.476 58.0997 368.783 60.9161L377.014 74.6359C379.147 73.3563 381.472 72.704 384.163 72.704V56.704ZM368.911 60.8407C364.345 63.4661 360.588 67.0939 357.641 71.5681L371.004 80.3679C372.665 77.8447 374.625 76.0112 376.886 74.7112L368.911 60.8407ZM356.323 75.968V114.88H372.323V75.968H356.323ZM356.323 114.88C356.323 114.685 356.364 114.328 356.545 113.913C356.726 113.5 356.956 113.235 357.087 113.114L367.974 124.838C370.789 122.225 372.323 118.74 372.323 114.88H356.323ZM356.874 113.319C357.025 113.167 357.293 112.963 357.663 112.812C358.029 112.664 358.317 112.64 358.435 112.64V128.64C362.098 128.64 365.523 127.298 368.187 124.633L356.874 113.319Z" fill="black" mask="url(#path-1-outside-1_9_26)"/>
<path d="M170.171 174.323C175.227 174.829 179.526 175.396 182.951 176C179.526 176.604 175.227 177.171 170.171 177.677C155.863 179.107 136.002 180 114 180C91.9981 180 72.1372 179.107 57.8295 177.677C52.7733 177.171 48.4739 176.604 45.0487 176C48.4739 175.396 52.7733 174.829 57.8295 174.323C72.1372 172.893 91.9981 172 114 172C136.002 172 155.863 172.893 170.171 174.323Z" fill="#DEA38B" stroke="black" stroke-width="8"/>
<path d="M38 176C38 122.981 72.0264 80 114 80C155.974 80 190 122.981 190 176" stroke="black" stroke-width="8" stroke-linecap="round"/>
<path d="M108 168.364C108 182.209 104.572 191.006 99.6838 196.318C94.836 201.587 88.0253 204 80 204C71.9747 204 65.164 201.587 60.3162 196.318C55.4284 191.006 52 182.209 52 168.364C52 154.506 55.4444 141.093 60.8733 131.272C66.4121 121.252 73.3605 116 80 116C86.6395 116 93.5879 121.252 99.1267 131.272C104.556 141.093 108 154.506 108 168.364Z" fill="#F98284" stroke="black" stroke-width="8"/>
<path d="M176 168.364C176 182.209 172.572 191.006 167.684 196.318C162.836 201.587 156.025 204 148 204C139.975 204 133.164 201.587 128.316 196.318C123.428 191.006 120 182.209 120 168.364C120 154.506 123.444 141.093 128.873 131.272C134.412 121.252 141.361 116 148 116C154.639 116 161.588 121.252 167.127 131.272C172.556 141.093 176 154.506 176 168.364Z" fill="#B3E3DA" stroke="black" stroke-width="8"/>
<path d="M142 160.364C142 174.209 138.572 183.006 133.684 188.318C128.836 193.587 122.025 196 114 196C105.975 196 99.164 193.587 94.3162 188.318C89.4284 183.006 86 174.209 86 160.364C86 146.506 89.4444 133.093 94.8733 123.272C100.412 113.252 107.361 108 114 108C120.639 108 127.588 113.252 133.127 123.272C138.556 133.093 142 146.506 142 160.364Z" fill="#B0EB93" stroke="black" stroke-width="8"/>
<g filter="url(#filter0_i_9_26)">
<path d="M114 240C158.183 240 194 211.346 194 176C130.924 183.951 95.91 183.149 34 176C34 211.346 69.8172 240 114 240Z" fill="#FFC384"/>
</g>
<path d="M38.2152 180.507C96.0008 187.017 130.842 187.73 189.78 180.554C186.845 210.902 154.827 236 114 236C73.152 236 41.1225 210.877 38.2152 180.507Z" stroke="black" stroke-width="8"/>
<mask id="path-10-outside-2_9_26" maskUnits="userSpaceOnUse" x="158" y="136" width="194" height="74" fill="black">
<rect fill="white" x="158" y="136" width="194" height="74"/>
<path d="M170.118 201.4C169.104 201.4 168.251 201.053 167.558 200.36C166.864 199.667 166.518 198.813 166.518 197.8V148.44C166.518 147.427 166.864 146.573 167.558 145.88C168.251 145.133 169.104 144.76 170.118 144.76C171.131 144.76 171.984 145.133 172.678 145.88C173.424 146.573 173.798 147.427 173.798 148.44V169.72H204.118V148.44C204.118 147.427 204.464 146.573 205.158 145.88C205.851 145.133 206.704 144.76 207.718 144.76C208.731 144.76 209.584 145.133 210.278 145.88C211.024 146.573 211.398 147.427 211.398 148.44V197.8C211.398 198.813 211.024 199.667 210.278 200.36C209.584 201.053 208.731 201.4 207.718 201.4C206.704 201.4 205.851 201.053 205.158 200.36C204.464 199.667 204.118 198.813 204.118 197.8V176.52H173.798V197.8C173.798 198.813 173.424 199.667 172.678 200.36C171.984 201.053 171.131 201.4 170.118 201.4ZM238.373 201.8C235.439 201.8 232.879 201.107 230.693 199.72C228.559 198.333 226.906 196.44 225.733 194.04C224.613 191.64 224.053 189 224.053 186.12V163.4C224.053 162.387 224.399 161.533 225.093 160.84C225.839 160.147 226.719 159.8 227.733 159.8C228.746 159.8 229.599 160.147 230.293 160.84C230.986 161.533 231.333 162.387 231.333 163.4V185.32C231.333 191.827 234.266 195.08 240.133 195.08C242.799 195.08 245.173 194.387 247.253 193C249.386 191.613 251.386 189.747 253.253 187.4V163.4C253.253 162.387 253.599 161.533 254.293 160.84C255.039 160.147 255.919 159.8 256.933 159.8C257.946 159.8 258.799 160.147 259.493 160.84C260.186 161.533 260.533 162.387 260.533 163.4V197.72C260.533 198.733 260.186 199.613 259.493 200.36C258.799 201.053 257.946 201.4 256.933 201.4C255.919 201.4 255.039 201.053 254.293 200.36C253.599 199.613 253.253 198.733 253.253 197.72V194.44C251.226 196.68 249.039 198.467 246.693 199.8C244.346 201.133 241.573 201.8 238.373 201.8ZM276.803 201.4C275.789 201.4 274.936 201.053 274.243 200.36C273.549 199.667 273.203 198.813 273.203 197.8V163.48C273.203 162.467 273.549 161.613 274.243 160.92C274.936 160.173 275.789 159.8 276.803 159.8C277.816 159.8 278.669 160.173 279.363 160.92C280.109 161.613 280.483 162.467 280.483 163.48V166.76C282.509 164.52 284.696 162.733 287.043 161.4C289.389 160.067 292.163 159.4 295.363 159.4C298.296 159.4 300.829 160.093 302.963 161.48C305.149 162.867 306.803 164.76 307.923 167.16C309.096 169.56 309.683 172.2 309.683 175.08V197.8C309.683 198.813 309.309 199.667 308.563 200.36C307.869 201.053 307.016 201.4 306.003 201.4C304.989 201.4 304.136 201.053 303.443 200.36C302.749 199.667 302.403 198.813 302.403 197.8V175.88C302.403 169.373 299.469 166.12 293.603 166.12C290.936 166.12 288.536 166.813 286.403 168.2C284.323 169.587 282.349 171.453 280.483 173.8V197.8C280.483 198.813 280.109 199.667 279.363 200.36C278.669 201.053 277.816 201.4 276.803 201.4ZM335.095 201.8C327.309 201.8 323.415 198.28 323.415 191.24V166.44H317.735C317.309 166.44 316.935 166.307 316.615 166.04C316.349 165.72 316.215 165.347 316.215 164.92C316.215 164.387 316.455 163.933 316.935 163.56L327.815 152.92C328.295 152.44 328.749 152.2 329.175 152.2C329.602 152.2 329.949 152.36 330.215 152.68C330.535 153 330.695 153.373 330.695 153.8V160.2H339.735C340.642 160.2 341.389 160.493 341.975 161.08C342.562 161.667 342.855 162.413 342.855 163.32C342.855 164.173 342.562 164.92 341.975 165.56C341.389 166.147 340.642 166.44 339.735 166.44H330.695V190.6C330.695 192.68 331.175 194.013 332.135 194.6C333.149 195.133 334.402 195.4 335.895 195.4C336.962 195.4 338.029 195.24 339.095 194.92C339.309 194.867 339.522 194.813 339.735 194.76C340.002 194.707 340.322 194.68 340.695 194.68C341.442 194.68 342.109 194.973 342.695 195.56C343.282 196.093 343.575 196.76 343.575 197.56C343.575 198.787 342.962 199.72 341.735 200.36C339.655 201.32 337.442 201.8 335.095 201.8Z"/>
</mask>
<path d="M170.118 201.4C169.104 201.4 168.251 201.053 167.558 200.36C166.864 199.667 166.518 198.813 166.518 197.8V148.44C166.518 147.427 166.864 146.573 167.558 145.88C168.251 145.133 169.104 144.76 170.118 144.76C171.131 144.76 171.984 145.133 172.678 145.88C173.424 146.573 173.798 147.427 173.798 148.44V169.72H204.118V148.44C204.118 147.427 204.464 146.573 205.158 145.88C205.851 145.133 206.704 144.76 207.718 144.76C208.731 144.76 209.584 145.133 210.278 145.88C211.024 146.573 211.398 147.427 211.398 148.44V197.8C211.398 198.813 211.024 199.667 210.278 200.36C209.584 201.053 208.731 201.4 207.718 201.4C206.704 201.4 205.851 201.053 205.158 200.36C204.464 199.667 204.118 198.813 204.118 197.8V176.52H173.798V197.8C173.798 198.813 173.424 199.667 172.678 200.36C171.984 201.053 171.131 201.4 170.118 201.4ZM238.373 201.8C235.439 201.8 232.879 201.107 230.693 199.72C228.559 198.333 226.906 196.44 225.733 194.04C224.613 191.64 224.053 189 224.053 186.12V163.4C224.053 162.387 224.399 161.533 225.093 160.84C225.839 160.147 226.719 159.8 227.733 159.8C228.746 159.8 229.599 160.147 230.293 160.84C230.986 161.533 231.333 162.387 231.333 163.4V185.32C231.333 191.827 234.266 195.08 240.133 195.08C242.799 195.08 245.173 194.387 247.253 193C249.386 191.613 251.386 189.747 253.253 187.4V163.4C253.253 162.387 253.599 161.533 254.293 160.84C255.039 160.147 255.919 159.8 256.933 159.8C257.946 159.8 258.799 160.147 259.493 160.84C260.186 161.533 260.533 162.387 260.533 163.4V197.72C260.533 198.733 260.186 199.613 259.493 200.36C258.799 201.053 257.946 201.4 256.933 201.4C255.919 201.4 255.039 201.053 254.293 200.36C253.599 199.613 253.253 198.733 253.253 197.72V194.44C251.226 196.68 249.039 198.467 246.693 199.8C244.346 201.133 241.573 201.8 238.373 201.8ZM276.803 201.4C275.789 201.4 274.936 201.053 274.243 200.36C273.549 199.667 273.203 198.813 273.203 197.8V163.48C273.203 162.467 273.549 161.613 274.243 160.92C274.936 160.173 275.789 159.8 276.803 159.8C277.816 159.8 278.669 160.173 279.363 160.92C280.109 161.613 280.483 162.467 280.483 163.48V166.76C282.509 164.52 284.696 162.733 287.043 161.4C289.389 160.067 292.163 159.4 295.363 159.4C298.296 159.4 300.829 160.093 302.963 161.48C305.149 162.867 306.803 164.76 307.923 167.16C309.096 169.56 309.683 172.2 309.683 175.08V197.8C309.683 198.813 309.309 199.667 308.563 200.36C307.869 201.053 307.016 201.4 306.003 201.4C304.989 201.4 304.136 201.053 303.443 200.36C302.749 199.667 302.403 198.813 302.403 197.8V175.88C302.403 169.373 299.469 166.12 293.603 166.12C290.936 166.12 288.536 166.813 286.403 168.2C284.323 169.587 282.349 171.453 280.483 173.8V197.8C280.483 198.813 280.109 199.667 279.363 200.36C278.669 201.053 277.816 201.4 276.803 201.4ZM335.095 201.8C327.309 201.8 323.415 198.28 323.415 191.24V166.44H317.735C317.309 166.44 316.935 166.307 316.615 166.04C316.349 165.72 316.215 165.347 316.215 164.92C316.215 164.387 316.455 163.933 316.935 163.56L327.815 152.92C328.295 152.44 328.749 152.2 329.175 152.2C329.602 152.2 329.949 152.36 330.215 152.68C330.535 153 330.695 153.373 330.695 153.8V160.2H339.735C340.642 160.2 341.389 160.493 341.975 161.08C342.562 161.667 342.855 162.413 342.855 163.32C342.855 164.173 342.562 164.92 341.975 165.56C341.389 166.147 340.642 166.44 339.735 166.44H330.695V190.6C330.695 192.68 331.175 194.013 332.135 194.6C333.149 195.133 334.402 195.4 335.895 195.4C336.962 195.4 338.029 195.24 339.095 194.92C339.309 194.867 339.522 194.813 339.735 194.76C340.002 194.707 340.322 194.68 340.695 194.68C341.442 194.68 342.109 194.973 342.695 195.56C343.282 196.093 343.575 196.76 343.575 197.56C343.575 198.787 342.962 199.72 341.735 200.36C339.655 201.32 337.442 201.8 335.095 201.8Z" fill="white"/>
<path d="M167.558 200.36L173.215 194.703L173.215 194.703L167.558 200.36ZM167.558 145.88L173.215 151.537L173.319 151.432L173.42 151.324L167.558 145.88ZM172.678 145.88L166.815 151.324L167.017 151.541L167.234 151.742L172.678 145.88ZM173.798 169.72H165.798V177.72H173.798V169.72ZM204.118 169.72V177.72H212.118V169.72H204.118ZM205.158 145.88L210.815 151.537L210.919 151.432L211.02 151.324L205.158 145.88ZM210.278 145.88L204.415 151.324L204.617 151.541L204.834 151.742L210.278 145.88ZM210.278 200.36L204.834 194.498L204.726 194.598L204.621 194.703L210.278 200.36ZM205.158 200.36L199.501 206.017L199.501 206.017L205.158 200.36ZM204.118 176.52H212.118V168.52H204.118V176.52ZM173.798 176.52V168.52H165.798V176.52H173.798ZM172.678 200.36L167.234 194.498L167.126 194.598L167.021 194.703L172.678 200.36ZM170.118 193.4C170.54 193.4 171.108 193.476 171.729 193.728C172.355 193.983 172.855 194.343 173.215 194.703L161.901 206.017C164.15 208.266 167.062 209.4 170.118 209.4V193.4ZM173.215 194.703C173.574 195.063 173.935 195.562 174.19 196.189C174.442 196.81 174.518 197.378 174.518 197.8H158.518C158.518 200.856 159.652 203.768 161.901 206.017L173.215 194.703ZM174.518 197.8V148.44H158.518V197.8H174.518ZM174.518 148.44C174.518 148.862 174.442 149.43 174.19 150.051C173.935 150.678 173.574 151.177 173.215 151.537L161.901 140.223C159.652 142.472 158.518 145.384 158.518 148.44H174.518ZM173.42 151.324C173.091 151.678 172.594 152.076 171.924 152.369C171.254 152.663 170.617 152.76 170.118 152.76V136.76C166.866 136.76 163.893 138.07 161.695 140.436L173.42 151.324ZM170.118 152.76C169.619 152.76 168.982 152.663 168.311 152.369C167.642 152.076 167.145 151.678 166.815 151.324L178.54 140.436C176.343 138.07 173.37 136.76 170.118 136.76V152.76ZM167.234 151.742C166.88 151.413 166.481 150.916 166.189 150.247C165.895 149.576 165.798 148.939 165.798 148.44H181.798C181.798 145.188 180.488 142.215 178.121 140.018L167.234 151.742ZM165.798 148.44V169.72H181.798V148.44H165.798ZM173.798 177.72H204.118V161.72H173.798V177.72ZM212.118 169.72V148.44H196.118V169.72H212.118ZM212.118 148.44C212.118 148.862 212.042 149.43 211.79 150.051C211.535 150.678 211.174 151.177 210.815 151.537L199.501 140.223C197.252 142.472 196.118 145.384 196.118 148.44H212.118ZM211.02 151.324C210.691 151.678 210.194 152.076 209.524 152.369C208.854 152.663 208.217 152.76 207.718 152.76V136.76C204.466 136.76 201.493 138.07 199.295 140.436L211.02 151.324ZM207.718 152.76C207.219 152.76 206.582 152.663 205.911 152.369C205.242 152.076 204.745 151.678 204.415 151.324L216.14 140.436C213.943 138.07 210.97 136.76 207.718 136.76V152.76ZM204.834 151.742C204.48 151.413 204.081 150.916 203.789 150.247C203.495 149.576 203.398 148.939 203.398 148.44H219.398C219.398 145.188 218.088 142.215 215.721 140.018L204.834 151.742ZM203.398 148.44V197.8H219.398V148.44H203.398ZM203.398 197.8C203.398 197.301 203.495 196.664 203.789 195.993C204.081 195.324 204.48 194.827 204.834 194.498L215.721 206.222C218.088 204.025 219.398 201.052 219.398 197.8H203.398ZM204.621 194.703C204.981 194.343 205.48 193.983 206.107 193.728C206.728 193.476 207.296 193.4 207.718 193.4V209.4C210.774 209.4 213.686 208.266 215.935 206.017L204.621 194.703ZM207.718 193.4C208.14 193.4 208.708 193.476 209.329 193.728C209.955 193.983 210.455 194.343 210.815 194.703L199.501 206.017C201.75 208.266 204.662 209.4 207.718 209.4V193.4ZM210.815 194.703C211.174 195.063 211.535 195.562 211.79 196.189C212.042 196.81 212.118 197.378 212.118 197.8H196.118C196.118 200.856 197.252 203.768 199.501 206.017L210.815 194.703ZM212.118 197.8V176.52H196.118V197.8H212.118ZM204.118 168.52H173.798V184.52H204.118V168.52ZM165.798 176.52V197.8H181.798V176.52H165.798ZM165.798 197.8C165.798 197.301 165.895 196.664 166.189 195.993C166.481 195.324 166.88 194.827 167.234 194.498L178.121 206.222C180.488 204.025 181.798 201.052 181.798 197.8H165.798ZM167.021 194.703C167.381 194.343 167.88 193.983 168.507 193.728C169.128 193.476 169.696 193.4 170.118 193.4V209.4C173.174 209.4 176.086 208.266 178.335 206.017L167.021 194.703ZM230.693 199.72L226.333 206.428L226.371 206.452L226.408 206.476L230.693 199.72ZM225.733 194.04L218.483 197.423L218.514 197.489L218.546 197.554L225.733 194.04ZM225.093 160.84L219.649 154.978L219.541 155.078L219.436 155.183L225.093 160.84ZM230.293 160.84L235.95 155.183L230.293 160.84ZM247.253 193L242.893 186.292L242.854 186.318L242.815 186.344L247.253 193ZM253.253 187.4L259.514 192.38L261.253 190.194V187.4H253.253ZM254.293 160.84L248.849 154.978L248.741 155.078L248.636 155.183L254.293 160.84ZM259.493 160.84L265.15 155.183L259.493 160.84ZM259.493 200.36L265.15 206.017L265.254 205.912L265.355 205.804L259.493 200.36ZM254.293 200.36L248.43 205.804L248.632 206.021L248.849 206.222L254.293 200.36ZM253.253 194.44H261.253V173.674L247.321 189.073L253.253 194.44ZM246.693 199.8L250.645 206.756L246.693 199.8ZM238.373 193.8C236.75 193.8 235.718 193.434 234.977 192.964L226.408 206.476C230.041 208.779 234.129 209.8 238.373 209.8V193.8ZM235.053 193.012C234.195 192.455 233.49 191.693 232.92 190.526L218.546 197.554C220.322 201.187 222.924 204.212 226.333 206.428L235.053 193.012ZM232.982 190.657C232.399 189.406 232.053 187.935 232.053 186.12H216.053C216.053 190.065 216.827 193.874 218.483 197.423L232.982 190.657ZM232.053 186.12V163.4H216.053V186.12H232.053ZM232.053 163.4C232.053 163.822 231.977 164.39 231.725 165.011C231.47 165.638 231.109 166.137 230.75 166.497L219.436 155.183C217.187 157.432 216.053 160.344 216.053 163.4H232.053ZM230.536 166.702C230.235 166.982 229.803 167.283 229.245 167.503C228.686 167.723 228.158 167.8 227.733 167.8V151.8C224.688 151.8 221.866 152.919 219.649 154.978L230.536 166.702ZM227.733 167.8C227.311 167.8 226.743 167.724 226.122 167.472C225.495 167.217 224.996 166.857 224.636 166.497L235.95 155.183C233.701 152.934 230.789 151.8 227.733 151.8V167.8ZM224.636 166.497C224.276 166.137 223.916 165.638 223.661 165.011C223.409 164.39 223.333 163.822 223.333 163.4H239.333C239.333 160.344 238.198 157.432 235.95 155.183L224.636 166.497ZM223.333 163.4V185.32H239.333V163.4H223.333ZM223.333 185.32C223.333 189.614 224.283 194.328 227.591 197.997C231.042 201.824 235.74 203.08 240.133 203.08V187.08C239.385 187.08 239.078 186.974 239.057 186.966C239.053 186.965 239.11 186.986 239.202 187.047C239.296 187.11 239.392 187.191 239.474 187.283C239.652 187.48 239.626 187.559 239.544 187.287C239.454 186.988 239.333 186.371 239.333 185.32H223.333ZM240.133 203.08C244.268 203.08 248.207 201.979 251.69 199.656L242.815 186.344C242.139 186.795 241.331 187.08 240.133 187.08V203.08ZM251.613 199.708C254.584 197.776 257.204 195.284 259.514 192.38L246.992 182.42C245.568 184.209 244.188 185.451 242.893 186.292L251.613 199.708ZM261.253 187.4V163.4H245.253V187.4H261.253ZM261.253 163.4C261.253 163.822 261.177 164.39 260.925 165.011C260.67 165.638 260.309 166.137 259.95 166.497L248.636 155.183C246.387 157.432 245.253 160.344 245.253 163.4H261.253ZM259.736 166.702C259.435 166.982 259.003 167.283 258.445 167.503C257.886 167.723 257.358 167.8 256.933 167.8V151.8C253.888 151.8 251.066 152.919 248.849 154.978L259.736 166.702ZM256.933 167.8C256.511 167.8 255.943 167.724 255.322 167.472C254.695 167.217 254.196 166.857 253.836 166.497L265.15 155.183C262.901 152.934 259.989 151.8 256.933 151.8V167.8ZM253.836 166.497C253.476 166.137 253.116 165.638 252.861 165.011C252.609 164.39 252.533 163.822 252.533 163.4H268.533C268.533 160.344 267.398 157.432 265.15 155.183L253.836 166.497ZM252.533 163.4V197.72H268.533V163.4H252.533ZM252.533 197.72C252.533 197.295 252.609 196.767 252.83 196.208C253.049 195.65 253.351 195.217 253.63 194.916L265.355 205.804C267.414 203.586 268.533 200.765 268.533 197.72H252.533ZM253.836 194.703C254.196 194.343 254.695 193.983 255.322 193.728C255.943 193.476 256.511 193.4 256.933 193.4V209.4C259.989 209.4 262.901 208.266 265.15 206.017L253.836 194.703ZM256.933 193.4C257.358 193.4 257.886 193.477 258.445 193.697C259.003 193.917 259.435 194.218 259.736 194.498L248.849 206.222C251.066 208.281 253.888 209.4 256.933 209.4V193.4ZM260.155 194.916C260.435 195.217 260.736 195.65 260.956 196.208C261.176 196.767 261.253 197.295 261.253 197.72H245.253C245.253 200.765 246.372 203.586 248.43 205.804L260.155 194.916ZM261.253 197.72V194.44H245.253V197.72H261.253ZM247.321 189.073C245.798 190.756 244.264 191.979 242.741 192.844L250.645 206.756C253.814 204.955 256.654 202.604 259.185 199.807L247.321 189.073ZM242.741 192.844C241.805 193.376 240.445 193.8 238.373 193.8V209.8C242.7 209.8 246.887 208.891 250.645 206.756L242.741 192.844ZM274.243 200.36L279.9 194.703L279.9 194.703L274.243 200.36ZM274.243 160.92L279.9 166.577L280.004 166.472L280.105 166.364L274.243 160.92ZM279.363 160.92L273.5 166.364L273.702 166.581L273.919 166.782L279.363 160.92ZM280.483 166.76H272.483V187.526L286.415 172.127L280.483 166.76ZM287.043 161.4L290.995 168.356L287.043 161.4ZM302.963 161.48L298.603 168.188L298.641 168.212L298.678 168.236L302.963 161.48ZM307.923 167.16L300.673 170.543L300.704 170.609L300.736 170.674L307.923 167.16ZM308.563 200.36L303.119 194.498L303.011 194.598L302.906 194.703L308.563 200.36ZM303.443 200.36L297.786 206.017L297.786 206.017L303.443 200.36ZM286.403 168.2L282.043 161.492L282.004 161.518L281.965 161.544L286.403 168.2ZM280.483 173.8L274.222 168.82L272.483 171.006V173.8H280.483ZM279.363 200.36L273.919 194.498L273.811 194.598L273.706 194.703L279.363 200.36ZM276.803 193.4C277.225 193.4 277.793 193.476 278.414 193.728C279.04 193.983 279.54 194.343 279.9 194.703L268.586 206.017C270.835 208.266 273.747 209.4 276.803 209.4V193.4ZM279.9 194.703C280.259 195.063 280.62 195.562 280.875 196.189C281.127 196.81 281.203 197.378 281.203 197.8H265.203C265.203 200.856 266.337 203.768 268.586 206.017L279.9 194.703ZM281.203 197.8V163.48H265.203V197.8H281.203ZM281.203 163.48C281.203 163.902 281.127 164.47 280.875 165.091C280.62 165.718 280.259 166.217 279.9 166.577L268.586 155.263C266.337 157.512 265.203 160.424 265.203 163.48H281.203ZM280.105 166.364C279.776 166.718 279.279 167.116 278.609 167.409C277.939 167.703 277.302 167.8 276.803 167.8V151.8C273.551 151.8 270.578 153.11 268.38 155.476L280.105 166.364ZM276.803 167.8C276.304 167.8 275.667 167.703 274.996 167.409C274.327 167.116 273.83 166.718 273.5 166.364L285.225 155.476C283.028 153.11 280.055 151.8 276.803 151.8V167.8ZM273.919 166.782C273.565 166.453 273.166 165.956 272.874 165.287C272.58 164.616 272.483 163.979 272.483 163.48H288.483C288.483 160.228 287.173 157.255 284.806 155.058L273.919 166.782ZM272.483 163.48V166.76H288.483V163.48H272.483ZM286.415 172.127C287.938 170.444 289.471 169.221 290.995 168.356L283.091 154.444C279.921 156.245 277.081 158.596 274.551 161.393L286.415 172.127ZM290.995 168.356C291.931 167.824 293.29 167.4 295.363 167.4V151.4C291.035 151.4 286.848 152.309 283.091 154.444L290.995 168.356ZM295.363 167.4C296.991 167.4 297.957 167.767 298.603 168.188L307.323 154.772C303.702 152.419 299.601 151.4 295.363 151.4V167.4ZM298.678 168.236C299.544 168.785 300.184 169.494 300.673 170.543L315.172 163.777C313.422 160.026 310.755 156.948 307.247 154.724L298.678 168.236ZM300.736 170.674C301.333 171.896 301.683 173.321 301.683 175.08H317.683C317.683 171.079 316.859 167.224 315.11 163.646L300.736 170.674ZM301.683 175.08V197.8H317.683V175.08H301.683ZM301.683 197.8C301.683 197.301 301.78 196.664 302.074 195.993C302.366 195.324 302.765 194.827 303.119 194.498L314.006 206.222C316.373 204.025 317.683 201.052 317.683 197.8H301.683ZM302.906 194.703C303.266 194.343 303.765 193.983 304.392 193.728C305.013 193.476 305.581 193.4 306.003 193.4V209.4C309.059 209.4 311.971 208.266 314.22 206.017L302.906 194.703ZM306.003 193.4C306.425 193.4 306.993 193.476 307.614 193.728C308.24 193.983 308.74 194.343 309.1 194.703L297.786 206.017C300.035 208.266 302.947 209.4 306.003 209.4V193.4ZM309.1 194.703C309.459 195.063 309.82 195.562 310.075 196.189C310.327 196.81 310.403 197.378 310.403 197.8H294.403C294.403 200.856 295.537 203.768 297.786 206.017L309.1 194.703ZM310.403 197.8V175.88H294.403V197.8H310.403ZM310.403 175.88C310.403 171.586 309.453 166.872 306.144 163.203C302.694 159.376 297.995 158.12 293.603 158.12V174.12C294.351 174.12 294.658 174.226 294.679 174.234C294.683 174.235 294.625 174.214 294.533 174.153C294.439 174.09 294.344 174.009 294.261 173.917C294.083 173.72 294.11 173.641 294.191 173.913C294.281 174.212 294.403 174.829 294.403 175.88H310.403ZM293.603 158.12C289.467 158.12 285.538 159.221 282.043 161.492L290.763 174.908C291.534 174.406 292.406 174.12 293.603 174.12V158.12ZM281.965 161.544C279.072 163.472 276.506 165.949 274.222 168.82L286.744 178.78C288.193 176.958 289.573 175.701 290.84 174.856L281.965 161.544ZM272.483 173.8V197.8H288.483V173.8H272.483ZM272.483 197.8C272.483 197.301 272.58 196.664 272.874 195.993C273.166 195.324 273.565 194.827 273.919 194.498L284.806 206.222C287.173 204.025 288.483 201.052 288.483 197.8H272.483ZM273.706 194.703C274.066 194.343 274.565 193.983 275.192 193.728C275.813 193.476 276.381 193.4 276.803 193.4V209.4C279.859 209.4 282.771 208.266 285.02 206.017L273.706 194.703ZM323.415 166.44H331.415V158.44H323.415V166.44ZM316.615 166.04L310.47 171.161L310.935 171.72L311.494 172.186L316.615 166.04ZM316.935 163.56L321.847 169.875L322.205 169.597L322.529 169.28L316.935 163.56ZM327.815 152.92L333.409 158.64L333.441 158.608L333.472 158.577L327.815 152.92ZM330.215 152.68L324.07 157.801L324.302 158.08L324.558 158.337L330.215 152.68ZM330.695 160.2H322.695V168.2H330.695V160.2ZM341.975 161.08L336.318 166.737L336.318 166.737L341.975 161.08ZM341.975 165.56L347.632 171.217L347.755 171.094L347.873 170.966L341.975 165.56ZM330.695 166.44V158.44H322.695V166.44H330.695ZM332.135 194.6L327.964 201.426L328.182 201.56L328.409 201.679L332.135 194.6ZM339.095 194.92L337.155 187.159L336.975 187.204L336.797 187.257L339.095 194.92ZM339.735 194.76L338.166 186.915L337.98 186.953L337.795 186.999L339.735 194.76ZM342.695 195.56L337.038 201.217L337.173 201.351L337.314 201.48L342.695 195.56ZM341.735 200.36L345.088 207.624L345.264 207.542L345.436 207.453L341.735 200.36ZM335.095 193.8C332.247 193.8 331.604 193.139 331.7 193.226C331.95 193.451 331.415 193.307 331.415 191.24H315.415C315.415 196.213 316.827 201.349 320.97 205.094C324.96 208.701 330.157 209.8 335.095 209.8V193.8ZM331.415 191.24V166.44H315.415V191.24H331.415ZM323.415 158.44H317.735V174.44H323.415V158.44ZM317.735 158.44C318.369 158.44 319.085 158.542 319.826 158.806C320.569 159.071 321.211 159.456 321.737 159.894L311.494 172.186C313.289 173.682 315.487 174.44 317.735 174.44V158.44ZM322.761 160.919C323.199 161.444 323.584 162.086 323.849 162.829C324.114 163.57 324.215 164.287 324.215 164.92H308.215C308.215 167.169 308.973 169.366 310.47 171.161L322.761 160.919ZM324.215 164.92C324.215 165.904 323.981 166.95 323.466 167.923C322.967 168.865 322.337 169.494 321.847 169.875L312.024 157.245C309.905 158.893 308.215 161.55 308.215 164.92H324.215ZM322.529 169.28L333.409 158.64L322.222 147.2L311.342 157.84L322.529 169.28ZM333.472 158.577C333.307 158.742 331.833 160.2 329.175 160.2V144.2C325.665 144.2 323.283 146.138 322.158 147.263L333.472 158.577ZM329.175 160.2C328.368 160.2 327.398 160.043 326.403 159.584C325.402 159.122 324.627 158.47 324.07 157.801L336.361 147.559C334.532 145.364 331.91 144.2 329.175 144.2V160.2ZM324.558 158.337C324.081 157.859 323.586 157.201 323.222 156.351C322.854 155.492 322.695 154.614 322.695 153.8H338.695C338.695 151.113 337.591 148.742 335.872 147.023L324.558 158.337ZM322.695 153.8V160.2H338.695V153.8H322.695ZM330.695 168.2H339.735V152.2H330.695V168.2ZM339.735 168.2C339.317 168.2 338.722 168.13 338.05 167.866C337.364 167.597 336.776 167.194 336.318 166.737L347.632 155.423C345.399 153.19 342.547 152.2 339.735 152.2V168.2ZM336.318 166.737C335.861 166.28 335.459 165.691 335.189 165.005C334.925 164.333 334.855 163.738 334.855 163.32H350.855C350.855 160.508 349.866 157.657 347.632 155.423L336.318 166.737ZM334.855 163.32C334.855 162.81 334.947 162.211 335.189 161.595C335.431 160.98 335.762 160.499 336.078 160.154L347.873 170.966C349.786 168.879 350.855 166.213 350.855 163.32H334.855ZM336.318 159.903C336.776 159.446 337.364 159.043 338.05 158.774C338.722 158.51 339.317 158.44 339.735 158.44V174.44C342.547 174.44 345.399 173.45 347.632 171.217L336.318 159.903ZM339.735 158.44H330.695V174.44H339.735V158.44ZM322.695 166.44V190.6H338.695V166.44H322.695ZM322.695 190.6C322.695 193.153 323.16 198.491 327.964 201.426L336.307 187.774C337.749 188.655 338.369 189.857 338.582 190.45C338.765 190.958 338.695 191.108 338.695 190.6H322.695ZM328.409 201.679C330.868 202.973 333.485 203.4 335.895 203.4V187.4C335.759 187.4 335.66 187.394 335.593 187.387C335.527 187.381 335.498 187.375 335.5 187.375C335.507 187.377 335.646 187.408 335.861 187.521L328.409 201.679ZM335.895 203.4C337.774 203.4 339.615 203.116 341.394 202.583L336.797 187.257C336.443 187.364 336.15 187.4 335.895 187.4V203.4ZM341.036 202.681C341.249 202.628 341.462 202.574 341.676 202.521L337.795 186.999C337.582 187.052 337.368 187.106 337.155 187.159L341.036 202.681ZM341.304 202.605C341.091 202.647 340.931 202.665 340.84 202.672C340.747 202.68 340.696 202.68 340.695 202.68V186.68C339.975 186.68 339.1 186.729 338.166 186.915L341.304 202.605ZM340.695 202.68C339.988 202.68 339.241 202.534 338.533 202.223C337.842 201.918 337.35 201.528 337.038 201.217L348.352 189.903C346.448 187.999 343.809 186.68 340.695 186.68V202.68ZM337.314 201.48C336.853 201.06 336.376 200.462 336.033 199.682C335.69 198.904 335.575 198.159 335.575 197.56H351.575C351.575 194.529 350.348 191.706 348.077 189.64L337.314 201.48ZM335.575 197.56C335.575 196.772 335.795 195.752 336.43 194.787C337.031 193.872 337.725 193.429 338.035 193.267L345.436 207.453C346.973 206.651 348.587 205.421 349.801 203.573C351.049 201.675 351.575 199.575 351.575 197.56H335.575ZM338.383 193.096C337.38 193.559 336.313 193.8 335.095 193.8V209.8C338.571 209.8 341.931 209.081 345.088 207.624L338.383 193.096Z" fill="black" mask="url(#path-10-outside-2_9_26)"/>
<defs>
<filter id="filter0_i_9_26" x="34" y="176" width="160" height="68" filterUnits="userSpaceOnUse" color-interpolation-filters="sRGB">
<feFlood flood-opacity="0" result="BackgroundImageFix"/>
<feBlend mode="normal" in="SourceGraphic" in2="BackgroundImageFix" result="shape"/>
<feColorMatrix in="SourceAlpha" type="matrix" values="0 0 0 0 0 0 0 0 0 0 0 0 0 0 0 0 0 0 127 0" result="hardAlpha"/>
<feOffset dy="4"/>
<feGaussianBlur stdDeviation="2"/>
<feComposite in2="hardAlpha" operator="arithmetic" k2="-1" k3="1"/>
<feColorMatrix type="matrix" values="0 0 0 0 0 0 0 0 0 0 0 0 0 0 0 0 0 0 0.25 0"/>
<feBlend mode="normal" in2="shape" result="effect1_innerShadow_9_26"/>
</filter>
</defs>
</svg>
