<svg width="960" height="400" viewBox="0 0 960 400" fill="none" xmlns="http://www.w3.org/2000/svg">
<rect width="960" height="400" fill="#B0A9E4"/>
<g filter="url(#filter0_d_24_9)">
<mask id="path-2-outside-1_24_9" maskUnits="userSpaceOnUse" x="92" y="98" width="387" height="108" fill="black">
<rect fill="white" x="92" y="98" width="387" height="108"/>
<path d="M106.614 196C104.992 196 103.627 195.445 102.518 194.336C101.408 193.227 100.854 191.861 100.854 190.24V112.544C100.854 110.923 101.408 109.557 102.518 108.448C103.627 107.253 104.992 106.656 106.614 106.656H157.942C159.478 106.656 160.758 107.211 161.782 108.32C162.891 109.344 163.446 110.624 163.446 112.16C163.446 113.696 162.891 114.976 161.782 116C160.758 117.024 159.478 117.536 157.942 117.536H112.502V145.824H153.334C154.87 145.824 156.15 146.379 157.174 147.488C158.283 148.512 158.838 149.792 158.838 151.328C158.838 152.864 158.283 154.144 157.174 155.168C156.15 156.192 154.87 156.704 153.334 156.704H112.502V185.12H157.942C159.478 185.12 160.758 185.675 161.782 186.784C162.891 187.808 163.446 189.088 163.446 190.624C163.446 192.16 162.891 193.44 161.782 194.464C160.758 195.488 159.478 196 157.942 196H106.614ZM195.94 197.28C192.185 197.28 188.686 196.512 185.444 194.976C182.286 193.44 179.769 191.221 177.892 188.32C176.014 185.333 175.076 181.92 175.076 178.08C175.076 171.765 177.55 166.731 182.5 162.976C187.534 159.221 194.873 157.344 204.516 157.344H220.004V156.32C220.004 150.688 218.596 146.635 215.78 144.16C213.049 141.685 208.74 140.448 202.852 140.448C199.609 140.448 196.708 140.704 194.148 141.216C191.673 141.728 188.9 142.496 185.828 143.52C185.145 143.691 184.59 143.776 184.164 143.776C182.884 143.776 181.774 143.307 180.836 142.368C179.897 141.429 179.428 140.277 179.428 138.912C179.428 136.608 180.537 134.987 182.756 134.048C190.009 130.976 197.39 129.44 204.9 129.44C210.788 129.44 215.737 130.635 219.748 133.024C223.844 135.413 226.83 138.528 228.708 142.368C230.67 146.123 231.652 150.219 231.652 154.656V190.88C231.652 192.501 231.054 193.867 229.86 194.976C228.75 196.085 227.385 196.64 225.764 196.64C224.142 196.64 222.777 196.085 221.668 194.976C220.558 193.867 220.004 192.501 220.004 190.88V187.552C213.689 194.037 205.668 197.28 195.94 197.28ZM200.292 187.04C204.046 187.04 207.673 186.144 211.172 184.352C214.67 182.475 217.614 180.171 220.004 177.44V166.688H206.052C193.166 166.688 186.724 170.059 186.724 176.8C186.724 179.872 187.748 182.347 189.796 184.224C191.929 186.101 195.428 187.04 200.292 187.04ZM272.295 197.28C263.761 197.28 255.996 195.36 248.999 191.52C247.548 190.496 246.823 189.088 246.823 187.296C246.823 185.931 247.292 184.736 248.231 183.712C249.169 182.688 250.364 182.176 251.815 182.176C252.583 182.176 253.351 182.347 254.119 182.688C256.849 183.883 259.58 184.821 262.311 185.504C265.041 186.187 268.113 186.528 271.527 186.528C280.999 186.528 285.735 183.499 285.735 177.44C285.735 175.477 284.625 173.984 282.407 172.96C280.273 171.936 276.732 170.784 271.783 169.504C266.748 168.309 262.567 167.072 259.239 165.792C255.996 164.512 253.18 162.592 250.791 160.032C248.487 157.387 247.335 153.931 247.335 149.664C247.335 143.691 249.468 138.827 253.735 135.072C258.087 131.317 264.273 129.44 272.295 129.44C278.865 129.44 285.052 130.507 290.855 132.64C292.049 132.981 292.945 133.621 293.543 134.56C294.225 135.499 294.567 136.48 294.567 137.504C294.567 138.869 294.055 140.064 293.031 141.088C292.092 142.112 290.897 142.624 289.447 142.624C289.02 142.624 288.465 142.539 287.783 142.368C282.833 140.832 277.969 140.064 273.191 140.064C268.583 140.064 264.956 140.917 262.311 142.624C259.751 144.245 258.471 146.379 258.471 149.024C258.471 151.584 259.665 153.461 262.055 154.656C264.444 155.851 268.156 157.003 273.191 158.112C278.225 159.392 282.321 160.672 285.479 161.952C288.636 163.147 291.324 165.067 293.543 167.712C295.847 170.357 296.999 173.899 296.999 178.336C296.999 183.797 294.823 188.32 290.471 191.904C286.204 195.488 280.145 197.28 272.295 197.28ZM334.703 197.28C322.244 197.28 316.015 191.648 316.015 180.384V140.704H306.927C306.244 140.704 305.647 140.491 305.135 140.064C304.708 139.552 304.495 138.955 304.495 138.272C304.495 137.419 304.879 136.693 305.647 136.096L323.055 119.072C323.823 118.304 324.548 117.92 325.231 117.92C325.913 117.92 326.468 118.176 326.895 118.688C327.407 119.2 327.663 119.797 327.663 120.48V130.72H342.127C343.577 130.72 344.772 131.189 345.711 132.128C346.649 133.067 347.119 134.261 347.119 135.712C347.119 137.077 346.649 138.272 345.711 139.296C344.772 140.235 343.577 140.704 342.127 140.704H327.663V179.36C327.663 182.688 328.431 184.821 329.967 185.76C331.588 186.613 333.593 187.04 335.983 187.04C337.689 187.04 339.396 186.784 341.103 186.272C341.444 186.187 341.785 186.101 342.127 186.016C342.553 185.931 343.065 185.888 343.663 185.888C344.857 185.888 345.924 186.357 346.863 187.296C347.801 188.149 348.271 189.216 348.271 190.496C348.271 192.459 347.289 193.952 345.327 194.976C341.999 196.512 338.457 197.28 334.703 197.28ZM389.359 197.28C378.948 197.28 370.799 194.336 364.911 188.448C359.108 182.475 356.207 174.112 356.207 163.36C356.207 157.301 357.316 151.712 359.535 146.592C361.753 141.472 365.167 137.333 369.775 134.176C374.383 131.019 380.057 129.44 386.799 129.44C393.113 129.44 398.575 130.933 403.183 133.92C407.791 136.821 411.289 140.747 413.679 145.696C416.068 150.56 417.263 155.893 417.263 161.696C417.263 163.317 416.708 164.683 415.599 165.792C414.575 166.901 413.167 167.456 411.375 167.456H367.983C368.665 173.429 370.884 178.08 374.639 181.408C378.393 184.736 383.641 186.4 390.383 186.4C393.967 186.4 397.081 186.059 399.727 185.376C402.457 184.693 405.103 183.712 407.663 182.432C408.345 182.091 409.113 181.92 409.967 181.92C411.332 181.92 412.527 182.389 413.551 183.328C414.575 184.267 415.087 185.461 415.087 186.912C415.087 188.789 413.977 190.368 411.759 191.648C408.431 193.525 405.145 194.933 401.903 195.872C398.66 196.811 394.479 197.28 389.359 197.28ZM405.743 157.984C405.487 153.803 404.377 150.304 402.415 147.488C400.537 144.672 398.191 142.624 395.375 141.344C392.559 139.979 389.7 139.296 386.799 139.296C383.897 139.296 381.039 139.979 378.223 141.344C375.407 142.624 373.06 144.672 371.183 147.488C369.305 150.304 368.239 153.803 367.983 157.984H405.743ZM438.435 196.64C436.813 196.64 435.448 196.085 434.339 194.976C433.229 193.867 432.675 192.501 432.675 190.88V135.968C432.675 134.347 433.229 132.981 434.339 131.872C435.448 130.677 436.813 130.08 438.435 130.08C440.056 130.08 441.421 130.677 442.531 131.872C443.725 132.981 444.323 134.347 444.323 135.968V141.472C450.296 133.451 456.995 129.44 464.419 129.44H465.059C466.68 129.44 468.003 129.995 469.027 131.104C470.136 132.213 470.691 133.579 470.691 135.2C470.691 136.821 470.136 138.144 469.027 139.168C467.917 140.192 466.509 140.704 464.803 140.704H464.163C460.067 140.704 456.312 141.728 452.899 143.776C449.485 145.739 446.627 148.469 444.323 151.968V190.88C444.323 192.501 443.725 193.867 442.531 194.976C441.421 196.085 440.056 196.64 438.435 196.64Z"/>
</mask>
<path d="M106.614 196C104.992 196 103.627 195.445 102.518 194.336C101.408 193.227 100.854 191.861 100.854 190.24V112.544C100.854 110.923 101.408 109.557 102.518 108.448C103.627 107.253 104.992 106.656 106.614 106.656H157.942C159.478 106.656 160.758 107.211 161.782 108.32C162.891 109.344 163.446 110.624 163.446 112.16C163.446 113.696 162.891 114.976 161.782 116C160.758 117.024 159.478 117.536 157.942 117.536H112.502V145.824H153.334C154.87 145.824 156.15 146.379 157.174 147.488C158.283 148.512 158.838 149.792 158.838 151.328C158.838 152.864 158.283 154.144 157.174 155.168C156.15 156.192 154.87 156.704 153.334 156.704H112.502V185.12H157.942C159.478 185.12 160.758 185.675 161.782 186.784C162.891 187.808 163.446 189.088 163.446 190.624C163.446 192.16 162.891 193.44 161.782 194.464C160.758 195.488 159.478 196 157.942 196H106.614ZM195.94 197.28C192.185 197.28 188.686 196.512 185.444 194.976C182.286 193.44 179.769 191.221 177.892 188.32C176.014 185.333 175.076 181.92 175.076 178.08C175.076 171.765 177.55 166.731 182.5 162.976C187.534 159.221 194.873 157.344 204.516 157.344H220.004V156.32C220.004 150.688 218.596 146.635 215.78 144.16C213.049 141.685 208.74 140.448 202.852 140.448C199.609 140.448 196.708 140.704 194.148 141.216C191.673 141.728 188.9 142.496 185.828 143.52C185.145 143.691 184.59 143.776 184.164 143.776C182.884 143.776 181.774 143.307 180.836 142.368C179.897 141.429 179.428 140.277 179.428 138.912C179.428 136.608 180.537 134.987 182.756 134.048C190.009 130.976 197.39 129.44 204.9 129.44C210.788 129.44 215.737 130.635 219.748 133.024C223.844 135.413 226.83 138.528 228.708 142.368C230.67 146.123 231.652 150.219 231.652 154.656V190.88C231.652 192.501 231.054 193.867 229.86 194.976C228.75 196.085 227.385 196.64 225.764 196.64C224.142 196.64 222.777 196.085 221.668 194.976C220.558 193.867 220.004 192.501 220.004 190.88V187.552C213.689 194.037 205.668 197.28 195.94 197.28ZM200.292 187.04C204.046 187.04 207.673 186.144 211.172 184.352C214.67 182.475 217.614 180.171 220.004 177.44V166.688H206.052C193.166 166.688 186.724 170.059 186.724 176.8C186.724 179.872 187.748 182.347 189.796 184.224C191.929 186.101 195.428 187.04 200.292 187.04ZM272.295 197.28C263.761 197.28 255.996 195.36 248.999 191.52C247.548 190.496 246.823 189.088 246.823 187.296C246.823 185.931 247.292 184.736 248.231 183.712C249.169 182.688 250.364 182.176 251.815 182.176C252.583 182.176 253.351 182.347 254.119 182.688C256.849 183.883 259.58 184.821 262.311 185.504C265.041 186.187 268.113 186.528 271.527 186.528C280.999 186.528 285.735 183.499 285.735 177.44C285.735 175.477 284.625 173.984 282.407 172.96C280.273 171.936 276.732 170.784 271.783 169.504C266.748 168.309 262.567 167.072 259.239 165.792C255.996 164.512 253.18 162.592 250.791 160.032C248.487 157.387 247.335 153.931 247.335 149.664C247.335 143.691 249.468 138.827 253.735 135.072C258.087 131.317 264.273 129.44 272.295 129.44C278.865 129.44 285.052 130.507 290.855 132.64C292.049 132.981 292.945 133.621 293.543 134.56C294.225 135.499 294.567 136.48 294.567 137.504C294.567 138.869 294.055 140.064 293.031 141.088C292.092 142.112 290.897 142.624 289.447 142.624C289.02 142.624 288.465 142.539 287.783 142.368C282.833 140.832 277.969 140.064 273.191 140.064C268.583 140.064 264.956 140.917 262.311 142.624C259.751 144.245 258.471 146.379 258.471 149.024C258.471 151.584 259.665 153.461 262.055 154.656C264.444 155.851 268.156 157.003 273.191 158.112C278.225 159.392 282.321 160.672 285.479 161.952C288.636 163.147 291.324 165.067 293.543 167.712C295.847 170.357 296.999 173.899 296.999 178.336C296.999 183.797 294.823 188.32 290.471 191.904C286.204 195.488 280.145 197.28 272.295 197.28ZM334.703 197.28C322.244 197.28 316.015 191.648 316.015 180.384V140.704H306.927C306.244 140.704 305.647 140.491 305.135 140.064C304.708 139.552 304.495 138.955 304.495 138.272C304.495 137.419 304.879 136.693 305.647 136.096L323.055 119.072C323.823 118.304 324.548 117.92 325.231 117.92C325.913 117.92 326.468 118.176 326.895 118.688C327.407 119.2 327.663 119.797 327.663 120.48V130.72H342.127C343.577 130.72 344.772 131.189 345.711 132.128C346.649 133.067 347.119 134.261 347.119 135.712C347.119 137.077 346.649 138.272 345.711 139.296C344.772 140.235 343.577 140.704 342.127 140.704H327.663V179.36C327.663 182.688 328.431 184.821 329.967 185.76C331.588 186.613 333.593 187.04 335.983 187.04C337.689 187.04 339.396 186.784 341.103 186.272C341.444 186.187 341.785 186.101 342.127 186.016C342.553 185.931 343.065 185.888 343.663 185.888C344.857 185.888 345.924 186.357 346.863 187.296C347.801 188.149 348.271 189.216 348.271 190.496C348.271 192.459 347.289 193.952 345.327 194.976C341.999 196.512 338.457 197.28 334.703 197.28ZM389.359 197.28C378.948 197.28 370.799 194.336 364.911 188.448C359.108 182.475 356.207 174.112 356.207 163.36C356.207 157.301 357.316 151.712 359.535 146.592C361.753 141.472 365.167 137.333 369.775 134.176C374.383 131.019 380.057 129.44 386.799 129.44C393.113 129.44 398.575 130.933 403.183 133.92C407.791 136.821 411.289 140.747 413.679 145.696C416.068 150.56 417.263 155.893 417.263 161.696C417.263 163.317 416.708 164.683 415.599 165.792C414.575 166.901 413.167 167.456 411.375 167.456H367.983C368.665 173.429 370.884 178.08 374.639 181.408C378.393 184.736 383.641 186.4 390.383 186.4C393.967 186.4 397.081 186.059 399.727 185.376C402.457 184.693 405.103 183.712 407.663 182.432C408.345 182.091 409.113 181.92 409.967 181.92C411.332 181.92 412.527 182.389 413.551 183.328C414.575 184.267 415.087 185.461 415.087 186.912C415.087 188.789 413.977 190.368 411.759 191.648C408.431 193.525 405.145 194.933 401.903 195.872C398.66 196.811 394.479 197.28 389.359 197.28ZM405.743 157.984C405.487 153.803 404.377 150.304 402.415 147.488C400.537 144.672 398.191 142.624 395.375 141.344C392.559 139.979 389.7 139.296 386.799 139.296C383.897 139.296 381.039 139.979 378.223 141.344C375.407 142.624 373.06 144.672 371.183 147.488C369.305 150.304 368.239 153.803 367.983 157.984H405.743ZM438.435 196.64C436.813 196.64 435.448 196.085 434.339 194.976C433.229 193.867 432.675 192.501 432.675 190.88V135.968C432.675 134.347 433.229 132.981 434.339 131.872C435.448 130.677 436.813 130.08 438.435 130.08C440.056 130.08 441.421 130.677 442.531 131.872C443.725 132.981 444.323 134.347 444.323 135.968V141.472C450.296 133.451 456.995 129.44 464.419 129.44H465.059C466.68 129.44 468.003 129.995 469.027 131.104C470.136 132.213 470.691 133.579 470.691 135.2C470.691 136.821 470.136 138.144 469.027 139.168C467.917 140.192 466.509 140.704 464.803 140.704H464.163C460.067 140.704 456.312 141.728 452.899 143.776C449.485 145.739 446.627 148.469 444.323 151.968V190.88C444.323 192.501 443.725 193.867 442.531 194.976C441.421 196.085 440.056 196.64 438.435 196.64Z" fill="white"/>
<path d="M102.518 194.336L108.174 188.679H108.174L102.518 194.336ZM102.518 108.448L108.174 114.105L108.279 114L108.38 113.892L102.518 108.448ZM161.782 108.32L155.903 113.746L156.12 113.981L156.355 114.198L161.782 108.32ZM161.782 116L156.355 110.122L156.238 110.23L156.125 110.343L161.782 116ZM112.502 117.536V109.536H104.502V117.536H112.502ZM112.502 145.824H104.502V153.824H112.502V145.824ZM157.174 147.488L151.295 152.914L151.512 153.149L151.747 153.366L157.174 147.488ZM157.174 155.168L151.747 149.29L151.63 149.398L151.517 149.511L157.174 155.168ZM112.502 156.704V148.704H104.502V156.704H112.502ZM112.502 185.12H104.502V193.12H112.502V185.12ZM161.782 186.784L155.903 192.21L156.12 192.445L156.355 192.662L161.782 186.784ZM161.782 194.464L156.355 188.586L156.238 188.694L156.125 188.807L161.782 194.464ZM106.614 188C106.731 188 107.019 188.024 107.385 188.172C107.755 188.323 108.023 188.527 108.174 188.679L96.8606 199.993C99.5255 202.658 102.95 204 106.614 204V188ZM108.174 188.679C108.326 188.831 108.531 189.098 108.681 189.469C108.83 189.834 108.854 190.122 108.854 190.24H92.8535C92.8535 193.904 94.1958 197.328 96.8606 199.993L108.174 188.679ZM108.854 190.24V112.544H92.8535V190.24H108.854ZM108.854 112.544C108.854 112.662 108.83 112.95 108.681 113.315C108.531 113.686 108.326 113.953 108.174 114.105L96.8606 102.791C94.1958 105.456 92.8535 108.88 92.8535 112.544H108.854ZM108.38 113.892C108.259 114.022 107.994 114.252 107.58 114.433C107.165 114.615 106.808 114.656 106.614 114.656V98.656C102.754 98.656 99.2687 100.19 96.6552 103.004L108.38 113.892ZM106.614 114.656H157.942V98.656H106.614V114.656ZM157.942 114.656C157.727 114.656 157.334 114.612 156.873 114.412C156.408 114.211 156.084 113.942 155.903 113.746L167.66 102.894C165.092 100.112 161.666 98.656 157.942 98.656V114.656ZM156.355 114.198C156.159 114.017 155.89 113.693 155.689 113.229C155.489 112.768 155.446 112.375 155.446 112.16H171.446C171.446 108.435 169.99 105.01 167.208 102.442L156.355 114.198ZM155.446 112.16C155.446 111.945 155.489 111.552 155.689 111.091C155.89 110.627 156.159 110.303 156.355 110.122L167.208 121.878C169.99 119.31 171.446 115.885 171.446 112.16H155.446ZM156.125 110.343C156.339 110.128 156.666 109.891 157.082 109.724C157.489 109.561 157.808 109.536 157.942 109.536V125.536C161.456 125.536 164.816 124.279 167.438 121.657L156.125 110.343ZM157.942 109.536H112.502V125.536H157.942V109.536ZM104.502 117.536V145.824H120.502V117.536H104.502ZM112.502 153.824H153.334V137.824H112.502V153.824ZM153.334 153.824C153.119 153.824 152.726 153.78 152.265 153.58C151.8 153.379 151.476 153.11 151.295 152.914L163.052 142.062C160.484 139.28 157.058 137.824 153.334 137.824V153.824ZM151.747 153.366C151.551 153.185 151.282 152.861 151.081 152.397C150.881 151.936 150.838 151.543 150.838 151.328H166.838C166.838 147.603 165.382 144.178 162.6 141.61L151.747 153.366ZM150.838 151.328C150.838 151.113 150.881 150.72 151.081 150.259C151.282 149.795 151.551 149.471 151.747 149.29L162.6 161.046C165.382 158.478 166.838 155.053 166.838 151.328H150.838ZM151.517 149.511C151.731 149.296 152.058 149.059 152.474 148.892C152.881 148.729 153.2 148.704 153.334 148.704V164.704C156.848 164.704 160.208 163.447 162.83 160.825L151.517 149.511ZM153.334 148.704H112.502V164.704H153.334V148.704ZM104.502 156.704V185.12H120.502V156.704H104.502ZM112.502 193.12H157.942V177.12H112.502V193.12ZM157.942 193.12C157.727 193.12 157.334 193.076 156.873 192.876C156.408 192.675 156.084 192.406 155.903 192.21L167.66 181.358C165.092 178.576 161.666 177.12 157.942 177.12V193.12ZM156.355 192.662C156.159 192.481 155.89 192.157 155.689 191.693C155.489 191.232 155.446 190.839 155.446 190.624H171.446C171.446 186.899 169.99 183.474 167.208 180.906L156.355 192.662ZM155.446 190.624C155.446 190.409 155.489 190.016 155.689 189.555C155.89 189.091 156.159 188.767 156.355 188.586L167.208 200.342C169.99 197.774 171.446 194.349 171.446 190.624H155.446ZM156.125 188.807C156.339 188.592 156.666 188.355 157.082 188.188C157.489 188.025 157.808 188 157.942 188V204C161.456 204 164.816 202.743 167.438 200.121L156.125 188.807ZM157.942 188H106.614V204H157.942V188ZM185.443 194.976L181.944 202.17L181.981 202.188L182.019 202.206L185.443 194.976ZM177.892 188.32L171.118 192.577L171.146 192.622L171.175 192.666L177.892 188.32ZM182.499 162.976L177.717 156.563L177.691 156.583L177.664 156.602L182.499 162.976ZM220.004 157.344V165.344H228.004V157.344H220.004ZM215.78 144.16L210.407 150.088L210.453 150.129L210.499 150.169L215.78 144.16ZM194.147 141.216L192.579 133.371L192.553 133.377L192.527 133.382L194.147 141.216ZM185.827 143.52L187.768 151.281L188.066 151.207L188.357 151.109L185.827 143.52ZM180.836 142.368L186.492 136.711L186.492 136.711L180.836 142.368ZM182.756 134.048L185.873 141.416L185.875 141.415L182.756 134.048ZM219.747 133.024L215.653 139.897L215.685 139.916L215.717 139.934L219.747 133.024ZM228.708 142.368L221.52 145.882L221.568 145.979L221.618 146.074L228.708 142.368ZM229.859 194.976L224.416 189.114L224.307 189.214L224.203 189.319L229.859 194.976ZM221.668 194.976L227.324 189.319V189.319L221.668 194.976ZM220.004 187.552H228.004V167.868L214.272 181.971L220.004 187.552ZM211.172 184.352L214.819 191.472L214.887 191.437L214.954 191.401L211.172 184.352ZM220.004 177.44L226.024 182.708L228.004 180.446V177.44H220.004ZM220.004 166.688H228.004V158.688H220.004V166.688ZM189.796 184.224L184.39 190.121L184.45 190.176L184.51 190.23L189.796 184.224ZM195.939 189.28C193.313 189.28 190.991 188.751 188.868 187.746L182.019 202.206C186.382 204.273 191.057 205.28 195.939 205.28V189.28ZM188.943 187.782C187.076 186.874 185.68 185.63 184.608 183.974L171.175 192.666C173.858 196.813 177.497 200.006 181.944 202.17L188.943 187.782ZM184.665 184.063C183.66 182.464 183.076 180.552 183.076 178.08H167.076C167.076 183.288 168.369 188.203 171.118 192.577L184.665 184.063ZM183.076 178.08C183.076 174.219 184.417 171.563 187.335 169.35L177.664 156.602C170.683 161.899 167.076 169.311 167.076 178.08H183.076ZM187.282 169.389C190.372 167.085 195.728 165.344 204.516 165.344V149.344C194.018 149.344 184.696 151.358 177.717 156.563L187.282 169.389ZM204.516 165.344H220.004V149.344H204.516V165.344ZM228.004 157.344V156.32H212.004V157.344H228.004ZM228.004 156.32C228.004 149.552 226.321 142.773 221.06 138.151L210.499 150.169C210.87 150.496 212.004 151.824 212.004 156.32H228.004ZM221.152 138.232C216.287 133.823 209.599 132.448 202.852 132.448V148.448C207.88 148.448 209.811 149.548 210.407 150.088L221.152 138.232ZM202.852 132.448C199.203 132.448 195.761 132.735 192.579 133.371L195.716 149.061C197.654 148.673 200.015 148.448 202.852 148.448V132.448ZM192.527 133.382C189.673 133.972 186.589 134.833 183.298 135.931L188.357 151.109C191.21 150.159 193.673 149.484 195.768 149.05L192.527 133.382ZM183.887 135.759C183.728 135.799 183.665 135.808 183.683 135.805C183.695 135.803 183.74 135.797 183.814 135.79C183.888 135.784 184.007 135.776 184.163 135.776V151.776C185.529 151.776 186.803 151.522 187.768 151.281L183.887 135.759ZM184.163 135.776C184.526 135.776 184.996 135.848 185.489 136.056C185.975 136.262 186.308 136.526 186.492 136.711L175.179 148.025C177.555 150.402 180.675 151.776 184.163 151.776V135.776ZM186.492 136.711C186.726 136.944 186.994 137.305 187.188 137.782C187.381 138.254 187.427 138.661 187.427 138.912H171.427C171.427 142.331 172.692 145.539 175.179 148.025L186.492 136.711ZM187.427 138.912C187.427 139.087 187.367 139.748 186.862 140.485C186.374 141.198 185.853 141.424 185.873 141.416L179.638 126.68C177.439 127.611 175.254 129.116 173.657 131.451C172.043 133.809 171.427 136.433 171.427 138.912H187.427ZM185.875 141.415C192.191 138.74 198.514 137.44 204.9 137.44V121.44C196.266 121.44 187.827 123.212 179.636 126.681L185.875 141.415ZM204.9 137.44C209.718 137.44 213.165 138.415 215.653 139.897L223.842 126.151C218.308 122.855 211.857 121.44 204.9 121.44V137.44ZM215.717 139.934C218.603 141.618 220.412 143.614 221.52 145.882L235.895 138.854C233.249 133.442 229.084 129.208 223.778 126.114L215.717 139.934ZM221.618 146.074C222.954 148.63 223.652 151.446 223.652 154.656H239.652C239.652 148.991 238.386 143.615 235.797 138.662L221.618 146.074ZM223.652 154.656V190.88H239.652V154.656H223.652ZM223.652 190.88C223.652 190.685 223.693 190.328 223.874 189.913C224.055 189.5 224.285 189.235 224.416 189.114L235.303 200.838C238.118 198.225 239.652 194.74 239.652 190.88H223.652ZM224.203 189.319C224.354 189.167 224.622 188.963 224.992 188.812C225.358 188.664 225.646 188.64 225.764 188.64V204.64C229.427 204.64 232.852 203.298 235.516 200.633L224.203 189.319ZM225.764 188.64C225.881 188.64 226.169 188.664 226.535 188.812C226.905 188.963 227.173 189.167 227.324 189.319L216.011 200.633C218.675 203.298 222.1 204.64 225.764 204.64V188.64ZM227.324 189.319C227.476 189.471 227.681 189.738 227.831 190.109C227.98 190.474 228.004 190.762 228.004 190.88H212.004C212.004 194.544 213.346 197.968 216.011 200.633L227.324 189.319ZM228.004 190.88V187.552H212.004V190.88H228.004ZM214.272 181.971C209.584 186.786 203.688 189.28 195.939 189.28V205.28C207.647 205.28 217.794 201.289 225.735 193.133L214.272 181.971ZM200.292 195.04C205.374 195.04 210.246 193.815 214.819 191.472L207.524 177.232C205.1 178.473 202.718 179.04 200.292 179.04V195.04ZM214.954 191.401C219.22 189.112 222.945 186.227 226.024 182.708L213.983 172.172C212.284 174.114 210.121 175.837 207.389 177.303L214.954 191.401ZM228.004 177.44V166.688H212.004V177.44H228.004ZM220.004 158.688H206.051V174.688H220.004V158.688ZM206.051 158.688C199.172 158.688 192.785 159.544 187.847 162.128C185.26 163.481 182.886 165.406 181.185 168.077C179.462 170.781 178.724 173.787 178.724 176.8H194.724C194.724 176.442 194.79 176.499 194.678 176.675C194.587 176.818 194.63 176.636 195.264 176.304C196.769 175.517 200.046 174.688 206.051 174.688V158.688ZM178.724 176.8C178.724 181.851 180.504 186.559 184.39 190.121L195.201 178.327C194.991 178.134 194.724 177.893 194.724 176.8H178.724ZM184.51 190.23C188.837 194.037 194.753 195.04 200.292 195.04V179.04C198.337 179.04 196.98 178.847 196.093 178.609C195.215 178.374 195.005 178.152 195.081 178.218L184.51 190.23ZM248.999 191.52L244.385 198.056L244.754 198.316L245.15 198.533L248.999 191.52ZM248.23 183.712L254.128 189.118L248.23 183.712ZM254.118 182.688L250.869 189.998L250.891 190.008L250.912 190.017L254.118 182.688ZM282.406 172.96L278.945 180.172L278.999 180.198L279.054 180.224L282.406 172.96ZM271.783 169.504L273.786 161.759L273.708 161.739L273.63 161.72L271.783 169.504ZM259.238 165.792L256.301 173.233L256.334 173.246L256.367 173.259L259.238 165.792ZM250.79 160.032L244.758 165.286L244.848 165.39L244.942 165.491L250.79 160.032ZM253.734 135.072L248.509 129.015L248.479 129.04L248.449 129.066L253.734 135.072ZM290.855 132.64L288.094 140.149L288.372 140.251L288.657 140.332L290.855 132.64ZM293.543 134.56L286.793 138.855L286.927 139.065L287.073 139.265L293.543 134.56ZM293.031 141.088L287.374 135.431L287.251 135.554L287.133 135.682L293.031 141.088ZM287.783 142.368L285.411 150.009L285.625 150.075L285.842 150.129L287.783 142.368ZM262.311 142.624L266.591 149.383L266.619 149.365L266.648 149.346L262.311 142.624ZM273.191 158.112L275.162 150.359L275.037 150.327L274.912 150.299L273.191 158.112ZM285.479 161.952L282.473 169.366L282.56 169.401L282.647 169.434L285.479 161.952ZM293.543 167.712L287.413 172.853L287.461 172.91L287.51 172.966L293.543 167.712ZM290.471 191.904L285.385 185.729L285.355 185.753L285.325 185.778L290.471 191.904ZM272.294 189.28C265.011 189.28 258.584 187.655 252.847 184.507L245.15 198.533C253.408 203.065 262.512 205.28 272.294 205.28V189.28ZM253.612 184.984C253.809 185.124 254.183 185.459 254.478 186.032C254.772 186.603 254.822 187.087 254.822 187.296H238.822C238.822 191.659 240.788 195.516 244.385 198.056L253.612 184.984ZM254.822 187.296C254.822 187.55 254.775 187.909 254.621 188.301C254.467 188.692 254.268 188.965 254.128 189.118L242.333 178.306C240.068 180.777 238.822 183.891 238.822 187.296H254.822ZM254.128 189.118C253.884 189.384 253.498 189.692 252.982 189.913C252.474 190.131 252.047 190.176 251.814 190.176V174.176C248.234 174.176 244.861 175.548 242.333 178.306L254.128 189.118ZM251.814 190.176C251.361 190.176 251.027 190.068 250.869 189.998L257.368 175.378C255.674 174.625 253.804 174.176 251.814 174.176V190.176ZM250.912 190.017C254.028 191.381 257.182 192.468 260.37 193.265L264.251 177.743C261.978 177.175 259.67 176.385 257.325 175.359L250.912 190.017ZM260.37 193.265C263.853 194.136 267.592 194.528 271.527 194.528V178.528C268.634 178.528 266.229 178.238 264.251 177.743L260.37 193.265ZM271.527 194.528C276.858 194.528 282.23 193.722 286.493 190.995C291.365 187.879 293.734 182.944 293.734 177.44H277.734C277.734 177.902 277.65 177.915 277.752 177.719C277.868 177.497 277.996 177.438 277.872 177.517C277.399 177.819 275.667 178.528 271.527 178.528V194.528ZM293.734 177.44C293.734 174.841 292.962 172.282 291.324 170.077C289.76 167.971 287.715 166.599 285.759 165.696L279.054 180.224C279.316 180.345 278.936 180.231 278.481 179.619C278.248 179.305 278.046 178.925 277.909 178.501C277.774 178.081 277.734 177.712 277.734 177.44H293.734ZM285.868 165.748C282.985 164.364 278.798 163.055 273.786 161.759L269.779 177.249C274.666 178.513 277.561 179.508 278.945 180.172L285.868 165.748ZM273.63 161.72C268.803 160.575 264.992 159.434 262.11 158.325L256.367 173.259C260.141 174.71 264.693 176.044 269.935 177.288L273.63 161.72ZM262.176 158.351C260.044 157.509 258.221 156.269 256.639 154.573L244.942 165.491C248.139 168.915 251.948 171.515 256.301 173.233L262.176 158.351ZM256.823 154.778C256.048 153.887 255.335 152.435 255.335 149.664H239.335C239.335 155.426 240.925 160.886 244.758 165.286L256.823 154.778ZM255.335 149.664C255.335 145.856 256.576 143.228 259.02 141.078L248.449 129.066C242.359 134.426 239.335 141.525 239.335 149.664H255.335ZM258.96 141.129C261.375 139.046 265.437 137.44 272.294 137.44V121.44C263.109 121.44 254.798 123.589 248.509 129.015L258.96 141.129ZM272.294 137.44C277.983 137.44 283.23 138.36 288.094 140.149L293.615 125.131C286.874 122.653 279.747 121.44 272.294 121.44V137.44ZM288.657 140.332C288.487 140.284 288.157 140.161 287.773 139.886C287.376 139.603 287.04 139.243 286.793 138.855L300.292 130.265C298.519 127.479 295.893 125.759 293.052 124.948L288.657 140.332ZM287.073 139.265C287.005 139.173 286.87 138.961 286.755 138.628C286.636 138.286 286.566 137.9 286.566 137.504H302.566C302.566 134.568 301.551 131.97 300.012 129.855L287.073 139.265ZM286.566 137.504C286.566 137.159 286.637 136.721 286.829 136.273C287.018 135.833 287.248 135.557 287.374 135.431L298.687 146.745C301.111 144.322 302.566 141.13 302.566 137.504H286.566ZM287.133 135.682C287.377 135.416 287.763 135.108 288.279 134.887C288.787 134.669 289.214 134.624 289.447 134.624V150.624C293.027 150.624 296.4 149.252 298.928 146.494L287.133 135.682ZM289.447 134.624C289.603 134.624 289.722 134.632 289.796 134.638C289.87 134.645 289.915 134.651 289.927 134.653C289.945 134.656 289.882 134.647 289.723 134.607L285.842 150.129C286.807 150.37 288.081 150.624 289.447 150.624V134.624ZM290.154 134.727C284.501 132.973 278.838 132.064 273.191 132.064V148.064C277.1 148.064 281.165 148.691 285.411 150.009L290.154 134.727ZM273.191 132.064C267.718 132.064 262.38 133.059 257.973 135.902L266.648 149.346C267.531 148.776 269.447 148.064 273.191 148.064V132.064ZM258.03 135.865C253.551 138.702 250.471 143.199 250.471 149.024H266.471C266.471 149.013 266.471 149.083 266.438 149.206C266.404 149.332 266.351 149.455 266.29 149.556C266.232 149.654 266.194 149.685 266.223 149.656C266.256 149.624 266.364 149.526 266.591 149.383L258.03 135.865ZM250.471 149.024C250.471 151.591 251.086 154.24 252.617 156.647C254.136 159.034 256.246 160.696 258.477 161.811L265.632 147.501C265.473 147.421 265.792 147.548 266.116 148.057C266.267 148.294 266.365 148.533 266.419 148.736C266.472 148.932 266.471 149.041 266.471 149.024H250.471ZM258.477 161.811C261.774 163.46 266.269 164.779 271.469 165.925L274.912 150.299C270.042 149.226 267.114 148.242 265.632 147.501L258.477 161.811ZM271.219 165.865C276.064 167.097 279.778 168.273 282.473 169.366L288.484 154.538C284.864 153.071 280.386 151.687 275.162 150.359L271.219 165.865ZM282.647 169.434C284.493 170.133 286.054 171.233 287.413 172.853L299.672 162.571C296.594 158.901 292.779 156.161 288.31 154.47L282.647 169.434ZM287.51 172.966C288.237 173.801 288.999 175.303 288.999 178.336H304.999C304.999 172.495 303.456 166.913 299.575 162.458L287.51 172.966ZM288.999 178.336C288.999 181.319 287.96 183.608 285.385 185.729L295.556 198.079C301.685 193.032 304.999 186.276 304.999 178.336H288.999ZM285.325 185.778C282.991 187.739 279.023 189.28 272.294 189.28V205.28C281.267 205.28 289.417 203.237 295.616 198.03L285.325 185.778ZM316.014 140.704H324.014V132.704H316.014V140.704ZM305.135 140.064L298.989 145.185L299.454 145.744L300.013 146.21L305.135 140.064ZM305.646 136.096L310.558 142.411L310.916 142.133L311.24 141.816L305.646 136.096ZM323.055 119.072L328.648 124.792L328.68 124.76L328.711 124.729L323.055 119.072ZM326.895 118.688L320.749 123.809L320.981 124.088L321.238 124.345L326.895 118.688ZM327.663 130.72H319.663V138.72H327.663V130.72ZM345.711 132.128L340.054 137.785V137.785L345.711 132.128ZM345.711 139.296L351.367 144.953L351.49 144.83L351.608 144.702L345.711 139.296ZM327.663 140.704V132.704H319.663V140.704H327.663ZM329.967 185.76L325.795 192.586L326.014 192.72L326.241 192.839L329.967 185.76ZM341.103 186.272L339.162 178.511L338.982 178.556L338.804 178.609L341.103 186.272ZM342.126 186.016L340.558 178.171L340.371 178.209L340.186 178.255L342.126 186.016ZM346.862 187.296L341.206 192.953L341.34 193.087L341.481 193.216L346.862 187.296ZM345.327 194.976L348.679 202.24L348.855 202.158L349.027 202.069L345.327 194.976ZM334.702 189.28C329.518 189.28 327.123 188.091 326.052 187.122C325.133 186.291 324.014 184.563 324.014 180.384H308.014C308.014 187.469 310.011 194.189 315.321 198.99C320.479 203.653 327.428 205.28 334.702 205.28V189.28ZM324.014 180.384V140.704H308.014V180.384H324.014ZM316.014 132.704H306.926V148.704H316.014V132.704ZM306.926 132.704C307.432 132.704 308.029 132.786 308.657 133.01C309.288 133.235 309.827 133.56 310.256 133.918L300.013 146.21C302 147.866 304.422 148.704 306.926 148.704V132.704ZM311.28 134.943C311.638 135.372 311.963 135.91 312.188 136.541C312.413 137.17 312.495 137.767 312.495 138.272H296.495C296.495 140.777 297.333 143.198 298.989 145.185L311.28 134.943ZM312.495 138.272C312.495 139.096 312.296 139.994 311.853 140.831C311.426 141.637 310.904 142.142 310.558 142.411L300.735 129.781C298.328 131.653 296.495 134.582 296.495 138.272H312.495ZM311.24 141.816L328.648 124.792L317.461 113.352L300.053 130.376L311.24 141.816ZM328.711 124.729C328.702 124.738 328.445 124.999 327.918 125.278C327.359 125.574 326.433 125.92 325.23 125.92V109.92C321.464 109.92 318.811 112.002 317.398 113.415L328.711 124.729ZM325.23 125.92C324.551 125.92 323.697 125.787 322.806 125.376C321.909 124.962 321.226 124.382 320.749 123.809L333.04 113.567C331.052 111.18 328.221 109.92 325.23 109.92V125.92ZM321.238 124.345C320.856 123.963 320.434 123.409 320.117 122.671C319.797 121.924 319.663 121.166 319.663 120.48H335.663C335.663 117.537 334.463 114.942 332.551 113.031L321.238 124.345ZM319.663 120.48V130.72H335.663V120.48H319.663ZM327.663 138.72H342.126V122.72H327.663V138.72ZM342.126 138.72C341.98 138.72 341.633 138.694 341.185 138.518C340.723 138.337 340.335 138.066 340.054 137.785L351.367 126.471C348.782 123.886 345.482 122.72 342.126 122.72V138.72ZM340.054 137.785C339.772 137.504 339.502 137.115 339.32 136.653C339.145 136.205 339.118 135.858 339.118 135.712H355.118C355.118 132.356 353.953 129.057 351.367 126.471L340.054 137.785ZM339.118 135.712C339.118 135.458 339.166 135.099 339.32 134.707C339.474 134.316 339.673 134.043 339.813 133.89L351.608 144.702C353.873 142.231 355.118 139.117 355.118 135.712H339.118ZM340.054 133.639C340.335 133.358 340.723 133.087 341.185 132.906C341.633 132.73 341.98 132.704 342.126 132.704V148.704C345.482 148.704 348.782 147.538 351.367 144.953L340.054 133.639ZM342.126 132.704H327.663V148.704H342.126V132.704ZM319.663 140.704V179.36H335.663V140.704H319.663ZM319.663 179.36C319.663 183.161 320.415 189.299 325.795 192.586L334.138 178.934C334.675 179.262 335.08 179.66 335.359 180.032C335.625 180.388 335.735 180.662 335.766 180.746C335.795 180.827 335.764 180.769 335.729 180.518C335.694 180.271 335.663 179.893 335.663 179.36H319.663ZM326.241 192.839C329.307 194.453 332.677 195.04 335.982 195.04V179.04C334.51 179.04 333.869 178.774 333.692 178.681L326.241 192.839ZM335.982 195.04C338.501 195.04 340.982 194.66 343.401 193.935L338.804 178.609C337.81 178.908 336.877 179.04 335.982 179.04V195.04ZM343.043 194.033C343.384 193.948 343.725 193.862 344.067 193.777L340.186 178.255C339.845 178.34 339.504 178.426 339.162 178.511L343.043 194.033ZM343.695 193.861C343.627 193.874 343.575 193.882 343.543 193.887C343.527 193.889 343.515 193.89 343.507 193.891C343.499 193.892 343.495 193.892 343.495 193.892C343.495 193.892 343.498 193.892 343.506 193.892C343.513 193.891 343.524 193.891 343.538 193.89C343.567 193.889 343.608 193.888 343.663 193.888V177.888C342.718 177.888 341.651 177.953 340.558 178.171L343.695 193.861ZM343.663 193.888C343.179 193.888 342.645 193.786 342.137 193.563C341.645 193.346 341.341 193.088 341.206 192.953L352.519 181.639C350.263 179.383 347.224 177.888 343.663 177.888V193.888ZM341.481 193.216C341.196 192.956 340.851 192.538 340.596 191.958C340.342 191.38 340.271 190.855 340.271 190.496H356.271C356.271 186.985 354.867 183.762 352.244 181.376L341.481 193.216ZM340.271 190.496C340.271 190.076 340.398 189.38 340.849 188.695C341.266 188.06 341.684 187.853 341.626 187.883L349.027 202.069C350.932 201.075 352.822 199.609 354.22 197.481C355.652 195.303 356.271 192.879 356.271 190.496H340.271ZM341.974 187.712C339.723 188.751 337.329 189.28 334.702 189.28V205.28C339.586 205.28 344.274 204.273 348.679 202.24L341.974 187.712ZM364.91 188.448L359.172 194.022L359.213 194.064L359.254 194.105L364.91 188.448ZM369.775 134.176L374.296 140.775L369.775 134.176ZM403.182 133.92L398.831 140.633L398.875 140.662L398.92 140.69L403.182 133.92ZM413.678 145.696L406.474 149.174L406.486 149.199L406.498 149.223L413.678 145.696ZM415.599 165.792L409.942 160.135L409.829 160.248L409.72 160.366L415.599 165.792ZM367.983 167.456V159.456H359.016L360.034 168.364L367.983 167.456ZM374.638 181.408L369.332 187.395L374.638 181.408ZM399.727 185.376L397.786 177.615L397.757 177.622L397.727 177.63L399.727 185.376ZM407.663 182.432L404.085 175.277L407.663 182.432ZM413.551 183.328L418.956 177.431L413.551 183.328ZM411.759 191.648L415.689 198.616L415.723 198.597L415.756 198.577L411.759 191.648ZM401.902 195.872L404.127 203.557H404.127L401.902 195.872ZM405.742 157.984V165.984H414.247L413.728 157.495L405.742 157.984ZM402.414 147.488L395.758 151.926L395.804 151.994L395.851 152.062L402.414 147.488ZM395.375 141.344L391.884 148.543L391.974 148.586L392.064 148.627L395.375 141.344ZM378.223 141.344L381.533 148.627L381.623 148.586L381.713 148.543L378.223 141.344ZM371.182 147.488L377.839 151.926L371.182 147.488ZM367.983 157.984L359.997 157.495L359.478 165.984H367.983V157.984ZM389.358 189.28C380.509 189.28 374.6 186.824 370.567 182.791L359.254 194.105C366.997 201.848 377.387 205.28 389.358 205.28V189.28ZM370.649 182.874C366.683 178.792 364.207 172.661 364.207 163.36H348.207C348.207 175.563 351.532 186.158 359.172 194.022L370.649 182.874ZM364.207 163.36C364.207 158.301 365.128 153.805 366.875 149.773L352.194 143.411C349.504 149.619 348.207 156.302 348.207 163.36H364.207ZM366.875 149.773C368.494 146.037 370.93 143.082 374.296 140.775L365.253 127.577C359.403 131.584 355.012 136.907 352.194 143.411L366.875 149.773ZM374.296 140.775C377.318 138.705 381.332 137.44 386.798 137.44V121.44C378.782 121.44 371.447 123.332 365.253 127.577L374.296 140.775ZM386.798 137.44C391.806 137.44 395.705 138.607 398.831 140.633L407.534 127.207C401.444 123.26 394.42 121.44 386.798 121.44V137.44ZM398.92 140.69C402.246 142.784 404.731 145.563 406.474 149.174L420.883 142.218C417.848 135.93 413.335 130.859 407.445 127.15L398.92 140.69ZM406.498 149.223C408.311 152.913 409.263 157.028 409.263 161.696H425.263C425.263 154.759 423.825 148.207 420.859 142.169L406.498 149.223ZM409.263 161.696C409.263 161.578 409.286 161.29 409.435 160.925C409.585 160.554 409.79 160.287 409.942 160.135L421.255 171.449C423.92 168.784 425.263 165.36 425.263 161.696H409.263ZM409.72 160.366C410.028 160.033 410.428 159.76 410.842 159.597C411.227 159.445 411.448 159.456 411.375 159.456V175.456C414.945 175.456 418.656 174.275 421.477 171.218L409.72 160.366ZM411.375 159.456H367.983V175.456H411.375V159.456ZM360.034 168.364C360.894 175.889 363.819 182.508 369.332 187.395L379.945 175.421C377.949 173.652 376.436 170.97 375.931 166.548L360.034 168.364ZM369.332 187.395C374.989 192.409 382.366 194.4 390.383 194.4V178.4C384.917 178.4 381.797 177.063 379.945 175.421L369.332 187.395ZM390.383 194.4C394.444 194.4 398.261 194.016 401.726 193.122L397.727 177.63C395.901 178.101 393.489 178.4 390.383 178.4V194.4ZM401.667 193.137C404.973 192.311 408.167 191.124 411.24 189.587L404.085 175.277C402.038 176.3 399.941 177.076 397.786 177.615L401.667 193.137ZM411.24 189.587C410.687 189.864 410.207 189.92 409.966 189.92V173.92C408.019 173.92 406.004 174.317 404.085 175.277L411.24 189.587ZM409.966 189.92C409.712 189.92 409.354 189.872 408.961 189.718C408.571 189.565 408.297 189.365 408.145 189.225L418.956 177.431C416.485 175.166 413.372 173.92 409.966 173.92V189.92ZM408.145 189.225C407.879 188.981 407.571 188.596 407.349 188.079C407.132 187.571 407.086 187.144 407.086 186.912H423.086C423.086 183.331 421.714 179.959 418.956 177.431L408.145 189.225ZM407.086 186.912C407.086 186.58 407.138 186.204 407.261 185.819C407.384 185.436 407.552 185.128 407.709 184.904C408.005 184.483 408.176 184.479 407.761 184.719L415.756 198.577C419.433 196.456 423.086 192.657 423.086 186.912H407.086ZM407.828 184.68C404.97 186.293 402.254 187.442 399.678 188.187L404.127 203.557C408.036 202.425 411.891 200.758 415.689 198.616L407.828 184.68ZM399.678 188.187C397.429 188.839 394.072 189.28 389.358 189.28V205.28C394.885 205.28 399.891 204.783 404.127 203.557L399.678 188.187ZM413.728 157.495C413.402 152.171 411.948 147.176 408.978 142.914L395.851 152.062C396.806 153.432 397.571 155.435 397.757 158.473L413.728 157.495ZM409.071 143.05C406.446 139.113 402.987 136.016 398.685 134.061L392.064 148.627C393.394 149.232 394.628 150.231 395.758 151.926L409.071 143.05ZM398.865 134.145C395.048 132.295 391.002 131.296 386.798 131.296V147.296C388.398 147.296 390.069 147.662 391.884 148.543L398.865 134.145ZM386.798 131.296C382.595 131.296 378.549 132.295 374.732 134.145L381.713 148.543C383.528 147.662 385.199 147.296 386.798 147.296V131.296ZM374.912 134.061C370.61 136.016 367.151 139.113 364.526 143.05L377.839 151.926C378.969 150.231 380.203 149.232 381.533 148.627L374.912 134.061ZM364.526 143.05C361.699 147.292 360.319 152.236 359.997 157.495L375.968 158.473C376.158 155.369 376.912 153.316 377.839 151.926L364.526 143.05ZM367.983 165.984H405.742V149.984H367.983V165.984ZM434.339 194.976L439.995 189.319L434.339 194.976ZM434.339 131.872L439.995 137.529L440.1 137.424L440.201 137.316L434.339 131.872ZM442.53 131.872L436.668 137.316L436.87 137.533L437.087 137.734L442.53 131.872ZM444.323 141.472H436.323V165.609L450.739 146.25L444.323 141.472ZM469.026 131.104L463.148 136.53L463.257 136.648L463.37 136.761L469.026 131.104ZM469.026 139.168L463.6 133.29V133.29L469.026 139.168ZM452.898 143.776L456.886 150.711L456.951 150.674L457.014 150.636L452.898 143.776ZM444.323 151.968L437.641 147.568L436.323 149.57V151.968H444.323ZM442.53 194.976L437.087 189.114L436.978 189.214L436.874 189.319L442.53 194.976ZM438.435 188.64C438.552 188.64 438.84 188.664 439.206 188.812C439.576 188.963 439.844 189.167 439.995 189.319L428.682 200.633C431.346 203.298 434.771 204.64 438.435 204.64V188.64ZM439.995 189.319C440.147 189.471 440.352 189.738 440.502 190.109C440.651 190.474 440.674 190.762 440.674 190.88H424.674C424.674 194.544 426.017 197.968 428.682 200.633L439.995 189.319ZM440.674 190.88V135.968H424.674V190.88H440.674ZM440.674 135.968C440.674 136.086 440.651 136.374 440.502 136.739C440.352 137.11 440.147 137.377 439.995 137.529L428.682 126.215C426.017 128.88 424.674 132.304 424.674 135.968H440.674ZM440.201 137.316C440.08 137.446 439.815 137.676 439.401 137.857C438.986 138.039 438.629 138.08 438.435 138.08V122.08C434.575 122.08 431.09 123.614 428.476 126.428L440.201 137.316ZM438.435 138.08C438.24 138.08 437.883 138.039 437.468 137.857C437.054 137.676 436.789 137.446 436.668 137.316L448.393 126.428C445.779 123.614 442.294 122.08 438.435 122.08V138.08ZM437.087 137.734C436.956 137.613 436.726 137.348 436.545 136.935C436.364 136.52 436.323 136.163 436.323 135.968H452.323C452.323 132.108 450.789 128.623 447.974 126.01L437.087 137.734ZM436.323 135.968V141.472H452.323V135.968H436.323ZM450.739 146.25C455.769 139.495 460.341 137.44 464.419 137.44V121.44C453.648 121.44 444.822 127.407 437.906 136.694L450.739 146.25ZM464.419 137.44H465.059V121.44H464.419V137.44ZM465.059 137.44C464.945 137.44 464.611 137.417 464.173 137.234C463.721 137.044 463.372 136.773 463.148 136.53L474.905 125.678C472.245 122.797 468.728 121.44 465.059 121.44V137.44ZM463.37 136.761C463.218 136.609 463.013 136.342 462.863 135.971C462.714 135.606 462.69 135.318 462.69 135.2H478.69C478.69 131.536 477.348 128.112 474.683 125.447L463.37 136.761ZM462.69 135.2C462.69 135.086 462.713 134.752 462.897 134.314C463.086 133.863 463.358 133.513 463.6 133.29L474.453 145.046C477.334 142.387 478.69 138.869 478.69 135.2H462.69ZM463.6 133.29C463.819 133.087 464.103 132.911 464.405 132.802C464.69 132.698 464.852 132.704 464.802 132.704V148.704C468.238 148.704 471.67 147.615 474.453 145.046L463.6 133.29ZM464.802 132.704H464.163V148.704H464.802V132.704ZM464.163 132.704C458.661 132.704 453.477 134.1 448.783 136.916L457.014 150.636C459.147 149.356 461.472 148.704 464.163 148.704V132.704ZM448.911 136.841C444.345 139.466 440.588 143.094 437.641 147.568L451.004 156.368C452.665 153.845 454.625 152.011 456.886 150.711L448.911 136.841ZM436.323 151.968V190.88H452.323V151.968H436.323ZM436.323 190.88C436.323 190.685 436.364 190.328 436.545 189.913C436.726 189.5 436.956 189.235 437.087 189.114L447.974 200.838C450.789 198.225 452.323 194.74 452.323 190.88H436.323ZM436.874 189.319C437.025 189.167 437.293 188.963 437.663 188.812C438.029 188.664 438.317 188.64 438.435 188.64V204.64C442.098 204.64 445.523 203.298 448.187 200.633L436.874 189.319Z" fill="black" mask="url(#path-2-outside-1_24_9)"/>
<path d="M250.171 250.323C255.227 250.829 259.526 251.396 262.951 252C259.526 252.604 255.227 253.171 250.171 253.677C235.863 255.107 216.002 256 194 256C171.998 256 152.137 255.107 137.829 253.677C132.773 253.171 128.474 252.604 125.049 252C128.474 251.396 132.773 250.829 137.829 250.323C152.137 248.893 171.998 248 194 248C216.002 248 235.863 248.893 250.171 250.323Z" fill="#DEA38B" stroke="black" stroke-width="8"/>
<path d="M118 252C118 198.981 152.026 156 194 156C235.974 156 270 198.981 270 252" stroke="black" stroke-width="8" stroke-linecap="round"/>
<path d="M188 244.364C188 258.209 184.572 267.006 179.684 272.318C174.836 277.587 168.025 280 160 280C151.975 280 145.164 277.587 140.316 272.318C135.428 267.006 132 258.209 132 244.364C132 230.506 135.444 217.093 140.873 207.272C146.412 197.252 153.361 192 160 192C166.639 192 173.588 197.252 179.127 207.272C184.556 217.093 188 230.506 188 244.364Z" fill="#F98284" stroke="black" stroke-width="8"/>
<path d="M256 244.364C256 258.209 252.572 267.006 247.684 272.318C242.836 277.587 236.025 280 228 280C219.975 280 213.164 277.587 208.316 272.318C203.428 267.006 200 258.209 200 244.364C200 230.506 203.444 217.093 208.873 207.272C214.412 197.252 221.361 192 228 192C234.639 192 241.588 197.252 247.127 207.272C252.556 217.093 256 230.506 256 244.364Z" fill="#B3E3DA" stroke="black" stroke-width="8"/>
<path d="M222 236.364C222 250.209 218.572 259.006 213.684 264.318C208.836 269.587 202.025 272 194 272C185.975 272 179.164 269.587 174.316 264.318C169.428 259.006 166 250.209 166 236.364C166 222.506 169.444 209.093 174.873 199.272C180.412 189.252 187.361 184 194 184C200.639 184 207.588 189.252 213.127 199.272C218.556 209.093 222 222.506 222 236.364Z" fill="#B0EB93" stroke="black" stroke-width="8"/>
<g filter="url(#filter1_i_24_9)">
<path d="M194 316C238.183 316 274 287.346 274 252C210.924 259.951 175.91 259.149 114 252C114 287.346 149.817 316 194 316Z" fill="#FFC384"/>
</g>
<path d="M269.78 256.554C266.845 286.902 234.827 312 194 312C153.152 312 121.123 286.877 118.215 256.507C176.001 263.017 210.842 263.73 269.78 256.554Z" stroke="black" stroke-width="8"/>
<mask id="path-11-outside-2_24_9" maskUnits="userSpaceOnUse" x="238" y="212" width="194" height="74" fill="black">
<rect fill="white" x="238" y="212" width="194" height="74"/>
<path d="M250.118 277.4C249.104 277.4 248.251 277.053 247.558 276.36C246.864 275.667 246.518 274.813 246.518 273.8V224.44C246.518 223.427 246.864 222.573 247.558 221.88C248.251 221.133 249.104 220.76 250.118 220.76C251.131 220.76 251.984 221.133 252.678 221.88C253.424 222.573 253.798 223.427 253.798 224.44V245.72H284.118V224.44C284.118 223.427 284.464 222.573 285.158 221.88C285.851 221.133 286.704 220.76 287.718 220.76C288.731 220.76 289.584 221.133 290.278 221.88C291.024 222.573 291.398 223.427 291.398 224.44V273.8C291.398 274.813 291.024 275.667 290.278 276.36C289.584 277.053 288.731 277.4 287.718 277.4C286.704 277.4 285.851 277.053 285.158 276.36C284.464 275.667 284.118 274.813 284.118 273.8V252.52H253.798V273.8C253.798 274.813 253.424 275.667 252.678 276.36C251.984 277.053 251.131 277.4 250.118 277.4ZM318.373 277.8C315.439 277.8 312.879 277.107 310.693 275.72C308.559 274.333 306.906 272.44 305.733 270.04C304.613 267.64 304.053 265 304.053 262.12V239.4C304.053 238.387 304.399 237.533 305.093 236.84C305.839 236.147 306.719 235.8 307.733 235.8C308.746 235.8 309.599 236.147 310.293 236.84C310.986 237.533 311.333 238.387 311.333 239.4V261.32C311.333 267.827 314.266 271.08 320.133 271.08C322.799 271.08 325.173 270.387 327.253 269C329.386 267.613 331.386 265.747 333.253 263.4V239.4C333.253 238.387 333.599 237.533 334.293 236.84C335.039 236.147 335.919 235.8 336.933 235.8C337.946 235.8 338.799 236.147 339.493 236.84C340.186 237.533 340.533 238.387 340.533 239.4V273.72C340.533 274.733 340.186 275.613 339.493 276.36C338.799 277.053 337.946 277.4 336.933 277.4C335.919 277.4 335.039 277.053 334.293 276.36C333.599 275.613 333.253 274.733 333.253 273.72V270.44C331.226 272.68 329.039 274.467 326.693 275.8C324.346 277.133 321.573 277.8 318.373 277.8ZM356.803 277.4C355.789 277.4 354.936 277.053 354.243 276.36C353.549 275.667 353.203 274.813 353.203 273.8V239.48C353.203 238.467 353.549 237.613 354.243 236.92C354.936 236.173 355.789 235.8 356.803 235.8C357.816 235.8 358.669 236.173 359.363 236.92C360.109 237.613 360.483 238.467 360.483 239.48V242.76C362.509 240.52 364.696 238.733 367.043 237.4C369.389 236.067 372.163 235.4 375.363 235.4C378.296 235.4 380.829 236.093 382.963 237.48C385.149 238.867 386.803 240.76 387.923 243.16C389.096 245.56 389.683 248.2 389.683 251.08V273.8C389.683 274.813 389.309 275.667 388.563 276.36C387.869 277.053 387.016 277.4 386.003 277.4C384.989 277.4 384.136 277.053 383.443 276.36C382.749 275.667 382.403 274.813 382.403 273.8V251.88C382.403 245.373 379.469 242.12 373.603 242.12C370.936 242.12 368.536 242.813 366.403 244.2C364.323 245.587 362.349 247.453 360.483 249.8V273.8C360.483 274.813 360.109 275.667 359.363 276.36C358.669 277.053 357.816 277.4 356.803 277.4ZM415.095 277.8C407.309 277.8 403.415 274.28 403.415 267.24V242.44H397.735C397.309 242.44 396.935 242.307 396.615 242.04C396.349 241.72 396.215 241.347 396.215 240.92C396.215 240.387 396.455 239.933 396.935 239.56L407.815 228.92C408.295 228.44 408.749 228.2 409.175 228.2C409.602 228.2 409.949 228.36 410.215 228.68C410.535 229 410.695 229.373 410.695 229.8V236.2H419.735C420.642 236.2 421.389 236.493 421.975 237.08C422.562 237.667 422.855 238.413 422.855 239.32C422.855 240.173 422.562 240.92 421.975 241.56C421.389 242.147 420.642 242.44 419.735 242.44H410.695V266.6C410.695 268.68 411.175 270.013 412.135 270.6C413.149 271.133 414.402 271.4 415.895 271.4C416.962 271.4 418.029 271.24 419.095 270.92C419.309 270.867 419.522 270.813 419.735 270.76C420.002 270.707 420.322 270.68 420.695 270.68C421.442 270.68 422.109 270.973 422.695 271.56C423.282 272.093 423.575 272.76 423.575 273.56C423.575 274.787 422.962 275.72 421.735 276.36C419.655 277.32 417.442 277.8 415.095 277.8Z"/>
</mask>
<path d="M250.118 277.4C249.104 277.4 248.251 277.053 247.558 276.36C246.864 275.667 246.518 274.813 246.518 273.8V224.44C246.518 223.427 246.864 222.573 247.558 221.88C248.251 221.133 249.104 220.76 250.118 220.76C251.131 220.76 251.984 221.133 252.678 221.88C253.424 222.573 253.798 223.427 253.798 224.44V245.72H284.118V224.44C284.118 223.427 284.464 222.573 285.158 221.88C285.851 221.133 286.704 220.76 287.718 220.76C288.731 220.76 289.584 221.133 290.278 221.88C291.024 222.573 291.398 223.427 291.398 224.44V273.8C291.398 274.813 291.024 275.667 290.278 276.36C289.584 277.053 288.731 277.4 287.718 277.4C286.704 277.4 285.851 277.053 285.158 276.36C284.464 275.667 284.118 274.813 284.118 273.8V252.52H253.798V273.8C253.798 274.813 253.424 275.667 252.678 276.36C251.984 277.053 251.131 277.4 250.118 277.4ZM318.373 277.8C315.439 277.8 312.879 277.107 310.693 275.72C308.559 274.333 306.906 272.44 305.733 270.04C304.613 267.64 304.053 265 304.053 262.12V239.4C304.053 238.387 304.399 237.533 305.093 236.84C305.839 236.147 306.719 235.8 307.733 235.8C308.746 235.8 309.599 236.147 310.293 236.84C310.986 237.533 311.333 238.387 311.333 239.4V261.32C311.333 267.827 314.266 271.08 320.133 271.08C322.799 271.08 325.173 270.387 327.253 269C329.386 267.613 331.386 265.747 333.253 263.4V239.4C333.253 238.387 333.599 237.533 334.293 236.84C335.039 236.147 335.919 235.8 336.933 235.8C337.946 235.8 338.799 236.147 339.493 236.84C340.186 237.533 340.533 238.387 340.533 239.4V273.72C340.533 274.733 340.186 275.613 339.493 276.36C338.799 277.053 337.946 277.4 336.933 277.4C335.919 277.4 335.039 277.053 334.293 276.36C333.599 275.613 333.253 274.733 333.253 273.72V270.44C331.226 272.68 329.039 274.467 326.693 275.8C324.346 277.133 321.573 277.8 318.373 277.8ZM356.803 277.4C355.789 277.4 354.936 277.053 354.243 276.36C353.549 275.667 353.203 274.813 353.203 273.8V239.48C353.203 238.467 353.549 237.613 354.243 236.92C354.936 236.173 355.789 235.8 356.803 235.8C357.816 235.8 358.669 236.173 359.363 236.92C360.109 237.613 360.483 238.467 360.483 239.48V242.76C362.509 240.52 364.696 238.733 367.043 237.4C369.389 236.067 372.163 235.4 375.363 235.4C378.296 235.4 380.829 236.093 382.963 237.48C385.149 238.867 386.803 240.76 387.923 243.16C389.096 245.56 389.683 248.2 389.683 251.08V273.8C389.683 274.813 389.309 275.667 388.563 276.36C387.869 277.053 387.016 277.4 386.003 277.4C384.989 277.4 384.136 277.053 383.443 276.36C382.749 275.667 382.403 274.813 382.403 273.8V251.88C382.403 245.373 379.469 242.12 373.603 242.12C370.936 242.12 368.536 242.813 366.403 244.2C364.323 245.587 362.349 247.453 360.483 249.8V273.8C360.483 274.813 360.109 275.667 359.363 276.36C358.669 277.053 357.816 277.4 356.803 277.4ZM415.095 277.8C407.309 277.8 403.415 274.28 403.415 267.24V242.44H397.735C397.309 242.44 396.935 242.307 396.615 242.04C396.349 241.72 396.215 241.347 396.215 240.92C396.215 240.387 396.455 239.933 396.935 239.56L407.815 228.92C408.295 228.44 408.749 228.2 409.175 228.2C409.602 228.2 409.949 228.36 410.215 228.68C410.535 229 410.695 229.373 410.695 229.8V236.2H419.735C420.642 236.2 421.389 236.493 421.975 237.08C422.562 237.667 422.855 238.413 422.855 239.32C422.855 240.173 422.562 240.92 421.975 241.56C421.389 242.147 420.642 242.44 419.735 242.44H410.695V266.6C410.695 268.68 411.175 270.013 412.135 270.6C413.149 271.133 414.402 271.4 415.895 271.4C416.962 271.4 418.029 271.24 419.095 270.92C419.309 270.867 419.522 270.813 419.735 270.76C420.002 270.707 420.322 270.68 420.695 270.68C421.442 270.68 422.109 270.973 422.695 271.56C423.282 272.093 423.575 272.76 423.575 273.56C423.575 274.787 422.962 275.72 421.735 276.36C419.655 277.32 417.442 277.8 415.095 277.8Z" fill="white"/>
<path d="M247.558 276.36L253.215 270.703L253.215 270.703L247.558 276.36ZM247.558 221.88L253.215 227.537L253.319 227.432L253.42 227.324L247.558 221.88ZM252.678 221.88L246.815 227.324L247.017 227.541L247.234 227.742L252.678 221.88ZM253.798 245.72H245.798V253.72H253.798V245.72ZM284.118 245.72V253.72H292.118V245.72H284.118ZM285.158 221.88L290.815 227.537L290.919 227.432L291.02 227.324L285.158 221.88ZM290.278 221.88L284.415 227.324L284.617 227.541L284.834 227.742L290.278 221.88ZM290.278 276.36L284.834 270.498L284.726 270.598L284.621 270.703L290.278 276.36ZM285.158 276.36L279.501 282.017L285.158 276.36ZM284.118 252.52H292.118V244.52H284.118V252.52ZM253.798 252.52V244.52H245.798V252.52H253.798ZM252.678 276.36L247.234 270.498L247.126 270.598L247.021 270.703L252.678 276.36ZM250.118 269.4C250.54 269.4 251.108 269.476 251.729 269.728C252.355 269.983 252.855 270.343 253.215 270.703L241.901 282.017C244.15 284.266 247.062 285.4 250.118 285.4V269.4ZM253.215 270.703C253.574 271.063 253.935 271.562 254.19 272.189C254.442 272.81 254.518 273.378 254.518 273.8H238.518C238.518 276.856 239.652 279.768 241.901 282.017L253.215 270.703ZM254.518 273.8V224.44H238.518V273.8H254.518ZM254.518 224.44C254.518 224.862 254.442 225.43 254.19 226.051C253.935 226.678 253.574 227.177 253.215 227.537L241.901 216.223C239.652 218.472 238.518 221.384 238.518 224.44H254.518ZM253.42 227.324C253.091 227.678 252.594 228.076 251.924 228.369C251.254 228.663 250.617 228.76 250.118 228.76V212.76C246.866 212.76 243.893 214.07 241.695 216.436L253.42 227.324ZM250.118 228.76C249.619 228.76 248.982 228.663 248.311 228.369C247.642 228.076 247.145 227.678 246.815 227.324L258.54 216.436C256.343 214.07 253.37 212.76 250.118 212.76V228.76ZM247.234 227.742C246.88 227.413 246.481 226.916 246.189 226.247C245.895 225.576 245.798 224.939 245.798 224.44H261.798C261.798 221.188 260.488 218.215 258.121 216.018L247.234 227.742ZM245.798 224.44V245.72H261.798V224.44H245.798ZM253.798 253.72H284.118V237.72H253.798V253.72ZM292.118 245.72V224.44H276.118V245.72H292.118ZM292.118 224.44C292.118 224.862 292.042 225.43 291.79 226.051C291.535 226.678 291.174 227.177 290.815 227.537L279.501 216.223C277.252 218.472 276.118 221.384 276.118 224.44H292.118ZM291.02 227.324C290.691 227.678 290.194 228.076 289.524 228.369C288.854 228.663 288.217 228.76 287.718 228.76V212.76C284.466 212.76 281.493 214.07 279.295 216.436L291.02 227.324ZM287.718 228.76C287.219 228.76 286.582 228.663 285.911 228.369C285.242 228.076 284.745 227.678 284.415 227.324L296.14 216.436C293.943 214.07 290.97 212.76 287.718 212.76V228.76ZM284.834 227.742C284.48 227.413 284.081 226.916 283.789 226.247C283.495 225.576 283.398 224.939 283.398 224.44H299.398C299.398 221.188 298.088 218.215 295.721 216.018L284.834 227.742ZM283.398 224.44V273.8H299.398V224.44H283.398ZM283.398 273.8C283.398 273.301 283.495 272.664 283.789 271.993C284.081 271.324 284.48 270.827 284.834 270.498L295.721 282.222C298.088 280.025 299.398 277.052 299.398 273.8H283.398ZM284.621 270.703C284.981 270.343 285.48 269.983 286.107 269.728C286.728 269.476 287.296 269.4 287.718 269.4V285.4C290.774 285.4 293.686 284.266 295.935 282.017L284.621 270.703ZM287.718 269.4C288.14 269.4 288.708 269.476 289.329 269.728C289.955 269.983 290.455 270.343 290.815 270.703L279.501 282.017C281.75 284.266 284.662 285.4 287.718 285.4V269.4ZM290.815 270.703C291.174 271.063 291.535 271.562 291.79 272.189C292.042 272.81 292.118 273.378 292.118 273.8H276.118C276.118 276.856 277.252 279.768 279.501 282.017L290.815 270.703ZM292.118 273.8V252.52H276.118V273.8H292.118ZM284.118 244.52H253.798V260.52H284.118V244.52ZM245.798 252.52V273.8H261.798V252.52H245.798ZM245.798 273.8C245.798 273.301 245.895 272.664 246.189 271.993C246.481 271.324 246.88 270.827 247.234 270.498L258.121 282.222C260.488 280.025 261.798 277.052 261.798 273.8H245.798ZM247.021 270.703C247.381 270.343 247.88 269.983 248.507 269.728C249.128 269.476 249.696 269.4 250.118 269.4V285.4C253.174 285.4 256.086 284.266 258.335 282.017L247.021 270.703ZM310.693 275.72L306.333 282.428L306.371 282.452L306.408 282.476L310.693 275.72ZM305.733 270.04L298.483 273.423L298.514 273.489L298.546 273.554L305.733 270.04ZM305.093 236.84L299.649 230.978L299.541 231.078L299.436 231.183L305.093 236.84ZM310.293 236.84L315.95 231.183L310.293 236.84ZM327.253 269L322.893 262.292L322.854 262.318L322.815 262.344L327.253 269ZM333.253 263.4L339.514 268.38L341.253 266.194V263.4H333.253ZM334.293 236.84L328.849 230.978L328.741 231.078L328.636 231.183L334.293 236.84ZM339.493 236.84L345.15 231.183L339.493 236.84ZM339.493 276.36L345.15 282.017L345.254 281.912L345.355 281.804L339.493 276.36ZM334.293 276.36L328.43 281.804L328.632 282.021L328.849 282.222L334.293 276.36ZM333.253 270.44H341.253V249.674L327.321 265.073L333.253 270.44ZM326.693 275.8L330.645 282.756L326.693 275.8ZM318.373 269.8C316.75 269.8 315.718 269.434 314.977 268.964L306.408 282.476C310.041 284.779 314.129 285.8 318.373 285.8V269.8ZM315.053 269.012C314.195 268.455 313.49 267.693 312.92 266.526L298.546 273.554C300.322 277.187 302.924 280.212 306.333 282.428L315.053 269.012ZM312.982 266.657C312.399 265.406 312.053 263.935 312.053 262.12H296.053C296.053 266.065 296.827 269.874 298.483 273.423L312.982 266.657ZM312.053 262.12V239.4H296.053V262.12H312.053ZM312.053 239.4C312.053 239.822 311.977 240.39 311.725 241.011C311.47 241.638 311.109 242.137 310.75 242.497L299.436 231.183C297.187 233.432 296.053 236.344 296.053 239.4H312.053ZM310.536 242.702C310.235 242.982 309.803 243.283 309.245 243.503C308.686 243.723 308.158 243.8 307.733 243.8V227.8C304.688 227.8 301.866 228.919 299.649 230.978L310.536 242.702ZM307.733 243.8C307.311 243.8 306.743 243.724 306.122 243.472C305.495 243.217 304.996 242.857 304.636 242.497L315.95 231.183C313.701 228.934 310.789 227.8 307.733 227.8V243.8ZM304.636 242.497C304.276 242.137 303.916 241.638 303.661 241.011C303.409 240.39 303.333 239.822 303.333 239.4H319.333C319.333 236.344 318.198 233.432 315.95 231.183L304.636 242.497ZM303.333 239.4V261.32H319.333V239.4H303.333ZM303.333 261.32C303.333 265.614 304.283 270.328 307.591 273.997C311.042 277.824 315.74 279.08 320.133 279.08V263.08C319.385 263.08 319.078 262.974 319.057 262.966C319.053 262.965 319.11 262.986 319.202 263.047C319.296 263.11 319.392 263.191 319.474 263.283C319.652 263.48 319.626 263.559 319.544 263.287C319.454 262.988 319.333 262.371 319.333 261.32H303.333ZM320.133 279.08C324.268 279.08 328.207 277.979 331.69 275.656L322.815 262.344C322.139 262.795 321.331 263.08 320.133 263.08V279.08ZM331.613 275.708C334.584 273.776 337.204 271.284 339.514 268.38L326.992 258.42C325.568 260.209 324.188 261.451 322.893 262.292L331.613 275.708ZM341.253 263.4V239.4H325.253V263.4H341.253ZM341.253 239.4C341.253 239.822 341.177 240.39 340.925 241.011C340.67 241.638 340.309 242.137 339.95 242.497L328.636 231.183C326.387 233.432 325.253 236.344 325.253 239.4H341.253ZM339.736 242.702C339.435 242.982 339.003 243.283 338.445 243.503C337.886 243.723 337.358 243.8 336.933 243.8V227.8C333.888 227.8 331.066 228.919 328.849 230.978L339.736 242.702ZM336.933 243.8C336.511 243.8 335.943 243.724 335.322 243.472C334.695 243.217 334.196 242.857 333.836 242.497L345.15 231.183C342.901 228.934 339.989 227.8 336.933 227.8V243.8ZM333.836 242.497C333.476 242.137 333.116 241.638 332.861 241.011C332.609 240.39 332.533 239.822 332.533 239.4H348.533C348.533 236.344 347.398 233.432 345.15 231.183L333.836 242.497ZM332.533 239.4V273.72H348.533V239.4H332.533ZM332.533 273.72C332.533 273.295 332.609 272.767 332.83 272.208C333.049 271.65 333.351 271.217 333.63 270.916L345.355 281.804C347.414 279.586 348.533 276.765 348.533 273.72H332.533ZM333.836 270.703C334.196 270.343 334.695 269.983 335.322 269.728C335.943 269.476 336.511 269.4 336.933 269.4V285.4C339.989 285.4 342.901 284.266 345.15 282.017L333.836 270.703ZM336.933 269.4C337.358 269.4 337.886 269.477 338.445 269.697C339.003 269.917 339.435 270.218 339.736 270.498L328.849 282.222C331.066 284.281 333.888 285.4 336.933 285.4V269.4ZM340.155 270.916C340.435 271.217 340.736 271.65 340.956 272.208C341.176 272.767 341.253 273.295 341.253 273.72H325.253C325.253 276.765 326.372 279.586 328.43 281.804L340.155 270.916ZM341.253 273.72V270.44H325.253V273.72H341.253ZM327.321 265.073C325.798 266.756 324.264 267.979 322.741 268.844L330.645 282.756C333.814 280.955 336.654 278.604 339.185 275.807L327.321 265.073ZM322.741 268.844C321.805 269.376 320.445 269.8 318.373 269.8V285.8C322.7 285.8 326.887 284.891 330.645 282.756L322.741 268.844ZM354.243 276.36L359.9 270.703V270.703L354.243 276.36ZM354.243 236.92L359.9 242.577L360.004 242.472L360.105 242.364L354.243 236.92ZM359.363 236.92L353.5 242.364L353.702 242.581L353.919 242.782L359.363 236.92ZM360.483 242.76H352.483V263.526L366.415 248.127L360.483 242.76ZM367.043 237.4L370.995 244.356L367.043 237.4ZM382.963 237.48L378.603 244.188L378.641 244.212L378.678 244.236L382.963 237.48ZM387.923 243.16L380.673 246.543L380.704 246.609L380.736 246.674L387.923 243.16ZM388.563 276.36L383.119 270.498L383.011 270.598L382.906 270.703L388.563 276.36ZM383.443 276.36L377.786 282.017H377.786L383.443 276.36ZM366.403 244.2L362.043 237.492L362.004 237.518L361.965 237.544L366.403 244.2ZM360.483 249.8L354.222 244.82L352.483 247.006V249.8H360.483ZM359.363 276.36L353.919 270.498L353.811 270.598L353.706 270.703L359.363 276.36ZM356.803 269.4C357.225 269.4 357.793 269.476 358.414 269.728C359.04 269.983 359.54 270.343 359.9 270.703L348.586 282.017C350.835 284.266 353.747 285.4 356.803 285.4V269.4ZM359.9 270.703C360.259 271.063 360.62 271.562 360.875 272.189C361.127 272.81 361.203 273.378 361.203 273.8H345.203C345.203 276.856 346.337 279.768 348.586 282.017L359.9 270.703ZM361.203 273.8V239.48H345.203V273.8H361.203ZM361.203 239.48C361.203 239.902 361.127 240.47 360.875 241.091C360.62 241.718 360.259 242.217 359.9 242.577L348.586 231.263C346.337 233.512 345.203 236.424 345.203 239.48H361.203ZM360.105 242.364C359.776 242.718 359.279 243.116 358.609 243.409C357.939 243.703 357.302 243.8 356.803 243.8V227.8C353.551 227.8 350.578 229.11 348.38 231.476L360.105 242.364ZM356.803 243.8C356.304 243.8 355.667 243.703 354.996 243.409C354.327 243.116 353.83 242.718 353.5 242.364L365.225 231.476C363.028 229.11 360.055 227.8 356.803 227.8V243.8ZM353.919 242.782C353.565 242.453 353.166 241.956 352.874 241.287C352.58 240.616 352.483 239.979 352.483 239.48H368.483C368.483 236.228 367.173 233.255 364.806 231.058L353.919 242.782ZM352.483 239.48V242.76H368.483V239.48H352.483ZM366.415 248.127C367.938 246.444 369.471 245.221 370.995 244.356L363.091 230.444C359.921 232.245 357.081 234.596 354.551 237.393L366.415 248.127ZM370.995 244.356C371.931 243.824 373.29 243.4 375.363 243.4V227.4C371.035 227.4 366.848 228.309 363.091 230.444L370.995 244.356ZM375.363 243.4C376.991 243.4 377.957 243.767 378.603 244.188L387.323 230.772C383.702 228.419 379.601 227.4 375.363 227.4V243.4ZM378.678 244.236C379.544 244.785 380.184 245.494 380.673 246.543L395.172 239.777C393.422 236.026 390.755 232.948 387.247 230.724L378.678 244.236ZM380.736 246.674C381.333 247.896 381.683 249.321 381.683 251.08H397.683C397.683 247.079 396.859 243.224 395.11 239.646L380.736 246.674ZM381.683 251.08V273.8H397.683V251.08H381.683ZM381.683 273.8C381.683 273.301 381.78 272.664 382.074 271.993C382.366 271.324 382.765 270.827 383.119 270.498L394.006 282.222C396.373 280.025 397.683 277.052 397.683 273.8H381.683ZM382.906 270.703C383.266 270.343 383.765 269.983 384.392 269.728C385.013 269.476 385.581 269.4 386.003 269.4V285.4C389.059 285.4 391.971 284.266 394.22 282.017L382.906 270.703ZM386.003 269.4C386.425 269.4 386.993 269.476 387.614 269.728C388.24 269.983 388.74 270.343 389.1 270.703L377.786 282.017C380.035 284.266 382.947 285.4 386.003 285.4V269.4ZM389.1 270.703C389.459 271.063 389.82 271.562 390.075 272.189C390.327 272.81 390.403 273.378 390.403 273.8H374.403C374.403 276.856 375.537 279.768 377.786 282.017L389.1 270.703ZM390.403 273.8V251.88H374.403V273.8H390.403ZM390.403 251.88C390.403 247.586 389.453 242.872 386.144 239.203C382.694 235.376 377.995 234.12 373.603 234.12V250.12C374.351 250.12 374.658 250.226 374.679 250.234C374.683 250.235 374.625 250.214 374.533 250.153C374.439 250.09 374.344 250.009 374.261 249.917C374.083 249.72 374.11 249.641 374.191 249.913C374.281 250.212 374.403 250.829 374.403 251.88H390.403ZM373.603 234.12C369.467 234.12 365.538 235.221 362.043 237.492L370.763 250.908C371.534 250.406 372.406 250.12 373.603 250.12V234.12ZM361.965 237.544C359.072 239.472 356.506 241.949 354.222 244.82L366.744 254.78C368.193 252.958 369.573 251.701 370.84 250.856L361.965 237.544ZM352.483 249.8V273.8H368.483V249.8H352.483ZM352.483 273.8C352.483 273.301 352.58 272.664 352.874 271.993C353.166 271.324 353.565 270.827 353.919 270.498L364.806 282.222C367.173 280.025 368.483 277.052 368.483 273.8H352.483ZM353.706 270.703C354.066 270.343 354.565 269.983 355.192 269.728C355.813 269.476 356.381 269.4 356.803 269.4V285.4C359.859 285.4 362.771 284.266 365.02 282.017L353.706 270.703ZM403.415 242.44H411.415V234.44H403.415V242.44ZM396.615 242.04L390.47 247.161L390.935 247.72L391.494 248.186L396.615 242.04ZM396.935 239.56L401.847 245.875L402.205 245.597L402.529 245.28L396.935 239.56ZM407.815 228.92L413.409 234.64L413.441 234.608L413.472 234.577L407.815 228.92ZM410.215 228.68L404.07 233.801L404.302 234.08L404.558 234.337L410.215 228.68ZM410.695 236.2H402.695V244.2H410.695V236.2ZM421.975 237.08L416.318 242.737L416.318 242.737L421.975 237.08ZM421.975 241.56L427.632 247.217L427.755 247.094L427.873 246.966L421.975 241.56ZM410.695 242.44V234.44H402.695V242.44H410.695ZM412.135 270.6L407.964 277.426L408.182 277.56L408.409 277.679L412.135 270.6ZM419.095 270.92L417.155 263.159L416.975 263.204L416.797 263.257L419.095 270.92ZM419.735 270.76L418.166 262.915L417.98 262.953L417.795 262.999L419.735 270.76ZM422.695 271.56L417.038 277.217L417.173 277.351L417.314 277.48L422.695 271.56ZM421.735 276.36L425.088 283.624L425.264 283.542L425.436 283.453L421.735 276.36ZM415.095 269.8C412.247 269.8 411.604 269.139 411.7 269.226C411.95 269.451 411.415 269.307 411.415 267.24H395.415C395.415 272.213 396.827 277.349 400.97 281.094C404.96 284.701 410.157 285.8 415.095 285.8V269.8ZM411.415 267.24V242.44H395.415V267.24H411.415ZM403.415 234.44H397.735V250.44H403.415V234.44ZM397.735 234.44C398.369 234.44 399.085 234.542 399.826 234.806C400.569 235.071 401.211 235.456 401.737 235.894L391.494 248.186C393.289 249.682 395.487 250.44 397.735 250.44V234.44ZM402.761 236.919C403.199 237.444 403.584 238.086 403.849 238.829C404.114 239.57 404.215 240.287 404.215 240.92H388.215C388.215 243.169 388.973 245.366 390.47 247.161L402.761 236.919ZM404.215 240.92C404.215 241.904 403.981 242.95 403.466 243.923C402.967 244.865 402.337 245.494 401.847 245.875L392.024 233.245C389.905 234.893 388.215 237.55 388.215 240.92H404.215ZM402.529 245.28L413.409 234.64L402.222 223.2L391.342 233.84L402.529 245.28ZM413.472 234.577C413.307 234.742 411.833 236.2 409.175 236.2V220.2C405.665 220.2 403.283 222.138 402.158 223.263L413.472 234.577ZM409.175 236.2C408.368 236.2 407.398 236.043 406.403 235.584C405.402 235.122 404.627 234.47 404.07 233.801L416.361 223.559C414.532 221.364 411.91 220.2 409.175 220.2V236.2ZM404.558 234.337C404.081 233.859 403.586 233.201 403.222 232.351C402.854 231.492 402.695 230.614 402.695 229.8H418.695C418.695 227.113 417.591 224.742 415.872 223.023L404.558 234.337ZM402.695 229.8V236.2H418.695V229.8H402.695ZM410.695 244.2H419.735V228.2H410.695V244.2ZM419.735 244.2C419.317 244.2 418.722 244.13 418.05 243.866C417.364 243.597 416.776 243.194 416.318 242.737L427.632 231.423C425.399 229.19 422.547 228.2 419.735 228.2V244.2ZM416.318 242.737C415.861 242.28 415.459 241.691 415.189 241.005C414.925 240.333 414.855 239.738 414.855 239.32H430.855C430.855 236.508 429.866 233.657 427.632 231.423L416.318 242.737ZM414.855 239.32C414.855 238.81 414.947 238.211 415.189 237.595C415.431 236.98 415.762 236.499 416.078 236.154L427.873 246.966C429.786 244.879 430.855 242.213 430.855 239.32H414.855ZM416.318 235.903C416.776 235.446 417.364 235.043 418.05 234.774C418.722 234.51 419.317 234.44 419.735 234.44V250.44C422.547 250.44 425.399 249.45 427.632 247.217L416.318 235.903ZM419.735 234.44H410.695V250.44H419.735V234.44ZM402.695 242.44V266.6H418.695V242.44H402.695ZM402.695 266.6C402.695 269.153 403.16 274.491 407.964 277.426L416.307 263.774C417.749 264.655 418.369 265.857 418.582 266.45C418.765 266.958 418.695 267.108 418.695 266.6H402.695ZM408.409 277.679C410.868 278.973 413.485 279.4 415.895 279.4V263.4C415.759 263.4 415.66 263.394 415.593 263.387C415.527 263.381 415.498 263.375 415.5 263.375C415.507 263.377 415.646 263.408 415.861 263.521L408.409 277.679ZM415.895 279.4C417.774 279.4 419.615 279.116 421.394 278.583L416.797 263.257C416.443 263.364 416.15 263.4 415.895 263.4V279.4ZM421.036 278.681C421.249 278.628 421.462 278.574 421.676 278.521L417.795 262.999C417.582 263.052 417.368 263.106 417.155 263.159L421.036 278.681ZM421.304 278.605C421.091 278.647 420.931 278.665 420.84 278.672C420.747 278.68 420.696 278.68 420.695 278.68V262.68C419.975 262.68 419.1 262.729 418.166 262.915L421.304 278.605ZM420.695 278.68C419.988 278.68 419.241 278.534 418.533 278.223C417.842 277.918 417.35 277.528 417.038 277.217L428.352 265.903C426.448 263.999 423.809 262.68 420.695 262.68V278.68ZM417.314 277.48C416.853 277.06 416.376 276.462 416.033 275.682C415.69 274.904 415.575 274.159 415.575 273.56H431.575C431.575 270.529 430.348 267.706 428.077 265.64L417.314 277.48ZM415.575 273.56C415.575 272.772 415.795 271.752 416.43 270.787C417.031 269.872 417.725 269.429 418.035 269.267L425.436 283.453C426.973 282.651 428.587 281.421 429.801 279.573C431.049 277.675 431.575 275.575 431.575 273.56H415.575ZM418.383 269.096C417.38 269.559 416.313 269.8 415.095 269.8V285.8C418.571 285.8 421.931 285.081 425.088 283.624L418.383 269.096Z" fill="black" mask="url(#path-11-outside-2_24_9)"/>
</g>
<g filter="url(#filter2_d_24_9)">
<path d="M696.815 196.507C701.837 224.988 689.589 238.029 672.184 241.098C654.779 244.167 638.809 236.101 633.787 207.621C628.766 179.141 638.109 149.626 655.514 146.557C672.918 143.488 691.793 168.027 696.815 196.507Z" fill="white"/>
<path d="M692.876 197.202C695.28 210.837 693.431 220.096 689.54 226.176C685.681 232.207 679.393 235.766 671.489 237.159C663.586 238.553 656.46 237.359 650.771 233.012C645.035 228.629 640.131 220.561 637.727 206.926C635.32 193.279 636.383 179.472 640.024 168.857C643.739 158.028 649.67 151.649 656.208 150.496C662.747 149.343 670.502 153.309 677.696 162.215C684.748 170.944 690.47 183.555 692.876 197.202Z" stroke="black" stroke-width="8"/>
</g>
<g filter="url(#filter3_d_24_9)">
<path d="M806.91 142.621C801.889 171.101 785.918 179.167 768.514 176.098C751.109 173.029 738.861 159.988 743.883 131.507C748.905 103.027 767.779 78.4878 785.184 81.5567C802.589 84.6256 811.932 114.141 806.91 142.621Z" fill="white"/>
<path d="M802.971 141.926C800.567 155.561 795.663 163.629 789.927 168.012C784.238 172.359 777.112 173.553 769.208 172.159C761.305 170.765 755.017 167.207 751.158 161.176C747.267 155.095 745.418 145.837 747.822 132.202C750.228 118.555 755.949 105.944 763.001 97.2147C770.196 88.3089 777.951 84.343 784.489 85.496C791.028 86.6489 796.959 93.028 800.674 103.857C804.315 114.472 805.378 128.279 802.971 141.926Z" stroke="black" stroke-width="8"/>
</g>
<g filter="url(#filter4_d_24_9)">
<path d="M774.555 280.613C765.923 280.883 757.992 282.631 751.942 285.46C745.67 288.392 740 293.24 740 299.962C740 306.683 745.67 311.531 751.942 314.464C758.537 317.547 767.365 319.346 776.901 319.346C779.47 319.346 781.987 319.216 784.422 318.965C786.349 320.622 788.638 322.007 791.013 323.117C797.607 326.201 806.436 328 815.972 328C825.412 328 834.158 326.237 840.73 323.211C845.688 324.441 851.26 325.115 857.099 325.115C866.635 325.115 875.463 323.316 882.058 320.233C888.33 317.3 894 312.452 894 305.731C894 303.427 893.334 301.343 892.205 299.481C893.334 297.619 894 295.535 894 293.231C894 286.509 888.33 281.662 882.058 278.729C875.463 275.645 866.635 273.846 857.099 273.846C849.543 273.846 842.431 274.976 836.523 276.979C835.308 276.196 834.02 275.497 832.706 274.883C826.111 271.799 817.283 270 807.746 270C798.21 270 789.382 271.799 782.787 274.883C779.694 276.329 776.748 278.241 774.555 280.613Z" fill="#FFF7E4" stroke="black" stroke-width="8"/>
<g filter="url(#filter5_d_24_9)">
<path d="M852 284C852 301.673 837.673 308 820 308C802.327 308 788 301.673 788 284C788 266.327 802.327 252 820 252C837.673 252 852 266.327 852 284Z" fill="#FFF7A0"/>
<path d="M848 284C848 291.557 845.042 296.266 840.437 299.281C835.572 302.465 828.47 304 820 304C811.53 304 804.428 302.465 799.563 299.281C794.958 296.266 792 291.557 792 284C792 268.536 804.536 256 820 256C835.464 256 848 268.536 848 284Z" stroke="black" stroke-width="8"/>
</g>
</g>
<defs>
<filter id="filter0_d_24_9" x="96.8535" y="106.656" width="377.837" height="223.344" filterUnits="userSpaceOnUse" color-interpolation-filters="sRGB">
<feFlood flood-opacity="0" result="BackgroundImageFix"/>
<feColorMatrix in="SourceAlpha" type="matrix" values="0 0 0 0 0 0 0 0 0 0 0 0 0 0 0 0 0 0 127 0" result="hardAlpha"/>
<feOffset dy="10"/>
<feGaussianBlur stdDeviation="2"/>
<feComposite in2="hardAlpha" operator="out"/>
<feColorMatrix type="matrix" values="0 0 0 0 0 0 0 0 0 0 0 0 0 0 0 0 0 0 0.25 0"/>
<feBlend mode="normal" in2="BackgroundImageFix" result="effect1_dropShadow_24_9"/>
<feBlend mode="normal" in="SourceGraphic" in2="effect1_dropShadow_24_9" result="shape"/>
</filter>
<filter id="filter1_i_24_9" x="114" y="252" width="160" height="68" filterUnits="userSpaceOnUse" color-interpolation-filters="sRGB">
<feFlood flood-opacity="0" result="BackgroundImageFix"/>
<feBlend mode="normal" in="SourceGraphic" in2="BackgroundImageFix" result="shape"/>
<feColorMatrix in="SourceAlpha" type="matrix" values="0 0 0 0 0 0 0 0 0 0 0 0 0 0 0 0 0 0 127 0" result="hardAlpha"/>
<feOffset dy="4"/>
<feGaussianBlur stdDeviation="2"/>
<feComposite in2="hardAlpha" operator="arithmetic" k2="-1" k3="1"/>
<feColorMatrix type="matrix" values="0 0 0 0 0 0 0 0 0 0 0 0 0 0 0 0 0 0 0.25 0"/>
<feBlend mode="normal" in2="shape" result="effect1_innerShadow_24_9"/>
</filter>
<filter id="filter2_d_24_9" x="622.435" y="146.297" width="85.5156" height="115.414" filterUnits="userSpaceOnUse" color-interpolation-filters="sRGB">
<feFlood flood-opacity="0" result="BackgroundImageFix"/>
<feColorMatrix in="SourceAlpha" type="matrix" values="0 0 0 0 0 0 0 0 0 0 0 0 0 0 0 0 0 0 127 0" result="hardAlpha"/>
<feOffset dy="10"/>
<feGaussianBlur stdDeviation="5"/>
<feComposite in2="hardAlpha" operator="out"/>
<feColorMatrix type="matrix" values="0 0 0 0 0 0 0 0 0 0 0 0 0 0 0 0 0 0 0.25 0"/>
<feBlend mode="normal" in2="BackgroundImageFix" result="effect1_dropShadow_24_9"/>
<feBlend mode="normal" in="SourceGraphic" in2="effect1_dropShadow_24_9" result="shape"/>
</filter>
<filter id="filter3_d_24_9" x="732.747" y="81.2966" width="85.5159" height="115.414" filterUnits="userSpaceOnUse" color-interpolation-filters="sRGB">
<feFlood flood-opacity="0" result="BackgroundImageFix"/>
<feColorMatrix in="SourceAlpha" type="matrix" values="0 0 0 0 0 0 0 0 0 0 0 0 0 0 0 0 0 0 127 0" result="hardAlpha"/>
<feOffset dy="10"/>
<feGaussianBlur stdDeviation="5"/>
<feComposite in2="hardAlpha" operator="out"/>
<feColorMatrix type="matrix" values="0 0 0 0 0 0 0 0 0 0 0 0 0 0 0 0 0 0 0.25 0"/>
<feBlend mode="normal" in2="BackgroundImageFix" result="effect1_dropShadow_24_9"/>
<feBlend mode="normal" in="SourceGraphic" in2="effect1_dropShadow_24_9" result="shape"/>
</filter>
<filter id="filter4_d_24_9" x="726" y="252" width="182" height="100" filterUnits="userSpaceOnUse" color-interpolation-filters="sRGB">
<feFlood flood-opacity="0" result="BackgroundImageFix"/>
<feColorMatrix in="SourceAlpha" type="matrix" values="0 0 0 0 0 0 0 0 0 0 0 0 0 0 0 0 0 0 127 0" result="hardAlpha"/>
<feOffset dy="10"/>
<feGaussianBlur stdDeviation="5"/>
<feComposite in2="hardAlpha" operator="out"/>
<feColorMatrix type="matrix" values="0 0 0 0 0 0 0 0 0 0 0 0 0 0 0 0 0 0 0.25 0"/>
<feBlend mode="normal" in2="BackgroundImageFix" result="effect1_dropShadow_24_9"/>
<feBlend mode="normal" in="SourceGraphic" in2="effect1_dropShadow_24_9" result="shape"/>
</filter>
<filter id="filter5_d_24_9" x="783" y="249" width="74" height="66" filterUnits="userSpaceOnUse" color-interpolation-filters="sRGB">
<feFlood flood-opacity="0" result="BackgroundImageFix"/>
<feColorMatrix in="SourceAlpha" type="matrix" values="0 0 0 0 0 0 0 0 0 0 0 0 0 0 0 0 0 0 127 0" result="hardAlpha"/>
<feOffset dy="2"/>
<feGaussianBlur stdDeviation="2.5"/>
<feComposite in2="hardAlpha" operator="out"/>
<feColorMatrix type="matrix" values="0 0 0 0 0 0 0 0 0 0 0 0 0 0 0 0 0 0 0.25 0"/>
<feBlend mode="normal" in2="BackgroundImageFix" result="effect1_dropShadow_24_9"/>
<feBlend mode="normal" in="SourceGraphic" in2="effect1_dropShadow_24_9" result="shape"/>
</filter>
</defs>
</svg>
