<svg width="960" height="400" viewBox="0 0 960 400" fill="none" xmlns="http://www.w3.org/2000/svg">
<rect width="960" height="400" fill="#B0A9E4"/>
<g filter="url(#filter0_d_24_273)">
<ellipse cx="230.677" cy="174.626" rx="60" ry="5.99994" transform="rotate(-30 230.677 174.626)" fill="#DEA38B" stroke="black" stroke-width="3"/>
<ellipse cx="231.427" cy="175.925" rx="36" ry="37.4996" transform="rotate(-30 231.427 175.925)" fill="#FFF7E4" stroke="black" stroke-width="6"/>
<path d="M178.715 204.626C158.833 170.189 165.98 128.841 194.677 112.273C223.375 95.7042 262.756 110.189 282.638 144.626" stroke="black" stroke-width="6" stroke-linecap="round"/>
<g filter="url(#filter1_d_24_273)">
<ellipse cx="208.113" cy="135.544" rx="36" ry="29.9997" transform="rotate(-30 208.113 135.544)" fill="#FFF7E4" stroke="black" stroke-width="6"/>
<path d="M222.463 156.472C221.975 157.881 220.526 158.718 219.061 158.436L209.265 156.55C206.537 156.025 205.926 152.395 208.331 151.006L221.394 143.465C223.8 142.076 226.638 144.42 225.729 147.045L222.463 156.472Z" fill="#F98284" stroke="black" stroke-width="3"/>
<ellipse cx="220.902" cy="124.696" rx="12" ry="11.9999" transform="rotate(-30 220.902 124.696)" fill="black"/>
<ellipse cx="222.75" cy="121.897" rx="6" ry="5.99994" transform="rotate(-30 222.75 121.897)" fill="white"/>
<ellipse cx="192.324" cy="141.196" rx="12" ry="11.9999" transform="rotate(-30 192.324 141.196)" fill="black"/>
<ellipse cx="194.172" cy="138.397" rx="6" ry="5.99994" transform="rotate(-30 194.172 138.397)" fill="white"/>
<ellipse cx="12" cy="29.9997" rx="12" ry="29.9997" transform="matrix(-0.906307 0.422619 0.422617 0.906308 197.213 51.5269)" fill="#FFF7E4" stroke="black" stroke-width="6"/>
<ellipse cx="7.5" cy="22.4998" rx="7.5" ry="22.4998" transform="matrix(-0.906307 0.422619 0.422617 0.906308 200.608 62.3567)" fill="#FFE6C6" stroke="black" stroke-width="3"/>
<ellipse cx="12" cy="29.9997" rx="12" ry="29.9997" transform="matrix(0.819153 -0.573576 0.573577 0.819152 140.802 84.0959)" fill="#FFF7E4" stroke="black" stroke-width="6"/>
<ellipse cx="7.5" cy="22.4998" rx="7.5" ry="22.4998" transform="matrix(0.819153 -0.573576 0.573577 0.819152 148.913 93.0654)" fill="#FFE6C6" stroke="black" stroke-width="3"/>
<path d="M236.032 131.698C241.804 126.647 247.073 125.323 255.169 125.845" stroke="black" stroke-width="3" stroke-linecap="round"/>
<path d="M235.436 134.085C242.051 130.202 247.475 129.886 255.33 131.913" stroke="black" stroke-width="3" stroke-linecap="round"/>
<path d="M189.573 157.432C182.312 159.906 178.531 163.807 174.935 171.079" stroke="black" stroke-width="3" stroke-linecap="round"/>
<path d="M191.938 158.11C185.268 161.897 182.283 166.437 180.11 174.253" stroke="black" stroke-width="3" stroke-linecap="round"/>
</g>
<path d="M254.677 216.195C283.374 199.626 295.893 167.584 282.638 144.626C244.651 173.444 221.608 186.053 178.715 204.626C191.97 227.584 225.979 232.763 254.677 216.195Z" fill="#FFC384" stroke="black" stroke-width="6"/>
<g filter="url(#filter2_d_24_273)">
<ellipse cx="219.387" cy="188.072" rx="12" ry="11.9999" transform="rotate(-30 219.387 188.072)" fill="#FFF7E4"/>
<ellipse cx="219.387" cy="188.072" rx="12" ry="11.9999" transform="rotate(-30 219.387 188.072)" stroke="black" stroke-width="6"/>
</g>
<g filter="url(#filter3_d_24_273)">
<ellipse cx="247.966" cy="171.572" rx="12" ry="11.9999" transform="rotate(-30 247.966 171.572)" fill="#FFF7E4"/>
<ellipse cx="247.966" cy="171.572" rx="12" ry="11.9999" transform="rotate(-30 247.966 171.572)" stroke="black" stroke-width="6"/>
</g>
</g>
<line x1="327.319" y1="230.382" x2="289.319" y2="230.382" stroke="black" stroke-width="6" stroke-linecap="round"/>
<line x1="343.319" y1="170.382" x2="305.319" y2="170.382" stroke="black" stroke-width="6" stroke-linecap="round"/>
<line x1="327.319" y1="110.382" x2="289.319" y2="110.382" stroke="black" stroke-width="6" stroke-linecap="round"/>
<g filter="url(#filter4_d_24_273)">
<ellipse cx="60" cy="5.99994" rx="60" ry="5.99994" transform="matrix(-0.866025 -0.5 -0.5 0.866025 784.604 198.43)" fill="#DEA38B" stroke="black" stroke-width="3"/>
<ellipse cx="36" cy="37.4996" rx="36" ry="37.4996" transform="matrix(-0.866025 -0.5 -0.5 0.866025 778.819 160.449)" fill="#FFF7E4" stroke="black" stroke-width="6"/>
<path d="M781.604 203.626C801.486 169.189 794.339 127.841 765.642 111.273C736.944 94.7042 697.563 109.189 677.681 143.626" stroke="black" stroke-width="6" stroke-linecap="round"/>
<g filter="url(#filter5_d_24_273)">
<ellipse cx="36" cy="29.9997" rx="36" ry="29.9997" transform="matrix(-0.866025 -0.5 -0.5 0.866025 798.383 126.564)" fill="#FFF7E4" stroke="black" stroke-width="6"/>
<path d="M737.856 155.472C738.344 156.881 739.793 157.718 741.257 157.436L751.054 155.55C753.782 155.025 754.393 151.395 751.987 150.006L738.925 142.465C736.519 141.076 733.681 143.42 734.59 146.045L737.856 155.472Z" fill="#F98284" stroke="black" stroke-width="3"/>
<ellipse cx="12" cy="11.9999" rx="12" ry="11.9999" transform="matrix(-0.866025 -0.5 -0.5 0.866025 755.809 119.304)" fill="black"/>
<ellipse cx="6" cy="5.99994" rx="6" ry="5.99994" transform="matrix(-0.866025 -0.5 -0.5 0.866025 745.765 118.701)" fill="white"/>
<ellipse cx="12" cy="11.9999" rx="12" ry="11.9999" transform="matrix(-0.866025 -0.5 -0.5 0.866025 784.388 135.804)" fill="black"/>
<ellipse cx="6" cy="5.99994" rx="6" ry="5.99994" transform="matrix(-0.866025 -0.5 -0.5 0.866025 774.344 135.201)" fill="white"/>
<ellipse cx="12" cy="29.9997" rx="12" ry="29.9997" transform="matrix(0.906307 0.422619 -0.422617 0.906308 763.106 50.5269)" fill="#FFF7E4" stroke="black" stroke-width="6"/>
<ellipse cx="7.5" cy="22.4998" rx="7.5" ry="22.4998" transform="matrix(0.906307 0.422619 -0.422617 0.906308 759.711 61.3567)" fill="#FFE6C6" stroke="black" stroke-width="3"/>
<ellipse cx="12" cy="29.9997" rx="12" ry="29.9997" transform="matrix(-0.819153 -0.573576 -0.573577 0.819152 819.517 83.0959)" fill="#FFF7E4" stroke="black" stroke-width="6"/>
<ellipse cx="7.5" cy="22.4998" rx="7.5" ry="22.4998" transform="matrix(-0.819153 -0.573576 -0.573577 0.819152 811.406 92.0654)" fill="#FFE6C6" stroke="black" stroke-width="3"/>
<path d="M724.287 130.698C718.515 125.647 713.245 124.323 705.15 124.845" stroke="black" stroke-width="3" stroke-linecap="round"/>
<path d="M724.883 133.085C718.268 129.202 712.844 128.886 704.989 130.913" stroke="black" stroke-width="3" stroke-linecap="round"/>
<path d="M770.746 156.432C778.007 158.906 781.788 162.807 785.384 170.079" stroke="black" stroke-width="3" stroke-linecap="round"/>
<path d="M768.381 157.11C775.051 160.897 778.036 165.437 780.209 173.253" stroke="black" stroke-width="3" stroke-linecap="round"/>
</g>
<path d="M705.642 215.195C676.945 198.626 664.426 166.584 677.681 143.626C715.668 172.444 738.711 185.053 781.604 203.626C768.349 226.584 734.34 231.763 705.642 215.195Z" fill="#FFC384" stroke="black" stroke-width="6"/>
<g filter="url(#filter6_d_24_273)">
<ellipse cx="12" cy="11.9999" rx="12" ry="11.9999" transform="matrix(-0.866025 -0.5 -0.5 0.866025 757.324 182.68)" fill="#FFF7E4"/>
<ellipse cx="12" cy="11.9999" rx="12" ry="11.9999" transform="matrix(-0.866025 -0.5 -0.5 0.866025 757.324 182.68)" stroke="black" stroke-width="6"/>
</g>
<g filter="url(#filter7_d_24_273)">
<ellipse cx="12" cy="11.9999" rx="12" ry="11.9999" transform="matrix(-0.866025 -0.5 -0.5 0.866025 728.745 166.18)" fill="#FFF7E4"/>
<ellipse cx="12" cy="11.9999" rx="12" ry="11.9999" transform="matrix(-0.866025 -0.5 -0.5 0.866025 728.745 166.18)" stroke="black" stroke-width="6"/>
</g>
</g>
<line x1="3" y1="-3" x2="41" y2="-3" transform="matrix(1 0 0 -1 630 226.382)" stroke="black" stroke-width="6" stroke-linecap="round"/>
<line x1="3" y1="-3" x2="41" y2="-3" transform="matrix(1 0 0 -1 614 166.382)" stroke="black" stroke-width="6" stroke-linecap="round"/>
<line x1="3" y1="-3" x2="41" y2="-3" transform="matrix(1 0 0 -1 630 106.382)" stroke="black" stroke-width="6" stroke-linecap="round"/>
<g filter="url(#filter8_d_24_273)">
<rect x="134" y="278" width="90" height="90" rx="6" fill="white"/>
<rect x="134.5" y="278.5" width="89" height="89" rx="5.5" stroke="#212B36"/>
<path d="M186.717 317.773V314.504L171.266 323.75V326.246L186.717 334.877V331.607L174.289 324.963V324.805L186.717 317.773Z" fill="#212B36"/>
</g>
<g filter="url(#filter9_d_24_273)">
<rect x="256" y="278" width="90" height="90" rx="6" fill="white"/>
<rect x="256.5" y="278.5" width="89" height="89" rx="5.5" stroke="#212B36"/>
<path d="M300.912 314.873H301.088L306.941 335H309.93L316.838 309.635H313.533L308.453 330.342H308.312L302.6 309.635H299.4L293.688 330.342H293.547L288.467 309.635H285.162L292.07 335H295.059L300.912 314.873Z" fill="#212B36"/>
</g>
<g filter="url(#filter10_d_24_273)">
<rect x="736" y="278" width="90" height="90" rx="6" fill="white"/>
<rect x="736.5" y="278.5" width="89" height="89" rx="5.5" stroke="#212B36"/>
<path d="M771.744 309.635V335H780.27C787.811 335 792.24 330.307 792.24 322.309C792.24 314.328 787.793 309.635 780.27 309.635H771.744ZM774.908 312.482H780.059C785.824 312.482 789.006 315.998 789.006 322.344C789.006 328.637 785.807 332.152 780.059 332.152H774.908V312.482Z" fill="#212B36"/>
</g>
<g filter="url(#filter11_d_24_273)">
<rect x="614" y="278" width="90" height="90" rx="6" fill="white"/>
<rect x="614.5" y="278.5" width="89" height="89" rx="5.5" stroke="#212B36"/>
<path d="M651.266 317.756L663.693 324.787V324.945L651.266 331.59V334.859L666.717 326.229V323.732L651.266 314.486V317.756Z" fill="#212B36"/>
</g>
<defs>
<filter id="filter0_d_24_273" x="135.018" y="53.124" width="165.933" height="195.756" filterUnits="userSpaceOnUse" color-interpolation-filters="sRGB">
<feFlood flood-opacity="0" result="BackgroundImageFix"/>
<feColorMatrix in="SourceAlpha" type="matrix" values="0 0 0 0 0 0 0 0 0 0 0 0 0 0 0 0 0 0 127 0" result="hardAlpha"/>
<feOffset dy="10"/>
<feGaussianBlur stdDeviation="5"/>
<feComposite in2="hardAlpha" operator="out"/>
<feColorMatrix type="matrix" values="0 0 0 0 0 0 0 0 0 0 0 0 0 0 0 0 0 0 0.25 0"/>
<feBlend mode="normal" in2="BackgroundImageFix" result="effect1_dropShadow_24_273"/>
<feBlend mode="normal" in="SourceGraphic" in2="effect1_dropShadow_24_273" result="shape"/>
</filter>
<filter id="filter1_d_24_273" x="141.018" y="53.124" width="119.812" height="130.629" filterUnits="userSpaceOnUse" color-interpolation-filters="sRGB">
<feFlood flood-opacity="0" result="BackgroundImageFix"/>
<feColorMatrix in="SourceAlpha" type="matrix" values="0 0 0 0 0 0 0 0 0 0 0 0 0 0 0 0 0 0 127 0" result="hardAlpha"/>
<feOffset dy="4"/>
<feGaussianBlur stdDeviation="2"/>
<feComposite in2="hardAlpha" operator="out"/>
<feColorMatrix type="matrix" values="0 0 0 0 0 0 0 0 0 0 0 0 0 0 0 0 0 0 0.25 0"/>
<feBlend mode="normal" in2="BackgroundImageFix" result="effect1_dropShadow_24_273"/>
<feBlend mode="normal" in="SourceGraphic" in2="effect1_dropShadow_24_273" result="shape"/>
</filter>
<filter id="filter2_d_24_273" x="200.385" y="173.07" width="38.005" height="38.0046" filterUnits="userSpaceOnUse" color-interpolation-filters="sRGB">
<feFlood flood-opacity="0" result="BackgroundImageFix"/>
<feColorMatrix in="SourceAlpha" type="matrix" values="0 0 0 0 0 0 0 0 0 0 0 0 0 0 0 0 0 0 127 0" result="hardAlpha"/>
<feOffset dy="4"/>
<feGaussianBlur stdDeviation="2"/>
<feComposite in2="hardAlpha" operator="out"/>
<feColorMatrix type="matrix" values="0 0 0 0 0 0 0 0 0 0 0 0 0 0 0 0 0 0 0.25 0"/>
<feBlend mode="normal" in2="BackgroundImageFix" result="effect1_dropShadow_24_273"/>
<feBlend mode="normal" in="SourceGraphic" in2="effect1_dropShadow_24_273" result="shape"/>
</filter>
<filter id="filter3_d_24_273" x="228.964" y="156.57" width="38.005" height="38.0046" filterUnits="userSpaceOnUse" color-interpolation-filters="sRGB">
<feFlood flood-opacity="0" result="BackgroundImageFix"/>
<feColorMatrix in="SourceAlpha" type="matrix" values="0 0 0 0 0 0 0 0 0 0 0 0 0 0 0 0 0 0 127 0" result="hardAlpha"/>
<feOffset dy="4"/>
<feGaussianBlur stdDeviation="2"/>
<feComposite in2="hardAlpha" operator="out"/>
<feColorMatrix type="matrix" values="0 0 0 0 0 0 0 0 0 0 0 0 0 0 0 0 0 0 0.25 0"/>
<feBlend mode="normal" in2="BackgroundImageFix" result="effect1_dropShadow_24_273"/>
<feBlend mode="normal" in="SourceGraphic" in2="effect1_dropShadow_24_273" result="shape"/>
</filter>
<filter id="filter4_d_24_273" x="659.368" y="52.124" width="165.933" height="195.756" filterUnits="userSpaceOnUse" color-interpolation-filters="sRGB">
<feFlood flood-opacity="0" result="BackgroundImageFix"/>
<feColorMatrix in="SourceAlpha" type="matrix" values="0 0 0 0 0 0 0 0 0 0 0 0 0 0 0 0 0 0 127 0" result="hardAlpha"/>
<feOffset dy="10"/>
<feGaussianBlur stdDeviation="5"/>
<feComposite in2="hardAlpha" operator="out"/>
<feColorMatrix type="matrix" values="0 0 0 0 0 0 0 0 0 0 0 0 0 0 0 0 0 0 0.25 0"/>
<feBlend mode="normal" in2="BackgroundImageFix" result="effect1_dropShadow_24_273"/>
<feBlend mode="normal" in="SourceGraphic" in2="effect1_dropShadow_24_273" result="shape"/>
</filter>
<filter id="filter5_d_24_273" x="699.489" y="52.124" width="119.812" height="130.629" filterUnits="userSpaceOnUse" color-interpolation-filters="sRGB">
<feFlood flood-opacity="0" result="BackgroundImageFix"/>
<feColorMatrix in="SourceAlpha" type="matrix" values="0 0 0 0 0 0 0 0 0 0 0 0 0 0 0 0 0 0 127 0" result="hardAlpha"/>
<feOffset dy="4"/>
<feGaussianBlur stdDeviation="2"/>
<feComposite in2="hardAlpha" operator="out"/>
<feColorMatrix type="matrix" values="0 0 0 0 0 0 0 0 0 0 0 0 0 0 0 0 0 0 0.25 0"/>
<feBlend mode="normal" in2="BackgroundImageFix" result="effect1_dropShadow_24_273"/>
<feBlend mode="normal" in="SourceGraphic" in2="effect1_dropShadow_24_273" result="shape"/>
</filter>
<filter id="filter6_d_24_273" x="721.929" y="172.07" width="38.0051" height="38.0046" filterUnits="userSpaceOnUse" color-interpolation-filters="sRGB">
<feFlood flood-opacity="0" result="BackgroundImageFix"/>
<feColorMatrix in="SourceAlpha" type="matrix" values="0 0 0 0 0 0 0 0 0 0 0 0 0 0 0 0 0 0 127 0" result="hardAlpha"/>
<feOffset dy="4"/>
<feGaussianBlur stdDeviation="2"/>
<feComposite in2="hardAlpha" operator="out"/>
<feColorMatrix type="matrix" values="0 0 0 0 0 0 0 0 0 0 0 0 0 0 0 0 0 0 0.25 0"/>
<feBlend mode="normal" in2="BackgroundImageFix" result="effect1_dropShadow_24_273"/>
<feBlend mode="normal" in="SourceGraphic" in2="effect1_dropShadow_24_273" result="shape"/>
</filter>
<filter id="filter7_d_24_273" x="693.35" y="155.57" width="38.0051" height="38.0046" filterUnits="userSpaceOnUse" color-interpolation-filters="sRGB">
<feFlood flood-opacity="0" result="BackgroundImageFix"/>
<feColorMatrix in="SourceAlpha" type="matrix" values="0 0 0 0 0 0 0 0 0 0 0 0 0 0 0 0 0 0 127 0" result="hardAlpha"/>
<feOffset dy="4"/>
<feGaussianBlur stdDeviation="2"/>
<feComposite in2="hardAlpha" operator="out"/>
<feColorMatrix type="matrix" values="0 0 0 0 0 0 0 0 0 0 0 0 0 0 0 0 0 0 0.25 0"/>
<feBlend mode="normal" in2="BackgroundImageFix" result="effect1_dropShadow_24_273"/>
<feBlend mode="normal" in="SourceGraphic" in2="effect1_dropShadow_24_273" result="shape"/>
</filter>
<filter id="filter8_d_24_273" x="132" y="278" width="94" height="96" filterUnits="userSpaceOnUse" color-interpolation-filters="sRGB">
<feFlood flood-opacity="0" result="BackgroundImageFix"/>
<feColorMatrix in="SourceAlpha" type="matrix" values="0 0 0 0 0 0 0 0 0 0 0 0 0 0 0 0 0 0 127 0" result="hardAlpha"/>
<feMorphology radius="2" operator="dilate" in="SourceAlpha" result="effect1_dropShadow_24_273"/>
<feOffset dy="4"/>
<feColorMatrix type="matrix" values="0 0 0 0 0 0 0 0 0 0 0 0 0 0 0 0 0 0 1 0"/>
<feBlend mode="normal" in2="BackgroundImageFix" result="effect1_dropShadow_24_273"/>
<feBlend mode="normal" in="SourceGraphic" in2="effect1_dropShadow_24_273" result="shape"/>
</filter>
<filter id="filter9_d_24_273" x="254" y="278" width="94" height="96" filterUnits="userSpaceOnUse" color-interpolation-filters="sRGB">
<feFlood flood-opacity="0" result="BackgroundImageFix"/>
<feColorMatrix in="SourceAlpha" type="matrix" values="0 0 0 0 0 0 0 0 0 0 0 0 0 0 0 0 0 0 127 0" result="hardAlpha"/>
<feMorphology radius="2" operator="dilate" in="SourceAlpha" result="effect1_dropShadow_24_273"/>
<feOffset dy="4"/>
<feColorMatrix type="matrix" values="0 0 0 0 0 0 0 0 0 0 0 0 0 0 0 0 0 0 1 0"/>
<feBlend mode="normal" in2="BackgroundImageFix" result="effect1_dropShadow_24_273"/>
<feBlend mode="normal" in="SourceGraphic" in2="effect1_dropShadow_24_273" result="shape"/>
</filter>
<filter id="filter10_d_24_273" x="734" y="278" width="94" height="96" filterUnits="userSpaceOnUse" color-interpolation-filters="sRGB">
<feFlood flood-opacity="0" result="BackgroundImageFix"/>
<feColorMatrix in="SourceAlpha" type="matrix" values="0 0 0 0 0 0 0 0 0 0 0 0 0 0 0 0 0 0 127 0" result="hardAlpha"/>
<feMorphology radius="2" operator="dilate" in="SourceAlpha" result="effect1_dropShadow_24_273"/>
<feOffset dy="4"/>
<feColorMatrix type="matrix" values="0 0 0 0 0 0 0 0 0 0 0 0 0 0 0 0 0 0 1 0"/>
<feBlend mode="normal" in2="BackgroundImageFix" result="effect1_dropShadow_24_273"/>
<feBlend mode="normal" in="SourceGraphic" in2="effect1_dropShadow_24_273" result="shape"/>
</filter>
<filter id="filter11_d_24_273" x="612" y="278" width="94" height="96" filterUnits="userSpaceOnUse" color-interpolation-filters="sRGB">
<feFlood flood-opacity="0" result="BackgroundImageFix"/>
<feColorMatrix in="SourceAlpha" type="matrix" values="0 0 0 0 0 0 0 0 0 0 0 0 0 0 0 0 0 0 127 0" result="hardAlpha"/>
<feMorphology radius="2" operator="dilate" in="SourceAlpha" result="effect1_dropShadow_24_273"/>
<feOffset dy="4"/>
<feColorMatrix type="matrix" values="0 0 0 0 0 0 0 0 0 0 0 0 0 0 0 0 0 0 1 0"/>
<feBlend mode="normal" in2="BackgroundImageFix" result="effect1_dropShadow_24_273"/>
<feBlend mode="normal" in="SourceGraphic" in2="effect1_dropShadow_24_273" result="shape"/>
</filter>
</defs>
</svg>
