<svg width="200" height="120" viewBox="0 0 200 120" fill="none" xmlns="http://www.w3.org/2000/svg">
<mask id="path-1-outside-1_9_26" maskUnits="userSpaceOnUse" x="6" y="11" width="194" height="54" fill="black">
<rect fill="white" x="6" y="11" width="194" height="54"/>
<path d="M13.3068 60C12.4961 60 11.8134 59.7227 11.2588 59.168C10.7041 58.6133 10.4268 57.9307 10.4268 57.12V18.272C10.4268 17.4613 10.7041 16.7787 11.2588 16.224C11.8134 15.6267 12.4961 15.328 13.3068 15.328H38.9708C39.7388 15.328 40.3788 15.6053 40.8908 16.16C41.4454 16.672 41.7228 17.312 41.7228 18.08C41.7228 18.848 41.4454 19.488 40.8908 20C40.3788 20.512 39.7388 20.768 38.9708 20.768H16.2508V34.912H36.6668C37.4348 34.912 38.0748 35.1893 38.5868 35.744C39.1414 36.256 39.4188 36.896 39.4188 37.664C39.4188 38.432 39.1414 39.072 38.5868 39.584C38.0748 40.096 37.4348 40.352 36.6668 40.352H16.2508V54.56H38.9708C39.7388 54.56 40.3788 54.8373 40.8908 55.392C41.4454 55.904 41.7228 56.544 41.7228 57.312C41.7228 58.08 41.4454 58.72 40.8908 59.232C40.3788 59.744 39.7388 60 38.9708 60H13.3068ZM57.9698 60.64C56.0924 60.64 54.3431 60.256 52.7218 59.488C51.1431 58.72 49.8844 57.6107 48.9458 56.16C48.0071 54.6667 47.5378 52.96 47.5378 51.04C47.5378 47.8827 48.7751 45.3653 51.2498 43.488C53.7671 41.6107 57.4364 40.672 62.2578 40.672H70.0018V40.16C70.0018 37.344 69.2978 35.3173 67.8898 34.08C66.5244 32.8427 64.3698 32.224 61.4258 32.224C59.8044 32.224 58.3538 32.352 57.0738 32.608C55.8364 32.864 54.4498 33.248 52.9138 33.76C52.5724 33.8453 52.2951 33.888 52.0818 33.888C51.4418 33.888 50.8871 33.6533 50.4178 33.184C49.9484 32.7147 49.7138 32.1387 49.7138 31.456C49.7138 30.304 50.2684 29.4933 51.3778 29.024C55.0044 27.488 58.6951 26.72 62.4498 26.72C65.3938 26.72 67.8684 27.3173 69.8738 28.512C71.9218 29.7067 73.4151 31.264 74.3538 33.184C75.3351 35.0613 75.8258 37.1093 75.8258 39.328V57.44C75.8258 58.2507 75.5271 58.9333 74.9298 59.488C74.3751 60.0427 73.6924 60.32 72.8818 60.32C72.0711 60.32 71.3884 60.0427 70.8338 59.488C70.2791 58.9333 70.0018 58.2507 70.0018 57.44V55.776C66.8444 59.0187 62.8338 60.64 57.9698 60.64ZM60.1458 55.52C62.0231 55.52 63.8364 55.072 65.5858 54.176C67.3351 53.2373 68.8071 52.0853 70.0018 50.72V45.344H63.0258C56.5831 45.344 53.3618 47.0293 53.3618 50.4C53.3618 51.936 53.8738 53.1733 54.8978 54.112C55.9644 55.0507 57.7138 55.52 60.1458 55.52ZM96.1473 60.64C91.8806 60.64 87.9979 59.68 84.4993 57.76C83.7739 57.248 83.4113 56.544 83.4113 55.648C83.4113 54.9653 83.6459 54.368 84.1153 53.856C84.5846 53.344 85.1819 53.088 85.9073 53.088C86.2913 53.088 86.6753 53.1733 87.0593 53.344C88.4246 53.9413 89.7899 54.4107 91.1553 54.752C92.5206 55.0933 94.0566 55.264 95.7633 55.264C100.499 55.264 102.867 53.7493 102.867 50.72C102.867 49.7387 102.313 48.992 101.203 48.48C100.137 47.968 98.3659 47.392 95.8913 46.752C93.3739 46.1547 91.2833 45.536 89.6193 44.896C87.9979 44.256 86.5899 43.296 85.3953 42.016C84.2433 40.6933 83.6673 38.9653 83.6673 36.832C83.6673 33.8453 84.7339 31.4133 86.8673 29.536C89.0433 27.6587 92.1366 26.72 96.1473 26.72C99.4326 26.72 102.526 27.2533 105.427 28.32C106.025 28.4907 106.473 28.8107 106.771 29.28C107.113 29.7493 107.283 30.24 107.283 30.752C107.283 31.4347 107.027 32.032 106.515 32.544C106.046 33.056 105.449 33.312 104.723 33.312C104.51 33.312 104.233 33.2693 103.891 33.184C101.417 32.416 98.9846 32.032 96.5953 32.032C94.2913 32.032 92.4779 32.4587 91.1553 33.312C89.8753 34.1227 89.2353 35.1893 89.2353 36.512C89.2353 37.792 89.8326 38.7307 91.0273 39.328C92.2219 39.9253 94.0779 40.5013 96.5953 41.056C99.1126 41.696 101.161 42.336 102.739 42.976C104.318 43.5733 105.662 44.5333 106.771 45.856C107.923 47.1787 108.499 48.9493 108.499 51.168C108.499 53.8987 107.411 56.16 105.235 57.952C103.102 59.744 100.073 60.64 96.1473 60.64ZM127.351 60.64C121.122 60.64 118.007 57.824 118.007 52.192V32.352H113.463C113.122 32.352 112.823 32.2453 112.567 32.032C112.354 31.776 112.247 31.4773 112.247 31.136C112.247 30.7093 112.439 30.3467 112.823 30.048L121.527 21.536C121.911 21.152 122.274 20.96 122.615 20.96C122.957 20.96 123.234 21.088 123.447 21.344C123.703 21.6 123.831 21.8987 123.831 22.24V27.36H131.063C131.789 27.36 132.386 27.5947 132.855 28.064C133.325 28.5333 133.559 29.1307 133.559 29.856C133.559 30.5387 133.325 31.136 132.855 31.648C132.386 32.1173 131.789 32.352 131.063 32.352H123.831V51.68C123.831 53.344 124.215 54.4107 124.983 54.88C125.794 55.3067 126.797 55.52 127.991 55.52C128.845 55.52 129.698 55.392 130.551 55.136C130.722 55.0933 130.893 55.0507 131.063 55.008C131.277 54.9653 131.533 54.944 131.831 54.944C132.429 54.944 132.962 55.1787 133.431 55.648C133.901 56.0747 134.135 56.608 134.135 57.248C134.135 58.2293 133.645 58.976 132.663 59.488C130.999 60.256 129.229 60.64 127.351 60.64ZM154.679 60.64C149.474 60.64 145.399 59.168 142.455 56.224C139.554 53.2373 138.103 49.056 138.103 43.68C138.103 40.6507 138.658 37.856 139.767 35.296C140.877 32.736 142.583 30.6667 144.887 29.088C147.191 27.5093 150.029 26.72 153.399 26.72C156.557 26.72 159.287 27.4667 161.591 28.96C163.895 30.4107 165.645 32.3733 166.839 34.848C168.034 37.28 168.631 39.9467 168.631 42.848C168.631 43.6587 168.354 44.3413 167.799 44.896C167.287 45.4507 166.583 45.728 165.687 45.728H143.991C144.333 48.7147 145.442 51.04 147.319 52.704C149.197 54.368 151.821 55.2 155.191 55.2C156.983 55.2 158.541 55.0293 159.863 54.688C161.229 54.3467 162.551 53.856 163.831 53.216C164.173 53.0453 164.557 52.96 164.983 52.96C165.666 52.96 166.263 53.1947 166.775 53.664C167.287 54.1333 167.543 54.7307 167.543 55.456C167.543 56.3947 166.989 57.184 165.879 57.824C164.215 58.7627 162.573 59.4667 160.951 59.936C159.33 60.4053 157.239 60.64 154.679 60.64ZM162.871 40.992C162.743 38.9013 162.189 37.152 161.207 35.744C160.269 34.336 159.095 33.312 157.687 32.672C156.279 31.9893 154.85 31.648 153.399 31.648C151.949 31.648 150.519 31.9893 149.111 32.672C147.703 33.312 146.53 34.336 145.591 35.744C144.653 37.152 144.119 38.9013 143.991 40.992H162.871ZM179.217 60.32C178.407 60.32 177.724 60.0427 177.169 59.488C176.615 58.9333 176.337 58.2507 176.337 57.44V29.984C176.337 29.1733 176.615 28.4907 177.169 27.936C177.724 27.3387 178.407 27.04 179.217 27.04C180.028 27.04 180.711 27.3387 181.265 27.936C181.863 28.4907 182.161 29.1733 182.161 29.984V32.736C185.148 28.7253 188.497 26.72 192.209 26.72H192.529C193.34 26.72 194.001 26.9973 194.513 27.552C195.068 28.1067 195.345 28.7893 195.345 29.6C195.345 30.4107 195.068 31.072 194.513 31.584C193.959 32.096 193.255 32.352 192.401 32.352H192.081C190.033 32.352 188.156 32.864 186.449 33.888C184.743 34.8693 183.313 36.2347 182.161 37.984V57.44C182.161 58.2507 181.863 58.9333 181.265 59.488C180.711 60.0427 180.028 60.32 179.217 60.32Z"/>
</mask>
<path d="M13.3068 60C12.4961 60 11.8134 59.7227 11.2588 59.168C10.7041 58.6133 10.4268 57.9307 10.4268 57.12V18.272C10.4268 17.4613 10.7041 16.7787 11.2588 16.224C11.8134 15.6267 12.4961 15.328 13.3068 15.328H38.9708C39.7388 15.328 40.3788 15.6053 40.8908 16.16C41.4454 16.672 41.7228 17.312 41.7228 18.08C41.7228 18.848 41.4454 19.488 40.8908 20C40.3788 20.512 39.7388 20.768 38.9708 20.768H16.2508V34.912H36.6668C37.4348 34.912 38.0748 35.1893 38.5868 35.744C39.1414 36.256 39.4188 36.896 39.4188 37.664C39.4188 38.432 39.1414 39.072 38.5868 39.584C38.0748 40.096 37.4348 40.352 36.6668 40.352H16.2508V54.56H38.9708C39.7388 54.56 40.3788 54.8373 40.8908 55.392C41.4454 55.904 41.7228 56.544 41.7228 57.312C41.7228 58.08 41.4454 58.72 40.8908 59.232C40.3788 59.744 39.7388 60 38.9708 60H13.3068ZM57.9698 60.64C56.0924 60.64 54.3431 60.256 52.7218 59.488C51.1431 58.72 49.8844 57.6107 48.9458 56.16C48.0071 54.6667 47.5378 52.96 47.5378 51.04C47.5378 47.8827 48.7751 45.3653 51.2498 43.488C53.7671 41.6107 57.4364 40.672 62.2578 40.672H70.0018V40.16C70.0018 37.344 69.2978 35.3173 67.8898 34.08C66.5244 32.8427 64.3698 32.224 61.4258 32.224C59.8044 32.224 58.3538 32.352 57.0738 32.608C55.8364 32.864 54.4498 33.248 52.9138 33.76C52.5724 33.8453 52.2951 33.888 52.0818 33.888C51.4418 33.888 50.8871 33.6533 50.4178 33.184C49.9484 32.7147 49.7138 32.1387 49.7138 31.456C49.7138 30.304 50.2684 29.4933 51.3778 29.024C55.0044 27.488 58.6951 26.72 62.4498 26.72C65.3938 26.72 67.8684 27.3173 69.8738 28.512C71.9218 29.7067 73.4151 31.264 74.3538 33.184C75.3351 35.0613 75.8258 37.1093 75.8258 39.328V57.44C75.8258 58.2507 75.5271 58.9333 74.9298 59.488C74.3751 60.0427 73.6924 60.32 72.8818 60.32C72.0711 60.32 71.3884 60.0427 70.8338 59.488C70.2791 58.9333 70.0018 58.2507 70.0018 57.44V55.776C66.8444 59.0187 62.8338 60.64 57.9698 60.64ZM60.1458 55.52C62.0231 55.52 63.8364 55.072 65.5858 54.176C67.3351 53.2373 68.8071 52.0853 70.0018 50.72V45.344H63.0258C56.5831 45.344 53.3618 47.0293 53.3618 50.4C53.3618 51.936 53.8738 53.1733 54.8978 54.112C55.9644 55.0507 57.7138 55.52 60.1458 55.52ZM96.1473 60.64C91.8806 60.64 87.9979 59.68 84.4993 57.76C83.7739 57.248 83.4113 56.544 83.4113 55.648C83.4113 54.9653 83.6459 54.368 84.1153 53.856C84.5846 53.344 85.1819 53.088 85.9073 53.088C86.2913 53.088 86.6753 53.1733 87.0593 53.344C88.4246 53.9413 89.7899 54.4107 91.1553 54.752C92.5206 55.0933 94.0566 55.264 95.7633 55.264C100.499 55.264 102.867 53.7493 102.867 50.72C102.867 49.7387 102.313 48.992 101.203 48.48C100.137 47.968 98.3659 47.392 95.8913 46.752C93.3739 46.1547 91.2833 45.536 89.6193 44.896C87.9979 44.256 86.5899 43.296 85.3953 42.016C84.2433 40.6933 83.6673 38.9653 83.6673 36.832C83.6673 33.8453 84.7339 31.4133 86.8673 29.536C89.0433 27.6587 92.1366 26.72 96.1473 26.72C99.4326 26.72 102.526 27.2533 105.427 28.32C106.025 28.4907 106.473 28.8107 106.771 29.28C107.113 29.7493 107.283 30.24 107.283 30.752C107.283 31.4347 107.027 32.032 106.515 32.544C106.046 33.056 105.449 33.312 104.723 33.312C104.51 33.312 104.233 33.2693 103.891 33.184C101.417 32.416 98.9846 32.032 96.5953 32.032C94.2913 32.032 92.4779 32.4587 91.1553 33.312C89.8753 34.1227 89.2353 35.1893 89.2353 36.512C89.2353 37.792 89.8326 38.7307 91.0273 39.328C92.2219 39.9253 94.0779 40.5013 96.5953 41.056C99.1126 41.696 101.161 42.336 102.739 42.976C104.318 43.5733 105.662 44.5333 106.771 45.856C107.923 47.1787 108.499 48.9493 108.499 51.168C108.499 53.8987 107.411 56.16 105.235 57.952C103.102 59.744 100.073 60.64 96.1473 60.64ZM127.351 60.64C121.122 60.64 118.007 57.824 118.007 52.192V32.352H113.463C113.122 32.352 112.823 32.2453 112.567 32.032C112.354 31.776 112.247 31.4773 112.247 31.136C112.247 30.7093 112.439 30.3467 112.823 30.048L121.527 21.536C121.911 21.152 122.274 20.96 122.615 20.96C122.957 20.96 123.234 21.088 123.447 21.344C123.703 21.6 123.831 21.8987 123.831 22.24V27.36H131.063C131.789 27.36 132.386 27.5947 132.855 28.064C133.325 28.5333 133.559 29.1307 133.559 29.856C133.559 30.5387 133.325 31.136 132.855 31.648C132.386 32.1173 131.789 32.352 131.063 32.352H123.831V51.68C123.831 53.344 124.215 54.4107 124.983 54.88C125.794 55.3067 126.797 55.52 127.991 55.52C128.845 55.52 129.698 55.392 130.551 55.136C130.722 55.0933 130.893 55.0507 131.063 55.008C131.277 54.9653 131.533 54.944 131.831 54.944C132.429 54.944 132.962 55.1787 133.431 55.648C133.901 56.0747 134.135 56.608 134.135 57.248C134.135 58.2293 133.645 58.976 132.663 59.488C130.999 60.256 129.229 60.64 127.351 60.64ZM154.679 60.64C149.474 60.64 145.399 59.168 142.455 56.224C139.554 53.2373 138.103 49.056 138.103 43.68C138.103 40.6507 138.658 37.856 139.767 35.296C140.877 32.736 142.583 30.6667 144.887 29.088C147.191 27.5093 150.029 26.72 153.399 26.72C156.557 26.72 159.287 27.4667 161.591 28.96C163.895 30.4107 165.645 32.3733 166.839 34.848C168.034 37.28 168.631 39.9467 168.631 42.848C168.631 43.6587 168.354 44.3413 167.799 44.896C167.287 45.4507 166.583 45.728 165.687 45.728H143.991C144.333 48.7147 145.442 51.04 147.319 52.704C149.197 54.368 151.821 55.2 155.191 55.2C156.983 55.2 158.541 55.0293 159.863 54.688C161.229 54.3467 162.551 53.856 163.831 53.216C164.173 53.0453 164.557 52.96 164.983 52.96C165.666 52.96 166.263 53.1947 166.775 53.664C167.287 54.1333 167.543 54.7307 167.543 55.456C167.543 56.3947 166.989 57.184 165.879 57.824C164.215 58.7627 162.573 59.4667 160.951 59.936C159.33 60.4053 157.239 60.64 154.679 60.64ZM162.871 40.992C162.743 38.9013 162.189 37.152 161.207 35.744C160.269 34.336 159.095 33.312 157.687 32.672C156.279 31.9893 154.85 31.648 153.399 31.648C151.949 31.648 150.519 31.9893 149.111 32.672C147.703 33.312 146.53 34.336 145.591 35.744C144.653 37.152 144.119 38.9013 143.991 40.992H162.871ZM179.217 60.32C178.407 60.32 177.724 60.0427 177.169 59.488C176.615 58.9333 176.337 58.2507 176.337 57.44V29.984C176.337 29.1733 176.615 28.4907 177.169 27.936C177.724 27.3387 178.407 27.04 179.217 27.04C180.028 27.04 180.711 27.3387 181.265 27.936C181.863 28.4907 182.161 29.1733 182.161 29.984V32.736C185.148 28.7253 188.497 26.72 192.209 26.72H192.529C193.34 26.72 194.001 26.9973 194.513 27.552C195.068 28.1067 195.345 28.7893 195.345 29.6C195.345 30.4107 195.068 31.072 194.513 31.584C193.959 32.096 193.255 32.352 192.401 32.352H192.081C190.033 32.352 188.156 32.864 186.449 33.888C184.743 34.8693 183.313 36.2347 182.161 37.984V57.44C182.161 58.2507 181.863 58.9333 181.265 59.488C180.711 60.0427 180.028 60.32 179.217 60.32Z" fill="white"/>
<path d="M11.2588 59.168L14.0872 56.3396L14.0872 56.3396L11.2588 59.168ZM11.2588 16.224L14.0872 19.0524L14.1395 19.0001L14.1899 18.9458L11.2588 16.224ZM40.8908 16.16L37.9515 18.8731L38.0601 18.9907L38.1776 19.0992L40.8908 16.16ZM40.8908 20L38.1776 17.0608L38.1189 17.115L38.0623 17.1716L40.8908 20ZM16.2508 20.768V16.768H12.2508V20.768H16.2508ZM16.2508 34.912H12.2508V38.912H16.2508V34.912ZM38.5868 35.744L35.6475 38.4571L35.7561 38.5747L35.8736 38.6832L38.5868 35.744ZM38.5868 39.584L35.8736 36.6448L35.8149 36.699L35.7583 36.7556L38.5868 39.584ZM16.2508 40.352V36.352H12.2508V40.352H16.2508ZM16.2508 54.56H12.2508V58.56H16.2508V54.56ZM40.8908 55.392L37.9515 58.1051L38.0601 58.2227L38.1776 58.3312L40.8908 55.392ZM40.8908 59.232L38.1776 56.2928L38.1189 56.347L38.0623 56.4036L40.8908 59.232ZM13.3068 56C13.3657 56 13.5096 56.0119 13.6923 56.0861C13.8775 56.1614 14.0113 56.2637 14.0872 56.3396L8.43032 61.9964C9.76273 63.3288 11.4749 64 13.3068 64V56ZM14.0872 56.3396C14.163 56.4154 14.2654 56.5492 14.3406 56.7345C14.4148 56.9171 14.4268 57.0611 14.4268 57.12H6.42675C6.42675 58.9519 7.09792 60.664 8.43032 61.9964L14.0872 56.3396ZM14.4268 57.12V18.272H6.42675V57.12H14.4268ZM14.4268 18.272C14.4268 18.3309 14.4148 18.4749 14.3406 18.6575C14.2654 18.8428 14.163 18.9766 14.0872 19.0524L8.43032 13.3956C7.09792 14.728 6.42675 16.4401 6.42675 18.272H14.4268ZM14.1899 18.9458C14.1293 19.0111 13.9968 19.1262 13.79 19.2166C13.5827 19.3073 13.4042 19.328 13.3068 19.328V11.328C11.3768 11.328 9.63433 12.0949 8.32758 13.5022L14.1899 18.9458ZM13.3068 19.328H38.9708V11.328H13.3068V19.328ZM38.9708 19.328C38.8633 19.328 38.667 19.3062 38.4363 19.2062C38.2041 19.1056 38.0421 18.9712 37.9515 18.8731L43.83 13.4469C42.5459 12.0558 40.833 11.328 38.9708 11.328V19.328ZM38.1776 19.0992C38.0795 19.0087 37.9452 18.8467 37.8445 18.6144C37.7446 18.3838 37.7228 18.1875 37.7228 18.08H45.7228C45.7228 16.2177 44.995 14.5049 43.6039 13.2208L38.1776 19.0992ZM37.7228 18.08C37.7228 17.9725 37.7446 17.7762 37.8445 17.5456C37.9452 17.3133 38.0795 17.1513 38.1776 17.0608L43.6039 22.9392C44.995 21.6551 45.7228 19.9423 45.7228 18.08H37.7228ZM38.0623 17.1716C38.1697 17.0642 38.333 16.9454 38.5412 16.8621C38.7447 16.7807 38.9039 16.768 38.9708 16.768V24.768C40.7282 24.768 42.408 24.1396 43.7192 22.8284L38.0623 17.1716ZM38.9708 16.768H16.2508V24.768H38.9708V16.768ZM12.2508 20.768V34.912H20.2508V20.768H12.2508ZM16.2508 38.912H36.6668V30.912H16.2508V38.912ZM36.6668 38.912C36.5593 38.912 36.363 38.8902 36.1323 38.7902C35.9001 38.6896 35.7381 38.5552 35.6475 38.4571L41.526 33.0309C40.2419 31.6398 38.529 30.912 36.6668 30.912V38.912ZM35.8736 38.6832C35.7755 38.5927 35.6412 38.4307 35.5405 38.1984C35.4406 37.9678 35.4188 37.7715 35.4188 37.664H43.4188C43.4188 35.8017 42.691 34.0889 41.2999 32.8048L35.8736 38.6832ZM35.4188 37.664C35.4188 37.5565 35.4406 37.3602 35.5405 37.1296C35.6412 36.8973 35.7755 36.7353 35.8736 36.6448L41.2999 42.5232C42.691 41.2391 43.4188 39.5263 43.4188 37.664H35.4188ZM35.7583 36.7556C35.8657 36.6482 36.029 36.5294 36.2372 36.4461C36.4407 36.3647 36.5999 36.352 36.6668 36.352V44.352C38.4242 44.352 40.104 43.7236 41.4152 42.4124L35.7583 36.7556ZM36.6668 36.352H16.2508V44.352H36.6668V36.352ZM12.2508 40.352V54.56H20.2508V40.352H12.2508ZM16.2508 58.56H38.9708V50.56H16.2508V58.56ZM38.9708 58.56C38.8633 58.56 38.667 58.5382 38.4363 58.4382C38.2041 58.3376 38.0421 58.2032 37.9515 58.1051L43.83 52.6789C42.5459 51.2878 40.833 50.56 38.9708 50.56V58.56ZM38.1776 58.3312C38.0795 58.2407 37.9452 58.0787 37.8445 57.8464C37.7446 57.6158 37.7228 57.4195 37.7228 57.312H45.7228C45.7228 55.4497 44.995 53.7369 43.6039 52.4528L38.1776 58.3312ZM37.7228 57.312C37.7228 57.2045 37.7446 57.0082 37.8445 56.7776C37.9452 56.5453 38.0795 56.3833 38.1776 56.2928L43.6039 62.1712C44.995 60.8871 45.7228 59.1743 45.7228 57.312H37.7228ZM38.0623 56.4036C38.1697 56.2962 38.333 56.1774 38.5412 56.0941C38.7447 56.0127 38.9039 56 38.9708 56V64C40.7282 64 42.408 63.3716 43.7192 62.0604L38.0623 56.4036ZM38.9708 56H13.3068V64H38.9708V56ZM52.7218 59.488L50.9719 63.0849L50.9906 63.094L51.0094 63.103L52.7218 59.488ZM48.9458 56.16L45.5592 58.2887L45.5732 58.3109L45.5875 58.333L48.9458 56.16ZM51.2498 43.488L48.8585 40.2815L48.8453 40.2913L48.8322 40.3012L51.2498 43.488ZM70.0018 40.672V44.672H74.0018V40.672H70.0018ZM67.8898 34.08L65.2037 37.0439L65.2263 37.0645L65.2493 37.0847L67.8898 34.08ZM57.0738 32.608L56.2893 28.6857L56.2763 28.6883L56.2633 28.691L57.0738 32.608ZM52.9138 33.76L53.8839 37.6406L54.0329 37.6033L54.1787 37.5547L52.9138 33.76ZM50.4178 33.184L53.2462 30.3556L53.2462 30.3556L50.4178 33.184ZM51.3778 29.024L52.9363 32.7079L52.9377 32.7073L51.3778 29.024ZM69.8738 28.512L67.8265 31.9484L67.8424 31.9578L67.8583 31.9671L69.8738 28.512ZM74.3538 33.184L70.7602 34.9408L70.7839 34.9893L70.8089 35.037L74.3538 33.184ZM74.9298 59.488L72.2079 56.5568L72.1537 56.6072L72.1013 56.6596L74.9298 59.488ZM70.8338 59.488L73.6622 56.6596L73.6622 56.6596L70.8338 59.488ZM70.0018 55.776H74.0018V45.9341L67.1359 52.9855L70.0018 55.776ZM65.5858 54.176L67.4093 57.7362L67.4433 57.7187L67.477 57.7006L65.5858 54.176ZM70.0018 50.72L73.0121 53.354L74.0018 52.2229V50.72H70.0018ZM70.0018 45.344H74.0018V41.344H70.0018V45.344ZM54.8978 54.112L52.1949 57.0606L52.2248 57.088L52.2552 57.1149L54.8978 54.112ZM57.9698 56.64C56.6565 56.64 55.4953 56.3757 54.4341 55.873L51.0094 63.103C53.1909 64.1363 55.5284 64.64 57.9698 64.64V56.64ZM54.4716 55.8911C53.5378 55.4368 52.8398 54.815 52.304 53.987L45.5875 58.333C46.9291 60.4064 48.7484 62.0032 50.9719 63.0849L54.4716 55.8911ZM52.3323 54.0313C51.8298 53.2318 51.5378 52.2761 51.5378 51.04H43.5378C43.5378 53.6439 44.1844 56.1015 45.5592 58.2887L52.3323 54.0313ZM51.5378 51.04C51.5378 49.1097 52.2087 47.7813 53.6673 46.6748L48.8322 40.3012C45.3415 42.9494 43.5378 46.6556 43.5378 51.04H51.5378ZM53.641 46.6945C55.1859 45.5424 57.864 44.672 62.2578 44.672V36.672C57.0088 36.672 52.3482 37.6789 48.8585 40.2815L53.641 46.6945ZM62.2578 44.672H70.0018V36.672H62.2578V44.672ZM74.0018 40.672V40.16H66.0018V40.672H74.0018ZM74.0018 40.16C74.0018 36.7761 73.1603 33.3867 70.5302 31.0753L65.2493 37.0847C65.4352 37.248 66.0018 37.9119 66.0018 40.16H74.0018ZM70.5758 31.116C68.1433 28.9116 64.7993 28.224 61.4258 28.224V36.224C63.9402 36.224 64.9055 36.7738 65.2037 37.0439L70.5758 31.116ZM61.4258 28.224C59.6014 28.224 57.8807 28.3674 56.2893 28.6857L57.8582 36.5303C58.8268 36.3366 60.0074 36.224 61.4258 36.224V28.224ZM56.2633 28.691C54.8365 28.9862 53.2947 29.4166 51.6488 29.9653L54.1787 37.5547C55.6048 37.0793 56.8363 36.7418 57.8842 36.525L56.2633 28.691ZM51.9436 29.8794C51.8639 29.8994 51.8326 29.9039 51.8415 29.9025C51.8474 29.9016 51.87 29.8983 51.9072 29.895C51.944 29.8918 52.0034 29.888 52.0818 29.888V37.888C52.7643 37.888 53.4017 37.7611 53.8839 37.6406L51.9436 29.8794ZM52.0818 29.888C52.2632 29.888 52.4981 29.924 52.7443 30.0281C52.9876 30.1311 53.1538 30.2632 53.2462 30.3556L47.5893 36.0124C48.7777 37.2008 50.3377 37.888 52.0818 37.888V29.888ZM53.2462 30.3556C53.3628 30.4722 53.4971 30.6526 53.5941 30.8908C53.6903 31.1268 53.7138 31.3306 53.7138 31.456H45.7138C45.7138 33.1657 46.3462 34.7693 47.5893 36.0124L53.2462 30.3556ZM53.7138 31.456C53.7138 31.5433 53.6833 31.8739 53.431 32.2427C53.1871 32.5992 52.9267 32.7119 52.9363 32.7079L49.8192 25.3401C48.7194 25.8054 47.6271 26.5581 46.8285 27.7253C46.0215 28.9047 45.7138 30.2167 45.7138 31.456H53.7138ZM52.9377 32.7073C56.0955 31.3699 59.2571 30.72 62.4498 30.72V22.72C58.133 22.72 53.9134 23.6061 49.8178 25.3407L52.9377 32.7073ZM62.4498 30.72C64.859 30.72 66.5827 31.2074 67.8265 31.9484L71.921 25.0756C69.1541 23.4273 65.9285 22.72 62.4498 22.72V30.72ZM67.8583 31.9671C69.3017 32.8091 70.2058 33.8069 70.7602 34.9408L77.9473 31.4272C76.6243 28.7211 74.5418 26.6042 71.8892 25.0569L67.8583 31.9671ZM70.8089 35.037C71.4769 36.3151 71.8258 37.7231 71.8258 39.328H79.8258C79.8258 36.4956 79.1932 33.8076 77.8987 31.331L70.8089 35.037ZM71.8258 39.328V57.44H79.8258V39.328H71.8258ZM71.8258 57.44C71.8258 57.3425 71.8464 57.164 71.9371 56.9567C72.0276 56.7499 72.1427 56.6174 72.2079 56.5568L77.6516 62.4192C79.0588 61.1124 79.8258 59.3699 79.8258 57.44H71.8258ZM72.1013 56.6596C72.1772 56.5837 72.311 56.4814 72.4962 56.4061C72.6789 56.3319 72.8228 56.32 72.8818 56.32V64.32C74.7136 64.32 76.4258 63.6488 77.7582 62.3164L72.1013 56.6596ZM72.8818 56.32C72.9407 56.32 73.0846 56.3319 73.2673 56.4061C73.4525 56.4814 73.5863 56.5837 73.6622 56.6596L68.0053 62.3164C69.3377 63.6488 71.0499 64.32 72.8818 64.32V56.32ZM73.6622 56.6596C73.738 56.7354 73.8404 56.8692 73.9156 57.0545C73.9898 57.2371 74.0018 57.3811 74.0018 57.44H66.0018C66.0018 59.2719 66.6729 60.984 68.0053 62.3164L73.6622 56.6596ZM74.0018 57.44V55.776H66.0018V57.44H74.0018ZM67.1359 52.9855C64.7918 55.393 61.8439 56.64 57.9698 56.64V64.64C63.8236 64.64 68.8971 62.6444 72.8676 58.5665L67.1359 52.9855ZM60.1458 59.52C62.6872 59.52 65.1229 58.9073 67.4093 57.7362L63.7622 50.6158C62.55 51.2367 61.359 51.52 60.1458 51.52V59.52ZM67.477 57.7006C69.6099 56.5562 71.4724 55.1137 73.0121 53.354L66.9914 48.086C66.1418 49.057 65.0603 49.9185 63.6945 50.6514L67.477 57.7006ZM74.0018 50.72V45.344H66.0018V50.72H74.0018ZM70.0018 41.344H63.0258V49.344H70.0018V41.344ZM63.0258 41.344C59.5859 41.344 56.3925 41.772 53.9235 43.0638C52.63 43.7404 51.4432 44.7032 50.5923 46.0387C49.731 47.3905 49.3618 48.8935 49.3618 50.4H57.3618C57.3618 50.2212 57.3952 50.2495 57.3392 50.3373C57.2937 50.4088 57.3148 50.3182 57.632 50.1522C58.3843 49.7587 60.023 49.344 63.0258 49.344V41.344ZM49.3618 50.4C49.3618 52.9253 50.2519 55.2795 52.1949 57.0606L57.6006 51.1634C57.4956 51.0671 57.3618 50.9467 57.3618 50.4H49.3618ZM52.2552 57.1149C54.4187 59.0187 57.3763 59.52 60.1458 59.52V51.52C59.1684 51.52 58.49 51.4237 58.0463 51.3046C57.6076 51.1869 57.5025 51.0759 57.5403 51.1091L52.2552 57.1149ZM84.4993 57.76L82.1925 61.0279L82.3769 61.1581L82.5749 61.2667L84.4993 57.76ZM84.1153 53.856L87.0639 56.5589L87.0639 56.5589L84.1153 53.856ZM87.0593 53.344L85.4347 56.9992L85.4453 57.004L85.456 57.0086L87.0593 53.344ZM101.203 48.48L99.4723 52.0861L99.4996 52.0992L99.527 52.1118L101.203 48.48ZM95.8913 46.752L96.8928 42.8794L96.8539 42.8693L96.8148 42.8601L95.8913 46.752ZM89.6193 44.896L88.1506 48.6166L88.1669 48.6231L88.1833 48.6294L89.6193 44.896ZM85.3953 42.016L82.3789 44.6431L82.4241 44.695L82.471 44.7453L85.3953 42.016ZM86.8673 29.536L84.2543 26.5074L84.2395 26.5202L84.2247 26.5331L86.8673 29.536ZM105.427 28.32L104.047 32.0743L104.186 32.1254L104.328 32.1661L105.427 28.32ZM106.771 29.28L103.397 31.4275L103.463 31.5323L103.536 31.6327L106.771 29.28ZM106.515 32.544L103.687 29.7156L103.625 29.777L103.567 29.8411L106.515 32.544ZM103.891 33.184L102.706 37.0043L102.813 37.0374L102.921 37.0646L103.891 33.184ZM91.1553 33.312L93.2955 36.6913L93.3096 36.6823L93.3238 36.6732L91.1553 33.312ZM96.5953 41.056L97.5808 37.1793L97.5186 37.1635L97.456 37.1497L96.5953 41.056ZM102.739 42.976L101.236 46.683L101.28 46.7006L101.324 46.7171L102.739 42.976ZM106.771 45.856L103.706 48.4264L103.73 48.455L103.755 48.4831L106.771 45.856ZM105.235 57.952L102.692 54.8643L102.677 54.8767L102.662 54.8892L105.235 57.952ZM96.1473 56.64C92.5054 56.64 89.2919 55.8274 86.4236 54.2533L82.5749 61.2667C86.7039 63.5326 91.2558 64.64 96.1473 64.64V56.64ZM86.806 54.4921C86.9047 54.5618 87.0915 54.7296 87.2391 55.0162C87.3861 55.3014 87.4113 55.5433 87.4113 55.648H79.4113C79.4113 57.8294 80.3938 59.7582 82.1925 61.0279L86.806 54.4921ZM87.4113 55.648C87.4113 55.775 87.3874 55.9543 87.3103 56.1506C87.2336 56.3458 87.1339 56.4825 87.0639 56.5589L81.1666 51.1531C80.0341 52.3886 79.4113 53.9454 79.4113 55.648H87.4113ZM87.0639 56.5589C86.9419 56.6919 86.7491 56.846 86.4909 56.9566C86.2369 57.0655 86.0233 57.088 85.9073 57.088V49.088C84.1168 49.088 82.4307 49.7741 81.1666 51.1531L87.0639 56.5589ZM85.9073 57.088C85.6806 57.088 85.5134 57.0342 85.4347 56.9992L88.6838 49.6888C87.8371 49.3124 86.9019 49.088 85.9073 49.088V57.088ZM85.456 57.0086C87.014 57.6903 88.5908 58.234 90.1851 58.6326L92.1254 50.8714C90.9891 50.5873 89.8352 50.1924 88.6625 49.6794L85.456 57.0086ZM90.1851 58.6326C91.9264 59.0679 93.7962 59.264 95.7633 59.264V51.264C94.317 51.264 93.1147 51.1188 92.1254 50.8714L90.1851 58.6326ZM95.7633 59.264C98.4291 59.264 101.115 58.861 103.247 57.4976C105.683 55.9394 106.867 53.4722 106.867 50.72H98.8673C98.8673 50.9508 98.8248 50.9577 98.876 50.8594C98.9339 50.7484 98.9978 50.7188 98.9359 50.7584C98.6993 50.9097 97.8334 51.264 95.7633 51.264V59.264ZM106.867 50.72C106.867 49.4206 106.481 48.1412 105.662 47.0387C104.88 45.9857 103.858 45.2996 102.879 44.8482L99.527 52.1118C99.6582 52.1724 99.4679 52.1157 99.2403 51.8093C99.124 51.6527 99.0228 51.4627 98.9546 51.2505C98.8872 51.0405 98.8673 50.8559 98.8673 50.72H106.867ZM102.934 44.8739C101.492 44.1819 99.3989 43.5276 96.8928 42.8794L94.8897 50.6246C97.3329 51.2564 98.7807 51.7541 99.4723 52.0861L102.934 44.8739ZM96.8148 42.8601C94.4013 42.2874 92.4961 41.7168 91.0552 41.1626L88.1833 48.6294C90.0704 49.3552 92.3465 50.0219 94.9677 50.6439L96.8148 42.8601ZM91.0879 41.1754C90.022 40.7546 89.1105 40.1343 88.3195 39.2867L82.471 44.7453C84.0693 46.4577 85.9739 47.7574 88.1506 48.6166L91.0879 41.1754ZM88.4116 39.3889C88.0238 38.9436 87.6673 38.2177 87.6673 36.832H79.6673C79.6673 39.713 80.4627 42.4431 82.3789 44.6431L88.4116 39.3889ZM87.6673 36.832C87.6673 34.9282 88.2882 33.6139 89.5098 32.5389L84.2247 26.5331C81.1797 29.2128 79.6673 32.7624 79.6673 36.832H87.6673ZM89.4802 32.5646C90.6877 31.5229 92.7185 30.72 96.1473 30.72V22.72C91.5547 22.72 87.3988 23.7945 84.2543 26.5074L89.4802 32.5646ZM96.1473 30.72C98.9914 30.72 101.615 31.1801 104.047 32.0743L106.808 24.5657C103.437 23.3265 99.8737 22.72 96.1473 22.72V30.72ZM104.328 32.1661C104.243 32.1418 104.079 32.0804 103.886 31.9429C103.688 31.8014 103.52 31.6213 103.397 31.4275L110.146 27.1325C109.26 25.7397 107.946 24.8797 106.526 24.4739L104.328 32.1661ZM103.536 31.6327C103.503 31.5864 103.435 31.4803 103.377 31.3141C103.318 31.1432 103.283 30.95 103.283 30.752H111.283C111.283 29.2841 110.776 27.9852 110.006 26.9273L103.536 31.6327ZM103.283 30.752C103.283 30.5795 103.319 30.3605 103.415 30.1363C103.509 29.9167 103.624 29.7784 103.687 29.7156L109.344 35.3724C110.555 34.1608 111.283 32.5649 111.283 30.752H103.283ZM103.567 29.8411C103.689 29.7081 103.881 29.554 104.14 29.4434C104.394 29.3345 104.607 29.312 104.723 29.312V37.312C106.514 37.312 108.2 36.6259 109.464 35.2469L103.567 29.8411ZM104.723 29.312C104.802 29.312 104.861 29.3158 104.898 29.319C104.935 29.3223 104.958 29.3256 104.963 29.3265C104.972 29.3279 104.941 29.3234 104.861 29.3034L102.921 37.0646C103.403 37.1851 104.041 37.312 104.723 37.312V29.312ZM105.077 29.3637C102.251 28.4866 99.419 28.032 96.5953 28.032V36.032C98.5501 36.032 100.583 36.3454 102.706 37.0043L105.077 29.3637ZM96.5953 28.032C93.8588 28.032 91.1901 28.5293 88.9867 29.9508L93.3238 36.6732C93.7657 36.3881 94.7237 36.032 96.5953 36.032V28.032ZM89.015 29.9327C86.7754 31.3512 85.2353 33.5993 85.2353 36.512H93.2353C93.2353 36.5066 93.2355 36.5415 93.219 36.6029C93.2022 36.6659 93.1756 36.7274 93.1452 36.778C93.1159 36.8269 93.0971 36.8424 93.1117 36.828C93.1281 36.812 93.1821 36.763 93.2955 36.6913L89.015 29.9327ZM85.2353 36.512C85.2353 37.7956 85.5429 39.1202 86.3086 40.3235C87.068 41.5169 88.1232 42.3481 89.2384 42.9057L92.8161 35.7503C92.7366 35.7106 92.8958 35.7738 93.0579 36.0285C93.1334 36.1472 93.1824 36.2665 93.2097 36.3681C93.2361 36.466 93.2353 36.5203 93.2353 36.512H85.2353ZM89.2384 42.9057C90.8868 43.7299 93.1346 44.3894 95.7345 44.9623L97.456 37.1497C95.0212 36.6132 93.557 36.1208 92.8161 35.7503L89.2384 42.9057ZM95.6097 44.9327C98.032 45.5485 99.889 46.1367 101.236 46.683L104.242 39.269C102.432 38.5353 100.193 37.8435 97.5808 37.1793L95.6097 44.9327ZM101.324 46.7171C102.246 47.0663 103.027 47.6164 103.706 48.4264L109.836 43.2855C108.297 41.4503 106.389 40.0804 104.155 39.2349L101.324 46.7171ZM103.755 48.4831C104.119 48.9006 104.499 49.6513 104.499 51.168H112.499C112.499 48.2473 111.728 45.4567 109.788 43.2289L103.755 48.4831ZM104.499 51.168C104.499 52.6595 103.98 53.8038 102.692 54.8643L107.778 61.0397C110.842 58.5162 112.499 55.1378 112.499 51.168H104.499ZM102.662 54.8892C101.495 55.8696 99.5115 56.64 96.1473 56.64V64.64C100.634 64.64 104.709 63.6184 107.808 61.0148L102.662 54.8892ZM118.007 32.352H122.007V28.352H118.007V32.352ZM112.567 32.032L109.494 34.5927L109.727 34.8721L110.007 35.1049L112.567 32.032ZM112.823 30.048L115.279 33.2054L115.458 33.0663L115.62 32.9078L112.823 30.048ZM121.527 21.536L124.324 24.3958L124.34 24.3802L124.356 24.3644L121.527 21.536ZM123.447 21.344L120.374 23.9047L120.491 24.0441L120.619 24.1724L123.447 21.344ZM123.831 27.36H119.831V31.36H123.831V27.36ZM132.855 28.064L130.027 30.8924L130.027 30.8924L132.855 28.064ZM132.855 31.648L135.684 34.4764L135.745 34.415L135.804 34.3509L132.855 31.648ZM123.831 32.352V28.352H119.831V32.352H123.831ZM124.983 54.88L122.897 58.2931L123.007 58.36L123.12 58.4197L124.983 54.88ZM130.551 55.136L129.581 51.2554L129.491 51.278L129.402 51.3047L130.551 55.136ZM131.063 55.008L130.279 51.0857L130.185 51.1043L130.093 51.1274L131.063 55.008ZM133.431 55.648L130.603 58.4764L130.67 58.5437L130.741 58.6078L133.431 55.648ZM132.663 59.488L134.339 63.1198L134.428 63.0792L134.514 63.0343L132.663 59.488ZM127.351 56.64C124.759 56.64 123.562 56.0454 123.026 55.5609C122.567 55.1456 122.007 54.2816 122.007 52.192H114.007C114.007 55.7344 115.005 59.0944 117.661 61.4951C120.239 63.8266 123.714 64.64 127.351 64.64V56.64ZM122.007 52.192V32.352H114.007V52.192H122.007ZM118.007 28.352H113.463V36.352H118.007V28.352ZM113.463 28.352C113.716 28.352 114.014 28.3928 114.329 28.505C114.644 28.6177 114.913 28.7802 115.128 28.9591L110.007 35.1049C111 35.933 112.211 36.352 113.463 36.352V28.352ZM115.64 29.4713C115.819 29.6859 115.982 29.9551 116.094 30.2707C116.206 30.5849 116.247 30.8833 116.247 31.136H108.247C108.247 32.3883 108.666 33.5991 109.494 34.5927L115.64 29.4713ZM116.247 31.136C116.247 31.5482 116.148 31.997 115.926 32.4155C115.713 32.8184 115.452 33.0709 115.279 33.2054L110.367 26.8906C109.164 27.8266 108.247 29.2911 108.247 31.136H116.247ZM115.62 32.9078L124.324 24.3958L118.731 18.6762L110.027 27.1882L115.62 32.9078ZM124.356 24.3644C124.351 24.369 124.223 24.4995 123.959 24.6392C123.679 24.7871 123.217 24.96 122.615 24.96V16.96C120.732 16.96 119.405 18.0011 118.699 18.7076L124.356 24.3644ZM122.615 24.96C122.276 24.96 121.849 24.8935 121.403 24.6878C120.955 24.4809 120.613 24.1909 120.374 23.9047L126.52 18.7833C125.526 17.59 124.11 16.96 122.615 16.96V24.96ZM120.619 24.1724C120.428 23.9816 120.217 23.7046 120.059 23.3357C119.899 22.9621 119.831 22.5832 119.831 22.24H127.831C127.831 20.7685 127.231 19.4712 126.276 18.5156L120.619 24.1724ZM119.831 22.24V27.36H127.831V22.24H119.831ZM123.831 31.36H131.063V23.36H123.831V31.36ZM131.063 31.36C130.99 31.36 130.817 31.347 130.593 31.259C130.362 31.1683 130.167 31.0331 130.027 30.8924L135.684 25.2356C134.391 23.9428 132.741 23.36 131.063 23.36V31.36ZM130.027 30.8924C129.886 30.7518 129.751 30.5575 129.66 30.3266C129.572 30.1027 129.559 29.9292 129.559 29.856H137.559C137.559 28.1782 136.976 26.5283 135.684 25.2356L130.027 30.8924ZM129.559 29.856C129.559 29.729 129.583 29.5497 129.66 29.3534C129.737 29.1582 129.837 29.0215 129.907 28.9451L135.804 34.3509C136.936 33.1154 137.559 31.5586 137.559 29.856H129.559ZM130.027 28.8196C130.167 28.6789 130.362 28.5437 130.593 28.453C130.817 28.365 130.99 28.352 131.063 28.352V36.352C132.741 36.352 134.391 35.7692 135.684 34.4764L130.027 28.8196ZM131.063 28.352H123.831V36.352H131.063V28.352ZM119.831 32.352V51.68H127.831V32.352H119.831ZM119.831 51.68C119.831 53.5806 120.208 56.6494 122.897 58.2931L127.069 51.4669C127.337 51.6309 127.54 51.8301 127.679 52.016C127.813 52.1939 127.868 52.3311 127.883 52.3731C127.897 52.4133 127.882 52.3844 127.864 52.259C127.847 52.1353 127.831 51.9464 127.831 51.68H119.831ZM123.12 58.4197C124.653 59.2266 126.338 59.52 127.991 59.52V51.52C127.255 51.52 126.934 51.3868 126.846 51.3403L123.12 58.4197ZM127.991 59.52C129.251 59.52 130.491 59.3302 131.701 58.9673L129.402 51.3047C128.905 51.4538 128.438 51.52 127.991 51.52V59.52ZM131.521 59.0166C131.692 58.9739 131.863 58.9312 132.033 58.8886L130.093 51.1274C129.922 51.1701 129.752 51.2128 129.581 51.2554L131.521 59.0166ZM131.848 58.9303C131.813 58.9372 131.788 58.9411 131.772 58.9433C131.764 58.9444 131.757 58.9451 131.753 58.9456C131.75 58.946 131.747 58.9462 131.747 58.9462C131.747 58.9462 131.749 58.946 131.753 58.9458C131.756 58.9456 131.762 58.9453 131.769 58.945C131.783 58.9445 131.804 58.944 131.831 58.944V50.944C131.359 50.944 130.826 50.9763 130.279 51.0857L131.848 58.9303ZM131.831 58.944C131.59 58.944 131.322 58.893 131.068 58.7813C130.822 58.6731 130.671 58.5441 130.603 58.4764L136.26 52.8196C135.132 51.6914 133.612 50.944 131.831 50.944V58.944ZM130.741 58.6078C130.598 58.4781 130.426 58.2689 130.298 57.979C130.171 57.6899 130.135 57.4277 130.135 57.248H138.135C138.135 55.4926 137.434 53.8808 136.122 52.6882L130.741 58.6078ZM130.135 57.248C130.135 57.0379 130.199 56.6901 130.424 56.3473C130.633 56.0301 130.842 55.9266 130.813 55.9417L134.514 63.0343C135.466 62.5374 136.411 61.8046 137.11 60.7407C137.826 59.6513 138.135 58.4395 138.135 57.248H130.135ZM130.987 55.8562C129.862 56.3756 128.664 56.64 127.351 56.64V64.64C129.793 64.64 132.137 64.1364 134.339 63.1198L130.987 55.8562ZM142.455 56.224L139.586 59.0111L139.606 59.0319L139.627 59.0524L142.455 56.224ZM144.887 29.088L147.148 32.3877L147.148 32.3877L144.887 29.088ZM161.591 28.96L159.416 32.3166L159.438 32.3309L159.46 32.3449L161.591 28.96ZM166.839 34.848L163.237 36.587L163.243 36.5993L163.249 36.6116L166.839 34.848ZM167.799 44.896L164.971 42.0676L164.914 42.1241L164.86 42.1829L167.799 44.896ZM143.991 45.728V41.728H139.508L140.017 46.1822L143.991 45.728ZM147.319 52.704L144.666 55.6974L144.666 55.6974L147.319 52.704ZM159.863 54.688L158.893 50.8074L158.878 50.8111L158.864 50.8149L159.863 54.688ZM163.831 53.216L162.042 49.6383L162.042 49.6383L163.831 53.216ZM166.775 53.664L169.478 50.7154L166.775 53.664ZM165.879 57.824L167.845 61.3079L167.861 61.2984L167.878 61.2887L165.879 57.824ZM160.951 59.936L162.063 63.7783L162.063 63.7783L160.951 59.936ZM162.871 40.992V44.992H167.124L166.864 40.7476L162.871 40.992ZM161.207 35.744L157.879 37.9628L157.902 37.9972L157.926 38.0312L161.207 35.744ZM157.687 32.672L155.942 36.2713L155.987 36.2929L156.032 36.3135L157.687 32.672ZM149.111 32.672L150.766 36.3135L150.812 36.2929L150.856 36.2713L149.111 32.672ZM145.591 35.744L148.919 37.9628L148.919 37.9628L145.591 35.744ZM143.991 40.992L139.999 40.7476L139.739 44.992H143.991V40.992ZM154.679 56.64C150.254 56.64 147.3 55.412 145.284 53.3956L139.627 59.0524C143.498 62.924 148.693 64.64 154.679 64.64V56.64ZM145.324 53.4369C143.342 51.3958 142.103 48.3303 142.103 43.68H134.103C134.103 49.7816 135.766 55.0789 139.586 59.0111L145.324 53.4369ZM142.103 43.68C142.103 41.1504 142.564 38.9027 143.437 36.8864L136.097 33.7056C134.752 36.8093 134.103 40.1509 134.103 43.68H142.103ZM143.437 36.8864C144.247 35.0183 145.465 33.5411 147.148 32.3877L142.626 25.7883C139.702 27.7922 137.506 30.4537 136.097 33.7056L143.437 36.8864ZM147.148 32.3877C148.659 31.3525 150.666 30.72 153.399 30.72V22.72C149.391 22.72 145.723 23.6662 142.626 25.7883L147.148 32.3877ZM153.399 30.72C155.903 30.72 157.852 31.3034 159.416 32.3166L163.767 25.6034C160.722 23.6299 157.21 22.72 153.399 22.72V30.72ZM159.46 32.3449C161.123 33.3919 162.365 34.7814 163.237 36.587L170.441 33.109C168.924 29.9652 166.668 27.4295 163.723 25.5751L159.46 32.3449ZM163.249 36.6116C164.155 38.4564 164.631 40.5139 164.631 42.848H172.631C172.631 39.3794 171.913 36.1036 170.429 33.0844L163.249 36.6116ZM164.631 42.848C164.631 42.7891 164.643 42.6451 164.717 42.4625C164.793 42.2772 164.895 42.1434 164.971 42.0676L170.628 47.7244C171.96 46.392 172.631 44.6799 172.631 42.848H164.631ZM164.86 42.1829C165.014 42.0163 165.214 41.8801 165.421 41.7984C165.614 41.7226 165.724 41.728 165.687 41.728V49.728C167.473 49.728 169.328 49.1373 170.738 47.6091L164.86 42.1829ZM165.687 41.728H143.991V49.728H165.687V41.728ZM140.017 46.1822C140.447 49.9444 141.909 53.2539 144.666 55.6974L149.972 49.7106C148.975 48.8261 148.218 47.485 147.965 45.2738L140.017 46.1822ZM144.666 55.6974C147.495 58.2047 151.183 59.2 155.191 59.2V51.2C152.458 51.2 150.898 50.5313 149.972 49.7106L144.666 55.6974ZM155.191 59.2C157.222 59.2 159.13 59.0081 160.863 58.5611L158.864 50.8149C157.951 51.0505 156.744 51.2 155.191 51.2V59.2ZM160.833 58.5686C162.487 58.1553 164.083 57.562 165.62 56.7937L162.042 49.6383C161.019 50.15 159.971 50.5381 158.893 50.8074L160.833 58.5686ZM165.62 56.7937C165.343 56.9321 165.103 56.96 164.983 56.96V48.96C164.01 48.96 163.002 49.1586 162.042 49.6383L165.62 56.7937ZM164.983 56.96C164.856 56.96 164.677 56.9361 164.481 56.859C164.285 56.7823 164.149 56.6826 164.072 56.6126L169.478 50.7154C168.243 49.5829 166.686 48.96 164.983 48.96V56.96ZM164.072 56.6126C163.939 56.4907 163.785 56.2978 163.675 56.0397C163.566 55.7856 163.543 55.572 163.543 55.456H171.543C171.543 53.6656 170.857 51.9795 169.478 50.7154L164.072 56.6126ZM163.543 55.456C163.543 55.2901 163.569 55.1021 163.631 54.9095C163.692 54.7179 163.776 54.564 163.854 54.4522C164.003 54.2413 164.088 54.2394 163.88 54.3593L167.878 61.2887C169.716 60.2282 171.543 58.3283 171.543 55.456H163.543ZM163.914 54.3401C162.485 55.1463 161.127 55.7209 159.839 56.0937L162.063 63.7783C164.018 63.2125 165.946 62.379 167.845 61.3079L163.914 54.3401ZM159.839 56.0937C158.714 56.4193 157.036 56.64 154.679 56.64V64.64C157.443 64.64 159.946 64.3913 162.063 63.7783L159.839 56.0937ZM166.864 40.7476C166.701 38.0854 165.974 35.5879 164.489 33.4568L157.926 38.0312C158.403 38.7161 158.786 39.7173 158.879 41.2364L166.864 40.7476ZM164.535 33.5252C163.223 31.5567 161.493 30.0082 159.342 29.0305L156.032 36.3135C156.697 36.6158 157.314 37.1153 157.879 37.9628L164.535 33.5252ZM159.432 29.0727C157.524 28.1475 155.501 27.648 153.399 27.648V35.648C154.199 35.648 155.035 35.8312 155.942 36.2713L159.432 29.0727ZM153.399 27.648C151.297 27.648 149.275 28.1475 147.366 29.0727L150.856 36.2713C151.764 35.8312 152.6 35.648 153.399 35.648V27.648ZM147.456 29.0305C145.305 30.0082 143.575 31.5567 142.263 33.5252L148.919 37.9628C149.484 37.1153 150.101 36.6158 150.766 36.3135L147.456 29.0305ZM142.263 33.5252C140.849 35.6458 140.16 38.118 139.999 40.7476L147.984 41.2364C148.079 39.6847 148.456 38.6582 148.919 37.9628L142.263 33.5252ZM143.991 44.992H162.871V36.992H143.991V44.992ZM177.169 59.488L179.998 56.6596L179.998 56.6596L177.169 59.488ZM177.169 27.936L179.998 30.7644L180.05 30.7121L180.1 30.6578L177.169 27.936ZM181.265 27.936L178.334 30.6578L178.435 30.7664L178.543 30.8672L181.265 27.936ZM182.161 32.736H178.161V44.8046L185.369 35.1251L182.161 32.736ZM194.513 27.552L191.574 30.2651L191.628 30.3239L191.685 30.3804L194.513 27.552ZM194.513 31.584L191.8 28.6448L191.8 28.6448L194.513 31.584ZM186.449 33.888L188.443 37.3556L188.475 37.3371L188.507 37.318L186.449 33.888ZM182.161 37.984L178.821 35.784L178.161 36.7852V37.984H182.161ZM181.265 59.488L178.543 56.5568L178.489 56.6072L178.437 56.6596L181.265 59.488ZM179.217 56.32C179.276 56.32 179.42 56.3319 179.603 56.4061C179.788 56.4814 179.922 56.5837 179.998 56.6596L174.341 62.3164C175.673 63.6488 177.385 64.32 179.217 64.32V56.32ZM179.998 56.6596C180.074 56.7354 180.176 56.8692 180.251 57.0545C180.325 57.2371 180.337 57.3811 180.337 57.44H172.337C172.337 59.2719 173.008 60.984 174.341 62.3164L179.998 56.6596ZM180.337 57.44V29.984H172.337V57.44H180.337ZM180.337 29.984C180.337 30.0429 180.325 30.1869 180.251 30.3695C180.176 30.5548 180.074 30.6886 179.998 30.7644L174.341 25.1076C173.008 26.44 172.337 28.1521 172.337 29.984H180.337ZM180.1 30.6578C180.04 30.7231 179.907 30.8382 179.701 30.9286C179.493 31.0193 179.315 31.04 179.217 31.04V23.04C177.287 23.04 175.545 23.8069 174.238 25.2142L180.1 30.6578ZM179.217 31.04C179.12 31.04 178.941 31.0193 178.734 30.9286C178.527 30.8382 178.395 30.7231 178.334 30.6578L184.196 25.2142C182.89 23.8069 181.147 23.04 179.217 23.04V31.04ZM178.543 30.8672C178.478 30.8066 178.363 30.6741 178.273 30.4673C178.182 30.26 178.161 30.0815 178.161 29.984H186.161C186.161 28.0541 185.394 26.3116 183.987 25.0048L178.543 30.8672ZM178.161 29.984V32.736H186.161V29.984H178.161ZM185.369 35.1251C187.885 31.7474 190.17 30.72 192.209 30.72V22.72C186.824 22.72 182.411 25.7033 178.953 30.3469L185.369 35.1251ZM192.209 30.72H192.529V22.72H192.209V30.72ZM192.529 30.72C192.472 30.72 192.305 30.7087 192.086 30.6168C191.861 30.5221 191.686 30.3864 191.574 30.2651L197.452 24.8389C196.123 23.3983 194.364 22.72 192.529 22.72V30.72ZM191.685 30.3804C191.609 30.3046 191.507 30.1708 191.431 29.9855C191.357 29.8029 191.345 29.6589 191.345 29.6H199.345C199.345 27.7681 198.674 26.056 197.342 24.7236L191.685 30.3804ZM191.345 29.6C191.345 29.5432 191.357 29.3762 191.448 29.1571C191.543 28.9314 191.679 28.7567 191.8 28.6448L197.226 34.5232C198.667 33.1934 199.345 31.4346 199.345 29.6H191.345ZM191.8 28.6448C191.91 28.5437 192.052 28.4556 192.202 28.4008C192.345 28.349 192.426 28.352 192.401 28.352V36.352C194.119 36.352 195.835 35.8074 197.226 34.5232L191.8 28.6448ZM192.401 28.352H192.081V36.352H192.401V28.352ZM192.081 28.352C189.33 28.352 186.738 29.0498 184.391 30.458L188.507 37.318C189.574 36.6782 190.736 36.352 192.081 36.352V28.352ZM184.455 30.4204C182.172 31.733 180.294 33.547 178.821 35.784L185.502 40.184C186.333 38.9224 187.313 38.0056 188.443 37.3556L184.455 30.4204ZM178.161 37.984V57.44H186.161V37.984H178.161ZM178.161 57.44C178.161 57.3425 178.182 57.164 178.273 56.9567C178.363 56.7499 178.478 56.6174 178.543 56.5568L183.987 62.4192C185.394 61.1124 186.161 59.3699 186.161 57.44H178.161ZM178.437 56.6596C178.513 56.5837 178.646 56.4814 178.832 56.4061C179.014 56.3319 179.158 56.32 179.217 56.32V64.32C181.049 64.32 182.761 63.6488 184.094 62.3164L178.437 56.6596Z" fill="black" mask="url(#path-1-outside-1_9_26)"/>
<path d="M85.0853 87.1616C87.6134 87.4145 89.763 87.6979 91.4756 88C89.763 88.3021 87.6134 88.5855 85.0853 88.8384C77.9314 89.5537 68.001 90 57 90C45.999 90 36.0686 89.5537 28.9147 88.8384C26.3866 88.5855 24.237 88.3021 22.5244 88C24.237 87.6979 26.3866 87.4145 28.9147 87.1616C36.0686 86.4463 45.999 86 57 86C68.001 86 77.9314 86.4463 85.0853 87.1616Z" fill="#DEA38B" stroke="black" stroke-width="4"/>
<path d="M19 88C19 61.4903 36.0132 40 57 40C77.9868 40 95 61.4903 95 88" stroke="black" stroke-width="4" stroke-linecap="round"/>
<path d="M54 84.1818C54 91.1043 52.2858 95.5029 49.8419 98.1592C47.418 100.794 44.0127 102 40 102C35.9873 102 32.582 100.794 30.1581 98.1592C27.7142 95.5029 26 91.1043 26 84.1818C26 77.2529 27.7222 70.5466 30.4367 65.636C33.206 60.6261 36.6803 58 40 58C43.3197 58 46.794 60.6261 49.5633 65.636C52.2778 70.5466 54 77.2529 54 84.1818Z" fill="#F98284" stroke="black" stroke-width="4"/>
<path d="M88 84.1818C88 91.1043 86.2858 95.5029 83.8419 98.1592C81.418 100.794 78.0127 102 74 102C69.9873 102 66.582 100.794 64.1581 98.1592C61.7142 95.5029 60 91.1043 60 84.1818C60 77.2529 61.7222 70.5466 64.4367 65.636C67.206 60.6261 70.6803 58 74 58C77.3197 58 80.794 60.6261 83.5633 65.636C86.2778 70.5466 88 77.2529 88 84.1818Z" fill="#B3E3DA" stroke="black" stroke-width="4"/>
<path d="M71 80.1818C71 87.1043 69.2858 91.5029 66.8419 94.1592C64.418 96.7937 61.0127 98 57 98C52.9873 98 49.582 96.7937 47.1581 94.1592C44.7142 91.5029 43 87.1043 43 80.1818C43 73.2529 44.7222 66.5466 47.4367 61.636C50.206 56.6261 53.6803 54 57 54C60.3197 54 63.794 56.6261 66.5633 61.636C69.2778 66.5466 71 73.2529 71 80.1818Z" fill="#B0EB93" stroke="black" stroke-width="4"/>
<g filter="url(#filter0_i_9_26)">
<path d="M57 120C79.0914 120 97 105.673 97 88C65.4622 91.9757 47.955 91.5745 17 88C17 105.673 34.9086 120 57 120Z" fill="#FFC384"/>
</g>
<path d="M19.1076 90.2534C48.0004 93.5085 65.4208 93.865 94.8901 90.2768C93.4223 105.451 77.4135 118 57 118C36.576 118 20.5613 105.438 19.1076 90.2534Z" stroke="black" stroke-width="4"/>
<mask id="path-10-outside-2_9_26" maskUnits="userSpaceOnUse" x="79" y="68" width="97" height="38" fill="black">
<rect fill="white" x="79" y="68" width="97" height="38"/>
<path d="M85.0589 101.2C84.5522 101.2 84.1256 101.027 83.7789 100.68C83.4322 100.333 83.2589 99.9067 83.2589 99.4V74.72C83.2589 74.2133 83.4322 73.7867 83.7789 73.44C84.1256 73.0667 84.5522 72.88 85.0589 72.88C85.5656 72.88 85.9922 73.0667 86.3389 73.44C86.7122 73.7867 86.8989 74.2133 86.8989 74.72V85.36H102.059V74.72C102.059 74.2133 102.232 73.7867 102.579 73.44C102.926 73.0667 103.352 72.88 103.859 72.88C104.366 72.88 104.792 73.0667 105.139 73.44C105.512 73.7867 105.699 74.2133 105.699 74.72V99.4C105.699 99.9067 105.512 100.333 105.139 100.68C104.792 101.027 104.366 101.2 103.859 101.2C103.352 101.2 102.926 101.027 102.579 100.68C102.232 100.333 102.059 99.9067 102.059 99.4V88.76H86.8989V99.4C86.8989 99.9067 86.7122 100.333 86.3389 100.68C85.9922 101.027 85.5656 101.2 85.0589 101.2ZM119.186 101.4C117.72 101.4 116.44 101.053 115.346 100.36C114.28 99.6667 113.453 98.72 112.866 97.52C112.306 96.32 112.026 95 112.026 93.56V82.2C112.026 81.6933 112.2 81.2667 112.546 80.92C112.92 80.5733 113.36 80.4 113.866 80.4C114.373 80.4 114.8 80.5733 115.146 80.92C115.493 81.2667 115.666 81.6933 115.666 82.2V93.16C115.666 96.4133 117.133 98.04 120.066 98.04C121.4 98.04 122.586 97.6933 123.626 97C124.693 96.3067 125.693 95.3733 126.626 94.2V82.2C126.626 81.6933 126.8 81.2667 127.146 80.92C127.52 80.5733 127.96 80.4 128.466 80.4C128.973 80.4 129.4 80.5733 129.746 80.92C130.093 81.2667 130.266 81.6933 130.266 82.2V99.36C130.266 99.8667 130.093 100.307 129.746 100.68C129.4 101.027 128.973 101.2 128.466 101.2C127.96 101.2 127.52 101.027 127.146 100.68C126.8 100.307 126.626 99.8667 126.626 99.36V97.72C125.613 98.84 124.52 99.7333 123.346 100.4C122.173 101.067 120.786 101.4 119.186 101.4ZM138.401 101.2C137.895 101.2 137.468 101.027 137.121 100.68C136.775 100.333 136.601 99.9067 136.601 99.4V82.24C136.601 81.7333 136.775 81.3067 137.121 80.96C137.468 80.5867 137.895 80.4 138.401 80.4C138.908 80.4 139.335 80.5867 139.681 80.96C140.055 81.3067 140.241 81.7333 140.241 82.24V83.88C141.255 82.76 142.348 81.8667 143.521 81.2C144.695 80.5333 146.081 80.2 147.681 80.2C149.148 80.2 150.415 80.5467 151.481 81.24C152.575 81.9333 153.401 82.88 153.961 84.08C154.548 85.28 154.841 86.6 154.841 88.04V99.4C154.841 99.9067 154.655 100.333 154.281 100.68C153.935 101.027 153.508 101.2 153.001 101.2C152.495 101.2 152.068 101.027 151.721 100.68C151.375 100.333 151.201 99.9067 151.201 99.4V88.44C151.201 85.1867 149.735 83.56 146.801 83.56C145.468 83.56 144.268 83.9067 143.201 84.6C142.161 85.2933 141.175 86.2267 140.241 87.4V99.4C140.241 99.9067 140.055 100.333 139.681 100.68C139.335 101.027 138.908 101.2 138.401 101.2ZM167.548 101.4C163.654 101.4 161.708 99.64 161.708 96.12V83.72H158.868C158.654 83.72 158.468 83.6533 158.308 83.52C158.174 83.36 158.108 83.1733 158.108 82.96C158.108 82.6933 158.228 82.4667 158.468 82.28L163.908 76.96C164.148 76.72 164.374 76.6 164.588 76.6C164.801 76.6 164.974 76.68 165.108 76.84C165.268 77 165.348 77.1867 165.348 77.4V80.6H169.868C170.321 80.6 170.694 80.7467 170.988 81.04C171.281 81.3333 171.428 81.7067 171.428 82.16C171.428 82.5867 171.281 82.96 170.988 83.28C170.694 83.5733 170.321 83.72 169.868 83.72H165.348V95.8C165.348 96.84 165.588 97.5067 166.068 97.8C166.574 98.0667 167.201 98.2 167.948 98.2C168.481 98.2 169.014 98.12 169.548 97.96C169.654 97.9333 169.761 97.9067 169.868 97.88C170.001 97.8533 170.161 97.84 170.348 97.84C170.721 97.84 171.054 97.9867 171.348 98.28C171.641 98.5467 171.788 98.88 171.788 99.28C171.788 99.8933 171.481 100.36 170.868 100.68C169.828 101.16 168.721 101.4 167.548 101.4Z"/>
</mask>
<path d="M85.0589 101.2C84.5522 101.2 84.1256 101.027 83.7789 100.68C83.4322 100.333 83.2589 99.9067 83.2589 99.4V74.72C83.2589 74.2133 83.4322 73.7867 83.7789 73.44C84.1256 73.0667 84.5522 72.88 85.0589 72.88C85.5656 72.88 85.9922 73.0667 86.3389 73.44C86.7122 73.7867 86.8989 74.2133 86.8989 74.72V85.36H102.059V74.72C102.059 74.2133 102.232 73.7867 102.579 73.44C102.926 73.0667 103.352 72.88 103.859 72.88C104.366 72.88 104.792 73.0667 105.139 73.44C105.512 73.7867 105.699 74.2133 105.699 74.72V99.4C105.699 99.9067 105.512 100.333 105.139 100.68C104.792 101.027 104.366 101.2 103.859 101.2C103.352 101.2 102.926 101.027 102.579 100.68C102.232 100.333 102.059 99.9067 102.059 99.4V88.76H86.8989V99.4C86.8989 99.9067 86.7122 100.333 86.3389 100.68C85.9922 101.027 85.5656 101.2 85.0589 101.2ZM119.186 101.4C117.72 101.4 116.44 101.053 115.346 100.36C114.28 99.6667 113.453 98.72 112.866 97.52C112.306 96.32 112.026 95 112.026 93.56V82.2C112.026 81.6933 112.2 81.2667 112.546 80.92C112.92 80.5733 113.36 80.4 113.866 80.4C114.373 80.4 114.8 80.5733 115.146 80.92C115.493 81.2667 115.666 81.6933 115.666 82.2V93.16C115.666 96.4133 117.133 98.04 120.066 98.04C121.4 98.04 122.586 97.6933 123.626 97C124.693 96.3067 125.693 95.3733 126.626 94.2V82.2C126.626 81.6933 126.8 81.2667 127.146 80.92C127.52 80.5733 127.96 80.4 128.466 80.4C128.973 80.4 129.4 80.5733 129.746 80.92C130.093 81.2667 130.266 81.6933 130.266 82.2V99.36C130.266 99.8667 130.093 100.307 129.746 100.68C129.4 101.027 128.973 101.2 128.466 101.2C127.96 101.2 127.52 101.027 127.146 100.68C126.8 100.307 126.626 99.8667 126.626 99.36V97.72C125.613 98.84 124.52 99.7333 123.346 100.4C122.173 101.067 120.786 101.4 119.186 101.4ZM138.401 101.2C137.895 101.2 137.468 101.027 137.121 100.68C136.775 100.333 136.601 99.9067 136.601 99.4V82.24C136.601 81.7333 136.775 81.3067 137.121 80.96C137.468 80.5867 137.895 80.4 138.401 80.4C138.908 80.4 139.335 80.5867 139.681 80.96C140.055 81.3067 140.241 81.7333 140.241 82.24V83.88C141.255 82.76 142.348 81.8667 143.521 81.2C144.695 80.5333 146.081 80.2 147.681 80.2C149.148 80.2 150.415 80.5467 151.481 81.24C152.575 81.9333 153.401 82.88 153.961 84.08C154.548 85.28 154.841 86.6 154.841 88.04V99.4C154.841 99.9067 154.655 100.333 154.281 100.68C153.935 101.027 153.508 101.2 153.001 101.2C152.495 101.2 152.068 101.027 151.721 100.68C151.375 100.333 151.201 99.9067 151.201 99.4V88.44C151.201 85.1867 149.735 83.56 146.801 83.56C145.468 83.56 144.268 83.9067 143.201 84.6C142.161 85.2933 141.175 86.2267 140.241 87.4V99.4C140.241 99.9067 140.055 100.333 139.681 100.68C139.335 101.027 138.908 101.2 138.401 101.2ZM167.548 101.4C163.654 101.4 161.708 99.64 161.708 96.12V83.72H158.868C158.654 83.72 158.468 83.6533 158.308 83.52C158.174 83.36 158.108 83.1733 158.108 82.96C158.108 82.6933 158.228 82.4667 158.468 82.28L163.908 76.96C164.148 76.72 164.374 76.6 164.588 76.6C164.801 76.6 164.974 76.68 165.108 76.84C165.268 77 165.348 77.1867 165.348 77.4V80.6H169.868C170.321 80.6 170.694 80.7467 170.988 81.04C171.281 81.3333 171.428 81.7067 171.428 82.16C171.428 82.5867 171.281 82.96 170.988 83.28C170.694 83.5733 170.321 83.72 169.868 83.72H165.348V95.8C165.348 96.84 165.588 97.5067 166.068 97.8C166.574 98.0667 167.201 98.2 167.948 98.2C168.481 98.2 169.014 98.12 169.548 97.96C169.654 97.9333 169.761 97.9067 169.868 97.88C170.001 97.8533 170.161 97.84 170.348 97.84C170.721 97.84 171.054 97.9867 171.348 98.28C171.641 98.5467 171.788 98.88 171.788 99.28C171.788 99.8933 171.481 100.36 170.868 100.68C169.828 101.16 168.721 101.4 167.548 101.4Z" fill="white"/>
<path d="M83.7789 100.68L86.6073 97.8516L86.6073 97.8516L83.7789 100.68ZM83.7789 73.44L86.6073 76.2684L86.6597 76.2161L86.7101 76.1618L83.7789 73.44ZM86.3389 73.44L83.4077 76.1618L83.5085 76.2704L83.6171 76.3712L86.3389 73.44ZM86.8989 85.36H82.8989V89.36H86.8989V85.36ZM102.059 85.36V89.36H106.059V85.36H102.059ZM102.579 73.44L105.407 76.2684L105.46 76.2161L105.51 76.1618L102.579 73.44ZM105.139 73.44L102.208 76.1618L102.309 76.2704L102.417 76.3712L105.139 73.44ZM105.139 100.68L102.417 97.7488L102.363 97.7992L102.31 97.8516L105.139 100.68ZM102.579 100.68L99.7505 103.508L99.7505 103.508L102.579 100.68ZM102.059 88.76H106.059V84.76H102.059V88.76ZM86.8989 88.76V84.76H82.8989V88.76H86.8989ZM86.3389 100.68L83.6171 97.7488L83.5628 97.7992L83.5105 97.8516L86.3389 100.68ZM85.0589 97.2C85.2698 97.2 85.5538 97.2379 85.8644 97.3641C86.1777 97.4914 86.4275 97.6717 86.6073 97.8516L80.9505 103.508C82.0749 104.633 83.531 105.2 85.0589 105.2V97.2ZM86.6073 97.8516C86.7872 98.0314 86.9675 98.2812 87.0948 98.5945C87.221 98.9051 87.2589 99.1891 87.2589 99.4H79.2589C79.2589 100.928 79.8261 102.384 80.9505 103.508L86.6073 97.8516ZM87.2589 99.4V74.72H79.2589V99.4H87.2589ZM87.2589 74.72C87.2589 74.9309 87.221 75.2149 87.0948 75.5255C86.9675 75.8388 86.7872 76.0886 86.6073 76.2684L80.9505 70.6116C79.8261 71.736 79.2589 73.1921 79.2589 74.72H87.2589ZM86.7101 76.1618C86.5455 76.3391 86.297 76.5382 85.9622 76.6846C85.6269 76.8313 85.3084 76.88 85.0589 76.88V68.88C83.433 68.88 81.9465 69.5349 80.8477 70.7182L86.7101 76.1618ZM85.0589 76.88C84.8094 76.88 84.4909 76.8313 84.1556 76.6846C83.8209 76.5382 83.5723 76.3391 83.4077 76.1618L89.2701 70.7182C88.1713 69.5349 86.6848 68.88 85.0589 68.88V76.88ZM83.6171 76.3712C83.4398 76.2066 83.2407 75.9581 83.0943 75.6233C82.9476 75.288 82.8989 74.9695 82.8989 74.72H90.8989C90.8989 73.0941 90.244 71.6076 89.0607 70.5088L83.6171 76.3712ZM82.8989 74.72V85.36H90.8989V74.72H82.8989ZM86.8989 89.36H102.059V81.36H86.8989V89.36ZM106.059 85.36V74.72H98.0589V85.36H106.059ZM106.059 74.72C106.059 74.9309 106.021 75.2149 105.895 75.5255C105.768 75.8388 105.587 76.0886 105.407 76.2684L99.7505 70.6116C98.6261 71.736 98.0589 73.1921 98.0589 74.72H106.059ZM105.51 76.1618C105.345 76.3391 105.097 76.5382 104.762 76.6846C104.427 76.8313 104.108 76.88 103.859 76.88V68.88C102.233 68.88 100.746 69.5349 99.6477 70.7182L105.51 76.1618ZM103.859 76.88C103.609 76.88 103.291 76.8313 102.956 76.6846C102.621 76.5382 102.372 76.3391 102.208 76.1618L108.07 70.7182C106.971 69.5349 105.485 68.88 103.859 68.88V76.88ZM102.417 76.3712C102.24 76.2066 102.041 75.9581 101.894 75.6233C101.748 75.288 101.699 74.9695 101.699 74.72H109.699C109.699 73.0941 109.044 71.6076 107.861 70.5088L102.417 76.3712ZM101.699 74.72V99.4H109.699V74.72H101.699ZM101.699 99.4C101.699 99.1505 101.748 98.832 101.894 98.4967C102.041 98.1619 102.24 97.9134 102.417 97.7488L107.861 103.611C109.044 102.512 109.699 101.026 109.699 99.4H101.699ZM102.31 97.8516C102.49 97.6717 102.74 97.4914 103.053 97.3641C103.364 97.2379 103.648 97.2 103.859 97.2V105.2C105.387 105.2 106.843 104.633 107.967 103.508L102.31 97.8516ZM103.859 97.2C104.07 97.2 104.354 97.2379 104.664 97.3641C104.978 97.4914 105.227 97.6717 105.407 97.8516L99.7505 103.508C100.875 104.633 102.331 105.2 103.859 105.2V97.2ZM105.407 97.8516C105.587 98.0314 105.768 98.2812 105.895 98.5945C106.021 98.9051 106.059 99.1891 106.059 99.4H98.0589C98.0589 100.928 98.6261 102.384 99.7505 103.508L105.407 97.8516ZM106.059 99.4V88.76H98.0589V99.4H106.059ZM102.059 84.76H86.8989V92.76H102.059V84.76ZM82.8989 88.76V99.4H90.8989V88.76H82.8989ZM82.8989 99.4C82.8989 99.1505 82.9476 98.832 83.0943 98.4967C83.2407 98.1619 83.4398 97.9134 83.6171 97.7488L89.0607 103.611C90.244 102.512 90.8989 101.026 90.8989 99.4H82.8989ZM83.5105 97.8516C83.6903 97.6717 83.9402 97.4914 84.2534 97.3641C84.564 97.2379 84.848 97.2 85.0589 97.2V105.2C86.5868 105.2 88.0429 104.633 89.1673 103.508L83.5105 97.8516ZM115.346 100.36L113.166 103.714L113.185 103.726L113.204 103.738L115.346 100.36ZM112.866 97.52L109.242 99.2115L109.257 99.2443L109.273 99.2768L112.866 97.52ZM112.546 80.92L109.825 77.9888L109.77 78.0392L109.718 78.0916L112.546 80.92ZM115.146 80.92L117.975 78.0916L115.146 80.92ZM123.626 97L121.446 93.6462L121.427 93.6589L121.408 93.6718L123.626 97ZM126.626 94.2L129.757 96.6901L130.626 95.5969V94.2H126.626ZM127.146 80.92L124.425 77.9888L124.37 78.0392L124.318 78.0916L127.146 80.92ZM129.746 80.92L132.575 78.0916L129.746 80.92ZM129.746 100.68L132.575 103.508L132.627 103.456L132.678 103.402L129.746 100.68ZM127.146 100.68L124.215 103.402L124.316 103.51L124.425 103.611L127.146 100.68ZM126.626 97.72H130.626V87.3369L123.66 95.0363L126.626 97.72ZM123.346 100.4L125.322 103.878L123.346 100.4ZM119.186 97.4C118.375 97.4 117.859 97.2169 117.489 96.982L113.204 103.738C115.02 104.89 117.065 105.4 119.186 105.4V97.4ZM117.526 97.0062C117.098 96.7275 116.745 96.3466 116.46 95.7632L109.273 99.2768C110.161 101.093 111.462 102.606 113.166 103.714L117.526 97.0062ZM116.491 95.8285C116.199 95.2031 116.026 94.4673 116.026 93.56H108.026C108.026 95.5327 108.413 97.4369 109.242 99.2115L116.491 95.8285ZM116.026 93.56V82.2H108.026V93.56H116.026ZM116.026 82.2C116.026 82.4109 115.988 82.6949 115.862 83.0055C115.735 83.3188 115.555 83.5686 115.375 83.7484L109.718 78.0916C108.594 79.216 108.026 80.6721 108.026 82.2H116.026ZM115.268 83.8512C115.118 83.9909 114.902 84.1417 114.623 84.2516C114.343 84.3617 114.079 84.4 113.866 84.4V76.4C112.344 76.4 110.933 76.9594 109.825 77.9888L115.268 83.8512ZM113.866 84.4C113.655 84.4 113.372 84.3621 113.061 84.2359C112.748 84.1086 112.498 83.9283 112.318 83.7484L117.975 78.0916C116.85 76.9672 115.394 76.4 113.866 76.4V84.4ZM112.318 83.7484C112.138 83.5686 111.958 83.3188 111.831 83.0055C111.704 82.6949 111.666 82.4109 111.666 82.2H119.666C119.666 80.6721 119.099 79.216 117.975 78.0916L112.318 83.7484ZM111.666 82.2V93.16H119.666V82.2H111.666ZM111.666 93.16C111.666 95.3068 112.141 97.6638 113.796 99.4985C115.521 101.412 117.87 102.04 120.066 102.04V94.04C119.693 94.04 119.539 93.987 119.528 93.9832C119.526 93.9824 119.555 93.993 119.601 94.0237C119.648 94.055 119.696 94.0956 119.737 94.1415C119.826 94.2402 119.813 94.2793 119.772 94.1437C119.727 93.9938 119.666 93.6856 119.666 93.16H111.666ZM120.066 102.04C122.134 102.04 124.104 101.489 125.845 100.328L121.408 93.6718C121.069 93.8974 120.665 94.04 120.066 94.04V102.04ZM125.806 100.354C127.292 99.388 128.602 98.142 129.757 96.6901L123.496 91.7099C122.784 92.6047 122.094 93.2253 121.446 93.6462L125.806 100.354ZM130.626 94.2V82.2H122.626V94.2H130.626ZM130.626 82.2C130.626 82.4109 130.588 82.6949 130.462 83.0055C130.335 83.3188 130.155 83.5686 129.975 83.7484L124.318 78.0916C123.194 79.216 122.626 80.6721 122.626 82.2H130.626ZM129.868 83.8512C129.718 83.9909 129.502 84.1417 129.223 84.2516C128.943 84.3617 128.679 84.4 128.466 84.4V76.4C126.944 76.4 125.533 76.9594 124.425 77.9888L129.868 83.8512ZM128.466 84.4C128.255 84.4 127.972 84.3621 127.661 84.2359C127.348 84.1086 127.098 83.9283 126.918 83.7484L132.575 78.0916C131.45 76.9672 129.994 76.4 128.466 76.4V84.4ZM126.918 83.7484C126.738 83.5686 126.558 83.3188 126.431 83.0055C126.304 82.6949 126.266 82.4109 126.266 82.2H134.266C134.266 80.6721 133.699 79.216 132.575 78.0916L126.918 83.7484ZM126.266 82.2V99.36H134.266V82.2H126.266ZM126.266 99.36C126.266 99.1476 126.305 98.8833 126.415 98.6039C126.525 98.3249 126.675 98.1087 126.815 97.9582L132.678 103.402C133.707 102.293 134.266 100.883 134.266 99.36H126.266ZM126.918 97.8516C127.098 97.6717 127.348 97.4914 127.661 97.3641C127.972 97.2379 128.255 97.2 128.466 97.2V105.2C129.994 105.2 131.45 104.633 132.575 103.508L126.918 97.8516ZM128.466 97.2C128.679 97.2 128.943 97.2383 129.223 97.3484C129.502 97.4583 129.718 97.6091 129.868 97.7488L124.425 103.611C125.533 104.641 126.944 105.2 128.466 105.2V97.2ZM130.078 97.9582C130.217 98.1087 130.368 98.3249 130.478 98.6039C130.588 98.8833 130.626 99.1476 130.626 99.36H122.626C122.626 100.883 123.186 102.293 124.215 103.402L130.078 97.9582ZM130.626 99.36V97.72H122.626V99.36H130.626ZM123.66 95.0363C122.899 95.8778 122.132 96.4893 121.37 96.9222L125.322 103.878C126.907 102.977 128.327 101.802 129.593 100.404L123.66 95.0363ZM121.37 96.9222C120.902 97.1881 120.223 97.4 119.186 97.4V105.4C121.35 105.4 123.444 104.945 125.322 103.878L121.37 96.9222ZM137.121 100.68L139.95 97.8516L139.95 97.8516L137.121 100.68ZM137.121 80.96L139.95 83.7884L140.002 83.7361L140.053 83.6818L137.121 80.96ZM139.681 80.96L136.75 83.6818L136.851 83.7904L136.96 83.8912L139.681 80.96ZM140.241 83.88H136.241V94.2631L143.208 86.5637L140.241 83.88ZM143.521 81.2L145.497 84.6778L143.521 81.2ZM151.481 81.24L149.301 84.5938L149.32 84.606L149.339 84.618L151.481 81.24ZM153.961 84.08L150.337 85.7715L150.352 85.8043L150.368 85.8368L153.961 84.08ZM154.281 100.68L151.56 97.7488L151.505 97.7992L151.453 97.8516L154.281 100.68ZM151.721 100.68L148.893 103.508L148.893 103.508L151.721 100.68ZM143.201 84.6L141.021 81.2462L141.002 81.2589L140.983 81.2718L143.201 84.6ZM140.241 87.4L137.111 84.9099L136.241 86.0031V87.4H140.241ZM139.681 100.68L136.96 97.7488L136.905 97.7992L136.853 97.8516L139.681 100.68ZM138.401 97.2C138.612 97.2 138.896 97.2379 139.207 97.3641C139.52 97.4914 139.77 97.6717 139.95 97.8516L134.293 103.508C135.417 104.633 136.874 105.2 138.401 105.2V97.2ZM139.95 97.8516C140.13 98.0314 140.31 98.2812 140.437 98.5945C140.563 98.9051 140.601 99.1891 140.601 99.4H132.601C132.601 100.928 133.169 102.384 134.293 103.508L139.95 97.8516ZM140.601 99.4V82.24H132.601V99.4H140.601ZM140.601 82.24C140.601 82.4509 140.563 82.7349 140.437 83.0455C140.31 83.3588 140.13 83.6086 139.95 83.7884L134.293 78.1316C133.169 79.256 132.601 80.7121 132.601 82.24H140.601ZM140.053 83.6818C139.888 83.8591 139.639 84.0582 139.305 84.2046C138.969 84.3513 138.651 84.4 138.401 84.4V76.4C136.775 76.4 135.289 77.0549 134.19 78.2382L140.053 83.6818ZM138.401 84.4C138.152 84.4 137.833 84.3513 137.498 84.2046C137.163 84.0582 136.915 83.8591 136.75 83.6818L142.613 78.2382C141.514 77.0549 140.027 76.4 138.401 76.4V84.4ZM136.96 83.8912C136.782 83.7266 136.583 83.4781 136.437 83.1433C136.29 82.808 136.241 82.4895 136.241 82.24H144.241C144.241 80.6141 143.586 79.1276 142.403 78.0288L136.96 83.8912ZM136.241 82.24V83.88H144.241V82.24H136.241ZM143.208 86.5637C143.969 85.7222 144.736 85.1107 145.497 84.6778L141.545 77.7222C139.961 78.6226 138.541 79.7978 137.275 81.1963L143.208 86.5637ZM145.497 84.6778C145.965 84.4119 146.645 84.2 147.681 84.2V76.2C145.518 76.2 143.424 76.6547 141.545 77.7222L145.497 84.6778ZM147.681 84.2C148.495 84.2 148.978 84.3837 149.301 84.5938L153.661 77.8862C151.851 76.7096 149.801 76.2 147.681 76.2V84.2ZM149.339 84.618C149.772 84.8925 150.092 85.247 150.337 85.7715L157.586 82.3885C156.711 80.513 155.377 78.9742 153.624 77.862L149.339 84.618ZM150.368 85.8368C150.667 86.4479 150.841 87.1604 150.841 88.04H158.841C158.841 86.0395 158.43 84.1121 157.555 82.3232L150.368 85.8368ZM150.841 88.04V99.4H158.841V88.04H150.841ZM150.841 99.4C150.841 99.1505 150.89 98.832 151.037 98.4967C151.183 98.1619 151.382 97.9134 151.56 97.7488L157.003 103.611C158.186 102.512 158.841 101.026 158.841 99.4H150.841ZM151.453 97.8516C151.633 97.6717 151.883 97.4914 152.196 97.3641C152.507 97.2379 152.79 97.2 153.001 97.2V105.2C154.529 105.2 155.985 104.633 157.11 103.508L151.453 97.8516ZM153.001 97.2C153.212 97.2 153.496 97.2379 153.807 97.3641C154.12 97.4914 154.37 97.6717 154.55 97.8516L148.893 103.508C150.017 104.633 151.474 105.2 153.001 105.2V97.2ZM154.55 97.8516C154.73 98.0314 154.91 98.2812 155.037 98.5945C155.163 98.9051 155.201 99.1891 155.201 99.4H147.201C147.201 100.928 147.769 102.384 148.893 103.508L154.55 97.8516ZM155.201 99.4V88.44H147.201V99.4H155.201ZM155.201 88.44C155.201 86.2932 154.726 83.9362 153.072 82.1015C151.347 80.188 148.998 79.56 146.801 79.56V87.56C147.175 87.56 147.329 87.613 147.339 87.6168C147.341 87.6176 147.313 87.607 147.267 87.5763C147.22 87.545 147.172 87.5044 147.131 87.4585C147.042 87.3598 147.055 87.3207 147.096 87.4563C147.141 87.6062 147.201 87.9144 147.201 88.44H155.201ZM146.801 79.56C144.733 79.56 142.769 80.1103 141.021 81.2462L145.381 87.9538C145.767 87.703 146.203 87.56 146.801 87.56V79.56ZM140.983 81.2718C139.536 82.2361 138.253 83.4743 137.111 84.9099L143.372 89.8901C144.097 88.979 144.787 88.3506 145.42 87.9282L140.983 81.2718ZM136.241 87.4V99.4H144.241V87.4H136.241ZM136.241 99.4C136.241 99.1505 136.29 98.832 136.437 98.4967C136.583 98.1619 136.782 97.9134 136.96 97.7488L142.403 103.611C143.586 102.512 144.241 101.026 144.241 99.4H136.241ZM136.853 97.8516C137.033 97.6717 137.283 97.4914 137.596 97.3641C137.907 97.2379 138.19 97.2 138.401 97.2V105.2C139.929 105.2 141.385 104.633 142.51 103.508L136.853 97.8516ZM161.708 83.72H165.708V79.72H161.708V83.72ZM158.308 83.52L155.235 86.0807L155.468 86.3601L155.747 86.5929L158.308 83.52ZM158.468 82.28L160.923 85.4374L161.102 85.2983L161.264 85.1398L158.468 82.28ZM163.908 76.96L166.704 79.8198L166.72 79.8042L166.736 79.7884L163.908 76.96ZM165.108 76.84L162.035 79.4007L162.151 79.5401L162.279 79.6684L165.108 76.84ZM165.348 80.6H161.348V84.6H165.348V80.6ZM170.988 81.04L168.159 83.8684L168.159 83.8684L170.988 81.04ZM170.988 83.28L173.816 86.1084L173.878 86.047L173.936 85.9829L170.988 83.28ZM165.348 83.72V79.72H161.348V83.72H165.348ZM166.068 97.8L163.982 101.213L164.091 101.28L164.205 101.34L166.068 97.8ZM169.548 97.96L168.578 94.0794L168.487 94.102L168.398 94.1287L169.548 97.96ZM169.868 97.88L169.083 93.9577L168.99 93.9763L168.898 93.9994L169.868 97.88ZM171.348 98.28L168.519 101.108L168.587 101.176L168.657 101.24L171.348 98.28ZM170.868 100.68L172.544 104.312L172.632 104.271L172.718 104.226L170.868 100.68ZM167.548 97.4C166.124 97.4 165.802 97.0694 165.85 97.1129C165.975 97.2256 165.708 97.1536 165.708 96.12H157.708C157.708 98.6064 158.414 101.174 160.485 103.047C162.48 104.851 165.078 105.4 167.548 105.4V97.4ZM165.708 96.12V83.72H157.708V96.12H165.708ZM161.708 79.72H158.868V87.72H161.708V79.72ZM158.868 79.72C159.184 79.72 159.543 79.7708 159.913 79.903C160.285 80.0357 160.606 80.2282 160.868 80.4471L155.747 86.5929C156.645 87.341 157.743 87.72 158.868 87.72V79.72ZM161.381 80.9593C161.599 81.2219 161.792 81.5431 161.925 81.9147C162.057 82.2849 162.108 82.6433 162.108 82.96H154.108C154.108 84.0843 154.487 85.1831 155.235 86.0807L161.381 80.9593ZM162.108 82.96C162.108 83.4522 161.99 83.975 161.733 84.4616C161.484 84.9324 161.168 85.2469 160.923 85.4374L156.012 79.1226C154.953 79.9466 154.108 81.2751 154.108 82.96H162.108ZM161.264 85.1398L166.704 79.8198L161.111 74.1002L155.671 79.4202L161.264 85.1398ZM166.736 79.7884C166.654 79.8709 165.916 80.6 164.588 80.6V72.6C162.832 72.6 161.642 73.5691 161.079 74.1316L166.736 79.7884ZM164.588 80.6C164.184 80.6 163.699 80.5215 163.201 80.2918C162.701 80.0609 162.313 79.7349 162.035 79.4007L168.181 74.2793C167.266 73.182 165.955 72.6 164.588 72.6V80.6ZM162.279 79.6684C162.04 79.4296 161.793 79.1006 161.611 78.6757C161.427 78.2461 161.348 77.8072 161.348 77.4H169.348C169.348 76.0565 168.796 74.8712 167.936 74.0116L162.279 79.6684ZM161.348 77.4V80.6H169.348V77.4H161.348ZM165.348 84.6H169.868V76.6H165.348V84.6ZM169.868 84.6C169.658 84.6 169.361 84.565 169.025 84.433C168.682 84.2983 168.388 84.0971 168.159 83.8684L173.816 78.2116C172.699 77.0948 171.273 76.6 169.868 76.6V84.6ZM168.159 83.8684C167.931 83.6398 167.729 83.3455 167.595 83.0026C167.463 82.6667 167.428 82.3692 167.428 82.16H175.428C175.428 80.7542 174.933 79.3283 173.816 78.2116L168.159 83.8684ZM167.428 82.16C167.428 81.905 167.474 81.6057 167.595 81.2974C167.715 80.9902 167.881 80.7495 168.039 80.5771L173.936 85.9829C174.893 84.9394 175.428 83.6066 175.428 82.16H167.428ZM168.159 80.4516C168.388 80.2229 168.682 80.0217 169.025 79.887C169.361 79.755 169.658 79.72 169.868 79.72V87.72C171.273 87.72 172.699 87.2252 173.816 86.1084L168.159 80.4516ZM169.868 79.72H165.348V87.72H169.868V79.72ZM161.348 83.72V95.8H169.348V83.72H161.348ZM161.348 95.8C161.348 97.0766 161.58 99.7454 163.982 101.213L168.153 94.3869C168.874 94.8275 169.184 95.4285 169.291 95.7251C169.383 95.9788 169.348 96.0541 169.348 95.8H161.348ZM164.205 101.34C165.434 101.987 166.743 102.2 167.948 102.2V94.2C167.88 94.2 167.83 94.1969 167.797 94.1937C167.764 94.1905 167.749 94.1873 167.75 94.1876C167.754 94.1883 167.823 94.2038 167.931 94.2603L164.205 101.34ZM167.948 102.2C168.887 102.2 169.807 102.058 170.697 101.791L168.398 94.1287C168.221 94.1818 168.075 94.2 167.948 94.2V102.2ZM170.518 101.841C170.624 101.814 170.731 101.787 170.838 101.761L168.898 93.9994C168.791 94.0261 168.684 94.0528 168.578 94.0794L170.518 101.841ZM170.652 101.802C170.546 101.824 170.465 101.832 170.42 101.836C170.373 101.84 170.348 101.84 170.348 101.84V93.84C169.988 93.84 169.55 93.8643 169.083 93.9577L170.652 101.802ZM170.348 101.84C169.994 101.84 169.621 101.767 169.267 101.611C168.921 101.459 168.675 101.264 168.519 101.108L174.176 95.4516C173.224 94.4994 171.904 93.84 170.348 93.84V101.84ZM168.657 101.24C168.426 101.03 168.188 100.731 168.016 100.341C167.845 99.9519 167.788 99.5797 167.788 99.28H175.788C175.788 97.7646 175.174 96.3528 174.038 95.3202L168.657 101.24ZM167.788 99.28C167.788 98.8859 167.898 98.3761 168.215 97.8933C168.515 97.4361 168.862 97.2146 169.017 97.1337L172.718 104.226C173.486 103.825 174.293 103.211 174.9 102.287C175.524 101.337 175.788 100.287 175.788 99.28H167.788ZM169.191 97.0482C168.69 97.2796 168.157 97.4 167.548 97.4V105.4C169.285 105.4 170.965 105.04 172.544 104.312L169.191 97.0482Z" fill="black" mask="url(#path-10-outside-2_9_26)"/>
<defs>
<filter id="filter0_i_9_26" x="17" y="88" width="80" height="36" filterUnits="userSpaceOnUse" color-interpolation-filters="sRGB">
<feFlood flood-opacity="0" result="BackgroundImageFix"/>
<feBlend mode="normal" in="SourceGraphic" in2="BackgroundImageFix" result="shape"/>
<feColorMatrix in="SourceAlpha" type="matrix" values="0 0 0 0 0 0 0 0 0 0 0 0 0 0 0 0 0 0 127 0" result="hardAlpha"/>
<feOffset dy="4"/>
<feGaussianBlur stdDeviation="2"/>
<feComposite in2="hardAlpha" operator="arithmetic" k2="-1" k3="1"/>
<feColorMatrix type="matrix" values="0 0 0 0 0 0 0 0 0 0 0 0 0 0 0 0 0 0 0.25 0"/>
<feBlend mode="normal" in2="shape" result="effect1_innerShadow_9_26"/>
</filter>
</defs>
</svg>
