<svg width="1536" height="768" viewBox="0 0 1536 768" fill="none" xmlns="http://www.w3.org/2000/svg">
<rect width="768" height="768" fill="#F0F0F0"/>
<rect x="768" width="768" height="768" fill="#F0F0F0"/>
<rect width="128" height="128" fill="#E8E8E8"/>
<rect x="256" width="128" height="128" fill="#E8E8E8"/>
<rect x="512" width="128" height="128" fill="#E8E8E8"/>
<rect x="128" y="128" width="128" height="128" fill="#E8E8E8"/>
<rect x="384" y="128" width="128" height="128" fill="#E8E8E8"/>
<rect x="640" y="128" width="128" height="128" fill="#E8E8E8"/>
<rect y="256" width="128" height="128" fill="#E8E8E8"/>
<rect x="256" y="256" width="128" height="128" fill="#E8E8E8"/>
<rect x="512" y="256" width="128" height="128" fill="#E8E8E8"/>
<rect x="128" y="384" width="128" height="128" fill="#E8E8E8"/>
<rect x="384" y="384" width="128" height="128" fill="#E8E8E8"/>
<rect x="640" y="384" width="128" height="128" fill="#E8E8E8"/>
<rect y="512" width="128" height="128" fill="#E8E8E8"/>
<rect x="256" y="512" width="128" height="128" fill="#E8E8E8"/>
<rect x="512" y="512" width="128" height="128" fill="#E8E8E8"/>
<rect x="128" y="640" width="128" height="128" fill="#E8E8E8"/>
<rect x="384" y="640" width="128" height="128" fill="#E8E8E8"/>
<rect x="640" y="640" width="128" height="128" fill="#E8E8E8"/>
<rect x="768" width="128" height="128" fill="#E8E8E8"/>
<rect x="1024" width="128" height="128" fill="#E8E8E8"/>
<rect x="1280" width="128" height="128" fill="#E8E8E8"/>
<rect x="896" y="128" width="128" height="128" fill="#E8E8E8"/>
<rect x="1152" y="128" width="128" height="128" fill="#E8E8E8"/>
<rect x="1408" y="128" width="128" height="128" fill="#E8E8E8"/>
<rect x="768" y="256" width="128" height="128" fill="#E8E8E8"/>
<rect x="1024" y="256" width="128" height="128" fill="#E8E8E8"/>
<rect x="1280" y="256" width="128" height="128" fill="#E8E8E8"/>
<rect x="896" y="384" width="128" height="128" fill="#E8E8E8"/>
<rect x="1152" y="384" width="128" height="128" fill="#E8E8E8"/>
<rect x="1408" y="384" width="128" height="128" fill="#E8E8E8"/>
<rect x="768" y="512" width="128" height="128" fill="#E8E8E8"/>
<rect x="1024" y="512" width="128" height="128" fill="#E8E8E8"/>
<rect x="1280" y="512" width="128" height="128" fill="#E8E8E8"/>
<rect x="896" y="640" width="128" height="128" fill="#E8E8E8"/>
<rect x="1152" y="640" width="128" height="128" fill="#E8E8E8"/>
<rect x="1408" y="640" width="128" height="128" fill="#E8E8E8"/>
</svg>
